<svg xmlns:xlink="http://www.w3.org/1999/xlink" xmlns="http://www.w3.org/2000/svg" width="138" height="44" viewBox="0 0 138 44" fill="none">
<rect width="137.192" height="44" rx="10" fill="#05060F"/>
<path d="M32.6237 21.7999C32.5961 18.8 35.143 17.3405 35.2595 17.2726C33.817 15.2221 31.5813 14.942 30.7956 14.9196C28.9178 14.7269 27.0964 16.0151 26.1399 16.0151C25.1642 16.0151 23.6912 14.9382 22.1037 14.9699C20.0607 15.0006 18.1496 16.1538 17.1014 17.9446C14.9382 21.596 16.5515 26.9619 18.624 29.9134C19.6608 31.3589 20.8722 32.9728 22.4578 32.916C24.0091 32.8537 24.5886 31.9518 26.4606 31.9518C28.3155 31.9518 28.8596 32.916 30.4768 32.8797C32.1417 32.8537 33.1898 31.4277 34.1903 29.9692C35.3884 28.3125 35.8695 26.6808 35.8886 26.597C35.8495 26.584 32.6552 25.3954 32.6237 21.7999Z" fill="white"/>
<path d="M29.5689 12.978C30.4033 11.9607 30.9741 10.5766 30.8157 9.17212C29.608 9.22424 28.0978 9.98654 27.2281 10.9815C26.4587 11.8583 25.7714 13.2954 25.9489 14.6469C27.3055 14.7456 28.6983 13.9795 29.5689 12.978Z" fill="white"/>
<path d="M55.0736 32.7065H52.9056L51.718 29.0681H47.5902L46.459 32.7065H44.3483L48.4379 20.3198H50.9639L55.0736 32.7065ZM51.3601 27.5417L50.2861 24.3072C50.1725 23.9768 49.9596 23.1987 49.6455 21.9738H49.6073C49.4823 22.5006 49.2809 23.2787 49.004 24.3072L47.9491 27.5417H51.3601Z" fill="white"/>
<path d="M65.5922 28.1314C65.5922 29.6504 65.1712 30.8511 64.3292 31.7325C63.575 32.5172 62.6385 32.909 61.5206 32.909C60.314 32.909 59.4472 32.4865 58.9193 31.6413H58.8811V36.3464H56.8458V26.7157C56.8458 25.7607 56.82 24.7806 56.7704 23.7754H58.5603L58.6739 25.1911H58.7121C59.3909 24.1244 60.4209 23.592 61.8032 23.592C62.8839 23.592 63.786 24.0081 64.5077 24.8411C65.2313 25.6751 65.5922 26.7715 65.5922 28.1314ZM63.5187 28.204C63.5187 27.3347 63.3182 26.618 62.9154 26.0539C62.4753 25.4657 61.8844 25.1716 61.1436 25.1716C60.6414 25.1716 60.1851 25.3354 59.7775 25.6583C59.3689 25.9841 59.1016 26.4095 58.9765 26.9363C58.9135 27.182 58.882 27.3831 58.882 27.5413V29.0305C58.882 29.6802 59.0863 30.2284 59.4949 30.6761C59.9035 31.1238 60.4343 31.3472 61.0872 31.3472C61.8538 31.3472 62.4505 31.0587 62.8772 30.4835C63.3049 29.9073 63.5187 29.1478 63.5187 28.204Z" fill="white"/>
<path d="M76.1261 28.1314C76.1261 29.6504 75.7051 30.8511 74.8622 31.7325C74.109 32.5172 73.1725 32.909 72.0546 32.909C70.8479 32.909 69.9811 32.4865 69.4542 31.6413H69.416V36.3464H67.3807V26.7157C67.3807 25.7607 67.3549 24.7806 67.3053 23.7754H69.0952L69.2088 25.1911H69.247C69.9248 24.1244 70.9549 23.592 72.3381 23.592C73.4178 23.592 74.32 24.0081 75.0436 24.8411C75.7643 25.6751 76.1261 26.7715 76.1261 28.1314ZM74.0527 28.204C74.0527 27.3347 73.8512 26.618 73.4484 26.0539C73.0083 25.4657 72.4193 25.1716 71.6775 25.1716C71.1744 25.1716 70.7191 25.3354 70.3105 25.6583C69.9019 25.9841 69.6356 26.4095 69.5105 26.9363C69.4485 27.182 69.416 27.3831 69.416 27.5413V29.0305C69.416 29.6802 69.6203 30.2284 70.027 30.6761C70.4355 31.1229 70.9663 31.3472 71.6212 31.3472C72.3878 31.3472 72.9844 31.0587 73.4111 30.4835C73.8388 29.9073 74.0527 29.1478 74.0527 28.204Z" fill="white"/>
<path d="M87.9075 29.2332C87.9075 30.2868 87.5323 31.1441 86.7791 31.8059C85.9514 32.5291 84.7992 32.8902 83.3185 32.8902C81.9515 32.8902 80.8556 32.6333 80.026 32.1186L80.4976 30.4646C81.3911 30.9914 82.3715 31.2558 83.4398 31.2558C84.2064 31.2558 84.803 31.0864 85.2316 30.7494C85.6583 30.4125 85.8712 29.9602 85.8712 29.3961C85.8712 28.8935 85.6956 28.47 85.3433 28.1265C84.993 27.7831 84.4078 27.4638 83.5906 27.1688C81.3663 26.3599 80.2551 25.1751 80.2551 23.617C80.2551 22.5987 80.6446 21.7638 81.4245 21.1141C82.2016 20.4635 83.2383 20.1387 84.5347 20.1387C85.6908 20.1387 86.6512 20.3351 87.4177 20.7269L86.9089 22.3446C86.1929 21.9648 85.3834 21.775 84.4775 21.775C83.7615 21.775 83.2021 21.9472 82.8011 22.2897C82.4622 22.5959 82.2923 22.9691 82.2923 23.4113C82.2923 23.9008 82.4861 24.3057 82.8756 24.624C83.2145 24.9182 83.8302 25.2365 84.7238 25.5799C85.8168 26.009 86.6197 26.5107 87.1361 27.0859C87.6507 27.6593 87.9075 28.3769 87.9075 29.2332Z" fill="white"/>
<path d="M94.6361 25.2645H92.3927V29.601C92.3927 30.7039 92.788 31.2549 93.5803 31.2549C93.944 31.2549 94.2457 31.2242 94.4843 31.1628L94.5407 32.6697C94.1397 32.8158 93.6118 32.8894 92.9579 32.8894C92.1541 32.8894 91.5259 32.6502 91.0725 32.1727C90.6209 31.6943 90.3937 30.8919 90.3937 29.7648V25.2626H89.0573V23.7734H90.3937V22.1381L92.3927 21.5498V23.7734H94.6361V25.2645Z" fill="white"/>
<path d="M104.759 28.168C104.759 29.5409 104.356 30.668 103.552 31.5495C102.709 32.457 101.59 32.9093 100.195 32.9093C98.8513 32.9093 97.7812 32.4747 96.9831 31.6053C96.185 30.736 95.786 29.6386 95.786 28.316C95.786 26.9319 96.1965 25.7983 97.0204 24.9168C97.8423 24.0344 98.9516 23.5933 100.346 23.5933C101.69 23.5933 102.772 24.0279 103.588 24.8982C104.369 25.7424 104.759 26.8323 104.759 28.168ZM102.647 28.2322C102.647 27.4085 102.467 26.702 102.101 26.1129C101.674 25.3999 101.064 25.0443 100.274 25.0443C99.4556 25.0443 98.8342 25.4008 98.4074 26.1129C98.0418 26.703 97.8614 27.4206 97.8614 28.2694C97.8614 29.0932 98.0418 29.7996 98.4074 30.3879C98.8475 31.1008 99.4623 31.4564 100.256 31.4564C101.033 31.4564 101.643 31.0934 102.083 30.3693C102.458 29.7689 102.647 29.055 102.647 28.2322Z" fill="white"/>
<path d="M111.374 25.5206C111.173 25.4843 110.958 25.4657 110.733 25.4657C110.017 25.4657 109.463 25.7291 109.074 26.2568C108.735 26.7222 108.565 27.3105 108.565 28.0206V32.7071H106.531L106.55 26.5882C106.55 25.5588 106.524 24.6215 106.473 23.7763H108.246L108.32 25.4852H108.377C108.592 24.8979 108.931 24.4251 109.394 24.0705C109.848 23.7512 110.338 23.592 110.866 23.592C111.054 23.592 111.224 23.6051 111.374 23.6283V25.5206Z" fill="white"/>
<path d="M120.478 27.8182C120.478 28.1738 120.454 28.4735 120.403 28.7183H114.297C114.321 29.6006 114.616 30.2754 115.183 30.7408C115.698 31.1569 116.363 31.3654 117.18 31.3654C118.084 31.3654 118.909 31.2248 119.651 30.9428L119.97 32.3203C119.103 32.6889 118.08 32.8723 116.899 32.8723C115.478 32.8723 114.363 32.4646 113.552 31.6502C112.742 30.8358 112.337 29.7421 112.337 28.3702C112.337 27.0233 112.714 25.9018 113.469 25.0073C114.259 24.0523 115.327 23.5748 116.672 23.5748C117.992 23.5748 118.991 24.0523 119.67 25.0073C120.208 25.7659 120.478 26.7041 120.478 27.8182ZM118.537 27.3035C118.55 26.7152 118.418 26.207 118.142 25.778C117.789 25.226 117.248 24.9505 116.52 24.9505C115.854 24.9505 115.313 25.2195 114.9 25.7593C114.561 26.1884 114.359 26.7031 114.297 27.3026H118.537V27.3035Z" fill="white"/>
<path d="M50.6887 12.7013C50.6887 13.7969 50.3517 14.6215 49.6787 15.1753C49.0553 15.6863 48.1694 15.9423 47.0219 15.9423C46.453 15.9423 45.9661 15.9181 45.5585 15.8697V9.88391C46.0902 9.80014 46.663 9.75732 47.2816 9.75732C48.3746 9.75732 49.1985 9.98909 49.7541 10.4526C50.3765 10.9766 50.6887 11.7259 50.6887 12.7013ZM49.6338 12.7283C49.6338 12.0182 49.441 11.4737 49.0553 11.0939C48.6696 10.7151 48.1064 10.5252 47.3646 10.5252C47.0496 10.5252 46.7814 10.5457 46.5589 10.5885V15.139C46.6821 15.1576 46.9074 15.166 47.2348 15.166C48.0004 15.166 48.5914 14.9585 49.0076 14.5433C49.4238 14.1282 49.6338 13.5232 49.6338 12.7283Z" fill="white"/>
<path d="M56.2824 13.658C56.2824 14.3328 56.0848 14.8857 55.6896 15.3194C55.2753 15.7653 54.7264 15.9877 54.0409 15.9877C53.3803 15.9877 52.8543 15.7746 52.462 15.3464C52.0706 14.9192 51.8749 14.3803 51.8749 13.7306C51.8749 13.0511 52.0763 12.4936 52.4811 12.0608C52.8858 11.628 53.43 11.4111 54.1154 11.4111C54.776 11.4111 55.3068 11.6243 55.7087 12.0515C56.0905 12.4666 56.2824 13.0027 56.2824 13.658ZM55.2447 13.6897C55.2447 13.2848 55.155 12.9376 54.9765 12.6481C54.7665 12.2982 54.4677 12.1232 54.0791 12.1232C53.6772 12.1232 53.3717 12.2982 53.1617 12.6481C52.9823 12.9376 52.8935 13.2904 52.8935 13.7073C52.8935 14.1122 52.9832 14.4594 53.1617 14.7489C53.3784 15.0988 53.6801 15.2738 54.0696 15.2738C54.4514 15.2738 54.7512 15.096 54.9669 14.7396C55.1521 14.4445 55.2447 14.0945 55.2447 13.6897Z" fill="white"/>
<path d="M63.7816 11.5011L62.3735 15.8887H61.4571L60.8738 13.9835C60.7258 13.5078 60.6056 13.035 60.512 12.5659H60.4939C60.407 13.048 60.2867 13.5199 60.1321 13.9835L59.5125 15.8887H58.5856L57.2615 11.5011H58.2896L58.7984 13.587C58.9216 14.0803 59.0228 14.5503 59.1039 14.9952H59.1221C59.1965 14.6285 59.3197 14.1612 59.4934 13.5963L60.1321 11.502H60.9473L61.5592 13.5516C61.7072 14.0514 61.8275 14.5326 61.9201 14.9961H61.9478C62.0156 14.5447 62.1177 14.0635 62.2533 13.5516L62.7993 11.502H63.7816V11.5011Z" fill="white"/>
<path d="M68.9679 15.8885H67.9674V13.3754C67.9674 12.601 67.6657 12.2138 67.0605 12.2138C66.7636 12.2138 66.524 12.3199 66.3378 12.5331C66.1536 12.7462 66.06 12.9975 66.06 13.2851V15.8876H65.0596V12.7546C65.0596 12.3692 65.0472 11.9513 65.0233 11.499H65.9025L65.9493 12.185H65.977C66.0935 11.9718 66.2672 11.7959 66.4954 11.6553C66.7665 11.4915 67.07 11.4087 67.4023 11.4087C67.8223 11.4087 68.1717 11.5409 68.4495 11.8061C68.7951 12.131 68.9679 12.6159 68.9679 13.26V15.8885Z" fill="white"/>
<path d="M71.7259 15.8882H70.7264V9.4873H71.7259V15.8882Z" fill="white"/>
<path d="M77.6164 13.658C77.6164 14.3328 77.4188 14.8857 77.0236 15.3194C76.6093 15.7653 76.0594 15.9877 75.3749 15.9877C74.7134 15.9877 74.1874 15.7746 73.796 15.3464C73.4046 14.9192 73.2089 14.3803 73.2089 13.7306C73.2089 13.0511 73.4103 12.4936 73.8151 12.0608C74.2198 11.628 74.764 11.4111 75.4484 11.4111C76.11 11.4111 76.6398 11.6243 77.0427 12.0515C77.4245 12.4666 77.6164 13.0027 77.6164 13.658ZM76.5778 13.6897C76.5778 13.2848 76.488 12.9376 76.3095 12.6481C76.1005 12.2982 75.8007 12.1232 75.4131 12.1232C75.0103 12.1232 74.7048 12.2982 74.4957 12.6481C74.3162 12.9376 74.2275 13.2904 74.2275 13.7073C74.2275 14.1122 74.3172 14.4594 74.4957 14.7489C74.7124 15.0988 75.0141 15.2738 75.4036 15.2738C75.7854 15.2738 76.0842 15.096 76.3 14.7396C76.4861 14.4445 76.5778 14.0945 76.5778 13.6897Z" fill="white"/>
<path d="M82.458 15.8881H81.5597L81.4852 15.3827H81.4575C81.1501 15.7857 80.712 15.9877 80.143 15.9877C79.7182 15.9877 79.3745 15.8546 79.1158 15.5903C78.881 15.3501 78.7635 15.0514 78.7635 14.6967C78.7635 14.1606 78.9927 13.752 79.4537 13.4691C79.9139 13.1861 80.5611 13.0474 81.3945 13.0539V12.972C81.3945 12.394 81.0833 12.1055 80.4599 12.1055C80.016 12.1055 79.6246 12.2144 79.2867 12.4303L79.0834 11.79C79.5015 11.5377 80.0179 11.4111 80.627 11.4111C81.8031 11.4111 82.3931 12.0161 82.3931 13.2261V14.8419C82.3931 15.2803 82.415 15.6294 82.458 15.8881ZM81.4193 14.3803V13.7036C80.3158 13.685 79.764 13.9801 79.764 14.5878C79.764 14.8168 79.827 14.9881 79.9559 15.1026C80.0848 15.217 80.249 15.2738 80.4447 15.2738C80.6642 15.2738 80.8695 15.2059 81.0566 15.0709C81.2446 14.935 81.3602 14.7628 81.4031 14.5515C81.4136 14.5041 81.4193 14.4464 81.4193 14.3803Z" fill="white"/>
<path d="M88.1451 15.8882H87.2573L87.2105 15.1836H87.1828C86.8993 15.7197 86.4163 15.9878 85.7375 15.9878C85.1953 15.9878 84.7437 15.7802 84.3857 15.3651C84.0278 14.95 83.8492 14.4111 83.8492 13.7493C83.8492 13.0391 84.043 12.4639 84.4325 12.0246C84.8096 11.615 85.2716 11.4103 85.8215 11.4103C86.4258 11.4103 86.8487 11.6085 87.0893 12.006H87.1084V9.4873H88.1098V14.7061C88.1098 15.1334 88.1212 15.5271 88.1451 15.8882ZM87.1084 14.0378V13.3063C87.1084 13.1797 87.0988 13.0773 87.0807 12.9991C87.0244 12.7645 86.9031 12.5672 86.7189 12.4081C86.5327 12.2489 86.3084 12.1689 86.0497 12.1689C85.6764 12.1689 85.3843 12.3131 85.1695 12.6026C84.9566 12.8921 84.8487 13.2616 84.8487 13.713C84.8487 14.1467 84.9509 14.4986 85.1561 14.7694C85.3728 15.058 85.665 15.2022 86.0306 15.2022C86.359 15.2022 86.6215 15.0822 86.821 14.8411C87.0139 14.6186 87.1084 14.3506 87.1084 14.0378Z" fill="white"/>
<path d="M96.7004 13.658C96.7004 14.3328 96.5028 14.8857 96.1076 15.3194C95.6933 15.7653 95.1453 15.9877 94.4589 15.9877C93.7993 15.9877 93.2733 15.7746 92.88 15.3464C92.4886 14.9192 92.2928 14.3803 92.2928 13.7306C92.2928 13.0511 92.4943 12.4936 92.899 12.0608C93.3038 11.628 93.8479 11.4111 94.5343 11.4111C95.194 11.4111 95.7257 11.6243 96.1267 12.0515C96.5085 12.4666 96.7004 13.0027 96.7004 13.658ZM95.6637 13.6897C95.6637 13.2848 95.5739 12.9376 95.3954 12.6481C95.1844 12.2982 94.8866 12.1232 94.4971 12.1232C94.0962 12.1232 93.7907 12.2982 93.5797 12.6481C93.4002 12.9376 93.3114 13.2904 93.3114 13.7073C93.3114 14.1122 93.4012 14.4594 93.5797 14.7489C93.7964 15.0988 94.0981 15.2738 94.4876 15.2738C94.8694 15.2738 95.1701 15.096 95.3859 14.7396C95.5701 14.4445 95.6637 14.0945 95.6637 13.6897Z" fill="white"/>
<path d="M102.08 15.8886H101.08V13.3755C101.08 12.6011 100.779 12.2139 100.173 12.2139C99.8757 12.2139 99.6361 12.32 99.4509 12.5332C99.2657 12.7463 99.1731 12.9976 99.1731 13.2852V15.8877H98.1717V12.7547C98.1717 12.3694 98.1602 11.9515 98.1364 11.4991H99.0146L99.0614 12.1851H99.0891C99.2065 11.9719 99.3802 11.796 99.6074 11.6555C99.8795 11.4917 100.182 11.4088 100.515 11.4088C100.934 11.4088 101.284 11.541 101.562 11.8063C101.908 12.1311 102.08 12.616 102.08 13.2601V15.8886Z" fill="white"/>
<path d="M108.813 12.2313H107.711V14.3628C107.711 14.9045 107.907 15.1754 108.295 15.1754C108.474 15.1754 108.623 15.1605 108.741 15.1298L108.766 15.8697C108.569 15.9423 108.309 15.9786 107.989 15.9786C107.594 15.9786 107.287 15.8613 107.064 15.6268C106.841 15.3922 106.73 14.9976 106.73 14.4438V12.2313H106.072V11.5007H106.73V10.6965L107.711 10.408V11.4998H108.812V12.2313H108.813Z" fill="white"/>
<path d="M114.109 15.8882H113.108V13.3937C113.108 12.6072 112.806 12.2135 112.202 12.2135C111.738 12.2135 111.421 12.4416 111.247 12.8976C111.218 12.9935 111.201 13.1108 111.201 13.2485V15.8873H110.201V9.4873H111.201V12.1316H111.22C111.535 11.6504 111.986 11.4103 112.571 11.4103C112.986 11.4103 113.328 11.5424 113.601 11.8077C113.939 12.1381 114.109 12.6296 114.109 13.2793V15.8882Z" fill="white"/>
<path d="M119.573 13.4866C119.573 13.6616 119.56 13.8086 119.536 13.9287H116.535C116.549 14.3624 116.692 14.6929 116.97 14.9218C117.224 15.1266 117.551 15.229 117.952 15.229C118.396 15.229 118.801 15.1601 119.165 15.0214L119.322 15.699C118.895 15.8796 118.393 15.9699 117.812 15.9699C117.115 15.9699 116.566 15.7698 116.169 15.3695C115.77 14.9693 115.572 14.4322 115.572 13.7584C115.572 13.0966 115.756 12.5456 116.128 12.1062C116.515 11.6371 117.039 11.4026 117.701 11.4026C118.348 11.4026 118.84 11.6371 119.172 12.1062C119.44 12.4786 119.573 12.9393 119.573 13.4866ZM118.618 13.2343C118.626 12.9449 118.56 12.6954 118.425 12.4851C118.251 12.2142 117.986 12.0783 117.628 12.0783C117.302 12.0783 117.036 12.2105 116.832 12.4758C116.666 12.687 116.568 12.9393 116.535 13.2343H118.618Z" fill="white"/>
</svg>