<svg xmlns:xlink="http://www.w3.org/1999/xlink" xmlns="http://www.w3.org/2000/svg" width="163" height="52" viewBox="0 0 163 52" fill="none">
<rect x="0.134766" width="162.136" height="52" rx="12" fill="#05060F"/>
<path d="M58.1886 15.2674C58.1886 16.1859 57.907 16.9215 57.3521 17.4702C56.7141 18.1205 55.8832 18.4478 54.865 18.4478C53.8919 18.4478 53.0609 18.115 52.3793 17.4592C51.6963 16.7937 51.3555 15.9769 51.3555 14.9993C51.3555 14.0217 51.6963 13.2049 52.3793 12.5449C53.0609 11.8835 53.8919 11.5508 54.865 11.5508C55.3495 11.5508 55.8114 11.6484 56.2522 11.8299C56.6916 12.0128 57.0493 12.2603 57.3084 12.5655L56.7198 13.1458C56.2677 12.6247 55.6522 12.3675 54.865 12.3675C54.1552 12.3675 53.5398 12.6095 53.0173 13.0977C52.5004 13.5872 52.2413 14.221 52.2413 14.9993C52.2413 15.7775 52.5004 16.4169 53.0173 16.9064C53.5398 17.389 54.1552 17.6365 54.865 17.6365C55.6184 17.6365 56.2522 17.389 56.7521 16.9009C57.0817 16.5778 57.269 16.1323 57.3183 15.563H54.865V14.7683H58.1379C58.1774 14.9402 58.1886 15.1065 58.1886 15.2674V15.2674Z" fill="white"/>
<path d="M63.3802 12.511H60.3059V14.601H63.0775V15.3958H60.3059V17.4858H63.3802V18.2957H59.4355V11.7012H63.3802V12.511Z" fill="white"/>
<path d="M67.0451 18.2957H66.1748V12.511H64.2891V11.7012H68.9323V12.511H67.0451V18.2957V18.2957Z" fill="white"/>
<path d="M72.293 18.2957V11.7012H73.1619V18.2957H72.293Z" fill="white"/>
<path d="M77.0119 18.2957H76.1486V12.511H74.2559V11.7012H78.9047V12.511H77.0119V18.2957Z" fill="white"/>
<path d="M87.6971 17.4482C87.031 18.115 86.2057 18.4478 85.2213 18.4478C84.2312 18.4478 83.406 18.115 82.7398 17.4482C82.0751 16.7827 81.7441 15.9659 81.7441 14.9993C81.7441 14.0327 82.0751 13.2159 82.7398 12.5504C83.406 11.8835 84.2312 11.5508 85.2213 11.5508C86.2001 11.5508 87.0253 11.8835 87.6915 12.5559C88.3618 13.2269 88.6928 14.0382 88.6928 14.9993C88.6928 15.9659 88.3618 16.7827 87.6971 17.4482ZM83.3834 16.8954C83.8848 17.389 84.4946 17.6365 85.2213 17.6365C85.9423 17.6365 86.5578 17.389 87.0535 16.8954C87.5535 16.4018 87.8069 15.7679 87.8069 14.9993C87.8069 14.2307 87.5535 13.5968 87.0535 13.1032C86.5578 12.6095 85.9423 12.362 85.2213 12.362C84.4946 12.362 83.8848 12.6095 83.3834 13.1032C82.8835 13.5968 82.63 14.2307 82.63 14.9993C82.63 15.7679 82.8835 16.4018 83.3834 16.8954V16.8954Z" fill="white"/>
<path d="M89.9141 18.2957V11.7012H90.9703L94.2545 16.8299H94.2925L94.2545 15.5622V11.7012H95.1234V18.2957H94.2165L90.7774 12.9139H90.7393L90.7774 14.1872V18.2957H89.9141V18.2957Z" fill="white"/>
<path d="M81.5286 27.9269C78.8824 27.9269 76.7206 29.8931 76.7206 32.606C76.7206 35.2969 78.8824 37.2838 81.5286 37.2838C84.1805 37.2838 86.3423 35.2969 86.3423 32.606C86.3423 29.8931 84.1805 27.9269 81.5286 27.9269ZM81.5286 35.4413C80.0767 35.4413 78.8275 34.2711 78.8275 32.606C78.8275 30.9189 80.0767 29.7694 81.5286 29.7694C82.9806 29.7694 84.2354 30.9189 84.2354 32.606C84.2354 34.2711 82.9806 35.4413 81.5286 35.4413V35.4413ZM71.0381 27.9269C68.3862 27.9269 66.2301 29.8931 66.2301 32.606C66.2301 35.2969 68.3862 37.2838 71.0381 37.2838C73.6885 37.2838 75.8461 35.2969 75.8461 32.606C75.8461 29.8931 73.6885 27.9269 71.0381 27.9269ZM71.0381 35.4413C69.5847 35.4413 68.3313 34.2711 68.3313 32.606C68.3313 30.9189 69.5847 29.7694 71.0381 29.7694C72.4901 29.7694 73.7392 30.9189 73.7392 32.606C73.7392 34.2711 72.4901 35.4413 71.0381 35.4413ZM58.5548 29.361V31.3493H63.4177C63.2754 32.4603 62.8952 33.277 62.3121 33.8463C61.6024 34.5338 60.4968 35.2969 58.5548 35.2969C55.5621 35.2969 53.2186 32.9388 53.2186 30.0169C53.2186 27.095 55.5621 24.7369 58.5548 24.7369C60.1729 24.7369 61.3503 25.3543 62.2192 26.1545L63.6543 24.7534C62.4389 23.6204 60.8221 22.75 58.5548 22.75C54.4509 22.75 51.002 26.0101 51.002 30.0169C51.002 34.0236 54.4509 37.2838 58.5548 37.2838C60.7729 37.2838 62.4389 36.5743 63.7486 35.2433C65.0908 33.9329 65.509 32.0904 65.509 30.6026C65.509 30.1406 65.4696 29.7158 65.3992 29.361H58.5548ZM109.601 30.9024C109.205 29.856 107.984 27.9269 105.497 27.9269C103.032 27.9269 100.98 29.823 100.98 32.606C100.98 35.2268 103.011 37.2838 105.733 37.2838C107.935 37.2838 109.205 35.9734 109.727 35.2103L108.094 34.1474C107.549 34.9256 106.807 35.4413 105.733 35.4413C104.667 35.4413 103.903 34.9641 103.412 34.0236L109.822 31.4345L109.601 30.9024V30.9024ZM103.066 32.4603C103.011 30.6563 104.501 29.7323 105.569 29.7323C106.405 29.7323 107.115 30.1406 107.352 30.725L103.066 32.4603V32.4603ZM97.8567 36.9991H99.9635V23.2491H97.8567V36.9991ZM94.4063 28.9691H94.3359C93.8627 28.4219 92.96 27.9269 91.8164 27.9269C89.4166 27.9269 87.2225 29.9839 87.2225 32.6211C87.2225 35.2433 89.4166 37.2838 91.8164 37.2838C92.96 37.2838 93.8627 36.7846 94.3359 36.2209H94.4063V36.8919C94.4063 38.6808 93.4275 39.6419 91.8488 39.6419C90.5616 39.6419 89.7631 38.7344 89.4335 37.9713L87.6013 38.7179C88.1294 39.9581 89.5279 41.4844 91.8488 41.4844C94.319 41.4844 96.4033 40.0654 96.4033 36.6128V28.2115H94.4063V28.9691V28.9691ZM91.9967 35.4413C90.5447 35.4413 89.3293 34.2546 89.3293 32.6211C89.3293 30.9725 90.5447 29.7694 91.9967 29.7694C93.4275 29.7694 94.5556 30.9725 94.5556 32.6211C94.5556 34.2546 93.4275 35.4413 91.9967 35.4413V35.4413ZM119.464 23.2491H114.426V36.9991H116.527V31.7893H119.464C121.798 31.7893 124.087 30.1406 124.087 27.5185C124.087 24.8978 121.792 23.2491 119.464 23.2491V23.2491ZM119.519 29.8766H116.527V25.1618H119.519C121.088 25.1618 121.984 26.4336 121.984 27.5185C121.984 28.5828 121.088 29.8766 119.519 29.8766ZM132.508 27.9008C130.99 27.9008 129.411 28.5553 128.762 30.0059L130.627 30.769C131.028 30.0059 131.766 29.7584 132.546 29.7584C133.636 29.7584 134.742 30.3978 134.759 31.5266V31.671C134.379 31.4565 133.565 31.1389 132.563 31.1389C130.555 31.1389 128.509 32.2183 128.509 34.2326C128.509 36.0751 130.154 37.2618 132.003 37.2618C133.417 37.2618 134.197 36.6389 134.687 35.9143H134.759V36.9771H136.788V31.7026C136.788 29.2648 134.924 27.9008 132.508 27.9008ZM132.255 35.4358C131.568 35.4358 130.61 35.103 130.61 34.2711C130.61 33.2069 131.804 32.7985 132.838 32.7985C133.763 32.7985 134.197 32.9979 134.759 33.2605C134.594 34.5338 133.472 35.4358 132.255 35.4358V35.4358ZM144.182 28.2019L141.767 34.1625H141.695L139.198 28.2019H136.932L140.684 36.5316L138.543 41.1668H140.739L146.52 28.2019H144.182V28.2019ZM125.241 36.9991H127.348V23.2491H125.241V36.9991Z" fill="white"/>
<path d="M16.5225 12.2907C16.1915 12.6289 16 13.1555 16 13.8375V38.164C16 38.846 16.1915 39.3727 16.5225 39.7109L16.6042 39.7852L30.5662 26.1589V25.8372L16.6042 12.2109L16.5225 12.2907Z" fill="url(#paint0_linear_523_3)"/>
<path d="M35.2153 30.7051L30.5664 26.1607V25.839L35.2209 21.2946L35.3251 21.3537L40.8373 24.4158C42.4104 25.2848 42.4104 26.7148 40.8373 27.5893L35.3251 30.646L35.2153 30.7051V30.7051Z" fill="url(#paint1_linear_523_3)"/>
<path d="M35.3239 30.6477L30.5652 26.0016L16.5215 39.7144C17.044 40.2507 17.896 40.3153 18.8649 39.7791L35.3239 30.6477" fill="url(#paint2_linear_523_3)"/>
<path d="M35.3239 21.3539L18.8649 12.2225C17.896 11.6918 17.044 11.7564 16.5215 12.2926L30.5652 26L35.3239 21.3539Z" fill="url(#paint3_linear_523_3)"/>
<defs>
<linearGradient id="paint0_linear_523_3" x1="29.3266" y1="38.4174" x2="10.8712" y2="19.5148" gradientUnits="userSpaceOnUse">
<stop stop-color="#00A0FF"/>
<stop offset="0.0066" stop-color="#00A1FF"/>
<stop offset="0.2601" stop-color="#00BEFF"/>
<stop offset="0.5122" stop-color="#00D2FF"/>
<stop offset="0.7604" stop-color="#00DFFF"/>
<stop offset="1" stop-color="#00E3FF"/>
</linearGradient>
<linearGradient id="paint1_linear_523_3" x1="42.8857" y1="25.9983" x2="15.6242" y2="25.9983" gradientUnits="userSpaceOnUse">
<stop stop-color="#FFE000"/>
<stop offset="0.4087" stop-color="#FFBD00"/>
<stop offset="0.7754" stop-color="#FFA500"/>
<stop offset="1" stop-color="#FF9C00"/>
</linearGradient>
<linearGradient id="paint2_linear_523_3" x1="32.7363" y1="23.4758" x2="7.70934" y2="-2.15754" gradientUnits="userSpaceOnUse">
<stop stop-color="#FF3A44"/>
<stop offset="1" stop-color="#C31162"/>
</linearGradient>
<linearGradient id="paint3_linear_523_3" x1="12.9864" y1="47.8062" x2="24.162" y2="36.3598" gradientUnits="userSpaceOnUse">
<stop stop-color="#32A071"/>
<stop offset="0.0685" stop-color="#2DA771"/>
<stop offset="0.4762" stop-color="#15CF74"/>
<stop offset="0.8009" stop-color="#06E775"/>
<stop offset="1" stop-color="#00F076"/>
</linearGradient>
</defs>
</svg>