<svg xmlns:xlink="http://www.w3.org/1999/xlink" xmlns="http://www.w3.org/2000/svg" width="56" height="57" viewBox="0 0 56 57" fill="none">
<path d="M25.0611 5.11904C26.8135 3.84582 29.1865 3.84582 30.9389 5.11904L48.8886 18.1603C50.7073 19.4816 51.4206 21.8542 50.632 23.9594L42.6282 45.325C41.8968 47.2774 40.0308 48.571 37.9459 48.571H18.0541C15.9692 48.571 14.1032 47.2774 13.3718 45.325L5.36804 23.9594C4.57943 21.8542 5.29269 19.4816 7.11136 18.1603L25.0611 5.11904Z" fill="#FFB8DA"/>
<path d="M25.0833 8.5135L9.82607 20.1087C8.85366 20.8477 9.12488 22.3769 10.2921 22.7365L14.0095 23.8815C14.6256 24.0712 15.2953 23.9525 15.8085 23.5624L26.7011 15.284C27.1987 14.9059 27.4909 14.3168 27.4909 13.6917V9.70776C27.4909 8.4673 26.0709 7.76293 25.0833 8.5135Z" fill="white" fill-opacity="0.48"/>
</svg>