<svg width="256" height="48" viewBox="0 0 256 48" fill="none" xmlns="http://www.w3.org/2000/svg">
<path fill-rule="evenodd" clip-rule="evenodd" d="M25.9041 6.98157C25.3054 5.13895 22.6985 5.13896 22.0998 6.98158L19.0626 16.3291C18.7949 17.1531 18.027 17.7111 17.1605 17.7111H7.33196C5.39451 17.7111 4.58896 20.1903 6.15639 21.3291L14.1079 27.1062C14.8088 27.6155 15.1022 28.5182 14.8344 29.3423L11.7972 38.6898C11.1985 40.5324 13.3075 42.0646 14.8749 40.9258L22.8264 35.1488C23.5273 34.6395 24.4765 34.6395 25.1775 35.1488L33.129 40.9258C34.6964 42.0646 36.8054 40.5324 36.2067 38.6898L33.1695 29.3423C32.9017 28.5182 33.1951 27.6155 33.896 27.1062L41.8475 21.3291C43.4149 20.1903 42.6094 17.7111 40.6719 17.7111H30.8434C29.9769 17.7111 29.209 17.1531 28.9413 16.3291L25.9041 6.98157Z" fill="#F5CB36"/>
<path fill-rule="evenodd" clip-rule="evenodd" d="M77.9041 6.98206C77.3054 5.13944 74.6985 5.13944 74.0998 6.98206L71.0626 16.3296C70.7949 17.1536 70.027 17.7116 69.1605 17.7116H59.332C57.3945 17.7116 56.589 20.1908 58.1564 21.3296L66.1079 27.1067C66.8088 27.616 67.1022 28.5187 66.8344 29.3427L63.7972 38.6903C63.1985 40.5329 65.3075 42.0651 66.8749 40.9263L74.8264 35.1492C75.5273 34.64 76.4765 34.64 77.1775 35.1492L85.129 40.9263C86.6964 42.0651 88.8054 40.5329 88.2067 38.6903L85.1695 29.3427C84.9017 28.5187 85.1951 27.616 85.896 27.1067L93.8475 21.3296C95.4149 20.1908 94.6094 17.7116 92.6719 17.7116H82.8434C81.9769 17.7116 81.209 17.1536 80.9413 16.3296L77.9041 6.98206Z" fill="#F5CB36"/>
<path fill-rule="evenodd" clip-rule="evenodd" d="M129.904 6.98157C129.305 5.13895 126.699 5.13896 126.1 6.98158L123.063 16.3291C122.795 17.1531 122.027 17.7111 121.161 17.7111H111.332C109.395 17.7111 108.589 20.1903 110.156 21.3291L118.108 27.1062C118.809 27.6155 119.102 28.5182 118.834 29.3423L115.797 38.6898C115.199 40.5324 117.307 42.0646 118.875 40.9258L126.826 35.1488C127.527 34.6395 128.477 34.6395 129.178 35.1488L137.129 40.9258C138.696 42.0646 140.805 40.5324 140.207 38.6898L137.169 29.3423C136.902 28.5182 137.195 27.6155 137.896 27.1062L145.848 21.3291C147.415 20.1903 146.609 17.7111 144.672 17.7111H134.843C133.977 17.7111 133.209 17.1531 132.941 16.3291L129.904 6.98157Z" fill="#F5CB36"/>
<path fill-rule="evenodd" clip-rule="evenodd" d="M181.904 6.98157C181.305 5.13895 178.699 5.13896 178.1 6.98158L175.063 16.3291C174.795 17.1531 174.027 17.7111 173.161 17.7111H163.332C161.395 17.7111 160.589 20.1903 162.156 21.3291L170.108 27.1062C170.809 27.6155 171.102 28.5182 170.834 29.3423L167.797 38.6898C167.199 40.5324 169.307 42.0646 170.875 40.9258L178.826 35.1488C179.527 34.6395 180.477 34.6395 181.178 35.1488L189.129 40.9258C190.696 42.0646 192.805 40.5324 192.207 38.6898L189.169 29.3423C188.902 28.5182 189.195 27.6155 189.896 27.1062L197.848 21.3291C199.415 20.1903 198.609 17.7111 196.672 17.7111H186.843C185.977 17.7111 185.209 17.1531 184.941 16.3291L181.904 6.98157Z" fill="#F5CB36"/>
<path fill-rule="evenodd" clip-rule="evenodd" d="M233.904 6.98157C233.305 5.13895 230.699 5.13896 230.1 6.98158L227.063 16.3291C226.795 17.1531 226.027 17.7111 225.161 17.7111H215.332C213.395 17.7111 212.589 20.1903 214.156 21.3291L222.108 27.1062C222.809 27.6155 223.102 28.5182 222.834 29.3423L219.797 38.6898C219.199 40.5324 221.307 42.0646 222.875 40.9258L230.826 35.1488C231.527 34.6395 232.477 34.6395 233.178 35.1488L241.129 40.9258C242.696 42.0646 244.805 40.5324 244.207 38.6898L241.169 29.3423C240.902 28.5182 241.195 27.6155 241.896 27.1062L249.848 21.3291C251.415 20.1903 250.609 17.7111 248.672 17.7111H238.843C237.977 17.7111 237.209 17.1531 236.941 16.3291L233.904 6.98157Z" fill="#F5CB36"/>
</svg>
