<svg xmlns:xlink="http://www.w3.org/1999/xlink" xmlns="http://www.w3.org/2000/svg" width="20" height="20" viewBox="0 0 20 20" fill="none">
<g clip-path="url(#clip0_965_23709)">
<path fill-rule="evenodd" clip-rule="evenodd" d="M11.4146 0.379442C10.5392 -0.126481 9.46023 -0.126481 8.58478 0.379442L2.49993 3.8959C1.62557 4.40119 1.08704 5.33441 1.08704 6.34427V13.4324C1.08704 14.4422 1.62557 15.3755 2.49993 15.8808L8.58478 19.3972C9.46023 19.9031 10.5392 19.9031 11.4146 19.3972L17.4995 15.8808C18.3738 15.3755 18.9124 14.4422 18.9124 13.4324V6.34427C18.9124 5.33441 18.3738 4.40119 17.4995 3.8959L11.4146 0.379442ZM5.35415 7.26705C5.25315 7.20879 5.12695 7.28168 5.12695 7.39827V8.77708C5.12695 8.88632 5.18575 8.9871 5.28085 9.04085L7.3472 10.2088C7.4106 10.2446 7.4498 10.3118 7.4498 10.3846V11.9548C7.4498 12.0128 7.38728 12.0493 7.33678 12.0208L5.23997 10.8356C5.18948 10.8071 5.12695 10.8436 5.12695 10.9016V12.4146C5.12695 12.5229 5.18474 12.623 5.27853 12.6771L8.8385 14.7309C8.9395 14.7892 9.0657 14.7163 9.0657 14.5997V9.58332C9.0657 9.47504 9.00791 9.375 8.91412 9.32089L5.35415 7.26705ZM14.8728 7.39827C14.8728 7.28168 14.7466 7.20879 14.6456 7.26705L11.0856 9.32089C10.9919 9.375 10.9341 9.47504 10.9341 9.58332V14.5997C10.9341 14.7163 11.0603 14.7892 11.1613 14.7309L14.7212 12.6771C14.815 12.623 14.8728 12.5229 14.8728 12.4146V10.9016C14.8728 10.8436 14.8103 10.8071 14.7598 10.8356L12.663 12.0208C12.6125 12.0493 12.55 12.0128 12.55 11.9548V10.3846C12.55 10.3118 12.5892 10.2446 12.6526 10.2088L14.7189 9.04085C14.814 8.9871 14.8728 8.88632 14.8728 8.77708V7.39827ZM10.2997 4.50411C10.1138 4.39829 9.88594 4.39829 9.70007 4.50411L6.77045 6.17207C6.66876 6.22997 6.66832 6.37639 6.76965 6.4349L8.23396 7.28049C8.29567 7.31613 8.37159 7.31661 8.43375 7.28177L9.90111 6.45915C9.96247 6.42475 10.0373 6.42475 10.0987 6.45915L11.566 7.28177C11.6282 7.31661 11.7041 7.31613 11.7658 7.28049L13.2301 6.4349C13.3315 6.37639 13.331 6.22997 13.2293 6.17207L10.2997 4.50411Z" fill="#c96442"/>
</g>
<defs>
<clipPath id="clip0_965_23709">
<rect width="20" height="20" fill="white"/>
</clipPath>
</defs>
</svg>