<svg width="176" height="80" viewBox="0 0 176 80" fill="none" xmlns="http://www.w3.org/2000/svg">
<path d="M11.3798 12.9018L3.07322 15.6344L3.04599 34.3173L3.02783 52.9912L3.40912 52.9458C3.62699 52.9186 4.59836 52.7915 5.56973 52.6644C6.55018 52.5373 7.67588 52.383 8.06624 52.3194L8.7925 52.2105L8.81973 41.5617L8.83789 30.9221H10.4901H12.1424L11.8519 31.2217L11.5614 31.5212V41.6253V51.7293L11.9063 51.6749C12.0879 51.6386 12.3148 51.5932 12.4056 51.5659C12.5509 51.5205 12.56 50.9486 12.56 41.2168V30.9221H20.113H27.6661L27.3756 31.2217L27.0851 31.5212V39.5373V47.5443L27.2939 47.4807C27.4028 47.4535 27.6298 47.3718 27.7932 47.2992L28.0837 47.1812V39.0562V30.9221H29.3093H30.5348V38.5478C30.5348 42.7419 30.5711 46.1735 30.6074 46.1735C30.7527 46.1735 33.0767 45.1386 34.6926 44.3578L36.3449 43.5499L36.3267 29.5967L36.2995 15.6344L29.2185 13.2922C25.3239 12.0031 21.5837 10.7775 20.9119 10.5596L19.6863 10.1602L11.3798 12.9018ZM9.92727 17.0778C9.99082 17.1595 10.0453 17.3411 10.0544 17.4863C10.0634 17.6497 10.1179 17.7768 10.2087 17.8041C10.3267 17.8404 10.3358 17.9493 10.2813 18.4758C10.245 18.8299 10.1633 19.193 10.1088 19.2929C10.0453 19.42 10.0453 19.4835 10.1088 19.4835C10.1542 19.4835 10.3449 19.7014 10.5264 19.9738C10.8351 20.4458 10.8442 20.4821 10.708 20.6819C10.6081 20.818 10.5627 21.0904 10.5627 21.5261C10.5627 22.1071 10.59 22.1979 10.8442 22.5066C11.1165 22.8334 11.1165 22.8606 10.9803 23.0694C10.7806 23.369 10.7897 23.3872 11.1619 23.3872H11.4887L11.2073 23.7049C10.944 24.0045 10.9259 24.0771 10.9259 24.7035V25.3844H11.516C11.8428 25.3844 12.106 25.4207 12.106 25.457C12.106 25.5024 12.0062 25.6295 11.8791 25.7475C11.6794 25.9381 11.6521 26.038 11.6521 26.6281V27.2908H12.5146H13.377V26.3376V25.3844H13.7764C14.2757 25.3844 14.3484 25.2936 14.0579 25.0212L13.8309 24.8034L14.1668 24.4584C14.4845 24.1316 14.4936 24.1134 14.3938 23.7684C14.3302 23.5687 14.2848 23.2238 14.2848 22.9877V22.561L14.8113 22.5883L15.3288 22.6155L15.3016 23.024C15.2834 23.251 15.2289 23.5869 15.1836 23.7866C15.0928 24.1225 15.1019 24.1497 15.4196 24.4765C15.7373 24.8034 15.7373 24.8034 15.5558 24.9758C15.2562 25.2482 15.3288 25.3844 15.7555 25.3844H16.1368L15.8917 25.6386C15.6647 25.8746 15.6465 25.9563 15.6465 26.5918V27.2908H16.4636H17.2806V26.3467V25.3934L17.6256 25.3662L17.9615 25.339L17.9887 24.4493L18.016 23.5687H18.4154H18.8239V22.9514C18.8148 22.5701 18.7695 22.2796 18.6877 22.1707C18.5697 22.0163 18.5879 21.9619 18.8421 21.626C18.9964 21.4172 19.178 21.2084 19.2415 21.1539C19.3323 21.0813 19.3414 20.9814 19.2778 20.7454C19.1598 20.346 19.1598 19.6651 19.2778 19.6651C19.3323 19.6651 19.3686 19.5743 19.3686 19.4563C19.3686 19.3383 19.4231 19.1658 19.4957 19.0659C19.6773 18.8299 19.9496 18.9933 19.9859 19.3837C20.0041 19.538 20.0676 19.6651 20.1312 19.6651C20.2674 19.6651 20.2401 20.3096 20.0858 20.7908C20.0313 20.9814 20.0404 21.0813 20.1221 21.1539C20.1947 21.2084 20.3672 21.4172 20.5215 21.6169C20.7848 21.9528 20.7939 22.0073 20.6759 22.207C20.6123 22.3341 20.5579 22.6881 20.5488 22.9968V23.5596L20.921 23.5869L21.2932 23.6141L21.1026 23.8592C20.9482 24.0499 20.9119 24.2224 20.9119 24.7398V25.3844H21.4657H22.0194L21.7834 25.693C21.5837 25.9654 21.5474 26.1015 21.5474 26.6462V27.2908H22.4098H23.2722V26.3376V25.3844H23.6717C24.1528 25.3844 24.2527 25.2754 23.9985 25.0212C23.7625 24.7852 23.7625 24.767 24.0984 24.4221C24.3798 24.1316 24.3798 24.1134 24.2799 23.714C24.2255 23.487 24.1801 23.142 24.1801 22.9332V22.561L24.7066 22.5883L25.2241 22.6155L25.1968 23.0694C25.1787 23.3145 25.1242 23.6595 25.0697 23.8229C24.988 24.1134 24.9971 24.1497 25.3058 24.4675C25.6326 24.8034 25.6326 24.8034 25.451 24.9758C25.1696 25.23 25.2241 25.3844 25.5872 25.3844C25.9685 25.3844 25.9866 25.457 25.678 25.7475C25.4782 25.9381 25.451 26.038 25.451 26.6281V27.2908H26.3134H27.1759V26.3467V25.3934L27.5208 25.3662L27.8567 25.339L27.884 24.3585L27.9112 23.3872H28.2199C28.583 23.3872 28.5921 23.369 28.3924 23.0694C28.2562 22.8606 28.2562 22.8334 28.5285 22.5066C28.7827 22.1979 28.81 22.1071 28.81 21.5261C28.81 21.0813 28.7646 20.818 28.6647 20.6728C28.5194 20.4731 28.5285 20.4458 28.8917 19.9193C29.2457 19.4109 29.2548 19.3564 29.1822 19.0024C29.0006 18.2307 29.0006 17.8585 29.1549 17.8041C29.2548 17.7768 29.3093 17.6588 29.3183 17.4863C29.3274 17.2231 29.4908 16.9416 29.6361 16.9416C29.7904 16.9416 29.9901 17.2412 29.9901 17.4954C29.9901 17.6497 30.0446 17.7859 30.1263 17.8131C30.2988 17.8858 30.2988 18.2943 30.1354 18.9298C30.0174 19.3837 30.0264 19.42 30.208 19.6197C30.3079 19.7377 30.4803 19.9738 30.5711 20.1644C30.7436 20.4731 30.7436 20.5094 30.5984 20.7545C30.4985 20.9179 30.444 21.2084 30.444 21.5443C30.444 21.9982 30.4894 22.1344 30.7164 22.443C30.8616 22.6337 30.9887 22.8334 30.9887 22.8697C30.9887 22.906 30.8889 23.0967 30.7618 23.2782L30.5348 23.6141V26.0471C30.5348 28.6888 30.5167 28.5708 31.0977 29.3425C31.2883 29.5967 31.4426 29.8327 31.4426 29.8599C31.4426 29.8962 26.15 29.9235 19.6863 29.9235C13.2227 29.9235 7.93007 29.8962 7.93007 29.869C7.93007 29.8327 8.13886 29.5331 8.38398 29.1972L8.83789 28.589V26.1015V23.6141L8.61093 23.2782C8.48384 23.0967 8.38398 22.906 8.38398 22.8697C8.38398 22.8334 8.51107 22.6337 8.65632 22.443C8.88328 22.1344 8.92867 21.9982 8.92867 21.5443C8.92867 21.2084 8.8742 20.9179 8.77434 20.7545C8.62909 20.5094 8.62909 20.4731 8.80157 20.1644C8.89236 19.9738 9.05576 19.7377 9.15562 19.6288C9.31903 19.4563 9.32811 19.3927 9.22825 19.1204C9.083 18.6937 9.07392 17.8585 9.22825 17.8041C9.28272 17.7768 9.33719 17.6316 9.34627 17.4863C9.35535 17.1958 9.51875 16.9416 9.70032 16.9416C9.76386 16.9416 9.86373 17.0052 9.92727 17.0778Z" fill="#05060F"/>
<path d="M81.9359 27.3545C81.9632 27.6903 81.9722 27.6994 82.408 27.763C82.6531 27.7993 82.8982 27.8719 82.9527 27.9264C83.0253 27.999 83.0616 29.4243 83.0798 32.7288C83.107 38.1031 83.1524 37.7944 82.3444 37.8852L81.9178 37.9396V38.2846V38.6387H84.1873H86.4569V38.2846C86.4569 37.9396 86.4569 37.9396 86.0393 37.8852C85.313 37.8035 85.3221 37.8489 85.2949 35.2162L85.2586 32.8922L85.6126 32.5381C86.1391 31.9934 86.6384 31.7302 87.165 31.7211C87.7278 31.7211 87.9548 31.8391 88.0819 32.2022C88.1908 32.5109 88.2271 37.1498 88.1273 37.5221C88.0637 37.7399 87.6824 37.9124 87.2648 37.9124C87.0197 37.9124 87.0016 37.9396 87.0016 38.2755V38.6387H89.2711H91.5407V38.2846C91.5407 37.9396 91.5407 37.9396 91.1231 37.8852C90.3877 37.8035 90.415 37.9033 90.3605 34.7532C90.3151 32.0388 90.306 31.9571 90.0972 31.5214C89.6978 30.7225 88.8989 30.323 87.8186 30.3957C86.8563 30.4683 86.1119 30.9131 85.4764 31.7846L85.2858 32.057L85.2767 29.5332V27.0186H83.5882H81.9087L81.9359 27.3545Z" fill="#05060F" fill-opacity="0.88"/>
<path d="M127.054 27.3545C127.082 27.6903 127.091 27.6994 127.526 27.763C127.772 27.7993 128.017 27.8719 128.071 27.9264C128.144 27.999 128.171 29.4061 128.171 32.7832C128.171 38.1484 128.216 37.8035 127.454 37.8852C127.036 37.9396 127.036 37.9396 127.036 38.2846V38.6387H129.306H131.575V38.2846C131.575 37.9396 131.575 37.9396 131.158 37.8852C130.386 37.8035 130.441 38.212 130.413 32.2839L130.386 27.0186H128.707H127.027L127.054 27.3545Z" fill="black"/>
<path d="M132.592 27.3545C132.619 27.6813 132.638 27.6994 133.01 27.7539C133.754 27.8538 133.709 27.5179 133.709 32.8286C133.709 38.1484 133.754 37.8035 132.992 37.8852C132.574 37.9396 132.574 37.9396 132.574 38.2846V38.6387H134.853H137.122L137.095 38.3028C137.068 37.976 137.05 37.9578 136.659 37.8943C135.888 37.7672 135.933 38.1303 135.933 32.2295V27.0186H134.244H132.565L132.592 27.3545Z" fill="#05060F" fill-opacity="0.6"/>
<path d="M139.201 28.1079V29.1973H140.291H141.38V28.1079V27.0185H140.291H139.201V28.1079Z" fill="#05060F"/>
<path d="M163.621 28.1079V29.1973H164.711H165.8V28.1079V27.0185H164.711H163.621V28.1079Z" fill="black"/>
<path d="M48.528 28.0808C48.5552 28.4076 48.5734 28.4258 48.9637 28.4893C49.1907 28.5256 49.4267 28.6255 49.4903 28.7163C49.6537 28.9432 49.6537 37.4495 49.4812 37.6765C49.4086 37.7763 49.1998 37.858 48.9365 37.8853C48.5098 37.9397 48.5098 37.9397 48.5098 38.2847V38.6387H50.1893H51.8687V38.2847C51.8687 37.9397 51.8687 37.9397 51.4512 37.8853C50.6977 37.8036 50.734 37.9942 50.7067 34.027C50.6886 31.8482 50.7067 30.5501 50.7612 30.6045C50.8066 30.6499 52.1865 32.52 53.8115 34.7533L56.7801 38.8203H57.5063H58.2235L58.2326 34.3901C58.2326 30.0235 58.278 28.8343 58.4595 28.6527C58.514 28.5982 58.7319 28.5256 58.9588 28.4893C59.3401 28.4258 59.3583 28.4076 59.3855 28.0808L59.4127 27.7449H57.7242H56.0356L56.0629 28.0808C56.0901 28.4076 56.1083 28.4258 56.4805 28.4802C57.1977 28.571 57.1795 28.453 57.2067 31.9027C57.2249 33.5822 57.2249 35.1799 57.2067 35.4523L57.1795 35.9425L54.1928 31.8482L51.197 27.7449H49.8534H48.5007L48.528 28.0808Z" fill="black"/>
<path d="M121.226 28.0535C121.226 28.3894 121.253 28.4075 121.88 28.5165C122.079 28.5437 122.261 28.6436 122.315 28.7434C122.37 28.8524 122.406 30.4864 122.406 33.2281C122.406 38.0123 122.443 37.7672 121.789 37.867C121.253 37.9578 121.226 37.976 121.226 38.3209V38.6387H123.541H125.856V38.2846C125.856 37.9396 125.856 37.9396 125.429 37.8852C125.184 37.8579 124.957 37.7762 124.894 37.6855C124.703 37.4313 124.658 36.1966 124.694 32.4473C124.721 28.3984 124.685 28.6163 125.411 28.4892C125.792 28.4257 125.811 28.4075 125.838 28.0807L125.865 27.7448H123.55H121.226V28.0535Z" fill="black"/>
<path d="M77.8778 29.0154C77.3785 29.1153 76.9609 29.1879 76.9519 29.1879C76.9337 29.197 76.9246 29.5056 76.9246 29.8778V30.5587H76.4253H75.926V30.9218V31.285H76.4162H76.9065L76.9428 34.1174C76.97 36.8499 76.9791 36.977 77.1788 37.4128C77.2968 37.6579 77.4966 37.9756 77.6237 38.1118C78.1593 38.6746 79.5482 38.9651 80.5105 38.7109C80.9554 38.5929 80.9644 38.5838 80.9917 38.2116L81.0189 37.8394L80.4742 37.8848C79.7843 37.9484 79.4302 37.8122 79.2759 37.4309C79.1942 37.2221 79.1488 36.2598 79.1216 34.2081L79.0852 31.285H80.0021H80.919V30.9218V30.5587H80.0112H79.1034V29.6963C79.1034 28.6977 79.2305 28.7703 77.8778 29.0154Z" fill="black"/>
<path d="M62.7804 30.4768C61.8181 30.6675 60.8105 31.3574 60.3384 32.1654C59.6212 33.4 59.5577 35.5243 60.2113 36.8043C61.3551 39.0285 65.1317 39.5187 66.9746 37.6758C67.8007 36.8497 68.182 35.6877 68.0912 34.2352C67.9641 32.1926 66.8929 30.8672 65.05 30.4768C64.4962 30.3588 63.3524 30.3588 62.7804 30.4768ZM64.6868 31.3392C65.4767 31.7478 65.9124 33.6451 65.6764 35.6423C65.4857 37.231 64.932 38.0026 63.9787 38.0026C63.2979 38.0026 62.9529 37.7757 62.5989 37.0857C61.8908 35.6968 62.0269 32.6193 62.8349 31.657C63.2797 31.1304 64.0332 31.0033 64.6868 31.3392Z" fill="black"/>
<path d="M73.5017 30.5318C73.1204 30.6589 72.2943 31.3761 71.9947 31.83C71.8585 32.0479 71.8495 32.0297 71.8495 31.3035L71.8404 30.5591H70.1609H68.4814V30.8677C68.4814 31.2036 68.5087 31.2218 69.1442 31.3307C69.3983 31.367 69.5073 31.4487 69.5708 31.6121C69.6707 31.8572 69.6979 37.1862 69.6071 37.5221C69.5436 37.7399 69.1623 37.9124 68.7447 37.9124C68.4996 37.9124 68.4814 37.9396 68.4814 38.2755V38.6387H70.8418H73.2021V38.2846V37.9396L72.6847 37.8852C71.8585 37.8035 71.8858 37.8852 71.8585 35.198L71.8313 32.8468L72.1763 32.4564C72.5576 32.0388 72.957 31.83 73.3837 31.83C73.7014 31.83 73.8376 32.066 73.8376 32.6561V33.0102H74.3369H74.8362V31.6938V30.3775L74.3641 30.3866C74.1009 30.3866 73.7105 30.4501 73.5017 30.5318Z" fill="black"/>
<path d="M94.8083 30.504C93.0834 31.0033 92.0576 32.4831 92.0485 34.4621C92.0394 35.8238 92.4026 36.7861 93.2105 37.5941C94.082 38.4656 95.353 38.8832 96.8963 38.7833C97.7224 38.7379 98.5667 38.5745 99.1023 38.3748C99.3292 38.284 99.3474 38.2386 99.3474 37.7757C99.3474 37.1947 99.3383 37.1947 98.5667 37.467C98.1672 37.6123 97.8041 37.6667 97.1232 37.6758C96.288 37.6849 96.17 37.6667 95.6707 37.4125C94.7992 36.9768 94.427 36.3595 94.2908 35.1611L94.2364 34.6437H96.7964H99.3474L99.2929 33.981C99.1386 32.1926 98.6393 31.2575 97.559 30.7219C97.0234 30.4586 96.86 30.4223 96.0883 30.4041C95.5709 30.3951 95.0534 30.4314 94.8083 30.504ZM96.515 31.2575C96.869 31.4845 97.0778 32.0927 97.1414 33.1004L97.1959 34.0082H95.7615H94.3271L94.3725 33.2093C94.427 32.3287 94.6358 31.7386 95.008 31.3937C95.4347 31.0033 96.0429 30.9488 96.515 31.2575Z" fill="black"/>
<path d="M105.285 30.5228C104.84 30.6771 104.241 31.1764 103.878 31.6757L103.615 32.0388V31.3035V30.5591H101.935H100.256V30.8768C100.256 31.1491 100.292 31.1945 100.51 31.2399C101.045 31.3489 101.209 31.4306 101.318 31.6484C101.409 31.8209 101.436 32.5472 101.418 34.7078C101.39 37.9124 101.409 37.8035 100.673 37.8852C100.256 37.9396 100.256 37.9396 100.256 38.2846V38.6387H102.616H104.976V38.2846V37.9396L104.459 37.8852C103.642 37.8035 103.66 37.8852 103.633 35.2253L103.605 32.9012L103.832 32.5563C104.105 32.1478 104.749 31.8028 105.176 31.8482C105.467 31.8754 105.476 31.8845 105.557 32.4383L105.648 33.0102H106.129H106.61V31.6938V30.3775L106.138 30.3866C105.875 30.3866 105.485 30.4501 105.285 30.5228Z" fill="black"/>
<path d="M112.629 30.5409C112.039 30.7497 111.567 31.1128 111.204 31.6212L110.922 32.0297L110.895 31.2944L110.868 30.5591H109.198H107.518V30.8768C107.518 31.1491 107.554 31.1945 107.772 31.2399C108.508 31.3943 108.553 31.4215 108.626 31.7211C108.671 31.8845 108.698 33.2644 108.68 34.7804C108.653 37.9033 108.671 37.8035 107.936 37.8852C107.518 37.9396 107.518 37.9396 107.518 38.2846V38.6387H109.788H112.057V38.2846C112.057 37.9396 112.057 37.9396 111.64 37.8852C110.913 37.8035 110.922 37.8489 110.895 35.2162L110.868 32.8922L111.258 32.4927C111.476 32.2658 111.803 32.0025 111.994 31.9117C112.384 31.712 113.11 31.6666 113.41 31.8209C113.746 32.0025 113.791 32.4564 113.764 35.0709C113.737 37.867 113.746 37.8035 113.019 37.8852C112.602 37.9396 112.602 37.9396 112.602 38.2846V38.6387H114.871H117.141V38.2846C117.141 37.9396 117.141 37.9396 116.723 37.8852C115.988 37.8035 116.015 37.9033 115.961 34.7532L115.915 31.9662L115.634 31.4669C115.225 30.7406 114.717 30.4501 113.8 30.4047C113.283 30.3775 112.974 30.4138 112.629 30.5409Z" fill="black"/>
<path d="M148.588 30.5046C148.053 30.6771 147.462 31.1128 147.099 31.6031L146.782 32.0297L146.754 31.2944L146.727 30.5591H145.057H143.377V30.8677C143.377 31.2036 143.404 31.2218 144.031 31.3307C144.231 31.3579 144.412 31.4578 144.467 31.5577C144.566 31.7392 144.594 37.168 144.503 37.5221C144.448 37.7218 144.131 37.867 143.65 37.9306C143.459 37.9578 143.423 38.0123 143.395 38.2937L143.368 38.6387H145.638H147.916V38.2846C147.916 37.9396 147.916 37.9396 147.499 37.8852C147.272 37.867 147.045 37.8035 146.99 37.749C146.809 37.5674 146.745 36.8412 146.736 34.8894V32.9194L147.108 32.5109C147.698 31.8663 148.525 31.5758 149.178 31.7846C149.605 31.9208 149.641 32.175 149.641 34.9529C149.641 37.8307 149.65 37.7672 149.024 37.867C148.488 37.9578 148.461 37.976 148.461 38.3209V38.6387H150.731H153V38.2846C153 37.9396 153 37.9396 152.583 37.8852C152.356 37.867 152.12 37.7944 152.074 37.749C151.893 37.5674 151.829 36.7776 151.829 34.499C151.82 32.0297 151.775 31.7392 151.312 31.131C150.958 30.668 150.44 30.441 149.641 30.4047C149.233 30.3866 148.806 30.432 148.588 30.5046Z" fill="black"/>
<path d="M156.313 30.5048C155.251 30.759 154.253 31.5216 153.835 32.3749C153 34.127 153.29 36.4873 154.498 37.6857C155.687 38.884 157.984 39.1563 159.691 38.3211C161.052 37.6493 161.715 36.4329 161.715 34.5991C161.715 31.9028 160.154 30.3595 157.457 30.3868C157.076 30.3868 156.559 30.4412 156.313 30.5048ZM158.356 31.3672C158.982 31.8211 159.255 32.6291 159.327 34.1905C159.436 36.6871 158.837 38.0034 157.584 38.0034C156.722 38.0034 156.205 37.4587 155.941 36.3058C155.723 35.3072 155.796 33.083 156.077 32.3567C156.313 31.7576 156.695 31.3309 157.112 31.2038C157.494 31.0858 158.075 31.1584 158.356 31.3672Z" fill="black"/>
<path d="M169.904 30.5228C169.259 30.6953 168.941 30.8678 168.524 31.2854C168.033 31.7756 167.825 32.4928 167.97 33.1374C168.188 34.0815 168.796 34.6171 170.421 35.3252C171.547 35.8154 171.91 36.0242 172.1 36.3238C172.427 36.814 172.173 37.6674 171.619 37.9579C171.302 38.1122 170.539 38.1394 170.04 37.9942C169.54 37.858 169.087 37.4223 169.023 37.0228C168.878 36.1241 168.923 36.1876 168.378 36.1876H167.888V37.2316V38.2665L168.469 38.4481C169.168 38.666 170.239 38.8203 171.002 38.8203C172.936 38.8112 174.415 37.74 174.424 36.342C174.424 35.2072 173.816 34.6171 171.765 33.7728C171.111 33.5005 170.457 33.1737 170.321 33.0375C169.441 32.1932 170.494 30.8043 171.81 31.0948C172.382 31.2218 172.7 31.6122 172.7 32.1932V32.6471H173.199H173.698V31.6939V30.7498L173.326 30.6499C172.228 30.3503 170.73 30.2959 169.904 30.5228Z" fill="black"/>
<path d="M138.021 30.8677C138.021 31.2036 138.048 31.2218 138.674 31.3307C138.874 31.3579 139.055 31.4578 139.11 31.5577C139.164 31.6575 139.201 32.8468 139.201 34.6352C139.201 37.8579 139.219 37.7672 138.583 37.867C138.048 37.9578 138.021 37.976 138.021 38.3209V38.6387H140.29H142.56V38.2846C142.56 37.9396 142.56 37.9396 142.142 37.8852C141.915 37.867 141.688 37.8035 141.634 37.749C141.434 37.5493 141.389 36.7686 141.379 33.7092V30.5591H139.7H138.021V30.8677Z" fill="black"/>
<path d="M162.46 30.895C162.487 31.2218 162.505 31.2399 162.877 31.2944C163.603 31.3852 163.576 31.2762 163.576 34.5989C163.576 37.9306 163.603 37.8035 162.859 37.8852C162.441 37.9396 162.441 37.9396 162.441 38.2846V38.6387H164.72H166.99L166.962 38.3028C166.935 37.976 166.917 37.9578 166.527 37.8943C165.773 37.7672 165.8 37.9033 165.8 33.9997V30.5591H164.112H162.432L162.46 30.895Z" fill="black"/>
<path d="M14.3755 37.1125V40.6621L14.9111 40.1537L15.4558 39.6363H16.9537H18.4607V38.5469V37.4575H16.872H15.2833V37.0944V36.7312H16.872H18.4607V35.5783V34.4254L18.8874 33.9896L19.314 33.5539H16.8448H14.3755V37.1125Z" fill="black"/>
<path d="M20.4583 37.1132V40.6719L20.9848 40.1544L21.5113 39.637H23.0274H24.5434V38.5476V37.4582H22.9548H21.3661V37.0951V36.7319H22.9548H24.5434V35.579V34.4261L24.9701 33.9903L25.3968 33.5546H22.9275H20.4583V37.1132Z" fill="black"/>
<path d="M71.2959 41.9067V42.9961H72.3853H73.4837L73.4565 41.9249L73.4293 40.8627L72.3671 40.8355L71.2959 40.8082V41.9067Z" fill="black"/>
<path d="M108.063 41.9067V42.9961H109.152H110.242V41.9067V40.8173H109.152H108.063V41.9067Z" fill="black"/>
<path d="M48.3009 41.6071C48.2645 41.6343 48.2373 41.7977 48.2373 41.9611C48.2373 42.2335 48.2645 42.2698 48.5823 42.3152C49.1088 42.406 49.3176 42.5149 49.363 42.7419C49.3902 42.8599 49.4266 44.4032 49.4447 46.1734C49.481 49.5868 49.5264 49.95 49.9712 50.8124C50.4342 51.7293 51.3874 52.392 52.5676 52.619C53.43 52.7914 55.055 52.6916 55.7178 52.4374C56.3714 52.1832 57.0613 51.5659 57.37 50.9667C57.8511 50.0135 57.8874 49.7321 57.9419 46.0645C58.0055 42.2335 57.9601 42.4332 58.6773 42.297C59.0676 42.2244 59.0858 42.2062 59.0858 41.9067V41.5889L57.3881 41.5617L55.6814 41.5435V41.9067C55.6814 42.2335 55.6996 42.2698 55.9084 42.2698C56.0355 42.2698 56.2806 42.3243 56.444 42.3969C56.7436 42.524 56.7617 42.5512 56.8162 43.105C56.8525 43.4227 56.8616 45.0296 56.8435 46.6727C56.8071 49.487 56.789 49.7048 56.5983 50.304C56.3532 51.0575 55.7722 51.693 55.1731 51.8745C54.5376 52.0652 53.5299 52.0107 52.9943 51.7656C51.9049 51.2572 51.687 50.2949 51.6961 45.9465C51.6961 43.341 51.7597 42.5784 51.9685 42.4423C52.0411 42.406 52.268 42.3424 52.4859 42.3061C52.8581 42.2516 52.8672 42.2426 52.8672 41.8976V41.5435H50.6158C49.3721 41.5435 48.3281 41.5708 48.3009 41.6071Z" fill="black"/>
<path d="M14.3755 45.1923V48.751L14.902 48.2335L15.4286 47.7161H16.9446H18.4607V46.6267V45.5373H16.872H15.2833V45.1742V44.811L16.8538 44.7929L18.4153 44.7656L18.4425 43.6309L18.4698 42.4961L18.8874 42.0694L19.314 41.6337H16.8448H14.3755V45.1923Z" fill="black"/>
<path d="M20.4583 45.1923V48.751L20.9848 48.2335L21.5113 47.7161H23.0274H24.5434V46.6267V45.5373H22.9548H21.3661V45.1742V44.811L22.9366 44.7929L24.4981 44.7656L24.5253 43.6309L24.5525 42.4961L24.9701 42.0694L25.3968 41.6337H22.9275H20.4583V45.1923Z" fill="black"/>
<path d="M113.991 42.8327L112.965 43.0234V43.6861V44.3579H112.466H111.966V44.721V45.0841H112.466H112.965V47.7622C112.965 49.3509 113.001 50.6218 113.065 50.8942C113.192 51.4933 113.628 52.0471 114.181 52.3376C114.726 52.619 116.042 52.7098 116.642 52.5101C116.987 52.4011 117.005 52.3648 117.032 52.0017C117.059 51.6204 117.059 51.6113 116.805 51.684C116.36 51.8111 115.707 51.7566 115.507 51.575C115.189 51.2845 115.144 50.8397 115.144 47.9165V45.0841H116.042C116.542 45.0841 117.05 45.1204 117.168 45.1658C117.477 45.2838 117.731 45.765 119.356 49.2964L120.781 52.3739L120.518 52.6553C120.382 52.8097 119.755 53.4815 119.147 54.1442L118.021 55.3516L119.011 55.3243L119.991 55.2971L122.552 50.4856C123.959 47.8439 125.211 45.5653 125.329 45.42C125.475 45.2294 125.647 45.1477 125.929 45.1113C126.301 45.0569 126.31 45.0569 126.31 44.7028V44.3488L124.885 44.376L123.45 44.4032V44.721C123.45 44.9933 123.487 45.0387 123.677 45.066C124.158 45.1204 124.313 45.184 124.313 45.3292C124.313 45.4654 122.461 49.133 122.152 49.6051C122.025 49.8048 121.998 49.7594 121.344 48.3341C120.972 47.5171 120.527 46.5094 120.345 46.0918C120.046 45.3655 120.037 45.3201 120.191 45.2021C120.282 45.1386 120.509 45.0841 120.7 45.0841C121.045 45.0841 121.045 45.0841 121.045 44.721V44.3579H118.094H115.144V43.4954C115.144 43.0234 115.116 42.633 115.08 42.6421C115.035 42.6511 114.545 42.7329 113.991 42.8327Z" fill="black"/>
<path d="M64.9502 44.3125C64.2875 44.5031 63.9425 44.7301 63.3979 45.3383L62.9439 45.8467V45.1023V44.3579L61.2917 44.376L59.6304 44.4033L59.6032 44.7301L59.5759 45.0569L60.0298 45.1205C60.7833 45.2203 60.7652 45.1386 60.7652 48.4612C60.7652 51.7476 60.7924 51.6295 60.0026 51.7476C59.6032 51.8111 59.585 51.8202 59.585 52.1288V52.4375H61.8546H64.1241V52.1198C64.1241 51.8202 64.106 51.802 63.7519 51.7476C63.5522 51.7112 63.298 51.6114 63.1891 51.5297C62.9984 51.3663 62.9893 51.3027 62.9621 49.0604L62.9258 46.7545L63.3434 46.3188C63.8245 45.8286 64.3783 45.5471 64.8685 45.5381C65.3406 45.5381 65.6402 45.7015 65.7582 46.0192C65.8127 46.1826 65.849 47.2902 65.849 48.8153C65.849 51.7022 65.8671 51.6295 65.0864 51.7476C64.687 51.8111 64.6688 51.8202 64.6688 52.1288V52.4375H66.9384H69.2079V52.1198C69.2079 51.8202 69.1898 51.802 68.8357 51.7476C68.636 51.7112 68.3818 51.6114 68.2729 51.5297C68.0731 51.3663 68.0731 51.3118 68.0277 48.5611C67.9733 45.5108 67.9733 45.4836 67.4013 44.8753C66.8567 44.2762 65.8671 44.0583 64.9502 44.3125Z" fill="black"/>
<path d="M86.8923 44.2663C85.8029 44.457 84.6681 45.2921 84.2051 46.2726C83.7149 47.2894 83.6332 48.7146 83.9963 49.8766C84.4139 51.2202 85.5033 52.1825 86.9922 52.5275C87.9181 52.7454 90.5327 52.4912 90.9775 52.1462C91.0955 52.0463 91.1318 51.075 91.0138 51.075C90.9775 51.075 90.6961 51.1657 90.4056 51.2747C89.761 51.5016 88.4084 51.6015 87.8637 51.4472C87.6639 51.3927 87.3099 51.2293 87.0739 51.084C86.5473 50.7482 86.1206 49.9402 86.0389 49.105L85.9754 48.5331L88.5082 48.5149L91.041 48.4877L91.0047 47.8159C90.9139 45.7642 90.0424 44.575 88.4084 44.2754C87.8183 44.1664 87.5187 44.1664 86.8923 44.2663ZM88.1723 45.038C88.6172 45.2649 88.8986 46.1818 88.9077 47.3711V47.8068H87.4733H86.0389L86.1025 47.0533C86.2023 45.9458 86.4384 45.3829 86.9558 45.0743C87.2827 44.8655 87.8183 44.8564 88.1723 45.038Z" fill="black"/>
<path d="M97.2416 44.3034C96.6515 44.4578 96.1431 44.8209 95.7437 45.3656L95.3987 45.8195L95.3715 45.0932L95.3442 44.3579H93.6739H91.9944V44.7119V45.0569L92.4392 45.1205C92.6843 45.1477 92.9385 45.2476 93.0021 45.3293C93.1019 45.4382 93.1382 46.0646 93.1564 48.1617C93.1746 49.6414 93.1655 50.9759 93.1292 51.1393C93.0565 51.5388 92.8931 51.6749 92.4029 51.7476C92.0125 51.8111 91.9944 51.8202 91.9944 52.1288V52.4375H94.3547H96.7151V52.1288C96.7151 51.8202 96.7151 51.8202 96.1522 51.7203C95.8435 51.6659 95.553 51.5841 95.4986 51.5297C95.435 51.4661 95.3896 50.5765 95.3715 49.0332L95.3442 46.6365L95.6711 46.2825C96.0523 45.8467 96.3882 45.7015 96.8603 45.7378L97.2144 45.765L97.2961 46.2825L97.3687 46.809H97.8589H98.3491V45.5471C98.3491 44.485 98.331 44.2762 98.2039 44.2308C97.9951 44.1491 97.7318 44.1763 97.2416 44.3034Z" fill="black"/>
<path d="M101.98 44.2299C101.354 44.3116 100.546 44.6384 100.164 44.9652C99.6652 45.3919 99.4382 45.8912 99.4382 46.5721C99.4382 47.7976 100.092 48.424 102.352 49.35C103.578 49.8493 103.986 50.4666 103.596 51.2474C103.424 51.5832 103.306 51.7013 102.952 51.8374C102.57 52.0008 102.452 52.0099 101.926 51.9191C101.317 51.8102 100.691 51.4743 100.573 51.1838C100.537 51.093 100.482 50.8025 100.446 50.5302L100.391 50.0309L99.9194 50.0036L99.4382 49.9764V51.0567V52.1279L99.9194 52.2823C100.7 52.5183 101.417 52.6182 102.38 52.6182C103.732 52.6182 104.44 52.3912 105.176 51.7285C105.666 51.2927 105.884 50.8025 105.884 50.1398C105.884 49.0232 105.248 48.3968 103.296 47.6251C102.289 47.2257 101.726 46.9261 101.617 46.7264C101.481 46.4541 101.508 45.8277 101.681 45.5372C102.026 44.938 103.07 44.711 103.687 45.0832C104.023 45.292 104.123 45.4918 104.204 46.1L104.259 46.5358H104.758H105.248V45.5826C105.248 44.6566 105.239 44.6203 105.03 44.5476C104.468 44.3298 102.67 44.1482 101.98 44.2299Z" fill="black"/>
<path d="M70.1157 44.721C70.1157 45.0388 70.143 45.0841 70.3336 45.0841C70.7421 45.0841 71.1143 45.2748 71.187 45.5199C71.2233 45.6561 71.2505 47.0269 71.2505 48.5611C71.2505 51.339 71.2505 51.3663 71.0508 51.5297C70.9418 51.6114 70.6876 51.7112 70.4879 51.7476C70.1339 51.802 70.1157 51.8202 70.1157 52.1198V52.4375H72.3853H74.6548V52.1288C74.6548 51.8293 74.6367 51.8111 74.2463 51.7566C73.4747 51.6386 73.5291 51.9019 73.4747 47.9256L73.4293 44.4033L71.777 44.376L70.1157 44.3579V44.721Z" fill="black"/>
<path d="M74.1739 44.4205C74.1376 44.4477 74.1104 44.6111 74.1104 44.7655C74.1104 45.0378 74.1376 45.0651 74.5007 45.1104C74.7912 45.1468 74.9455 45.2375 75.1634 45.4827C75.3178 45.6642 76.1802 47.3255 77.0698 49.1684L78.6948 52.5273L79.058 52.5183H79.4211L81.1097 49.0958C82.0447 47.2166 82.9071 45.5644 83.0342 45.4282C83.1795 45.2739 83.4064 45.1558 83.6334 45.1195C83.9965 45.0651 84.0056 45.0469 84.0056 44.7019V44.357L82.5349 44.3751L81.0552 44.4023V44.7201C81.0552 45.0197 81.0733 45.0378 81.4455 45.1014C81.963 45.1922 82.0084 45.2285 81.9267 45.519C81.8178 45.873 79.9023 49.8039 79.8296 49.8039C79.757 49.8039 77.8687 45.8458 77.787 45.519C77.7326 45.3011 77.7598 45.2557 77.9686 45.174C78.0957 45.1286 78.3045 45.0832 78.4316 45.0832C78.6222 45.0832 78.6495 45.0469 78.6495 44.7201V44.357H76.4435C75.227 44.357 74.2011 44.3842 74.1739 44.4205Z" fill="black"/>
<path d="M106.882 44.721C106.882 45.0478 106.9 45.0841 107.109 45.0841C107.236 45.0841 107.481 45.1386 107.645 45.2112C107.935 45.3383 107.963 45.3656 108.017 45.9193C108.099 46.6728 108.035 51.2573 107.935 51.4571C107.89 51.5478 107.672 51.6477 107.373 51.7112C106.891 51.8111 106.882 51.8202 106.882 52.1288V52.4375H109.152H111.421V52.1288C111.421 51.8293 111.403 51.8111 111.013 51.7566C110.241 51.6386 110.287 51.9019 110.259 47.9075L110.232 44.3579H108.562H106.882V44.721Z" fill="black"/>
<path d="M35.5278 47.8163C34.502 48.2157 31.0523 49.3687 29.164 49.9315C21.1207 52.3463 12.4873 53.8805 4.05367 54.398L3.02783 54.4615V59.5272V64.5928L11.2799 67.3163C15.819 68.8233 19.6046 70.0488 19.6954 70.0488C19.7953 70.0488 23.5627 68.8233 28.0837 67.3344L36.2995 64.6201L36.3267 56.0775C36.3358 51.3749 36.3176 47.5349 36.2813 47.5439C36.2359 47.5439 35.9 47.662 35.5278 47.8163ZM11.8609 58.0111L14.8295 60.0537V58.3107C14.8204 56.9671 14.7932 56.5132 14.6933 56.3407C14.6207 56.2136 14.5662 56.0865 14.5572 56.0411C14.5572 56.0048 15.1745 55.9776 15.9189 55.9776H17.2897L17.1444 56.2499C17.0264 56.4678 17.0083 57.0307 17.0083 59.7904C17.0083 62.5502 17.0264 63.1131 17.1444 63.331L17.2897 63.6033H15.9552H14.6298L14.6843 63.3945C14.7206 63.2856 14.775 63.0314 14.7932 62.8316L14.8386 62.4685L11.9063 60.4441L8.97406 58.4196L8.94683 60.6983C8.92867 62.5865 8.94683 63.0132 9.06484 63.2402C9.13747 63.3854 9.20101 63.5216 9.20101 63.5579C9.20101 63.5851 8.56554 63.6033 7.79389 63.6033H6.37769L6.52294 63.331C6.72266 62.9406 6.73174 56.5586 6.52294 56.2863C6.45032 56.1955 6.38677 56.0865 6.38677 56.0411C6.38677 56.0048 6.94962 55.9776 7.63956 55.9776H8.88328L11.8609 58.0111ZM21.8197 56.0411C21.8106 56.0865 21.7562 56.2136 21.6836 56.3407C21.5746 56.5223 21.5565 57.1668 21.5565 59.7904C21.5565 62.4141 21.5746 63.0586 21.6836 63.2402C21.7562 63.3673 21.8106 63.4944 21.8197 63.5307C21.8197 63.5761 21.2206 63.6033 20.4943 63.6033C19.2597 63.6033 19.1689 63.5942 19.2415 63.4399C19.2869 63.3582 19.3323 61.7604 19.3505 59.9085C19.3686 56.9853 19.3595 56.486 19.2324 56.2499L19.0872 55.9776H20.458C21.2024 55.9776 21.8197 56.0048 21.8197 56.0411ZM26.4496 56.0411C26.4405 56.0865 26.3861 56.2136 26.3134 56.3407C26.2136 56.5223 26.1863 57.0942 26.1773 59.2185V61.8784H28.4922H30.8072V59.2004C30.8072 56.9671 30.7799 56.4678 30.671 56.2499L30.5257 55.9776H31.8965C32.641 55.9776 33.2583 56.0048 33.2583 56.0411C33.2492 56.0865 33.1947 56.2136 33.1221 56.3407C33.0132 56.5223 32.995 57.1215 32.9859 59.4273L32.9768 62.287L32.1417 62.9406L31.3065 63.6033H28.5013H25.6961L24.8518 62.9224L23.9985 62.2325V59.4182C23.9985 57.1668 23.9713 56.5404 23.8714 56.2953L23.7352 55.9776H25.097C25.8414 55.9776 26.4496 56.0048 26.4496 56.0411Z" fill="black"/>
</svg>
