<svg width="101" height="48" viewBox="0 0 101 48" fill="none" xmlns="http://www.w3.org/2000/svg">
<g clip-path="url(#clip0_3294_8889)">
<mask id="mask0_3294_8889" style="mask-type:luminance" maskUnits="userSpaceOnUse" x="2" y="16" width="97" height="16">
<path d="M98.4001 16.2H2.40015V31.8H98.4001V16.2Z" fill="white"/>
</mask>
<g mask="url(#mask0_3294_8889)">
<path d="M5.90661 22.6671C5.73642 22.4721 5.46408 22.5046 5.32791 22.7321L2.43429 28.2571C2.33216 28.4846 2.50237 28.7446 2.74067 28.7446H6.75768C6.89385 28.7446 6.99598 28.6796 7.06406 28.5496C7.94917 26.8271 7.40449 24.2271 5.90661 22.6671Z" fill="url(#paint0_linear_3294_8889)"/>
<path d="M8.01728 17.6621C6.41728 20.0996 6.51941 22.7971 7.57473 24.8446C8.63005 26.8921 9.44707 28.4196 9.51515 28.5496C9.58324 28.6796 9.68537 28.7446 9.82154 28.7446H13.8386C14.1109 28.7446 14.2471 28.4846 14.1449 28.2571C14.1449 28.2571 8.73217 17.9221 8.596 17.6621C8.49388 17.4346 8.15345 17.4346 8.01728 17.6621Z" fill="#05060F" fill-opacity="0.6"/>
<path d="M55.1661 22.0825C55.1661 23.4475 55.8129 24.52 58.4342 25.0075C59.9661 25.3325 60.3066 25.56 60.3066 26.0475C60.3066 26.535 59.9661 26.8275 58.8768 26.8275C57.6172 26.8275 56.1193 26.405 55.1321 25.8525V28.0625C55.9151 28.42 56.9363 28.8425 58.8768 28.8425C61.6002 28.8425 62.6555 27.6725 62.6555 25.9825M62.6555 26.015C62.6555 24.39 61.7704 23.6425 59.2172 23.1225C57.8214 22.83 57.481 22.5375 57.481 22.115C57.481 21.595 57.9917 21.3675 58.9108 21.3675C60.0342 21.3675 61.1236 21.6925 62.1789 22.1475V20.035C61.43 19.6775 60.3065 19.4175 58.9789 19.4175C56.4597 19.4175 55.1661 20.4575 55.1661 22.1475" fill="#05060F"/>
<path d="M90.0259 19.4819V28.7444H92.1025V21.6919L92.9535 23.5444L95.8812 28.7444H98.4684V19.4819H96.4259V25.4619L95.6429 23.7069L93.294 19.4819H90.0259Z" fill="#05060F"/>
<path d="M76.8855 19.4819H74.6387V28.7444H76.8855V19.4819Z" fill="#05060F"/>
<path d="M72.0512 25.982C72.0512 24.357 71.1661 23.6095 68.6129 23.0895C67.2172 22.797 66.8768 22.5045 66.8768 22.082C66.8768 21.562 67.3874 21.3345 68.3066 21.3345C69.43 21.3345 70.5193 21.6595 71.5746 22.1145V20.002C70.8257 19.6445 69.7023 19.3845 68.3746 19.3845C65.8555 19.3845 64.5619 20.4245 64.5619 22.1145C64.5619 23.4795 65.2087 24.552 67.83 25.0395C69.3619 25.3645 69.7023 25.592 69.7023 26.0795C69.7023 26.567 69.3619 26.8595 68.2725 26.8595C67.0129 26.8595 65.5151 26.437 64.5278 25.8845V28.0945C65.3108 28.452 66.3321 28.8745 68.2725 28.8745C70.9619 28.8745 72.0512 27.7045 72.0512 25.982Z" fill="#05060F"/>
<path d="M37.6685 19.4819V28.7444H42.2982L43.0131 26.7294H39.9153V19.4819H37.6685Z" fill="#05060F"/>
<path d="M28.511 19.4819V21.4644H30.9961V28.7444H33.2769V21.4644H35.9663V19.4819H28.511Z" fill="#05060F"/>
<path d="M25.2086 19.4819H22.2469L18.8767 28.7444H21.4639L21.9405 27.1844C22.5193 27.3469 23.132 27.4444 23.7448 27.4444C24.3576 27.4444 24.9703 27.3469 25.549 27.1844L26.0256 28.7444H28.6129C28.5788 28.7444 25.2086 19.4819 25.2086 19.4819ZM23.7108 25.4944C23.2682 25.4944 22.8597 25.4294 22.4852 25.3319L23.7108 21.3019L24.9363 25.3319C24.5618 25.4294 24.1533 25.4944 23.7108 25.4944Z" fill="#05060F"/>
<path d="M50.2981 19.4819H47.3364L43.9321 28.7444H46.5194L46.996 27.1844C47.5747 27.3469 48.1874 27.4444 48.8002 27.4444C49.413 27.4444 50.0257 27.3469 50.6045 27.1844L51.0811 28.7444H53.6683L50.2981 19.4819ZM48.8002 25.4944C48.3577 25.4944 47.9491 25.4294 47.5747 25.3319L48.8002 21.3019L50.0257 25.3319C49.6513 25.4294 49.2428 25.4944 48.8002 25.4944Z" fill="#05060F"/>
<path d="M85.0216 19.4819H82.0599L78.6897 28.7444H81.2769L81.7535 27.1844C82.3323 27.3469 82.945 27.4444 83.5578 27.4444C84.1705 27.4444 84.7833 27.3469 85.362 27.1844L85.8386 28.7444H88.4259L85.0216 19.4819ZM83.5578 25.4944C83.1152 25.4944 82.7067 25.4294 82.3322 25.3319L83.5578 21.3019L84.7833 25.3319C84.4088 25.4294 83.9663 25.4944 83.5578 25.4944Z" fill="#05060F"/>
</g>
</g>
<defs>
<linearGradient id="paint0_linear_3294_8889" x1="7.47805" y1="23.5301" x2="4.63665" y2="28.685" gradientUnits="userSpaceOnUse">
<stop stop-color="#05060F"/>
<stop offset="0.923" stop-color="#05060F" stop-opacity="0.6"/>
</linearGradient>
<clipPath id="clip0_3294_8889">
<rect width="96" height="15.6" fill="white" transform="translate(2.40015 16.2)"/>
</clipPath>
</defs>
</svg>
