<svg width="101" height="48" viewBox="0 0 101 48" fill="none" xmlns="http://www.w3.org/2000/svg">
<g clip-path="url(#clip0_510_2754)">
<path d="M13.2631 15.6087C12.5974 15.2428 11.8153 15.0597 10.9169 15.0597H5.12573V29.029H7.64195V23.6707H10.9169C11.8153 23.6707 12.5974 23.488 13.2631 23.1218C13.9288 22.7559 14.4379 22.2486 14.7906 21.6002C15.1434 20.9519 15.3198 20.2083 15.3198 19.37C15.3198 18.5317 15.143 17.7867 14.7906 17.1347C14.4379 16.4827 13.9284 15.9745 13.2631 15.6087ZM12.5443 20.4528C12.3912 20.7756 12.1567 21.0316 11.8405 21.2211C11.5244 21.4107 11.1267 21.5055 10.6475 21.5055H7.64195V17.2249H10.6475C11.353 17.2249 11.884 17.4264 12.24 17.8288C12.596 18.2313 12.7743 18.745 12.7743 19.3705C12.7743 19.7697 12.6973 20.13 12.5443 20.4528ZM33.6874 18.9712L29.4742 30.6256C29.1681 31.4768 28.7654 32.1022 28.2661 32.5014C27.7666 32.9002 27.1444 33.0999 26.399 33.0999H25.1171V31.1545H26.2194C26.5653 31.1545 26.8517 31.0331 27.078 30.7904C27.3043 30.5473 27.7039 29.5181 27.8037 29.1889L24.0729 18.9712H26.509L28.9253 26.1852C29.0852 25.5932 31.2949 18.9712 31.2949 18.9712H33.6874ZM41.056 24.0548C41.4821 24.4839 41.6952 25.1409 41.6952 26.0254C41.6952 26.6376 41.5339 27.1829 41.2109 27.6619C40.8878 28.1408 40.4535 28.5153 39.9079 28.7845C39.3622 29.0538 38.7693 29.1889 38.1306 29.1889H37.3119C36.6531 29.1889 36.0387 29.062 35.4696 28.8097C34.9006 28.557 34.4383 28.2081 34.1167 27.7122C33.786 27.2022 33.6306 26.5218 33.6173 25.8964H35.9338C35.9736 26.302 36.0446 26.8047 36.3283 27.0438C36.6472 27.3125 36.9656 27.383 37.3317 27.383H38.0106C38.3831 27.383 38.696 27.2901 38.9489 27.1038C39.2019 26.9174 39.3283 26.628 39.3283 26.2356C39.3283 25.9032 39.2317 25.6455 39.0387 25.4623C38.8454 25.2796 38.5494 25.1514 38.1499 25.0782L36.2229 24.699C35.4175 24.5392 34.8035 24.2151 34.3807 23.7261C33.9578 23.2371 33.7465 22.6172 33.7465 21.8653C33.7465 21.2802 33.9027 20.7546 34.2157 20.2889C34.5286 19.8233 34.9478 19.4643 35.4738 19.2111C35.9997 18.9584 36.5656 18.832 37.1713 18.832H37.9401C38.5522 18.832 39.1216 18.9552 39.6476 19.201C40.1736 19.4474 40.5992 19.7949 40.9254 20.2436C41.2516 20.6928 41.4212 21.5091 41.4344 22.0943H39.178C39.151 21.7486 39.0919 21.2568 38.8037 20.9826C38.5278 20.7198 38.2324 20.6277 37.8997 20.6277H37.2505C36.911 20.6277 36.6316 20.7193 36.4116 20.902C36.1922 21.0851 36.0822 21.3361 36.0822 21.6552C36.0822 21.9148 36.1739 22.141 36.3567 22.3337C36.5395 22.5265 36.8075 22.6597 37.1602 22.733L39.1272 23.1423C39.9857 23.3223 40.628 23.6263 41.0541 24.0553L41.056 24.0548ZM50.9527 26.8089C50.873 26.6994 50.8327 26.5314 50.8327 26.3052V22.5636C50.8327 21.8653 50.6828 21.2285 50.3833 20.6529C50.0836 20.0779 49.6511 19.6269 49.0852 19.3009C48.5194 18.9749 47.8537 18.8119 47.0881 18.8119H46.3592C45.6802 18.8119 45.048 18.9533 44.4619 19.2358C43.876 19.5188 43.3967 19.9194 43.0243 20.4382C42.6513 20.9569 42.4983 21.4295 42.4452 22.0947H44.7914C44.8248 21.6291 44.9311 21.3631 45.2308 21.0971C45.53 20.831 45.9198 20.7179 46.3592 20.7179H47.0881C47.3411 20.7179 47.5774 20.793 47.7969 20.9423C48.0164 21.092 48.1896 21.3017 48.316 21.5709C48.4424 21.8402 48.5057 22.1414 48.5057 22.4738V22.6739L45.8397 23.0727C44.7681 23.2458 43.9108 23.5952 43.2685 24.1203C42.6261 24.6459 42.305 25.3643 42.305 26.2755C42.305 26.861 42.4429 27.3735 42.7191 27.8121C42.9954 28.2512 43.3862 28.5904 43.8925 28.8298C44.3983 29.0694 44.9838 29.1893 45.65 29.1893C46.3619 29.1893 46.991 29.0496 47.5372 28.7703C48.0828 28.4911 48.4855 28.1087 48.7453 27.6229C48.7719 28.1087 48.9299 28.4645 49.2195 28.6907C49.509 28.9169 49.9031 29.03 50.4025 29.03H51.9698V27.0644C51.6702 27.0644 51.4453 27.0497 51.2959 27.0195C51.1461 26.9897 51.031 26.9202 50.9513 26.8098L50.9527 26.8089ZM48.5066 24.8584C48.5066 25.3506 48.4049 25.7865 48.2019 26.1656C47.999 26.5447 47.7126 26.8391 47.3434 27.0488C46.9736 27.2585 46.5494 27.3629 46.0701 27.3629C45.6637 27.3629 45.3311 27.2535 45.0718 27.0337C44.812 26.8144 44.6824 26.5282 44.6824 26.1757C44.6824 25.7366 44.8271 25.4156 45.1167 25.2128C45.4062 25.0099 45.8539 24.8552 46.4596 24.749L48.5061 24.3698L48.5066 24.8584ZM25.2069 27.0634C24.9073 27.0634 24.6823 27.0488 24.5329 27.0186C24.3831 26.9888 24.2681 26.9192 24.1884 26.8089C24.1086 26.6994 24.0684 26.5314 24.0684 26.3052V22.5636C24.0684 21.8653 23.9186 21.2285 23.6189 20.6529C23.3193 20.0779 22.8868 19.6269 22.321 19.3009C21.7551 18.9749 21.0894 18.8119 20.3238 18.8119H19.5949C18.9159 18.8119 18.2836 18.9533 17.6977 19.2358C17.1116 19.5188 16.6324 19.9194 16.2599 20.4382C15.887 20.9569 15.734 21.4295 15.6808 22.0947H18.0271C18.0605 21.6291 18.1668 21.3631 18.4664 21.0971C18.7656 20.831 19.1555 20.7179 19.5949 20.7179H20.3238C20.5767 20.7179 20.8132 20.793 21.0326 20.9423C21.2521 21.092 21.4252 21.3017 21.5517 21.5709C21.6782 21.8402 21.7414 22.1414 21.7414 22.4738V22.6739L19.0753 23.0727C18.0037 23.2458 17.1465 23.5952 16.5041 24.1203C15.8618 24.6459 15.5406 25.3643 15.5406 26.2755C15.5406 26.861 15.6785 27.3735 15.9548 27.8121C16.231 28.2512 16.6219 28.5904 17.1281 28.8298C17.634 29.0694 18.2195 29.1893 18.8857 29.1893C19.5977 29.1893 20.2267 29.0496 20.7728 28.7703C21.3185 28.4911 21.7212 28.1087 21.981 27.6229C22.0075 28.1087 22.1657 28.4645 22.4552 28.6907C22.7448 28.9169 23.1388 29.03 23.6381 29.03H25.2055V27.0644L25.2069 27.0634ZM21.7423 24.8584C21.7423 25.3506 21.6406 25.7865 21.4376 26.1656C21.2346 26.5447 20.9483 26.8391 20.579 27.0488C20.2093 27.2585 19.785 27.3629 19.3058 27.3629C18.8994 27.3629 18.5668 27.2535 18.3075 27.0337C18.0477 26.8144 17.918 26.5282 17.918 26.1757C17.918 25.7366 18.0628 25.4156 18.3524 25.2128C18.6419 25.0099 19.0895 24.8552 19.6952 24.749L21.7418 24.3698L21.7423 24.8584ZM58.3552 20.9171H55.6195V29.029H53.2733V20.9171H51.3165V18.9712H53.2733V18.0234C53.2733 17.0592 53.5162 16.3239 54.0023 15.8184C54.4879 15.3129 55.1701 15.0602 56.0488 15.0602H58.3552V17.0061H56.7576C56.3713 17.0061 56.0851 17.1077 55.899 17.3105C55.7125 17.5134 55.6195 17.8243 55.6195 18.2437V18.9721H58.3552V20.918V20.9171ZM65.5538 19.4602C64.928 19.028 64.2224 18.8114 63.4371 18.8114H62.6683C61.9229 18.8114 61.2155 19.0225 60.5466 19.4451C59.8777 19.8677 59.3366 20.4748 58.9242 21.266C58.5114 22.0576 58.3053 22.9592 58.3053 23.9701C58.3053 24.9811 58.4963 25.8744 58.8793 26.6692C59.2619 27.4641 59.7911 28.0826 60.4669 28.5249C61.1422 28.9672 61.8894 29.1884 62.7082 29.1884H63.4472C64.1459 29.1884 64.7901 29.035 65.3793 28.7292C65.9684 28.4233 66.4522 28.0025 66.8321 27.4668C67.2114 26.9316 67.4341 26.3345 67.501 25.6756H65.2643C65.1776 26.1147 64.9697 26.4824 64.6402 26.7782C64.3108 27.0744 63.9196 27.2223 63.4669 27.2223H62.7279C62.3417 27.2223 61.9907 27.0877 61.6746 26.818C61.3584 26.5488 61.1069 26.1629 60.9209 25.6605C60.7922 25.3139 60.7093 24.9294 60.6694 24.5081H67.5509C67.5583 24.4381 67.5908 23.873 67.5908 23.64C67.5908 22.7623 67.4075 21.9537 67.0415 21.2152C66.6754 20.4771 66.1792 19.8915 65.5538 19.4593V19.4602ZM60.7578 22.7829C60.8045 22.5723 60.8659 22.3727 60.9411 22.1845C61.1408 21.6859 61.402 21.3068 61.7249 21.0471C62.0476 20.788 62.3857 20.658 62.7384 20.658H63.4371C63.75 20.658 64.0428 20.7514 64.3159 20.9373C64.589 21.1236 64.8066 21.3814 64.9697 21.7106C65.1323 22.0398 65.2207 22.3974 65.234 22.7834L60.7578 22.7829ZM96.7581 22.1204V22.1286C96.7581 22.2065 96.7267 22.2815 96.6723 22.3365L89.6985 29.3056C89.6713 29.3331 89.6333 29.3487 89.5945 29.3487H89.5508C89.4691 29.3487 89.4031 29.2827 89.4031 29.2016V22.1286C89.4031 22.2065 89.3725 22.2815 89.3172 22.3365L82.3866 29.2625C82.3316 29.3175 82.2565 29.3487 82.1786 29.3487H82.1704C82.0925 29.3487 82.0174 29.3175 81.9624 29.2625L75.0318 22.3365C74.9768 22.2815 74.9457 22.2065 74.9457 22.1286V22.1204C74.9457 22.0425 74.9768 21.9674 75.0318 21.9125L81.9615 14.986C82.0164 14.931 82.0916 14.8999 82.1695 14.8999H82.1777C82.2556 14.8999 82.3307 14.931 82.3857 14.986L89.3164 21.912C89.3709 21.967 89.4022 22.0421 89.4022 22.1199V15.0469C89.4022 14.9658 89.4683 14.8999 89.5491 14.8999H89.5937C89.6325 14.8999 89.6696 14.9155 89.6977 14.9429L96.6714 21.912C96.7259 21.967 96.7573 22.0421 96.7573 22.1199L96.7581 22.1204Z" fill="#05060F"/>
</g>
<defs>
<clipPath id="clip0_510_2754">
<rect width="93" height="19.5" fill="white" transform="translate(4.09998 14.25)"/>
</clipPath>
</defs>
</svg>
