<svg width="168" height="80" viewBox="0 0 168 80" fill="none" xmlns="http://www.w3.org/2000/svg">
<path d="M54.4277 46.1124C53.9604 46.1122 53.4978 46.2057 53.0672 46.3875C52.6367 46.5692 52.247 46.8355 51.9212 47.1706C51.5954 47.5057 51.3401 47.9027 51.1705 48.3382C51.0009 48.7737 50.9204 49.2387 50.9338 49.7059C50.9338 51.5975 52.5962 53.1358 54.6283 53.1358C55.4289 53.1422 56.2166 52.9345 56.91 52.5342V52.4465C56.8911 50.3424 56.9448 50.1309 57.0332 50.0596C57.254 49.9749 57.487 49.9267 57.7232 49.9169C57.7764 49.9169 57.7762 49.8103 57.7587 49.8096H55.2842C55.2489 49.8096 55.2484 49.9169 55.3016 49.9169C55.5789 49.9299 55.8529 49.9834 56.1148 50.0756C56.2025 50.1113 56.2557 50.359 56.2736 52.5864C55.8693 52.7497 55.4374 52.8336 55.0015 52.8336C52.9858 52.8336 51.7129 51.1723 51.7129 49.4044C51.7129 47.9018 52.5614 46.3811 54.4883 46.3811C55.157 46.4132 55.7941 46.6754 56.2917 47.1234C56.5098 47.3587 56.6516 47.6547 56.6983 47.9721C56.6983 48.0431 56.8222 48.0434 56.8222 47.9903C56.8222 47.407 56.7872 46.8233 56.7693 46.4522C56.7693 46.4343 56.7507 46.3988 56.6976 46.4167C56.3261 46.5051 55.6897 46.1159 54.576 46.1159C54.5266 46.1136 54.4772 46.1125 54.4277 46.1124ZM136.403 46.1124C135.936 46.1121 135.473 46.2055 135.042 46.3873C134.612 46.569 134.222 46.8353 133.896 47.1703C133.57 47.5054 133.315 47.9025 133.145 48.338C132.976 48.7735 132.895 49.2387 132.908 49.7059C132.908 51.5975 134.571 53.1358 136.603 53.1358C137.404 53.1422 138.191 52.9345 138.885 52.5342V52.4465C138.866 50.3424 138.92 50.1309 139.009 50.0596C139.229 49.975 139.462 49.9268 139.698 49.9169C139.751 49.9169 139.734 49.8096 139.734 49.8096H137.259C137.224 49.8096 137.223 49.9169 137.276 49.9169C137.554 49.9299 137.828 49.9834 138.09 50.0756C138.177 50.1113 138.231 50.359 138.249 52.5864C137.844 52.7498 137.412 52.8337 136.976 52.8336C134.961 52.8336 133.688 51.1723 133.688 49.4044C133.688 47.9018 134.537 46.3811 136.464 46.3811C137.132 46.4134 137.769 46.6756 138.266 47.1234C138.485 47.3587 138.626 47.6547 138.673 47.9721C138.673 48.0431 138.797 48.0434 138.797 47.9903C138.797 47.407 138.762 46.8233 138.744 46.4522C138.744 46.4343 138.725 46.3988 138.672 46.4167C138.301 46.5051 137.665 46.1159 136.551 46.1159C136.502 46.1136 136.453 46.1125 136.403 46.1124ZM106.321 46.1159C105.847 46.1109 105.376 46.2 104.936 46.3781C104.497 46.5563 104.097 46.8198 103.76 47.1536C103.423 47.4874 103.155 47.8847 102.973 48.3226C102.79 48.7605 102.696 49.2302 102.697 49.7046C102.694 50.1588 102.782 50.609 102.955 51.0288C103.128 51.4486 103.384 51.8295 103.707 52.1491C104.03 52.4686 104.413 52.7204 104.835 52.8897C105.256 53.0589 105.707 53.1421 106.162 53.1345C107.118 53.1386 108.037 52.7629 108.716 52.0899C109.396 51.4169 109.781 50.5016 109.786 49.5451C109.79 49.0906 109.703 48.6397 109.53 48.2193C109.357 47.799 109.102 47.4176 108.779 47.0978C108.455 46.778 108.071 46.5263 107.649 46.3577C107.227 46.189 106.775 46.1068 106.321 46.1159ZM123.341 46.141C123.297 46.1455 123.257 46.1632 123.257 46.1897C123.311 47.0207 123.311 47.9577 123.328 48.8593L123.346 50.4155C123.362 52.5192 123.257 52.6603 123.168 52.7487C122.922 52.8764 122.649 52.943 122.372 52.943C122.337 52.9619 122.337 53.0857 122.372 53.0857H124.811C124.847 53.0857 124.847 52.943 124.811 52.943C124.542 52.9427 124.276 52.8818 124.034 52.7647C123.892 52.6392 123.751 52.3567 123.734 50.412L123.697 47.4772L128.966 53.099C129.021 53.1524 129.162 53.134 129.144 53.0808C129.091 52.2498 129.109 51.3136 129.091 50.412L129.073 48.8558C129.073 46.7521 129.179 46.611 129.268 46.5226C129.505 46.3886 129.773 46.3215 130.045 46.3283C130.081 46.3094 130.081 46.1856 130.045 46.1856H127.57C127.534 46.1856 127.534 46.3105 127.57 46.3283C127.863 46.3232 128.153 46.3841 128.419 46.5065C128.523 46.5967 128.684 46.756 128.702 48.8593L128.737 51.8296L123.452 46.1723C123.434 46.1456 123.385 46.1365 123.341 46.141ZM73.6235 46.1493C73.5947 46.1493 73.5634 46.1673 73.5456 46.203C73.2981 47.0336 72.9449 47.9528 72.6091 48.8544L72.043 50.4099C71.2829 52.5139 71.0895 52.7255 70.9825 52.7968C70.7761 52.9091 70.5456 52.9703 70.3106 52.975C70.2575 52.9935 70.275 53.0822 70.3106 53.0822H72.3076C72.3432 53.0822 72.3432 52.9928 72.3076 52.975C71.848 52.9415 71.6175 52.9221 71.6175 52.7278C71.6175 52.4968 71.83 51.8426 72.3605 50.4106L72.3779 50.3751H74.5531L74.5705 50.4106C75.2246 52.0195 75.4192 52.6011 75.4192 52.7793C75.4192 52.9383 75.1542 52.9387 74.8183 52.9743C74.7827 52.9928 74.7827 53.0808 74.8183 53.0808L77.0116 53.0816C77.0473 53.0816 77.0473 52.9928 77.0116 52.975C76.7906 52.9843 76.5711 52.935 76.3752 52.8323C76.2337 52.7275 76.0922 52.5132 75.2612 50.4099L74.6603 48.8544C74.2892 47.8823 74.0066 47.1224 73.6883 46.203C73.6788 46.1673 73.6524 46.1493 73.6235 46.1493ZM80.5982 46.1549C80.5671 46.1594 80.5361 46.1771 80.5272 46.2036C80.5083 47.0343 80.4376 47.9535 80.3844 48.8551L80.2772 50.4113C80.136 52.5153 79.9945 52.7261 79.9061 52.7974C79.6679 52.9266 79.399 52.9882 79.1283 52.9757C79.0927 52.9942 79.0753 53.0829 79.1109 53.0829H81.3565C81.3921 53.0829 81.3921 52.9935 81.3565 52.9757C81.1195 52.9751 80.8851 52.9268 80.6671 52.8336C80.5427 52.7452 80.4018 52.5152 80.5961 50.3584L80.7744 47.9541L83.4084 53.0982C83.4134 53.1074 83.4204 53.1152 83.4288 53.1213C83.4373 53.1273 83.447 53.1314 83.4573 53.1331C83.4675 53.1349 83.478 53.1343 83.488 53.1314C83.498 53.1285 83.5072 53.1233 83.5149 53.1163L85.9547 47.9186L86.2019 50.4113C86.4514 52.515 86.3806 52.7798 86.2736 52.8511C86.0716 52.9334 85.8554 52.9752 85.6372 52.9743C85.5841 52.9928 85.6016 53.0815 85.6372 53.0815L88.1132 53.0822C88.1488 53.0822 88.1125 52.9935 88.077 52.9757C87.8228 52.975 87.571 52.9266 87.3347 52.833C87.1932 52.7446 87.1225 52.5146 86.8926 50.4113L86.7338 48.8551C86.6461 47.8829 86.592 47.1231 86.5389 46.2037C86.5389 46.1502 86.4328 46.1499 86.4149 46.1856L83.6577 52.1081L80.6699 46.1856C80.6605 46.1588 80.6293 46.1504 80.5982 46.1549ZM36.2617 46.1667C36.2439 46.1667 36.2435 46.2555 36.2791 46.2733C36.5337 46.2717 36.7862 46.3202 37.0221 46.416C37.1636 46.5044 37.2518 46.7351 37.2518 48.8384V50.3939C37.2518 52.4976 37.1458 52.7442 37.0221 52.8155C36.7849 52.907 36.5333 52.9554 36.2791 52.9583C36.2256 52.9768 36.2261 53.0655 36.2617 53.0655H39.0566C39.0919 53.0655 39.0916 52.9761 39.0385 52.9583C38.7276 52.9473 38.419 52.8994 38.1194 52.8155C37.9779 52.7271 37.8896 52.4972 37.8896 50.3939V50.0402C38.3484 50.0736 38.8088 50.0797 39.2683 50.0583C40.1153 51.5256 40.6811 52.3212 41.229 52.6923C41.6365 52.96 42.1216 53.0844 42.6076 53.046C42.8159 53.0558 43.0244 53.0366 43.2273 52.9889C43.2452 52.9889 43.2449 52.865 43.2092 52.865C43.1039 52.8803 42.9974 52.8864 42.891 52.8831C42.1499 52.8831 41.2643 51.9458 39.8323 49.8243C40.5745 49.3662 41.1051 48.7121 41.1051 47.8636C41.1051 47.0501 40.4339 46.1668 38.8428 46.1668C38.3655 46.1668 37.9409 46.1842 37.5519 46.1842C37.163 46.1842 36.7213 46.1667 36.2617 46.1667ZM98.4202 46.1716C98.3846 46.1716 98.3846 46.2789 98.4202 46.2789C98.6409 46.2856 98.8602 46.3152 99.0747 46.3673C99.1632 46.4382 99.1803 46.5974 98.4202 47.7995L97.2533 49.7603L96.1928 47.9924C95.415 46.596 95.3267 46.419 95.4151 46.3659C95.6111 46.3144 95.8133 46.2903 96.016 46.2942C96.0516 46.2942 96.0516 46.1876 96.016 46.1876H93.7343C93.6986 46.1876 93.6811 46.2942 93.7343 46.2942C93.9498 46.2884 94.1648 46.3182 94.3707 46.3826C94.5122 46.4357 94.6005 46.5947 95.4137 47.8852L96.0153 48.8405C96.3158 49.3 96.545 49.7058 96.7749 50.1126V50.4134C96.7749 52.5171 96.6689 52.7644 96.5452 52.8357C96.2835 52.9265 96.0089 52.9745 95.7319 52.9778C95.6784 52.9963 95.6781 53.085 95.7138 53.085H98.4718C98.4896 53.085 98.49 52.9956 98.4544 52.9778C98.1774 52.9745 97.9028 52.9265 97.6411 52.8357C97.4996 52.7666 97.4113 52.5167 97.4113 50.4134V50.0597C97.6413 49.6533 97.9062 49.2291 98.1536 48.8224L98.737 47.8678C99.5149 46.5773 99.6376 46.4357 99.7446 46.3826C99.9671 46.3094 100.2 46.2743 100.435 46.2789C100.47 46.2789 100.47 46.1716 100.435 46.1716H98.4202ZM28.2879 46.1821C28.2701 46.1821 28.2704 46.2715 28.306 46.2893C28.5778 46.288 28.8475 46.3363 29.1019 46.432C29.2434 46.5205 29.3316 46.7504 29.3316 48.8537V50.4092C29.3316 52.5129 29.2445 52.7603 29.1019 52.8316C28.8464 52.9232 28.5774 52.9714 28.306 52.9743C28.2525 52.9928 28.2523 53.0808 28.2879 53.0808C28.7653 53.0808 29.2428 53.0634 29.6317 53.0634C30.0207 53.0634 30.2682 53.0808 30.7277 53.0808C32.6018 53.0808 33.3798 52.0735 33.3798 51.0261C33.3798 50.1424 32.7609 49.4701 31.612 49.2227C32.2839 48.8691 32.7434 48.3388 32.7434 47.6846C32.7434 47.0305 32.1419 46.1821 30.7277 46.1821C30.2503 46.1821 30.0207 46.2002 29.6317 46.2002C29.2428 46.2002 28.7653 46.1821 28.2879 46.1821ZM45.03 46.1821C44.9947 46.1821 44.9943 46.2715 45.0474 46.2893C45.3246 46.2909 45.5995 46.3391 45.8607 46.432C46.0022 46.5205 46.0911 46.7504 46.0911 48.8537V50.4092C46.0911 52.5129 46.0033 52.7603 45.8607 52.8316C45.599 52.9225 45.3244 52.9707 45.0474 52.9743C44.9939 52.9928 44.9944 53.0808 45.03 53.0808H47.788C47.8058 53.0808 47.8055 52.9921 47.7699 52.9743C47.4929 52.9708 47.2183 52.9226 46.9566 52.8316C46.8151 52.7432 46.7268 52.5125 46.7268 50.4092V48.8537C46.7268 46.75 46.8329 46.5033 46.9566 46.432C47.2183 46.3411 47.4929 46.2929 47.7699 46.2893C47.8233 46.2708 47.8236 46.1821 47.788 46.1821H45.03ZM60.6065 46.1821C60.5887 46.1821 60.589 46.2715 60.6247 46.2893C60.879 46.2878 61.1312 46.3363 61.3669 46.432C61.5084 46.5205 61.5974 46.7504 61.5974 48.8537V50.4092C61.5974 52.5129 61.4906 52.7603 61.3669 52.8316C61.13 52.923 60.8786 52.9713 60.6247 52.9743C60.5712 52.9928 60.5709 53.0808 60.6065 53.0808H63.1877C63.2055 53.0808 63.2052 52.9921 63.1695 52.9743C62.921 52.9766 62.6745 52.928 62.4454 52.8316C62.3039 52.7432 62.2149 52.5125 62.2149 50.4092V49.7025H66.3509V50.4092C66.3509 52.5129 66.2441 52.7603 66.1204 52.8316C65.8835 52.923 65.6321 52.9713 65.3782 52.9743C65.3247 52.9928 65.3244 53.0808 65.3601 53.0808H67.9412C67.959 53.0808 67.9587 52.9921 67.9231 52.9743C67.6689 52.9735 67.4171 52.9251 67.1808 52.8316C67.0393 52.7432 66.951 52.5125 66.951 50.4092V48.8537C66.951 46.75 67.0571 46.5033 67.1808 46.432C67.4178 46.3406 67.6691 46.2923 67.9231 46.2893C67.9765 46.2708 67.9768 46.1821 67.9412 46.1821H65.3601C65.3422 46.1821 65.3425 46.2715 65.3782 46.2893C65.6323 46.2901 65.8841 46.3385 66.1204 46.432C66.2619 46.5205 66.3509 46.7504 66.3509 48.8537V49.4198H62.2149V48.8537C62.2149 46.75 62.3028 46.5033 62.4454 46.432C62.6752 46.3378 62.9212 46.2894 63.1695 46.2893C63.223 46.2708 63.2233 46.1821 63.1877 46.1821H60.6065ZM117.491 46.1835C117.455 46.1835 117.438 46.2729 117.491 46.2907C117.767 46.2789 118.042 46.3404 118.287 46.469C118.376 46.5385 118.465 46.7696 118.465 48.8558V50.5882C118.465 51.7725 117.758 52.7272 116.45 52.7272C116.148 52.7458 115.847 52.7 115.565 52.5926C115.282 52.4853 115.027 52.3189 114.814 52.1047C114.601 51.8905 114.437 51.6333 114.332 51.3504C114.226 51.0675 114.183 50.7654 114.204 50.4642V48.8572C114.204 46.7535 114.291 46.5062 114.434 46.4349C114.677 46.342 114.934 46.2937 115.194 46.2921C115.247 46.2736 115.247 46.1856 115.212 46.1856H112.578C112.56 46.1856 112.56 46.2743 112.595 46.2921C112.85 46.2881 113.103 46.3367 113.338 46.4349C113.48 46.5233 113.568 46.7539 113.568 48.8572V50.6599C113.568 52.0388 114.576 53.1352 116.237 53.1352C116.576 53.1547 116.916 53.1046 117.235 52.988C117.554 52.8715 117.846 52.691 118.093 52.4575C118.339 52.224 118.536 51.9426 118.67 51.6305C118.803 51.3184 118.872 50.9821 118.871 50.6425V48.8558C118.871 46.7696 118.961 46.5403 119.05 46.469C119.156 46.3645 119.367 46.3292 119.756 46.2907C119.792 46.2722 119.792 46.1835 119.756 46.1835H117.491ZM30.5306 46.3924C30.5845 46.3918 30.6385 46.3939 30.6922 46.3986L30.6929 46.4008C31.2939 46.4008 31.9835 46.8581 31.965 47.9194C31.965 48.7151 31.5406 49.2632 30.6922 49.2632C30.4482 49.2825 30.2028 49.2582 29.9674 49.1915C29.929 48.8748 29.9172 48.5555 29.9318 48.2369C29.9318 46.9642 29.9672 46.5228 30.0029 46.4871C30.1723 46.4264 30.3507 46.3944 30.5306 46.3924ZM106.109 46.4168C107.806 46.4168 109.007 48.1123 109.008 49.8459C109.008 51.2249 108.265 52.8337 106.374 52.8337C104.677 52.8337 103.457 51.1371 103.457 49.4045C103.457 48.0256 104.199 46.4168 106.109 46.4168ZM38.8428 46.4342C39.8681 46.4342 40.345 47.2478 40.3461 48.273C40.3461 49.104 39.8157 49.864 38.9494 49.864C38.6086 49.8897 38.2662 49.8476 37.9419 49.7401C37.8884 49.7048 37.8701 49.4929 37.8701 48.8565C37.839 48.0764 37.8805 47.295 37.9941 46.5226C38.272 46.4566 38.5573 46.4268 38.8428 46.4342ZM73.4571 47.3888L74.4646 50.0931H72.4851L73.4571 47.3888ZM30.3176 49.456C30.4069 49.4518 30.4963 49.452 30.5856 49.4567H30.5863C31.7357 49.4567 32.6018 50.1641 32.6 51.2956C32.6099 51.504 32.5758 51.7122 32.5 51.9066C32.4242 52.1009 32.3084 52.2772 32.1601 52.424C32.0118 52.5707 31.8343 52.6846 31.6391 52.7583C31.4439 52.832 31.2354 52.8639 31.0271 52.8518C30.6965 52.8845 30.3638 52.8166 30.0725 52.6568C30.0019 52.5684 29.9486 52.0561 29.9486 50.9955C29.9226 50.4945 29.9345 49.9922 29.9841 49.4929C30.0944 49.4737 30.2057 49.4613 30.3176 49.456Z" fill="black"/>
<path d="M109.869 61.6191C109.746 61.6544 109.498 61.7076 107.766 61.7076C107.076 61.7241 106.386 61.7004 105.698 61.6365C105.663 61.6365 105.645 61.6542 105.645 61.6721C105.626 61.9198 105.574 62.3085 105.538 62.6796C105.538 62.7152 105.645 62.7333 105.645 62.6977C105.656 62.5128 105.732 62.3377 105.859 62.2026C106.035 62.044 106.371 61.9729 107.114 61.9729C107.273 61.9729 107.396 61.991 107.468 61.991C107.509 62.2599 107.521 62.5327 107.503 62.8042V64.5721C107.503 65.9849 107.433 66.11 107.344 66.1631C107.17 66.2351 106.985 66.2767 106.797 66.2863C106.779 66.2863 106.779 66.3748 106.797 66.3748H108.741C108.777 66.3748 108.777 66.2863 108.741 66.2863C108.553 66.2743 108.368 66.2327 108.193 66.1631C108.106 66.11 108.034 65.9863 108.034 64.5721V62.8042C108.027 62.5326 108.038 62.2608 108.07 61.991C108.175 61.9732 108.282 61.9671 108.388 61.9729C109.166 61.9729 109.501 62.06 109.644 62.2026C109.734 62.3449 109.777 62.5121 109.767 62.6803C109.767 62.7159 109.874 62.7162 109.874 62.6984C109.909 62.3517 109.92 62.0028 109.905 61.6547C109.905 61.6368 109.905 61.6191 109.869 61.6191ZM95.2466 61.6365C94.9348 61.651 94.6401 61.7831 94.4218 62.0062C94.2036 62.2294 94.0781 62.527 94.0706 62.839C94.0706 64.0233 95.9972 64.1997 95.9972 65.2781C96.0046 65.3938 95.9873 65.5098 95.9465 65.6183C95.9056 65.7268 95.842 65.8253 95.7601 65.9074C95.6781 65.9894 95.5796 66.053 95.4712 66.094C95.3627 66.135 95.2467 66.1523 95.131 66.145C94.9512 66.1447 94.7745 66.0992 94.6169 66.0127C94.4593 65.9261 94.326 65.8014 94.2293 65.6499C94.0922 65.4514 94.0127 65.2189 93.9995 64.978C93.9995 64.9423 93.893 64.9423 93.893 64.978C93.8528 65.3072 93.8587 65.6405 93.9104 65.9681C94.0559 66.1191 94.2324 66.2368 94.4277 66.3131C94.623 66.3894 94.8325 66.4226 95.0419 66.4102C95.7844 66.4102 96.5797 65.9506 96.5437 65.0483C96.5437 63.8637 94.5475 63.4927 94.5475 62.5911C94.543 62.4917 94.5599 62.3924 94.5971 62.3001C94.6342 62.2077 94.6907 62.1244 94.7627 62.0557C94.8348 61.987 94.9207 61.9346 95.0148 61.9019C95.1088 61.8692 95.2087 61.8571 95.3078 61.8663C95.4263 61.8653 95.5438 61.8883 95.6532 61.9339C95.7625 61.9795 95.8615 62.0467 95.9442 62.1316C96.0986 62.3029 96.1919 62.5206 96.2095 62.7506C96.2095 62.7862 96.3161 62.7862 96.3161 62.7506C96.3339 62.3617 96.3161 62.026 96.3161 61.7786C96.3161 61.7608 96.3162 61.7605 96.2805 61.7605C96.0153 61.8311 95.9094 61.6365 95.3615 61.6365C95.3232 61.6347 95.2849 61.6348 95.2466 61.6365ZM58.4864 61.6539C58.4487 61.6584 58.4132 61.6716 58.4132 61.6894C58.4489 62.2374 58.4488 62.8911 58.4488 63.4921L58.4669 64.5532C58.4858 65.9675 58.396 66.073 58.3429 66.1261C58.1815 66.2191 57.9986 66.2683 57.8124 66.2689C57.7767 66.2689 57.7945 66.3573 57.8124 66.3573H59.5273C59.5451 66.3573 59.563 66.2689 59.5273 66.2689C59.3503 66.2595 59.1766 66.2175 59.0148 66.1449C58.9271 66.0744 58.8377 65.8623 58.8199 64.5539L58.7844 62.6621L62.3375 66.3747C62.3728 66.41 62.4963 66.393 62.4963 66.3573C62.4606 65.8094 62.4607 65.155 62.4607 64.554V63.4935C62.4419 62.0793 62.5134 61.973 62.5847 61.9199C62.7352 61.8338 62.9064 61.7907 63.0797 61.7953C63.1154 61.7953 63.0976 61.7069 63.0797 61.7069H61.3474C61.3296 61.7069 61.3117 61.7953 61.3474 61.7953C61.5437 61.7849 61.7392 61.8275 61.9135 61.9185C61.9841 61.9716 62.1077 62.0953 62.1077 63.5095L62.1432 65.4194L58.572 61.6713C58.5638 61.6537 58.5241 61.6495 58.4864 61.6539ZM116.15 61.6561C116.133 61.6561 116.115 61.7438 116.15 61.7438C116.283 61.7451 116.414 61.7693 116.539 61.8155C116.592 61.8686 116.663 61.9389 116.15 62.752L115.407 63.9719L114.681 62.7506C114.151 61.9382 114.151 61.8672 114.204 61.8315C114.308 61.7795 114.424 61.755 114.54 61.7605C114.576 61.7605 114.558 61.6721 114.54 61.6721H112.915C112.898 61.6721 112.88 61.7605 112.915 61.7605C113.066 61.7594 113.215 61.7834 113.358 61.8315C113.464 61.8847 113.553 61.9554 114.101 62.8216L114.507 63.458C114.701 63.7764 114.861 64.0415 115.02 64.3242V64.538C115.02 65.9686 114.949 66.094 114.861 66.1471C114.687 66.2217 114.502 66.2637 114.313 66.271C114.295 66.271 114.295 66.3595 114.313 66.3595H116.274C116.309 66.3595 116.309 66.271 116.274 66.271C116.086 66.2588 115.901 66.217 115.726 66.1471C115.638 66.094 115.567 65.9707 115.567 64.5387V64.3082C115.726 64.043 115.901 63.7602 116.079 63.4775L116.469 62.8411C116.999 61.9574 117.121 61.9048 117.193 61.8691C117.299 61.8335 117.441 61.7973 117.636 61.7438C117.671 61.7438 117.653 61.6561 117.636 61.6561H116.15ZM71.6893 61.6902C71.6714 61.6902 71.6536 61.7786 71.6893 61.7786C71.8559 61.7809 72.0195 61.8234 72.1662 61.9026C72.2899 61.991 72.4135 62.2209 72.944 63.4936L73.3687 64.554C73.6339 65.2082 73.8281 65.721 74.058 66.3574C74.0755 66.4105 74.2874 66.4105 74.3052 66.3574C74.4998 65.7916 74.7653 65.1551 74.9952 64.554L75.4192 63.4936C76.0028 62.0793 76.1257 61.9731 76.197 61.92C76.3307 61.8389 76.4818 61.7907 76.6377 61.7793C76.6734 61.7793 76.6556 61.6909 76.6377 61.6909H75.1533C75.1354 61.6909 75.1176 61.7793 75.1533 61.7793C75.4538 61.8146 75.5773 61.8854 75.5773 62.0091C75.5773 62.1681 75.5067 62.5036 75.1178 63.4936L74.3045 65.5615L73.5093 63.4936C73.0502 62.4152 72.9788 62.0969 72.9788 61.9736C72.9788 61.8502 73.1202 61.8143 73.3854 61.7786C73.4211 61.7786 73.4032 61.6902 73.3854 61.6902H71.6893ZM82.6836 61.6902C82.3254 61.7279 81.9649 61.7398 81.605 61.7257C81.1455 61.7257 80.3145 61.7083 79.7487 61.7083C79.7131 61.7083 79.7131 61.7967 79.7487 61.7967C79.9204 61.8037 80.0889 61.8457 80.2438 61.92C80.3315 61.9553 80.4025 62.0968 80.4025 63.511V64.5721C80.4025 65.9849 80.3322 66.11 80.2438 66.1631C80.0889 66.2374 79.9204 66.2793 79.7487 66.2864C79.7309 66.2864 79.7309 66.3748 79.7487 66.3748C80.2614 66.357 80.4917 66.3574 80.9512 66.3574C81.5701 66.3574 82.0117 66.3748 82.4538 66.3748C82.5129 66.3822 82.5729 66.3748 82.6284 66.3533C82.684 66.3318 82.7333 66.2968 82.772 66.2515C82.8701 65.9866 82.913 65.7044 82.898 65.4223C82.9165 65.3866 82.8096 65.3692 82.8096 65.4049C82.773 65.5857 82.6943 65.7553 82.5798 65.8999C82.4637 65.992 82.3303 66.0598 82.1875 66.0993C82.0447 66.1387 81.8953 66.1491 81.7484 66.1297C81.3067 66.1297 81.1649 66.0754 81.0772 65.987C80.9895 65.8986 80.9178 65.4922 80.9178 64.5728V64.0778H81.4978C82.009 64.0778 82.1158 64.1304 82.1871 64.2017C82.2643 64.3028 82.3024 64.4284 82.2943 64.5554C82.2943 64.5732 82.4009 64.5732 82.4009 64.5554C82.4009 64.1486 82.4193 63.9013 82.4371 63.5124C82.4371 63.4946 82.3298 63.4767 82.3298 63.5124C82.2767 63.7769 82.1879 63.848 81.4985 63.848H80.9157V62.805C80.9065 62.5338 80.9123 62.2623 80.9331 61.9917C81.1389 61.973 81.3456 61.9669 81.5521 61.9736C82.0647 61.9736 82.2946 62.0441 82.4183 62.1678C82.4681 62.2325 82.5047 62.3064 82.526 62.3853C82.5473 62.4641 82.5528 62.5464 82.5422 62.6274C82.5422 62.663 82.6306 62.6811 82.6306 62.6455C82.6834 62.2566 82.7012 61.9731 82.7191 61.7257C82.7191 61.7079 82.7192 61.6902 82.6836 61.6902ZM86.4874 61.6909C86.4517 61.6909 86.4517 61.7793 86.4874 61.7793C86.659 61.7863 86.8275 61.8283 86.9824 61.9026C87.0883 61.9379 87.1412 62.0794 87.1412 63.4936V64.5547C87.1412 65.9675 87.0708 66.0926 86.9824 66.1457C86.8275 66.22 86.659 66.2619 86.4874 66.269C86.4517 66.269 86.4695 66.3574 86.4874 66.3574H88.4481C88.4837 66.3574 88.4837 66.269 88.4481 66.269C88.2309 66.2603 88.0164 66.2187 87.8117 66.1457C87.724 66.0926 87.6529 65.9689 87.6529 64.5547V64.3605C87.9182 64.3605 88.148 64.3783 88.5017 64.3605C89.0853 65.3679 89.4737 65.8628 89.8448 66.1102C90.1313 66.3013 90.4746 66.3885 90.8175 66.3574C90.9725 66.365 91.1278 66.3533 91.2799 66.3226C91.2977 66.3226 91.2974 66.2153 91.2617 66.2153H91.048C90.5535 66.2153 89.9347 65.6331 88.98 64.1836C89.2316 64.0578 89.4448 63.8667 89.5972 63.6303C89.7496 63.3939 89.8356 63.1208 89.8462 62.8398C89.8462 62.2918 89.3517 61.6909 88.2733 61.6909C87.955 61.6909 87.6724 61.7083 87.4071 61.7083C87.1419 61.7083 86.8057 61.6909 86.4874 61.6909ZM66.6148 61.7083C66.5791 61.7083 66.5791 61.7967 66.6148 61.7967C66.8028 61.8089 66.9877 61.8508 67.1627 61.9207C67.2504 61.956 67.3222 62.0975 67.3222 63.5117V64.5721C67.3222 65.9849 67.2511 66.11 67.1627 66.1631C66.9892 66.2377 66.8035 66.2797 66.6148 66.287C66.5969 66.287 66.5969 66.3755 66.6148 66.3755H68.5595C68.5951 66.3755 68.5951 66.287 68.5595 66.287C68.3711 66.2772 68.1858 66.2353 68.0115 66.1631C67.9238 66.11 67.8527 65.9863 67.8527 64.5721V63.5117C67.8527 62.0989 67.9231 61.9563 68.0115 61.9207C68.1858 61.8485 68.3711 61.8065 68.5595 61.7967C68.5951 61.7967 68.5773 61.7083 68.5595 61.7083H66.6148ZM100.24 61.7083C100.204 61.7083 100.204 61.7967 100.24 61.7967C100.428 61.8089 100.613 61.8508 100.788 61.9207C100.875 61.956 100.946 62.0975 100.946 63.5117V64.5721C100.946 65.9849 100.876 66.11 100.788 66.1631C100.614 66.2377 100.428 66.2797 100.24 66.287C100.222 66.287 100.222 66.3755 100.24 66.3755H102.184C102.22 66.3755 102.22 66.287 102.184 66.287C101.996 66.2772 101.811 66.2353 101.636 66.1631C101.549 66.11 101.477 65.9863 101.477 64.5721V63.5117C101.477 62.0989 101.548 61.9563 101.636 61.9207C101.811 61.8485 101.996 61.8065 102.184 61.7967C102.22 61.7967 102.202 61.7083 102.184 61.7083H100.24ZM53.0198 61.709C53.002 61.709 52.9842 61.7974 53.0198 61.7974C53.2061 61.798 53.389 61.8472 53.5504 61.9402C53.6028 61.9929 53.6743 62.0989 53.6743 63.5131V64.6445C53.6743 65.4399 53.2324 66.0942 52.3486 66.0942C52.147 66.1019 51.946 66.067 51.7587 65.9917C51.5715 65.9164 51.4023 65.8024 51.2621 65.6573C51.1219 65.5121 51.0139 65.339 50.9453 65.1492C50.8766 64.9595 50.8487 64.7574 50.8635 64.5561V63.5131C50.8635 62.1003 50.9345 61.9577 51.0229 61.9221C51.1906 61.8492 51.3701 61.8072 51.5528 61.7981C51.5706 61.7981 51.5706 61.7097 51.5528 61.7097H49.6791C49.6434 61.7097 49.6434 61.7981 49.6791 61.7981C49.851 61.8053 50.0197 61.8474 50.1748 61.9221C50.2807 61.9574 50.3336 62.0989 50.3336 63.5131V64.733C50.3336 65.6698 51.0584 66.4124 52.1899 66.4124C52.4219 66.4249 52.654 66.3905 52.8724 66.3112C53.0908 66.232 53.291 66.1095 53.461 65.9511C53.631 65.7927 53.7673 65.6016 53.8617 65.3893C53.9562 65.177 54.0068 64.9479 54.0107 64.7156V63.495C54.0107 62.0808 54.0633 61.9752 54.1346 61.9221C54.2849 61.8361 54.4559 61.7929 54.629 61.7974C54.6646 61.7974 54.6468 61.709 54.629 61.709H53.0198ZM88.164 61.9193C88.1997 61.9177 88.2355 61.918 88.2712 61.92C88.9429 61.92 89.2436 62.4148 89.2432 63.1399C89.2569 63.2675 89.244 63.3967 89.2052 63.519C89.1663 63.6414 89.1025 63.7544 89.0178 63.8508C88.933 63.9473 88.8291 64.025 88.7127 64.0792C88.5963 64.1334 88.4699 64.1628 88.3415 64.1655C88.1273 64.1902 87.9108 64.1468 87.7225 64.0416C87.6873 63.9885 87.6696 63.9352 87.6696 63.511C87.6347 63.0076 87.6708 62.5018 87.7769 62.0084C87.8993 61.955 88.0305 61.9248 88.164 61.9193Z" fill="black"/>
<path d="M85.496 13.585C85.4247 13.585 85.4429 13.8321 85.496 13.8321H85.5141C85.9562 13.8321 86.5035 13.8322 86.4151 14.4685C86.362 15.0874 83.7278 18.8894 82.7909 20.3382C82.6434 20.5423 82.5465 20.7786 82.5082 21.0275C82.4553 20.7853 82.3532 20.5566 82.2081 20.3556C80.8998 18.4109 78.672 15.2645 78.6014 14.4866C78.5483 13.8325 79.061 13.8502 79.5031 13.8502H79.5212C79.5925 13.8502 79.6092 13.6031 79.5386 13.6031H69.9564C69.9032 13.6031 69.9032 13.8167 69.9564 13.8502H69.9745C70.3599 13.8459 70.7411 13.9305 71.0885 14.0974C71.1416 14.1331 71.2826 14.2216 71.3357 14.2569C71.6769 14.5574 71.9691 14.9093 72.2019 15.2999L78.9725 25.3055V31.5804C78.9725 32.1108 79.0088 32.305 78.6195 32.535C78.1948 32.7475 77.7321 32.8737 77.2583 32.9061H77.2402C77.187 32.9239 77.1873 33.1533 77.2583 33.1533H87.6531L87.6524 33.1401C87.7055 33.1401 87.7239 32.9103 87.6705 32.8929H87.6524C87.179 32.858 86.7167 32.7319 86.2911 32.5218C85.92 32.2918 85.9374 32.0976 85.9374 31.5672V25.3438L92.7088 15.2853C92.9583 14.8757 93.2682 14.506 93.6279 14.1886C93.681 14.153 93.8066 14.0649 93.8757 14.0104C94.0937 13.8796 94.3461 13.8174 94.5999 13.8321H94.618C94.6711 13.8321 94.7067 13.585 94.6361 13.585L85.496 13.585ZM48.7246 13.5871C48.6715 13.5871 48.6537 13.8168 48.7072 13.8343H48.7246C49.198 13.8692 49.6602 13.9952 50.0859 14.2054C50.4566 14.4361 50.4396 14.6128 50.4396 15.1607V31.5665C50.4396 32.097 50.4751 32.2912 50.0859 32.5211C49.6611 32.7337 49.1985 32.8598 48.7246 32.8922H48.7072C48.6541 32.91 48.6537 33.1401 48.7246 33.1401H62.0013C67.6055 33.1401 69.9564 30.9124 69.9564 27.4473C69.9564 24.8838 68.772 23.3104 66.4032 22.7272C66.3676 22.7094 66.3676 22.6562 66.4032 22.6562C67.9059 22.1788 69.2851 21.1006 69.2851 18.4311C69.2851 14.807 66.8452 13.5871 61.5063 13.5871H48.7246ZM95.5371 13.5878C95.4658 13.5878 95.484 13.8175 95.5371 13.835H95.5552C95.8315 13.8141 96.1064 13.8899 96.3329 14.0494C96.6334 14.3147 96.6866 14.6149 96.6866 15.1628V24.8488C96.6866 29.516 99.2495 33.4938 107.01 33.4938C114.771 33.4938 117.335 29.5335 117.335 24.8488V15.1607H117.317C117.317 14.6302 117.281 14.4361 117.67 14.2061C118.095 13.9936 118.558 13.8674 119.032 13.835H119.049C119.102 13.8172 119.103 13.5878 119.032 13.5878H109.239C109.185 13.5878 109.167 13.8175 109.22 13.835H109.239C109.687 13.8489 110.125 13.9766 110.511 14.2061C110.882 14.4361 110.864 14.6302 110.864 15.1607V25.0256C110.864 27.2716 109.574 29.0035 107.011 29.0035C104.448 29.0035 103.157 27.2709 103.157 25.0256V15.1607C103.157 14.6302 103.122 14.4361 103.511 14.2061C103.901 13.987 104.337 13.86 104.784 13.835H104.801C104.854 13.8172 104.855 13.5878 104.784 13.5878H95.5371ZM56.6267 17.228C56.7847 17.2505 56.9441 17.2624 57.1037 17.2635H59.6674C61.6281 17.2635 62.7784 17.5639 62.7784 19.3495C62.7784 20.4985 62.0716 21.5421 59.7558 21.5421H57.1037C56.9499 21.5438 56.7964 21.5556 56.6441 21.5776C56.6441 21.5776 56.6622 21.3485 56.6622 21.1007V17.6875C56.6629 17.5336 56.651 17.3799 56.6267 17.228ZM56.6267 24.5306C56.7789 24.5528 56.9325 24.5649 57.0863 24.5668H59.2608C60.9933 24.5668 63.1147 24.5661 63.1147 26.9704C63.1147 28.7561 61.5943 29.3746 59.5616 29.3746H57.1037C56.9499 29.3765 56.7963 29.3886 56.6441 29.4108C56.6441 29.4108 56.6622 29.1624 56.6622 28.9325V24.9901C56.6629 24.8362 56.651 24.6826 56.6267 24.5306Z" fill="black"/>
<path d="M117.158 39.9639H48.8306C48.7883 39.9639 48.7479 39.9471 48.718 39.9172C48.6882 39.8874 48.6714 39.8469 48.6714 39.8047C48.6714 39.7625 48.6882 39.722 48.718 39.6921C48.7479 39.6623 48.7883 39.6455 48.8306 39.6455H117.158C117.2 39.6455 117.24 39.6623 117.27 39.6921C117.3 39.722 117.317 39.7625 117.317 39.8047C117.317 39.8469 117.3 39.8874 117.27 39.9172C117.24 39.9471 117.2 39.9639 117.158 39.9639Z" fill="black"/>
</svg>
