<svg width="168" height="80" viewBox="0 0 168 80" fill="none" xmlns="http://www.w3.org/2000/svg">
<path d="M28.1727 25H13.959V39.25H28.1727V25Z" fill="#05060F"/>
<path d="M43.8817 25H29.668V39.25H43.8817V25Z" fill="#05060F" fill-opacity="0.88"/>
<path d="M28.1727 40.75H13.959V55H28.1727V40.75Z" fill="#05060F" fill-opacity="0.4"/>
<path d="M43.8817 40.75H29.668V55H43.8817V40.75Z" fill="#05060F" fill-opacity="0.6"/>
<path d="M72.0155 31.3102V49.7104H68.8926V35.2714H68.851L63.2714 49.7104H61.1895L55.485 35.2714H55.4434V49.7104H52.5703V31.3102H57.0673L62.2305 44.94H62.3137L67.7684 31.3102H72.0155ZM74.5971 32.7158C74.5971 32.2047 74.7637 31.7788 75.1384 31.438C75.5132 31.0973 75.9296 30.9269 76.4292 30.9269C76.9705 30.9269 77.4286 31.0973 77.7617 31.438C78.0948 31.7788 78.303 32.2047 78.303 32.7158C78.303 33.2269 78.1364 33.6529 77.7617 33.9936C77.3869 34.3343 76.9705 34.5047 76.4292 34.5047C75.8879 34.5047 75.4715 34.3343 75.1384 33.9936C74.8053 33.6103 74.5971 33.1843 74.5971 32.7158ZM77.9699 36.5066V49.7104H74.9302V36.5066H77.9699ZM87.172 47.453C87.63 47.453 88.1297 47.3678 88.671 47.1122C89.2123 46.8993 89.7119 46.6011 90.17 46.2604V49.1567C89.6703 49.4549 89.129 49.6678 88.5044 49.7956C87.8798 49.9234 87.2136 50.0086 86.4641 50.0086C84.5488 50.0086 83.0081 49.4123 81.8422 48.1771C80.6347 46.9419 80.0518 45.3659 80.0518 43.4918C80.0518 41.3622 80.6764 39.6159 81.8839 38.2529C83.0914 36.8899 84.7986 36.2084 87.0471 36.2084C87.63 36.2084 88.213 36.2936 88.7543 36.4214C89.3372 36.5492 89.7952 36.7621 90.1283 36.9325V39.914C89.6703 39.5733 89.1706 39.2751 88.7126 39.1048C88.213 38.9344 87.7133 38.8066 87.2136 38.8066C86.0061 38.8066 85.0484 39.1899 84.2989 39.9992C83.5494 40.8085 83.2163 41.8733 83.2163 43.2363C83.2163 44.5567 83.5911 45.6215 84.2989 46.3456C85.0068 47.0696 85.9645 47.453 87.172 47.453ZM98.7892 36.2936C99.039 36.2936 99.2472 36.2936 99.4554 36.3362C99.6636 36.3788 99.8301 36.4214 99.955 36.464V39.6159C99.7885 39.4881 99.5803 39.3603 99.2472 39.2751C98.9141 39.1899 98.581 39.1048 98.1229 39.1048C97.3734 39.1048 96.7489 39.4455 96.2492 40.0844C95.7495 40.7233 95.4581 41.7029 95.4581 43.0659V49.7104H92.4184V36.5066H95.4581V38.5936H95.4997C95.7912 37.8696 96.2076 37.3159 96.7489 36.8899C97.3318 36.5066 97.998 36.2936 98.7892 36.2936ZM100.122 43.3215C100.122 41.1492 100.746 39.4029 101.912 38.1251C103.12 36.8473 104.785 36.2084 106.909 36.2084C108.907 36.2084 110.49 36.8047 111.614 38.0399C112.738 39.2751 113.321 40.9363 113.321 43.0233C113.321 45.153 112.696 46.8567 111.531 48.1345C110.323 49.4123 108.699 50.0512 106.617 50.0512C104.619 50.0512 103.036 49.4549 101.87 48.2623C100.705 47.0271 100.122 45.3659 100.122 43.3215ZM103.286 43.1937C103.286 44.5567 103.578 45.6215 104.202 46.3456C104.827 47.0696 105.701 47.453 106.825 47.453C107.908 47.453 108.782 47.1122 109.365 46.3456C109.948 45.6215 110.24 44.5567 110.24 43.1085C110.24 41.7029 109.948 40.6381 109.365 39.8714C108.782 39.1474 107.908 38.764 106.867 38.764C105.743 38.764 104.91 39.1474 104.285 39.914C103.578 40.7233 103.286 41.7881 103.286 43.1937ZM117.86 39.9992C117.86 40.4251 117.985 40.8085 118.276 41.064C118.567 41.3196 119.15 41.6177 120.108 42.0011C121.316 42.5122 122.19 43.0659 122.648 43.6622C123.148 44.3011 123.398 45.0252 123.398 45.9196C123.398 47.1548 122.94 48.1345 121.982 48.9011C121.066 49.6678 119.775 50.0086 118.193 50.0086C117.651 50.0086 117.069 49.9234 116.402 49.7956C115.736 49.6678 115.195 49.4974 114.737 49.2845V46.2178C115.278 46.6011 115.903 46.9419 116.527 47.1548C117.152 47.3678 117.735 47.4956 118.276 47.4956C118.942 47.4956 119.484 47.4104 119.775 47.1974C120.108 46.9845 120.275 46.6863 120.275 46.2178C120.275 45.7919 120.108 45.4511 119.775 45.1104C119.442 44.8122 118.776 44.4715 117.86 44.0881C116.735 43.6196 115.944 43.0659 115.486 42.4696C115.028 41.8733 114.778 41.1066 114.778 40.1696C114.778 38.977 115.236 37.9973 116.152 37.2307C117.068 36.464 118.276 36.0807 119.733 36.0807C120.191 36.0807 120.691 36.1232 121.232 36.251C121.774 36.3788 122.273 36.5066 122.648 36.6344V39.6585C122.232 39.4029 121.774 39.1474 121.232 38.9344C120.691 38.7214 120.15 38.6362 119.65 38.6362C119.067 38.6362 118.609 38.764 118.318 38.977C118.026 39.2751 117.86 39.5733 117.86 39.9992ZM124.688 43.3215C124.688 41.1492 125.313 39.4029 126.479 38.1251C127.686 36.8473 129.352 36.2084 131.475 36.2084C133.474 36.2084 135.056 36.8047 136.181 38.0399C137.305 39.2751 137.888 40.9363 137.888 43.0233C137.888 45.153 137.263 46.8567 136.097 48.1345C134.89 49.4123 133.266 50.0512 131.184 50.0512C129.185 50.0512 127.603 49.4549 126.437 48.2623C125.313 47.0271 124.688 45.3659 124.688 43.3215ZM127.853 43.1937C127.853 44.5567 128.144 45.6215 128.769 46.3456C129.394 47.0696 130.268 47.453 131.392 47.453C132.475 47.453 133.349 47.1122 133.932 46.3456C134.515 45.6215 134.807 44.5567 134.807 43.1085C134.807 41.7029 134.515 40.6381 133.932 39.8714C133.349 39.1474 132.475 38.764 131.434 38.764C130.31 38.764 129.477 39.1474 128.852 39.914C128.186 40.7233 127.853 41.7881 127.853 43.1937ZM148.006 39.0622H143.467V49.7104H140.386V39.0622H138.221V36.5066H140.386V34.6751C140.386 33.3121 140.844 32.1621 141.719 31.2676C142.593 30.3732 143.717 29.9473 145.091 29.9473C145.466 29.9473 145.799 29.9899 146.091 29.9899C146.382 29.9899 146.632 30.075 146.84 30.1602V32.8436C146.757 32.801 146.549 32.7158 146.299 32.6306C146.049 32.5454 145.757 32.5028 145.424 32.5028C144.8 32.5028 144.3 32.7158 143.967 33.0991C143.634 33.4825 143.467 34.1214 143.467 34.8881V36.464H148.006V33.4825L151.046 32.5454V36.464H154.127V39.0196H151.046V45.1956C151.046 46.0048 151.212 46.5585 151.462 46.8993C151.753 47.24 152.211 47.4104 152.836 47.4104C153.003 47.4104 153.211 47.3678 153.461 47.2826C153.71 47.1974 153.919 47.1122 154.085 46.9845V49.54C153.877 49.6678 153.586 49.753 153.128 49.8382C152.67 49.9234 152.253 49.966 151.795 49.966C150.504 49.966 149.547 49.6252 148.922 48.9437C148.297 48.2623 147.964 47.1974 147.964 45.7919L148.006 39.0622Z" fill="#05060F"/>
</svg>
