<svg width="101" height="48" viewBox="0 0 101 48" fill="none" xmlns="http://www.w3.org/2000/svg">
<g clip-path="url(#clip0_510_2750)">
<path d="M83.533 26.6648C83.4188 26.6648 83.3146 26.7387 83.2609 26.8933C82.5721 28.8589 81.6413 30.0282 80.8753 30.0282C80.4351 30.0282 80.257 29.5376 80.257 28.7682C80.257 26.8429 81.4095 22.7605 81.9908 20.8991C82.058 20.6739 82.1016 20.4723 82.1016 20.301C82.1016 19.76 81.806 19.4946 81.0735 19.4946C80.2839 19.4946 79.4338 19.8037 78.6073 21.2519C78.3217 19.9751 77.4581 19.4173 76.2519 19.4173C74.8575 19.4173 73.5101 20.3144 72.4013 21.7693C71.2925 23.2242 69.9888 23.7013 69.0077 23.4661C69.7133 21.7391 69.9754 20.4488 69.9754 19.4912C69.9754 17.9893 69.2329 17.0821 68.0333 17.0821C66.2089 17.0821 65.1572 18.8226 65.1572 20.6538C65.1572 22.0683 65.7989 23.5232 67.2101 24.2288C66.0274 26.9034 64.3004 29.3226 63.6452 29.3226C62.7985 29.3226 62.5498 25.1797 62.5969 22.2162C62.6271 20.516 62.7682 20.4287 62.7682 19.9146C62.7682 19.6189 62.5767 19.4173 61.8073 19.4173C60.013 19.4173 59.4586 20.936 59.3746 22.6799C59.3475 23.3426 59.2438 23.9999 59.0655 24.6387C58.3162 27.3133 56.7706 29.3427 55.7626 29.3427C55.2956 29.3427 55.1679 28.8757 55.1679 28.2642C55.1679 26.3389 56.2464 23.9331 56.2464 21.8802C56.2464 20.3715 55.5845 19.4173 54.338 19.4173C52.8697 19.4173 50.9276 21.1645 49.0896 24.4371C49.6945 21.9306 49.9431 19.5047 48.1522 19.5047C47.7637 19.5104 47.3823 19.6096 47.0401 19.7936C46.9252 19.8473 46.8291 19.9344 46.7644 20.0435C46.6997 20.1525 46.6693 20.2786 46.6772 20.4051C46.8485 23.073 44.5268 29.9072 42.326 29.9072C41.9261 29.9072 41.7313 29.4738 41.7313 28.7749C41.7313 26.8463 42.8804 22.7739 43.4583 20.9091C43.5322 20.6672 43.5725 20.4589 43.5725 20.2774C43.5725 19.7667 43.2567 19.5047 42.541 19.5047C41.7548 19.5047 40.9013 19.8037 40.0781 21.2519C39.7892 19.9751 38.9256 19.4173 37.7194 19.4173C35.7404 19.4173 33.5295 21.5106 32.5584 24.2389C31.2581 27.8811 28.6373 31.3991 25.1093 31.3991C21.9072 31.3991 20.2172 28.7346 20.2172 24.5245C20.2172 18.4463 24.6792 13.4802 27.9888 13.4802C29.5714 13.4802 30.3274 14.4882 30.3274 16.0338C30.3274 17.9053 29.2824 18.7755 29.2824 19.4879C29.2824 19.7063 29.4639 19.9213 29.8234 19.9213C31.2615 19.9213 32.9549 18.2312 32.9549 15.9263C32.9549 13.6213 31.0834 11.9346 27.7738 11.9346C22.3037 11.9346 16.8 17.4383 16.8 24.4909C16.8 30.1021 19.5687 33.4856 24.3567 33.4856C27.6226 33.4856 30.4752 30.9455 32.0141 27.9819C32.1888 30.4381 33.3044 31.7216 35.0045 31.7216C36.5165 31.7216 37.7396 30.8211 38.6737 29.2386C39.0332 30.8951 39.9874 31.7048 41.2272 31.7048C42.6485 31.7048 43.838 30.8043 44.9703 29.1311C44.9535 30.4448 45.2525 31.6813 46.3916 31.6813C46.9292 31.6813 47.5709 31.557 47.6852 31.0866C48.8847 26.1272 51.8482 22.0784 52.7554 22.0784C53.0242 22.0784 53.0981 22.3371 53.0981 22.6429C53.0981 23.9902 52.1473 26.7522 52.1473 28.5162C52.1473 30.4213 52.957 31.6813 54.6303 31.6813C56.485 31.6813 58.37 29.4099 59.6266 26.0903C60.0197 29.1915 60.8698 31.6947 62.2004 31.6947C63.8333 31.6947 66.733 28.2575 68.4903 24.6186C69.1791 24.7059 70.214 24.6824 71.2085 23.9802C70.7852 25.052 70.5365 26.2247 70.5365 27.3973C70.5365 30.7741 72.1493 31.7216 73.537 31.7216C75.0457 31.7216 76.2687 30.8211 77.2061 29.2386C77.5153 30.6666 78.3048 31.7015 79.7564 31.7015C82.0277 31.7015 84.0001 29.3797 84.0001 27.4746C84.0001 26.9706 83.785 26.6648 83.533 26.6648ZM36.3888 29.8501C35.4716 29.8501 35.112 28.9261 35.112 27.5485C35.112 25.1562 36.7484 21.1611 38.4788 21.1611C39.2348 21.1611 39.5204 22.0515 39.5204 23.1402C39.5204 25.5695 37.9647 29.8501 36.3888 29.8501ZM67.8082 22.7101C67.2605 22.0583 67.0623 21.1712 67.0623 20.3816C67.0623 19.4072 67.4185 18.584 67.8452 18.584C68.2719 18.584 68.4029 19.004 68.4029 19.5887C68.4029 20.5664 68.0535 21.9944 67.8082 22.7101ZM74.9213 29.8501C74.0041 29.8501 73.6445 28.7883 73.6445 27.5485C73.6445 25.2402 75.2808 21.1611 77.0247 21.1611C77.7807 21.1611 78.0495 22.0448 78.0495 23.1402C78.0495 25.5695 76.5207 29.8501 74.9213 29.8501Z" fill="url(#paint0_linear_510_2750)"/>
</g>
<defs>
<linearGradient id="paint0_linear_510_2750" x1="17.6843" y1="24.3545" x2="80.4634" y2="24.9337" gradientUnits="userSpaceOnUse">
<stop stop-color="#05060F" stop-opacity="0.6"/>
<stop offset="1" stop-color="#05060F"/>
</linearGradient>
<clipPath id="clip0_510_2750">
<rect width="67.2" height="25.2" fill="white" transform="translate(16.8 11.3999)"/>
</clipPath>
</defs>
</svg>
