<svg width="168" height="80" viewBox="0 0 168 80" fill="none" xmlns="http://www.w3.org/2000/svg">
<path d="M17.0569 34.8398C16.9495 34.4087 16.9763 33.9775 17.03 33.735C17.1642 33.0614 17.6206 32.3338 18.936 32.3338C20.1708 32.3338 20.8688 33.0883 20.8688 34.247C20.8688 34.6243 20.8688 35.5404 20.8688 35.5404H26.0767V34.0584C26.1035 29.4775 21.9963 28.75 19.0434 28.75C15.3388 28.75 12.3053 29.9895 11.7416 33.4117C11.5805 34.3548 11.5537 35.1901 11.7953 36.241C12.708 40.5254 20.144 41.765 21.2178 44.4865C21.4325 44.9985 21.352 45.6452 21.2715 46.0494C21.1104 46.75 20.6272 47.4775 19.2313 47.4775C17.9159 47.4775 17.1374 46.7231 17.1374 45.5644V43.5434H11.5V45.1602C11.5 49.8488 15.1777 51.25 19.0971 51.25C22.8822 51.25 25.9693 49.9566 26.4794 46.4536C26.721 44.6482 26.533 43.4626 26.4525 43.0314C25.5935 38.5853 17.6474 37.2919 17.0569 34.8398ZM85.0545 34.8668C84.974 34.4626 85.0008 34.0045 85.0277 33.7889C85.1887 33.1153 85.6183 32.3877 86.9336 32.3877C88.1417 32.3877 88.8396 33.1422 88.8396 34.274C88.8396 34.6512 88.8396 35.5674 88.8396 35.5674H93.9938V34.1123C93.9938 29.5853 89.9671 28.8847 87.041 28.8847C83.3633 28.8847 80.3567 30.0973 79.7929 33.4925C79.6587 34.4087 79.605 35.244 79.8466 36.2949C80.7325 40.5254 88.088 41.765 89.1618 44.4596C89.3497 44.9716 89.296 45.6183 89.1886 45.9955C89.0275 46.6961 88.5712 47.3967 87.1752 47.3967C85.8867 47.3967 85.0814 46.6422 85.0814 45.5105V43.4895H79.5245V45.0793C79.5245 49.7141 83.1485 51.1153 87.041 51.1153C90.7724 51.1153 93.8596 49.8219 94.3428 46.3728C94.5844 44.5674 94.3965 43.4087 94.3159 42.9775C93.4838 38.6123 85.6451 37.3189 85.0545 34.8668ZM132.516 46.3189L127.603 29.4237H119.845V50.1991H124.973L124.677 32.765L129.966 50.1991H137.402V29.4237H132.248L132.516 46.3189ZM33.8885 29.4237L29.996 50.4147H35.6334L38.5595 30.9865L41.405 50.4147H47.0156L43.1768 29.4237H33.8885ZM65.4579 29.4237L62.8271 45.8338L60.1963 29.4237H51.6597L51.2033 50.4147H56.438L56.5723 30.9865L60.1695 50.4147H65.4579L69.0551 30.9865L69.1893 50.4147H74.424L73.9676 29.4237H65.4579ZM114.047 29.4237H108.758V44.9446C108.758 45.2141 108.758 45.5105 108.705 45.753C108.597 46.265 108.168 47.2889 106.691 47.2889C105.242 47.2889 104.812 46.2919 104.705 45.753C104.651 45.5374 104.651 45.2141 104.651 44.9446V29.4237H99.3627V44.4596C99.3627 44.8368 99.3896 45.6452 99.4164 45.8338C99.7923 49.741 102.853 51.0344 106.691 51.0344C110.53 51.0344 113.617 49.768 113.993 45.8338C114.02 45.6183 114.074 44.8368 114.047 44.4596V29.4237ZM150.341 38.6123V41.6841H152.488V44.729C152.488 44.9985 152.488 45.2949 152.435 45.5374C152.354 46.1033 151.817 47.0734 150.287 47.0734C148.784 47.0734 148.247 46.1033 148.166 45.5374C148.14 45.2949 148.113 44.9985 148.113 44.729V35.1362C148.113 34.7859 148.14 34.4356 148.22 34.1392C148.327 33.6272 148.784 32.6302 150.287 32.6302C151.898 32.6302 152.274 33.6811 152.381 34.1392C152.435 34.4356 152.435 34.9476 152.435 34.9476V36.1063H157.696V35.4057C157.696 35.4057 157.723 34.6781 157.669 34.0045C157.267 30.0973 154.019 28.8578 150.314 28.8578C146.609 28.8578 143.442 30.1243 142.985 34.0314C142.932 34.3817 142.878 35.0284 142.878 35.4326V44.244C142.878 44.6213 142.878 44.9177 142.959 45.6183C143.308 49.4446 146.609 50.7919 150.314 50.7919C154.045 50.7919 157.32 49.4446 157.669 45.6183C157.723 44.9177 157.75 44.6213 157.75 44.244V38.6123H150.341Z" fill="#05060F"/>
</svg>
