<svg width="102" height="48" viewBox="0 0 102 48" fill="none" xmlns="http://www.w3.org/2000/svg">
<g clip-path="url(#clip0_510_2799)">
<path d="M93.4296 23.5992C93.1586 23.5992 92.8937 23.5231 92.6684 23.3805C92.443 23.2379 92.2674 23.0353 92.1637 22.7982C92.06 22.5611 92.0329 22.3002 92.0857 22.0485C92.1386 21.7968 92.2691 21.5656 92.4607 21.3842C92.6524 21.2027 92.8965 21.0791 93.1623 21.0291C93.4281 20.979 93.7036 21.0047 93.954 21.1029C94.2043 21.2011 94.4184 21.3674 94.5689 21.5808C94.7195 21.7942 94.7998 22.045 94.7998 22.3017C94.7998 22.6458 94.6555 22.9758 94.3985 23.2192C94.1415 23.4625 93.793 23.5992 93.4296 23.5992ZM93.4296 21.1384C93.1863 21.1356 92.9477 21.2014 92.7439 21.3273C92.5402 21.4533 92.3807 21.6337 92.2855 21.8458C92.1903 22.0578 92.1639 22.2918 92.2095 22.5181C92.2552 22.7444 92.3708 22.9528 92.5418 23.1167C92.7128 23.2806 92.9314 23.3926 93.1698 23.4386C93.4082 23.4846 93.6556 23.4624 93.8807 23.3749C94.1058 23.2874 94.2983 23.1385 94.4338 22.9472C94.5693 22.7558 94.6416 22.5306 94.6416 22.3003C94.6409 21.9948 94.5134 21.7018 94.2867 21.4845C94.06 21.2671 93.7522 21.1429 93.4296 21.1384ZM93.7938 22.9829L93.4192 22.3992H93.1744V22.9829H93.0042V21.5808H93.4893C93.549 21.578 93.6087 21.5865 93.6648 21.6058C93.721 21.6251 93.7725 21.6549 93.8163 21.6933C93.8601 21.7318 93.8953 21.7782 93.9199 21.8297C93.9445 21.8813 93.958 21.937 93.9595 21.9935C93.9591 22.0866 93.9244 22.1766 93.8615 22.2481C93.7986 22.3195 93.7113 22.368 93.6147 22.3851L93.9968 22.9829H93.7938ZM93.4639 21.7349H93.1654V22.248H93.4639C93.5028 22.2534 93.5424 22.2509 93.5802 22.2406C93.6179 22.2303 93.6528 22.2123 93.6826 22.188C93.7123 22.1638 93.7362 22.1337 93.7525 22.0999C93.7689 22.0661 93.7774 22.0293 93.7774 21.9921C93.7774 21.9549 93.7689 21.9182 93.7525 21.8844C93.7362 21.8506 93.7123 21.8205 93.6826 21.7962C93.6528 21.7719 93.6179 21.754 93.5802 21.7437C93.5424 21.7333 93.5028 21.7308 93.4639 21.7363V21.7349ZM73.7988 21.0367C73.7525 21.0367 73.7376 21.0508 73.3241 21.0663C72.9107 21.0819 72.0942 21.0974 70.4658 21.0974H68.488C66.8596 21.0974 66.0551 21.0833 65.6297 21.0663C65.2043 21.0494 65.2013 21.0367 65.155 21.0367C64.9655 21.0367 64.9655 21.1568 64.9655 21.5003V22.8769C64.9655 22.9518 64.9655 23.1314 65.1237 23.1314C65.2819 23.1314 65.3282 23.0706 65.6133 22.5179C65.7984 22.1349 66.1715 21.5808 68.3194 21.5624C68.5418 21.5695 68.6358 21.6176 68.6358 21.9497V28.9038C68.6358 29.4875 68.6358 29.8932 67.8447 29.9356C67.5134 29.9653 67.2939 29.9808 67.2939 30.19C67.2939 30.3992 67.4984 30.4133 67.6253 30.4133C67.9238 30.4133 69.2045 30.354 69.4732 30.354C69.9956 30.354 70.8165 30.4133 71.3374 30.4133C71.4643 30.4133 71.6688 30.4133 71.6688 30.19C71.6688 29.9667 71.4479 29.9497 71.115 29.9356C70.3254 29.8904 70.3255 29.4861 70.3255 28.8741V22.0543C70.3255 21.6656 70.3762 21.5836 70.8374 21.5653C72.8047 21.6162 73.1614 22.1462 73.3405 22.5179C73.6256 23.0706 73.657 23.1314 73.8301 23.1314C74.0033 23.1314 73.9883 22.9518 73.9883 22.8769V21.4988C73.9883 21.1568 73.9883 21.0367 73.7988 21.0367ZM56.7248 28.0359C56.5755 28.0359 56.5516 28.0953 56.2665 28.6183C55.5725 29.8904 54.5933 29.8904 53.8977 29.8904C52.5708 29.8904 52.2394 29.7264 52.2394 28.6635V26.0925C52.2394 25.6444 52.3648 25.6444 53.1231 25.6444C54.4187 25.6444 54.862 25.6586 55.1933 26.8119C55.2724 27.0946 55.3665 27.1709 55.4919 27.1709C55.6814 27.1709 55.6814 26.9617 55.6814 26.8713C55.6814 26.7511 55.6336 26.2282 55.6336 26.1236C55.6336 25.7942 55.7441 24.2536 55.7441 24.0458C55.7441 23.8819 55.665 23.8352 55.571 23.8352C55.4769 23.8352 55.4127 23.8663 55.3336 24.06C55.0485 24.8529 54.9082 25.1808 53.1544 25.1808C52.2394 25.1808 52.2394 25.0607 52.2394 24.5829V22.4119C52.2394 21.6642 52.3021 21.5639 53.0917 21.5639C55.3307 21.5639 55.7128 22.1292 55.9038 22.5208C56.1889 23.0734 56.2202 23.1342 56.3934 23.1342C56.5665 23.1342 56.5516 22.9547 56.5516 22.8798V21.4988C56.5516 21.1554 56.5516 21.0352 56.362 21.0352C56.3143 21.0352 56.2994 21.0494 55.8889 21.0649C55.4784 21.0805 54.656 21.096 53.0305 21.096H52.2768C50.9334 21.096 50.2543 21.0819 49.908 21.0649C49.7757 21.062 49.6436 21.0521 49.5124 21.0352C49.402 21.0352 49.196 21.0352 49.196 21.2458C49.196 21.4564 49.4184 21.4847 49.7647 21.4988C50.5543 21.5441 50.5543 21.9469 50.5543 22.5603V28.8741C50.5543 29.4875 50.5543 29.8918 49.7647 29.9356C49.4333 29.9653 49.196 29.9808 49.196 30.19C49.196 30.3992 49.402 30.4133 49.5274 30.4133C49.6527 30.4133 49.7647 30.3978 50.0184 30.3836C50.2722 30.3695 50.6662 30.354 51.314 30.354H51.5021C51.5976 30.354 52.3395 30.3681 53.241 30.3836C54.1425 30.3992 55.262 30.4133 56.0665 30.4133C56.5262 30.4133 56.683 30.2494 56.6979 29.9639C56.7456 29.4112 56.9203 28.4529 56.9203 28.2593C56.9143 28.1716 56.868 28.0359 56.7248 28.0359ZM82.5037 28.0359C82.3544 28.0359 82.3305 28.0953 82.0454 28.6183C81.3514 29.8904 80.3722 29.8904 79.6767 29.8904C78.3497 29.8904 78.0184 29.7264 78.0184 28.6635V26.0925C78.0184 25.6444 78.1438 25.6444 78.902 25.6444C80.1976 25.6444 80.6409 25.6586 80.9723 26.8119C81.0514 27.0946 81.1454 27.1709 81.2708 27.1709C81.4603 27.1709 81.4603 26.9617 81.4603 26.8713C81.4603 26.7511 81.4126 26.2282 81.4126 26.1236C81.4126 25.7942 81.523 24.2536 81.523 24.0458C81.523 23.8819 81.4439 23.8352 81.3499 23.8352C81.2559 23.8352 81.1917 23.8663 81.1126 24.06C80.8275 24.8529 80.6872 25.1808 78.9333 25.1808C78.0184 25.1808 78.0184 25.0607 78.0184 24.5829V22.4119C78.0184 21.6642 78.0811 21.5639 78.8707 21.5639C81.1096 21.5639 81.4917 22.1292 81.6827 22.5208C81.9678 23.0734 81.9992 23.1342 82.1723 23.1342C82.3455 23.1342 82.3305 22.9547 82.3305 22.8798V21.4988C82.3305 21.1554 82.3305 21.0352 82.141 21.0352C82.0932 21.0352 82.0783 21.0494 81.6678 21.0649C81.2574 21.0805 80.4349 21.096 78.8095 21.096H78.0527C76.7094 21.096 76.0302 21.0819 75.6839 21.0649C75.5516 21.062 75.4196 21.0521 75.2884 21.0352C75.1779 21.0352 74.972 21.0352 74.972 21.2458C74.972 21.4564 75.1944 21.4847 75.5406 21.4988C76.3302 21.5441 76.3302 21.9469 76.3302 22.5603V28.8741C76.3302 29.4875 76.3302 29.8918 75.5406 29.9356C75.2093 29.9653 74.972 29.9808 74.972 30.19C74.972 30.3992 75.1779 30.4133 75.3033 30.4133C75.4287 30.4133 75.5406 30.3978 75.7944 30.3836C76.0481 30.3695 76.4422 30.354 77.09 30.354H77.278C77.3736 30.354 78.1154 30.3681 79.0169 30.3836C79.9185 30.3992 81.0379 30.4133 81.8425 30.4133C82.3022 30.4133 82.4589 30.2494 82.4738 29.9639C82.5216 29.4112 82.6962 28.4529 82.6962 28.2593C82.6932 28.1716 82.6455 28.0359 82.5037 28.0359ZM61.7041 24.6508C60.4145 24.1476 59.4801 23.766 59.4801 22.6819C59.4801 22.0882 59.9876 21.2246 61.2369 21.2359C62.5803 21.2473 62.8639 22.084 63.0579 22.6819C63.2191 23.1554 63.2848 23.2473 63.4445 23.2473C63.6714 23.2473 63.6714 23.1243 63.6714 22.7893C63.6714 21.4465 63.6714 21.3094 63.4773 21.202C63.252 21.0946 62.3026 20.8515 61.3668 20.8515C59.3204 20.8515 58.192 22.0713 58.192 23.4748C58.192 25.0932 59.4652 25.6868 60.7697 26.2367C61.9295 26.7398 63.0236 27.3193 63.0236 28.5094C63.0236 29.7448 61.7534 30.1632 61.0832 30.1632C59.9398 30.1632 58.8353 29.2473 58.5263 27.9186C58.495 27.7773 58.4726 27.6246 58.3293 27.6246C58.1353 27.6246 58.1248 27.8381 58.1248 27.8988C58.1236 28.3674 58.152 28.8356 58.2099 29.301C58.2532 29.6812 58.3174 29.9879 58.495 30.1109C58.7846 30.3087 59.5801 30.5999 60.8369 30.5999C62.9803 30.5999 64.3013 29.1865 64.3013 27.4904C64.2983 25.7632 62.6071 25.0155 61.7041 24.6508ZM23.735 20.8515C20.6334 20.8515 18.3049 22.9561 18.3049 25.7024C18.3049 28.6155 20.8946 30.5999 23.6872 30.5999C26.4023 30.5999 29.0517 28.525 29.0517 25.5653C29.0517 22.9405 26.7217 20.8515 23.735 20.8515ZM23.8141 30.1801C21.6871 30.1801 20.1706 27.8423 20.1706 25.3844C20.1706 23.2289 21.5931 21.2699 23.5469 21.2699C26.0515 21.2699 27.1785 23.814 27.1785 25.6261C27.1785 27.8282 26.0187 30.1801 23.8141 30.1801ZM17.2944 17.3999C17.0754 17.4301 16.8544 17.4447 16.6331 17.4437C16.0361 17.4649 14.842 17.4861 12.4732 17.4861H11.9762C9.71488 17.4861 8.88798 17.4635 8.2969 17.4437C8.08277 17.4403 7.869 17.4257 7.65657 17.3999C7.49835 17.3999 7.19983 17.3999 7.19983 17.7024C7.19983 18.0048 7.54313 18.0275 8.02077 18.0699C9.16262 18.1349 9.16262 18.7186 9.16262 19.6048V28.5547C9.16262 29.2727 9.16262 29.7702 8.18943 29.8268C7.78046 29.8635 7.51029 29.8819 7.51029 30.1405C7.51029 30.3992 7.76105 30.4162 7.91778 30.4162C8.28794 30.4162 9.89847 30.3427 10.2283 30.3427C10.8717 30.3427 11.915 30.4162 12.5553 30.4162C12.7046 30.4162 12.9628 30.4162 12.9628 30.1405C12.9628 29.8649 12.6912 29.8381 12.2822 29.8253C11.3105 29.7702 11.3105 29.2727 11.3105 28.5179V25.1992C11.3105 24.5858 11.3105 24.3427 11.6821 24.2465C11.9254 24.1844 12.9777 24.1844 13.6479 24.1844C14.2181 24.1844 15.6794 24.1844 15.9988 25.3504C16.0451 25.4593 16.1958 26.019 16.2495 26.1716C16.2884 26.2805 16.3764 26.5278 16.6137 26.5165C16.8869 26.5038 16.8884 26.2579 16.8884 26.1066L16.7973 25.0904C16.7526 24.5928 16.7526 24.2268 16.7526 24.0317C16.7526 23.708 16.8197 22.2381 16.8197 21.937C16.8197 21.7208 16.7511 21.5808 16.5466 21.5681C16.3421 21.5554 16.2272 21.742 16.1824 21.9144C15.8913 23.0367 15.5585 23.5144 13.7166 23.5144C13.3748 23.5144 12.0195 23.5144 11.6762 23.4706C11.3777 23.4268 11.312 23.4056 11.312 22.2395V19.2147C11.312 18.1999 11.7016 18.1561 12.4762 18.1561C16.0271 18.1561 16.3242 18.6169 17.0048 20.0571C17.0899 20.2367 17.1794 20.4897 17.4302 20.4897C17.681 20.4897 17.681 20.1448 17.681 20.0783V17.7886C17.681 17.5073 17.6586 17.3999 17.2944 17.3999ZM38.2716 29.9653C37.8238 29.9031 37.6088 29.5314 37.2939 29.0084L35.7625 26.4359C35.3983 25.8084 35.2087 25.7193 35.0027 25.5992C35.5401 25.4946 37.167 25.1356 37.167 23.3858C37.167 22.8614 36.9297 21.0367 34.1355 21.0367C33.6609 21.0367 31.5608 21.0974 31.1339 21.0974C30.9443 21.0974 30.1712 21.0367 30.0129 21.0367C29.492 21.0367 29.4278 21.0367 29.4278 21.2473C29.4278 21.4579 29.6502 21.4706 29.9965 21.4861C30.7697 21.5314 30.7697 21.9356 30.7697 22.5476V28.8882C30.7697 29.5158 30.7697 29.9059 29.9965 29.9653C29.6652 29.9794 29.4278 29.995 29.4278 30.2056C29.4278 30.4162 29.6338 30.4147 29.7592 30.4147C30.0443 30.4147 31.3235 30.3554 31.5921 30.3554C31.6548 30.3554 33.1877 30.4147 33.4877 30.4147C33.6131 30.4147 33.8191 30.4289 33.8191 30.2211C33.8191 30.0133 33.5967 29.9808 33.2504 29.9667C32.4608 29.9215 32.4608 29.5172 32.4608 28.8897V26.2041C32.4608 25.9497 32.4937 25.8607 32.7593 25.8607C33.4713 25.8607 33.5489 25.92 33.8967 26.5674L35.8102 29.9653C35.9834 30.2791 36.0461 30.4147 36.3312 30.4147H38.4119C38.5223 30.4147 38.6791 30.3893 38.6791 30.2352C38.6791 30.0812 38.6029 30.0119 38.2716 29.9653ZM33.2504 25.4635C32.4608 25.4635 32.4608 25.4338 32.4608 24.9094V22.3978C32.4608 21.814 32.4757 21.455 33.2071 21.455C35.1654 21.455 35.3863 23.055 35.3863 23.5935C35.3834 25.4635 33.8191 25.4635 33.2504 25.4635ZM48.1795 29.9653C47.7318 29.9031 47.5168 29.5314 47.2019 29.0084L45.6705 26.4359C45.3063 25.8084 45.1167 25.7193 44.9107 25.5992C45.4481 25.4946 47.075 25.1356 47.075 23.3858C47.075 22.8614 46.8377 21.0367 44.0435 21.0367C43.5689 21.0367 41.4687 21.0974 41.0419 21.0974C40.8523 21.0974 40.0791 21.0367 39.9209 21.0367C39.4 21.0367 39.3358 21.0367 39.3358 21.2473C39.3358 21.4579 39.5582 21.4706 39.9045 21.4861C40.6777 21.5314 40.6777 21.9356 40.6777 22.5476V28.8882C40.6777 29.5158 40.6777 29.9059 39.9045 29.9653C39.5731 29.9794 39.3358 29.995 39.3358 30.2056C39.3358 30.4162 39.5418 30.4147 39.6672 30.4147C39.9523 30.4147 41.2314 30.3554 41.5001 30.3554C41.5628 30.3554 43.0957 30.4147 43.3957 30.4147C43.5211 30.4147 43.7271 30.4289 43.7271 30.2211C43.7271 30.0133 43.5047 29.9808 43.1584 29.9667C42.3688 29.9215 42.3688 29.5172 42.3688 28.8897V26.2041C42.3688 25.9497 42.4016 25.8607 42.6673 25.8607C43.3793 25.8607 43.4569 25.92 43.8047 26.5674L45.7167 29.9653C45.8899 30.2791 45.9526 30.4147 46.2376 30.4147H48.3184C48.4288 30.4147 48.5855 30.3893 48.5855 30.2352C48.5855 30.0812 48.5109 30.0119 48.1795 29.9653ZM43.1584 25.4635C42.3688 25.4635 42.3688 25.4338 42.3688 24.9094V22.3978C42.3688 21.814 42.3837 21.455 43.1151 21.455C45.0734 21.455 45.2943 23.055 45.2943 23.5935C45.2898 25.4635 43.7271 25.4635 43.1584 25.4635ZM92.4281 29.9653C91.9803 29.9031 91.7654 29.5314 91.4504 29.0084L89.919 26.4359C89.5548 25.8084 89.3652 25.7193 89.1592 25.5992C89.6966 25.4946 91.3235 25.1356 91.3235 23.3858C91.3235 22.8614 91.0862 21.0367 88.292 21.0367C87.8174 21.0367 85.7173 21.0974 85.2904 21.0974C85.1008 21.0974 84.3277 21.0367 84.1694 21.0367C83.6485 21.0367 83.5843 21.0367 83.5843 21.2473C83.5843 21.4579 83.8067 21.4706 84.153 21.4861C84.9262 21.5314 84.9262 21.9356 84.9262 22.5476V28.8882C84.9262 29.5158 84.9262 29.9059 84.153 29.9653C83.8217 29.9794 83.5843 29.995 83.5843 30.2056C83.5843 30.4162 83.7903 30.4147 83.9157 30.4147C84.2008 30.4147 85.48 30.3554 85.7486 30.3554C85.8113 30.3554 87.3442 30.4147 87.6442 30.4147C87.7696 30.4147 87.9756 30.4289 87.9756 30.2211C87.9756 30.0133 87.7532 29.9808 87.4069 29.9667C86.6069 29.92 86.6069 29.5158 86.6069 28.8882V26.2027C86.6069 25.9483 86.6397 25.8593 86.9054 25.8593C87.6174 25.8593 87.695 25.9186 88.0428 26.566L89.9623 29.9653C90.1354 30.2791 90.1981 30.4147 90.4832 30.4147H92.5639C92.6743 30.4147 92.8311 30.3893 92.8311 30.2352C92.8311 30.0812 92.7564 30.0119 92.4281 29.9653ZM87.4039 25.4635C86.6143 25.4635 86.6143 25.4338 86.6143 24.9094V22.3978C86.6143 21.814 86.6293 21.455 87.3606 21.455C89.319 21.455 89.5399 23.055 89.5399 23.5935C89.5354 25.4635 87.9726 25.4635 87.4039 25.4635Z" fill="#05060F"/>
</g>
<defs>
<clipPath id="clip0_510_2799">
<rect width="87.6" height="13.2" fill="white" transform="translate(7.19983 17.3999)"/>
</clipPath>
</defs>
</svg>
