<svg width="102" height="48" viewBox="0 0 102 48" fill="none" xmlns="http://www.w3.org/2000/svg">
<g clip-path="url(#clip0_510_2756)">
<path d="M16.4 35.6201H29.9326V37.4935H16.4V35.6201Z" fill="#05060F"/>
<path d="M16.4 32.0269H29.9326V33.9068H16.4V32.0269Z" fill="#05060F"/>
<path d="M20.2605 28.4402H26.0651V30.3202H20.2605V28.4402Z" fill="#05060F"/>
<path d="M20.2605 24.8535H26.0651V26.7335H20.2605V24.8535Z" fill="#05060F"/>
<path d="M20.2605 21.2668H26.0651V23.1469H20.2605V21.2668Z" fill="#05060F"/>
<path d="M20.2605 17.6731H26.0651V19.5531H20.2605V17.6731Z" fill="#05060F"/>
<path d="M29.9326 14.0867H16.4V15.9667H29.9326V14.0867Z" fill="#05060F"/>
<path d="M29.9326 10.5H16.4V12.38H29.9326V10.5Z" fill="#05060F"/>
<path d="M31.8629 33.9069H52.6753C53.0269 33.3269 53.2889 32.6935 53.4475 32.0269H31.8629V33.9069Z" fill="#05060F"/>
<path d="M51.0553 24.8535H35.7303V26.7335H52.6754C52.2341 26.0135 51.6895 25.3802 51.0553 24.8535Z" fill="#05060F"/>
<path d="M35.7303 21.2668V23.1469H51.0553C51.7033 22.6202 52.2479 21.9868 52.6754 21.2668H35.7303Z" fill="#05060F"/>
<path d="M52.6754 14.0867H31.8629V15.9667H53.4475C53.2683 15.3 53.0063 14.6667 52.6754 14.0867Z" fill="#05060F"/>
<path d="M46.2779 10.5H31.8629V12.38H51.2483C49.9523 11.22 48.1944 10.5 46.2779 10.5Z" fill="#05060F"/>
<path d="M41.528 17.6731H35.7303V19.5531H41.528V17.6731Z" fill="#05060F"/>
<path d="M47.3325 19.5531H53.3991C53.5714 18.9531 53.661 18.3198 53.661 17.6731H47.3325V19.5531Z" fill="#05060F"/>
<path d="M35.7303 28.4402H41.528V30.3202H35.7303V28.4402Z" fill="#05060F"/>
<path d="M47.3325 28.4402V30.3202H53.661C53.661 29.6735 53.5714 29.0402 53.3991 28.4402H47.3325Z" fill="#05060F"/>
<path d="M31.8629 37.4801L46.2779 37.5001C48.2082 37.5001 49.9523 36.7801 51.2552 35.6201H31.8629V37.4801Z" fill="#05060F"/>
<path d="M55.0675 35.6201H64.7326V37.4935H55.0675V35.6201Z" fill="#05060F"/>
<path d="M55.0675 32.0269H64.7326V33.9068H55.0675V32.0269Z" fill="#05060F"/>
<path d="M58.928 28.4402H64.7325V30.3202H58.928V28.4402Z" fill="#05060F"/>
<path d="M58.928 24.8535H64.7325V26.7335H58.928V24.8535Z" fill="#05060F"/>
<path d="M67.4212 14.0867H55.0675V15.9667H68.0899L67.4212 14.0867Z" fill="#05060F"/>
<path d="M66.1389 10.5H55.0675V12.38H66.8076L66.1389 10.5Z" fill="#05060F"/>
<path d="M76.328 35.6201H86V37.4935H76.328V35.6201Z" fill="#05060F"/>
<path d="M76.328 32.0269H86V33.9068H76.328V32.0269Z" fill="#05060F"/>
<path d="M76.328 28.4402H82.1326V30.3202H76.328V28.4402Z" fill="#05060F"/>
<path d="M76.328 24.8535H82.1326V26.7335H76.328V24.8535Z" fill="#05060F"/>
<path d="M76.328 23.1469H82.1325V21.2668H76.328H71.0749L70.5303 22.7869L69.9857 21.2668H64.7325H58.928V23.1469H64.7325V21.4202L65.3461 23.1469H75.7145L76.328 21.4202V23.1469Z" fill="#05060F"/>
<path d="M82.1326 17.6731H72.3572L71.6885 19.5531H82.1326V17.6731Z" fill="#05060F"/>
<path d="M74.9286 10.5L74.2599 12.38H86.0001V10.5H74.9286Z" fill="#05060F"/>
<path d="M70.5304 37.4801L71.1991 35.6201H69.8617L70.5304 37.4801Z" fill="#05060F"/>
<path d="M69.248 33.9068H71.8125L72.5019 32.0269H68.5656L69.248 33.9068Z" fill="#05060F"/>
<path d="M67.9452 30.3202H73.1156L73.7981 28.4402H67.2627L67.9452 30.3202Z" fill="#05060F"/>
<path d="M66.6491 26.7335H74.4184L75.0802 24.8535H65.9803L66.6491 26.7335Z" fill="#05060F"/>
<path d="M58.928 19.5531H69.3721L68.7034 17.6731H58.928V19.5531Z" fill="#05060F"/>
<path d="M72.9778 15.9667H86.0002V14.0867H73.6396L72.9778 15.9667Z" fill="#05060F"/>
</g>
<defs>
<clipPath id="clip0_510_2756">
<rect width="69.6" height="27" fill="white" transform="translate(16.4 10.5)"/>
</clipPath>
</defs>
</svg>
