<svg width="168" height="80" viewBox="0 0 168 80" fill="none" xmlns="http://www.w3.org/2000/svg">
<g clip-path="url(#clip0_3253_5176)">
<path d="M18.5551 21.2222L18.5697 26.4004H84H149.43L149.445 21.2222L149.455 16.0489H84H18.5454L18.5551 21.2222Z" fill="black"/>
<path d="M60.3296 35.3986C59.9805 35.4471 59.5199 35.6799 59.2727 35.9271C59.0011 36.1986 58.7927 36.635 58.7393 37.0568C58.6811 37.4932 58.6811 45.0471 58.7345 45.4835C58.8218 46.1671 59.2339 46.7344 59.8399 47.0205L60.1211 47.1514H61.9393H63.7575L64.0824 46.9962C64.6351 46.7344 65.0084 46.2689 65.1345 45.6823C65.2072 45.3235 65.2121 37.2508 65.1345 36.8871C64.9696 36.092 64.3393 35.515 63.5151 35.3938C63.1127 35.3405 60.7272 35.3405 60.3296 35.3986ZM62.943 37.2023L63.0787 37.3332L63.0884 41.2265C63.0981 44.2762 63.0884 45.1392 63.0399 45.2362C62.9236 45.4738 62.7102 45.5271 61.9393 45.5271C61.1151 45.5271 60.9357 45.4738 60.8387 45.1877C60.7951 45.0617 60.7805 44.0386 60.7805 41.2702C60.7757 37.1247 60.766 37.2508 61.0763 37.115C61.1975 37.0568 61.4157 37.0471 62.0218 37.0568L62.8121 37.0665L62.943 37.2023Z" fill="black"/>
<path d="M102.095 35.3939C101.498 35.4812 100.907 35.9321 100.64 36.4994L100.509 36.7757L100.495 38.3563C100.48 40.0485 100.509 40.3442 100.732 40.7806C100.878 41.0715 101.198 41.3963 101.469 41.5321C101.595 41.6 102.337 41.8279 103.118 42.046C103.893 42.2594 104.577 42.4679 104.635 42.5066C104.698 42.5454 104.766 42.6424 104.795 42.7248C104.873 42.9479 104.863 45.0812 104.785 45.2363C104.669 45.4691 104.456 45.5273 103.704 45.5273C103.326 45.5273 102.953 45.503 102.865 45.4739C102.599 45.3818 102.57 45.2606 102.57 44.1454V43.1515H101.522H100.48L100.495 44.446C100.509 45.6679 100.519 45.76 100.621 46.0218C100.781 46.4145 101.144 46.7976 101.542 46.9915L101.867 47.1515L103.607 47.166C105.115 47.1806 105.387 47.1709 105.6 47.103C106.148 46.9236 106.575 46.5212 106.798 45.9782C106.909 45.7018 106.909 45.663 106.909 43.9757C106.909 42.4533 106.899 42.2206 106.822 41.9636C106.696 41.5515 106.458 41.2121 106.148 41.0085C105.804 40.7854 105.799 40.7806 104.291 40.3636C103.573 40.1648 102.909 39.966 102.822 39.9273C102.735 39.8885 102.642 39.8012 102.618 39.7285C102.555 39.5685 102.555 37.4739 102.618 37.3091C102.705 37.0812 102.924 37.0327 103.787 37.0521C104.553 37.0666 104.558 37.0666 104.688 37.2024L104.824 37.3333L104.839 38.3757L104.853 39.4182H105.896H106.933V38.2788C106.933 37.0279 106.899 36.7709 106.681 36.3491C106.4 35.8206 105.905 35.4909 105.261 35.3939C104.868 35.3406 102.478 35.3406 102.095 35.3939Z" fill="black"/>
<path d="M18.5793 35.4712C18.56 35.4906 18.5454 38.1233 18.5454 41.3185V47.127H19.4957H20.446L20.4169 43.8882C20.4024 42.1088 20.3781 40.3827 20.3636 40.0482L20.3393 39.4421L21.6727 43.0785C22.4048 45.076 23.04 46.807 23.0836 46.9185L23.1612 47.127H24.1503H25.1394V41.2845V35.4421L24.2036 35.4518L23.2727 35.4663L23.2581 37.4057C23.2436 39.156 23.3018 41.7306 23.3745 42.7391C23.3939 42.9524 23.389 43.1124 23.3745 43.0979C23.3551 43.0785 22.7103 41.3573 21.9442 39.2676L20.543 35.4663L19.5781 35.4518C19.0448 35.447 18.5987 35.4566 18.5793 35.4712Z" fill="black"/>
<path d="M27.2727 41.2845V47.127H30.0363H32.8V46.3027V45.4785H31.0788H29.3576V43.7573V42.036H30.9091H32.4606V41.1633V40.2906H30.9091H29.3576V38.7148V37.1391L31.0691 37.1294L32.7757 37.1148V36.2906V35.4663L30.0266 35.4518L27.2727 35.4421V41.2845Z" fill="black"/>
<path d="M34.6423 35.5342C34.6423 35.6118 36.2472 46.5694 36.3151 46.967L36.3442 47.127H37.6484C38.6617 47.127 38.9575 47.1124 38.9575 47.0639C38.9575 46.9476 39.9369 39.9754 39.9611 39.9027C40.0048 39.7912 40.0338 39.9948 40.5332 43.5633C40.7902 45.3767 41.0084 46.9185 41.0229 46.9912L41.052 47.127H42.3466H43.6363L44.4799 41.3427C44.9454 38.167 45.3235 35.5391 45.3284 35.5148C45.3332 35.4857 44.9551 35.4615 44.3102 35.4518L43.292 35.4421L43.0108 37.7063C42.3078 43.447 42.2205 44.0967 42.1866 43.927C42.1526 43.733 41.0423 35.5827 41.0423 35.5003C41.0423 35.4566 40.7563 35.4421 39.9999 35.4421C38.9623 35.4421 38.9575 35.4421 38.9381 35.5488C38.9235 35.6118 38.6714 37.4833 38.3757 39.7088C38.0751 41.9342 37.8181 43.8154 37.8035 43.893C37.7793 43.9754 37.566 42.4239 37.246 39.8445C36.9551 37.5415 36.7078 35.6118 36.6932 35.5488C36.669 35.4421 36.6642 35.4421 35.6557 35.4421C34.6957 35.4421 34.6423 35.447 34.6423 35.5342Z" fill="black"/>
<path d="M50.2061 35.476C50.2061 35.5003 50.7976 37.3136 51.5151 39.51L52.8242 43.5051V45.3185V47.127L53.857 47.1173L54.8848 47.1027L54.9091 45.2118L54.9333 43.3209L56.2327 39.413C56.9454 37.2603 57.5273 35.4857 57.5273 35.4712C57.5273 35.4518 57.0424 35.447 56.4509 35.4518L55.3697 35.4663L54.6182 38.1427C54.2061 39.6167 53.8618 40.8094 53.8473 40.7997C53.8376 40.7851 53.4982 39.5827 53.0958 38.1233L52.3588 35.4663L51.2824 35.4518C50.6909 35.447 50.2061 35.4566 50.2061 35.476Z" fill="black"/>
<path d="M67.321 41.2845V47.127L68.3538 47.1173L69.3817 47.1027L69.3962 44.7124L69.4059 42.327H70.3465C70.8653 42.327 71.3453 42.3463 71.4132 42.3754C71.6798 42.4773 71.6847 42.516 71.6847 44.9209V47.127H72.732H73.7744L73.7598 44.9063L73.7453 42.6906L73.6192 42.4239C73.4447 42.0457 73.2313 41.8227 72.892 41.653L72.601 41.5076L72.8192 41.3815C73.1004 41.2167 73.4592 40.8288 73.5901 40.5427C73.692 40.3245 73.6968 40.2615 73.6968 38.6179C73.6968 36.95 73.6968 36.916 73.5853 36.6397C73.3574 36.0821 72.7707 35.6021 72.1647 35.4906C72.0241 35.4615 70.9089 35.4421 69.6192 35.4421H67.321V41.2845ZM71.3938 37.2021C71.6604 37.333 71.6847 37.4785 71.6847 38.8748C71.6847 40.2857 71.6604 40.4166 71.3986 40.5524C71.2823 40.6154 71.0738 40.63 70.3271 40.63H69.4059V38.8845V37.1391H70.3417C70.9865 37.1391 71.3113 37.1585 71.3938 37.2021Z" fill="black"/>
<path d="M75.9031 41.2845V47.127H76.9213H77.9394L77.9443 44.4215C77.9443 42.5742 77.9588 41.7451 77.9928 41.7936C78.0219 41.8324 78.5843 43.0445 79.2485 44.4845L80.4558 47.1027L81.6 47.1173C82.2255 47.1221 82.7394 47.1221 82.7394 47.1124C82.7394 47.1027 82.0946 45.7791 81.3091 44.1694C80.5237 42.5597 79.8788 41.2118 79.8788 41.1779C79.8788 41.1439 80.514 39.8494 81.2849 38.3027C82.0607 36.756 82.691 35.4809 82.691 35.4663C82.691 35.4518 82.1867 35.447 81.571 35.4518L80.451 35.4663L79.2485 38.0118C78.5843 39.413 78.0219 40.5912 77.9928 40.63C77.9588 40.6785 77.9443 39.8591 77.9443 38.07L77.9394 35.4421H76.9213H75.9031V41.2845Z" fill="black"/>
<path d="M87.6459 41.27L87.6605 47.1027L88.6932 47.1173L89.7211 47.127V41.2845V35.4421H88.6787H87.6362L87.6459 41.27Z" fill="black"/>
<path d="M91.8545 41.2845V47.127H92.7757H93.6969V44.2518C93.6969 42.676 93.6727 40.9451 93.6484 40.4166C93.6193 39.8882 93.6048 39.447 93.6096 39.4373C93.6193 39.4324 94.2593 41.1536 95.0302 43.2627L96.4363 47.1027L97.4206 47.1173L98.3999 47.127V41.2845V35.4421H97.4787H96.5575V37.8663C96.5575 39.1997 96.5818 40.8336 96.6109 41.493C96.6399 42.1524 96.6545 42.773 96.6448 42.87C96.6351 43.0154 96.4169 42.4676 95.4957 39.9609C94.8702 38.2639 94.2399 36.5524 94.0945 36.1548L93.8278 35.4421H92.8436H91.8545V41.2845Z" fill="black"/>
<path d="M108.291 36.2906V37.1391H109.333H110.376V42.133V47.127H111.418H112.46V42.133V37.1391H113.527H114.594V36.2906V35.4421H111.442H108.291V36.2906Z" fill="black"/>
<path d="M116.204 41.27L116.218 47.1027L117.251 47.1173L118.279 47.127V41.2845V35.4421H117.236H116.194L116.204 41.27Z" fill="black"/>
<path d="M119.927 36.2906V37.1391H120.97H122.012V42.133V47.127H123.055H124.097V42.133V37.1391H125.164H126.23V36.2906V35.4421H123.079H119.927V36.2906Z" fill="black"/>
<path d="M127.888 40.6156L127.903 45.7938L128.034 46.0702C128.213 46.458 128.553 46.8071 128.94 46.9962L129.26 47.1514H131.079H132.897L133.222 46.9962C133.804 46.7247 134.172 46.2253 134.274 45.5708C134.308 45.372 134.327 43.5199 134.327 40.3489V35.4423H133.285H132.242V40.2423C132.242 45.5708 132.257 45.3186 131.932 45.4544C131.694 45.5562 130.463 45.5562 130.225 45.4544C129.9 45.3186 129.915 45.5708 129.915 40.2423V35.4423H128.897H127.879L127.888 40.6156Z" fill="black"/>
<path d="M135.927 36.2906V37.1391H136.994H138.061V42.133V47.127H139.079H140.097V42.133V37.1391H141.164H142.23V36.2906V35.4421H139.079H135.927V36.2906Z" fill="black"/>
<path d="M143.927 41.2845V47.127H146.691H149.455V46.2785V45.43H147.709H145.964V43.7088V41.9876H147.539H149.115V41.1391V40.2906H147.539H145.964V38.7148V37.1391H147.709H149.455V36.2906V35.4421H146.691H143.927V41.2845Z" fill="black"/>
<path d="M19.8544 52.247C19.3114 52.3973 18.8847 52.7658 18.6811 53.2797L18.5696 53.5512V58.0894V62.6227L18.7538 62.9961C18.9672 63.4324 19.2435 63.6846 19.6944 63.8591C19.9514 63.9561 20.0775 63.9706 21.0762 63.99C22.2932 64.0142 22.6714 63.9706 23.0835 63.7767C23.4132 63.6215 23.7914 63.2094 23.9369 62.8458L24.0484 62.5694L24.0629 58.2542C24.0726 55.1658 24.0629 53.8567 24.0241 53.6482C23.9514 53.2846 23.7235 52.8433 23.4956 52.6446C23.4035 52.5621 23.1805 52.4264 23.0059 52.3439L22.6908 52.1936L21.4059 52.1839C20.3829 52.1742 20.0678 52.1888 19.8544 52.247ZM22.1575 53.2409C22.4338 53.3185 22.6181 53.4639 22.7199 53.6918C22.8072 53.8809 22.812 54.0991 22.812 58.0409C22.812 61.0082 22.7975 62.2397 22.7587 62.3561C22.6859 62.5742 22.4484 62.8215 22.235 62.8942C22.1235 62.9379 21.789 62.9573 21.2847 62.9573C20.5526 62.9573 20.4944 62.9524 20.2665 62.8361C20.0726 62.7391 19.9999 62.6664 19.9029 62.4724L19.7817 62.23V58.0603V53.8906L19.8835 53.6967C20.1114 53.27 20.3199 53.1973 21.2605 53.1924C21.6484 53.1876 22.0508 53.2118 22.1575 53.2409Z" fill="black"/>
<path d="M52.2084 52.2424C51.6363 52.3976 51.2047 52.7515 50.9526 53.2606L50.812 53.5515V58.0848V62.6182L50.9381 62.8897C51.1756 63.3891 51.6169 63.7673 52.1405 63.9224C52.3587 63.9855 52.6835 64 53.9926 64C55.4423 64 55.6023 63.9903 55.8932 63.903C56.4363 63.7333 56.8872 63.3212 57.1053 62.7782C57.2072 62.5358 57.212 62.4291 57.2266 60.9067L57.2411 59.297H56.1987H55.1514V60.6061C55.1514 61.9976 55.132 62.1333 54.9138 62.2545C54.8605 62.2836 54.4678 62.303 53.9926 62.303H53.1635L53.0084 62.1624L52.8484 62.0218L52.8338 58.1721C52.8241 54.5842 52.829 54.3176 52.9066 54.1576C53.0423 53.8958 53.1441 53.8667 54.0023 53.8667C54.8411 53.8667 54.9914 53.9006 55.0932 54.1333C55.132 54.2206 55.1514 54.623 55.1514 55.4182V56.5818H56.1938H57.2363V55.2339C57.2363 54.497 57.212 53.7939 57.1829 53.6776C57.0181 52.9503 56.4363 52.383 55.6944 52.223C55.3017 52.1406 52.5332 52.1552 52.2084 52.2424Z" fill="black"/>
<path d="M78.0364 52.2471C77.4836 52.3974 77.057 52.7562 76.8097 53.275L76.6545 53.5998V58.1089V62.618L76.7903 62.8895C76.9988 63.3162 77.2655 63.5829 77.6873 63.7913L78.0558 63.9756H79.8497H81.6485L81.9733 63.8204C82.3855 63.6265 82.7055 63.3065 82.8994 62.8944L83.0545 62.5695V58.1089V53.6483L82.943 53.3671C82.7151 52.8095 82.1285 52.3295 81.5224 52.218C81.1055 52.1404 78.3515 52.1647 78.0364 52.2471ZM80.7467 53.9392C80.8242 53.978 80.9067 54.0701 80.9406 54.1429C80.9794 54.2447 80.9939 55.3065 80.9842 58.1719L80.9697 62.0701L80.8339 62.1865C80.703 62.298 80.6739 62.3029 79.8497 62.3029H78.9964L78.8606 62.1671C78.7685 62.075 78.7151 61.9538 78.6909 61.8132C78.6764 61.6968 78.6667 59.9416 78.6764 57.915C78.6909 54.4532 78.6958 54.2156 78.7782 54.0944C78.8267 54.0168 78.9139 53.9392 78.9721 53.915C79.0303 53.8907 79.423 53.8713 79.8448 53.8713C80.4267 53.8665 80.6448 53.8859 80.7467 53.9392Z" fill="black"/>
<path d="M92.994 52.2374C92.2376 52.4216 91.6897 53.0229 91.5637 53.8035C91.4958 54.201 91.5007 61.9926 91.5685 62.3998C91.6704 63.0301 92.1407 63.6313 92.7176 63.8641C92.9891 63.9756 93.0231 63.9756 94.7637 63.9756C96.5043 63.9756 96.5382 63.9756 96.8146 63.8641C97.3722 63.6362 97.8279 63.0786 97.9588 62.458C98.0316 62.1041 98.0316 54.1477 97.9588 53.7453C97.8182 52.9792 97.2316 52.3829 96.4704 52.2229C96.1116 52.1501 93.314 52.1598 92.994 52.2374ZM95.7431 54.0071L95.9031 54.1477L95.9176 57.9732C95.9273 60.6204 95.9176 61.8471 95.8788 61.9732C95.7964 62.2641 95.6704 62.3029 94.7685 62.3029C94.2934 62.3029 93.9443 62.2835 93.8716 62.2495C93.5904 62.1186 93.5952 62.2301 93.6097 58.0119L93.6243 54.1477L93.7843 54.0071L93.9394 53.8665H94.7637H95.5879L95.7431 54.0071Z" fill="black"/>
<path d="M101.663 52.218C101.096 52.3344 100.499 52.8289 100.281 53.3671L100.17 53.6483L100.155 57.9392C100.145 61.0762 100.155 62.3029 100.194 62.4968C100.32 63.0738 100.708 63.5635 101.251 63.8204L101.576 63.9756H102.982C104.305 63.9756 104.402 63.9707 104.606 63.8738C104.863 63.7574 105.105 63.5247 105.231 63.2823L105.319 63.1126L105.411 63.4956L105.508 63.8786L106.051 63.8932L106.594 63.9077V60.7271V57.5513H104.897H103.2V58.3998V59.2483H103.903H104.606V60.5526C104.606 61.3526 104.587 61.9101 104.553 62.0023C104.456 62.2786 104.364 62.3029 103.399 62.3029C102.545 62.3029 102.521 62.298 102.39 62.1865L102.255 62.0701L102.24 58.1719C102.23 55.3065 102.245 54.2447 102.284 54.1429C102.39 53.8907 102.536 53.8568 103.442 53.8762C104.572 53.8956 104.558 53.8762 104.558 55.2823V56.1453H105.581H106.599L106.584 54.8701L106.57 53.5998L106.415 53.275C106.148 52.7126 105.658 52.3344 105.047 52.218C104.742 52.1598 101.959 52.1598 101.663 52.218Z" fill="black"/>
<path d="M26.0122 58.0851V63.9033H26.6183H27.2243V61.2367V58.57L28.8389 58.5603L30.4486 58.5457L30.4631 58.0221L30.4777 57.5033H28.8486H27.2243V55.3942V53.2851H28.9455H30.6668V52.776V52.267H28.3395H26.0122V58.0851Z" fill="black"/>
<path d="M35.2241 53.1154V53.9639H36.2908H37.3575V58.9336V63.9033H38.3756H39.3938V58.9336V53.9639H40.4605H41.5272V53.1154V52.267H38.3756H35.2241V53.1154Z" fill="black"/>
<path d="M43.2727 58.0851V63.9033H46.0121H48.7515V63.0791V62.2548H47.0303H45.3091V60.5336V58.8124H46.8848H48.4606V57.9639V57.1154H46.8848H45.3091V55.5397V53.9639H47.0303H48.7515V53.1154V52.267H46.0121H43.2727V58.0851Z" fill="black"/>
<path d="M59.3696 58.0851V63.9033H60.4121H61.4545V61.5033V59.1033H62.5939H63.7333V61.5033V63.9033H64.7757H65.8181V58.0851V52.267H64.7757H63.7333L63.7236 54.8221L63.709 57.3821L62.5842 57.3967L61.4545 57.4064V54.8367V52.267H60.4121H59.3696V58.0851Z" fill="black"/>
<path d="M67.9031 58.0851V63.9033H68.8485H69.794V61.4403C69.794 60.0876 69.7697 58.4779 69.7407 57.867C69.6534 56.0003 69.5322 55.8015 71.1079 60.0973L72.4946 63.8791L73.4934 63.8936L74.497 63.9033V58.0851V52.267H73.5516H72.6061V54.5312C72.611 55.7821 72.64 57.4985 72.674 58.3518C72.7128 59.2051 72.737 59.9082 72.7322 59.913C72.7273 59.9179 72.0922 58.2064 71.3164 56.107L69.9103 52.2912L68.9067 52.2767L67.9031 52.267V58.0851Z" fill="black"/>
<path d="M85.2122 58.0851V63.9033H87.7334H90.2546V63.0791V62.2548H88.7758H87.297V57.2609V52.267H86.2546H85.2122V58.0851Z" fill="black"/>
<path d="M107.922 52.616C107.985 52.81 108.572 54.6088 109.231 56.6112L110.424 60.2476V62.0754V63.9033H111.467H112.509V62.0948V60.2912L113.833 56.2912L115.156 52.2912L114.094 52.2767C113.508 52.2718 113.018 52.2767 113.004 52.2912C112.989 52.3009 112.645 53.5033 112.237 54.9627C111.83 56.4173 111.491 57.6148 111.481 57.6245C111.471 57.6342 111.229 56.7857 110.938 55.7433C110.652 54.696 110.317 53.4888 110.196 53.0524L109.973 52.267H108.892H107.816L107.922 52.616Z" fill="black"/>
</g>
<defs>
<clipPath id="clip0_3253_5176">
<rect width="130.909" height="48" fill="white" transform="translate(18.5454 16)"/>
</clipPath>
</defs>
</svg>
