<svg width="101" height="48" viewBox="0 0 101 48" fill="none" xmlns="http://www.w3.org/2000/svg">
<g clip-path="url(#clip0_510_2755)">
<path d="M33.271 24C33.0034 9.38919 13.8224 3.9778 6.41767 17.5965C6.77452 17.867 7.22059 18.2278 7.48823 18.4082C6.95295 19.5806 6.50688 20.8433 6.32845 22.0158C6.23924 22.8275 6.15002 23.6392 6.15002 24.5411C6.15002 32.117 12.2166 38.25 19.7105 38.25C27.2045 38.25 33.271 32.117 33.271 24.5411C33.271 24.3607 33.271 24.1803 33.271 24ZM9.54015 26.4351C9.36172 27.8781 9.45093 28.4193 9.45093 28.5996L9.09408 28.6898C9.00486 28.4193 8.64801 27.6075 8.55879 26.4351C8.20194 22.0158 11.146 18.0474 15.6959 17.3259C19.8889 16.6946 23.8143 19.3101 24.7957 23.0079L24.4388 23.0981C24.3496 23.0079 24.1712 22.7373 23.5467 22.0158C18.5507 16.875 10.6107 19.2199 9.54015 26.4351ZM22.3869 28.8702C21.6732 29.8623 20.6026 30.4936 19.3537 30.4936C17.3017 30.4936 15.6067 28.78 15.6067 26.7056C15.6067 24.7215 17.1233 23.0981 19.086 23.0079C20.2458 22.9177 21.4056 23.6392 21.9409 24.6313C22.4761 25.8037 22.2977 27.1566 21.4056 28.1487C21.7624 28.4193 22.1193 28.6898 22.3869 28.8702ZM30.1485 29.0506C28.1858 33.5601 24.1712 35.905 19.8889 35.8148C11.5921 35.3639 9.18329 25.8037 14.7145 22.2863L14.9822 22.5569C14.893 22.6471 14.5361 22.9177 14.09 24C13.4655 25.2626 13.2871 26.4351 13.3763 27.2468C13.8224 34.011 23.1006 35.3639 26.3123 28.6898C30.3269 19.4905 19.5321 10.2009 9.897 17.3259L9.71857 17.0553C12.2166 13.087 17.1233 11.2832 21.8516 12.4556C29.0779 14.3496 33.0034 21.9256 30.1485 29.0506Z" fill="#05060F"/>
<path d="M46.4747 18.5886V24.9019C46.4747 27.4272 44.958 29.3212 42.1924 29.3212C39.4268 29.3212 37.9102 27.4272 37.9102 24.9019V18.5886H40.1405V24.7215C40.1405 26.2547 40.8542 27.1566 42.1924 27.1566C43.5306 27.1566 44.2443 26.2547 44.2443 24.7215V18.5886H46.4747ZM54.95 26.1646C54.95 27.9684 53.5226 29.3212 51.203 29.3212H47.5452V18.6788H51.0246C53.0765 18.6788 54.4147 19.6709 54.4147 21.2041C54.4147 22.3766 53.8794 23.0981 53.0765 23.4589C54.1471 23.9098 54.95 24.7215 54.95 26.1646ZM49.8648 20.7532V23.0079H51.0246C51.7383 23.0079 52.1844 22.557 52.1844 21.9256C52.1844 21.2943 51.7383 20.8434 51.0246 20.8434L49.8648 20.7532ZM51.1138 27.2468C52.0951 27.2468 52.6304 26.7959 52.6304 25.894C52.6304 24.9921 52.0951 24.5411 51.1138 24.5411H49.8648V27.1566L51.1138 27.2468ZM55.8421 18.6788H58.0725V29.231H55.8421V18.6788ZM63.5145 23.0079C65.2988 23.6392 66.1909 24.451 66.1909 26.0744C66.1909 28.2389 64.4958 29.5016 62.5331 29.5016C60.7489 29.5016 59.3214 28.6899 58.7862 27.1566L60.5704 25.8038C60.9273 26.7959 61.7302 27.337 62.6224 27.337C63.3361 27.337 63.8713 26.8861 63.8713 26.2547C63.8713 25.6234 63.4253 25.2627 61.9979 24.7215C60.392 24.0902 59.143 23.2785 59.143 21.5649C59.143 19.8513 60.5704 18.5886 62.5331 18.5886C64.139 18.5886 65.388 19.2199 65.9233 20.4826L64.139 21.7453C63.7821 20.9335 63.2469 20.4826 62.4439 20.4826C61.7302 20.4826 61.2842 20.8434 61.2842 21.3845C61.3734 22.0158 61.9979 22.4668 63.5145 23.0079ZM77.521 24C77.521 27.0665 75.2907 29.4114 72.1682 29.4114C68.9565 29.4114 66.8154 27.0665 66.8154 24.3608C66.8154 22.557 67.5291 21.2041 68.5105 20.3924L68.1536 20.0316C68.9565 19.2199 70.384 18.5886 72.079 18.5886C75.2907 18.4984 77.521 20.9335 77.521 24ZM75.2015 24C75.2015 22.106 74.0417 20.7532 72.1682 20.7532C71.0977 20.7532 70.2947 21.2041 69.8487 21.6551L70.2055 22.0158C69.6702 22.4668 69.135 23.0981 69.135 24.2706C69.135 25.894 70.2947 27.2468 72.1682 27.2468C74.0417 27.2468 75.2015 25.894 75.2015 24ZM80.7327 20.9335V23.3687H85.1934V25.0823H80.7327V29.231H78.4132V18.6788H85.5503V20.8434H80.7327V20.9335ZM94.6501 20.9335H91.706V29.3212H89.4757V20.9335H86.4424V18.6788H94.5609V20.9335H94.6501Z" fill="#05060F"/>
</g>
<defs>
<clipPath id="clip0_510_2755">
<rect width="88.5" height="28.5" fill="white" transform="translate(6.15002 9.75)"/>
</clipPath>
</defs>
</svg>
