<svg width="168" height="80" viewBox="0 0 168 80" fill="none" xmlns="http://www.w3.org/2000/svg">
<g clip-path="url(#clip0_3253_5242)">
<path d="M84.236 16.5748C82.6155 16.862 81.4257 17.4877 80.4308 18.5646C79.7437 19.303 79.3334 20.0005 78.9642 21.0774C78.6975 21.8261 78.677 22.0312 78.677 23.2825C78.677 24.5236 78.7078 24.7492 78.9642 25.4877C79.3642 26.6671 79.7847 27.3338 80.6257 28.1748C81.9078 29.4671 83.4565 30.0415 85.6514 30.0518C87.8257 30.0518 89.395 29.4364 90.7898 28.0518C91.4667 27.3748 91.7129 27.0466 92.0411 26.3492C92.636 25.1082 92.8103 24.3697 92.8103 22.9748C92.8103 20.5133 91.918 18.7184 90.0821 17.5389C88.636 16.5953 86.2667 16.2056 84.236 16.5748ZM86.3898 17.3851C88.8924 17.98 90.4103 20.3697 90.4103 23.703C90.4103 26.9953 88.995 29.0364 86.6257 29.2005C84.2667 29.3646 82.2667 27.9287 81.436 25.4569C80.7796 23.5287 80.8719 21.0774 81.6514 19.4364C82.4514 17.7338 84.3591 16.9133 86.3898 17.3851Z" fill="black"/>
<path d="M108.841 19.2518C108.759 19.4159 107.856 21.6416 106.831 24.2057C105.815 26.7698 104.872 29.0057 104.738 29.1698C104.431 29.5492 104.226 29.4877 103.436 28.7492C102.933 28.2877 100.595 25.5082 100.328 25.0569C100.287 24.9851 100.482 24.7185 100.8 24.3903C101.631 23.5595 101.918 22.9954 101.98 22.1031C102.041 21.1595 101.887 20.7082 101.333 20.1441C100.615 19.4364 100.256 19.3646 97.1077 19.3236C94.5641 19.3031 93.6308 19.3851 94.8308 19.5492C95.8051 19.6826 95.7436 19.3749 95.7334 24.38C95.7334 29.4159 95.7334 29.4364 95.0564 29.58C94.8103 29.6416 94.6154 29.7133 94.6154 29.7646C94.6154 29.8057 95.559 29.8467 96.718 29.8467C98.7487 29.8467 99.4051 29.7441 98.3077 29.5903C97.4872 29.4774 97.4462 29.3441 97.4359 27.2416V25.4877L98.1539 25.5185C98.5436 25.539 98.9231 25.6005 98.9949 25.6518C99.0564 25.7133 99.5282 26.3492 100.051 27.0672C101.087 28.5339 101.785 29.3133 102.318 29.6005C102.615 29.7749 102.954 29.7954 104.851 29.8262C106.349 29.8467 107.026 29.8262 107.026 29.7544C107.026 29.6928 106.903 29.6416 106.738 29.6416C106.585 29.6416 106.349 29.5698 106.226 29.4774C106.031 29.3441 106 29.2518 106.062 28.9954C106.144 28.6057 106.923 26.4518 107.036 26.3082C107.077 26.2467 107.744 26.2159 108.749 26.2364L110.39 26.2672L110.985 27.8672C111.528 29.3236 111.569 29.4672 111.405 29.5903C111.313 29.6518 111.262 29.7441 111.303 29.7749C111.405 29.8877 114.718 29.8569 114.718 29.7544C114.718 29.7031 114.533 29.6313 114.318 29.5903C113.815 29.5082 113.456 29.1595 113.077 28.4108C112.923 28.1031 112.051 25.98 111.128 23.6928C109.354 19.2621 109.231 18.9749 109.077 18.9749C109.026 18.9749 108.913 19.098 108.841 19.2518ZM99.2308 20.2057C100 20.5954 100.4 21.4057 100.39 22.5646C100.38 23.498 100.164 24.0826 99.6821 24.5133C99.3539 24.8005 99.2718 24.821 98.5334 24.821C97.3128 24.821 97.3744 24.9646 97.4051 22.3082L97.4359 20.0518L97.7436 19.9903C98.1641 19.898 98.8 19.9903 99.2308 20.2057ZM109.436 23.6928C109.785 24.6467 110.041 25.4569 110.021 25.4877C109.99 25.5185 109.364 25.539 108.636 25.539C107.621 25.539 107.323 25.5082 107.354 25.4057C108.185 23.1595 108.708 21.8569 108.749 21.898C108.78 21.9287 109.087 22.7287 109.436 23.6928Z" fill="black"/>
<path d="M116.205 19.2003C116.174 19.2721 116.113 21.5285 116.062 24.2054C116.021 26.8823 115.938 29.1592 115.897 29.2618C115.856 29.3644 115.621 29.4977 115.374 29.5592C115.128 29.631 114.923 29.7233 114.923 29.7644C114.923 29.8772 118.482 29.8669 118.554 29.7541C118.585 29.7028 118.39 29.6413 118.113 29.6003C117.826 29.5592 117.549 29.4567 117.446 29.3439C117.19 29.0669 117.108 28.1131 117.036 24.831L116.964 22.031L117.764 22.8823C118.195 23.3541 119.969 25.1695 121.713 26.9233C124.031 29.2515 124.903 30.0618 124.985 29.9798C125.056 29.908 125.128 28.3387 125.19 25.0464C125.241 22.39 125.323 20.1028 125.385 19.9592C125.456 19.7644 125.6 19.6618 125.949 19.5695C126.205 19.4977 126.41 19.4156 126.41 19.3746C126.41 19.2721 122.831 19.2823 122.769 19.3849C122.738 19.4259 122.944 19.4977 123.221 19.5387C124.031 19.6515 124.082 19.7644 124.174 21.5695C124.246 23.3439 124.297 27.1285 124.236 27.1285C124.195 27.1285 118.513 21.2823 117.087 19.7644C116.41 19.0669 116.287 18.9746 116.205 19.2003Z" fill="black"/>
<path d="M132.821 19.1796C129.836 19.6514 128.051 21.6822 128.051 24.6155C128.051 26.195 128.503 27.354 129.497 28.3181C130.174 28.995 131.036 29.4463 132.205 29.754C133.744 30.1745 136.318 30.0412 137.641 29.4976L138 29.3437V27.3643C138 25.1078 138.031 24.9848 138.718 24.8719C139.61 24.7181 138.923 24.6258 136.974 24.6258C135.703 24.6258 134.923 24.6566 134.923 24.7181C134.923 24.7796 135.005 24.8207 135.108 24.8207C135.549 24.8207 136.021 25.036 136.133 25.2925C136.267 25.5796 136.308 28.7899 136.174 28.9848C136.01 29.2309 135.621 29.3335 134.851 29.3335C132.4 29.3335 130.564 27.8258 130.051 25.3848C129.703 23.713 130.021 21.9284 130.841 21.0258C132.072 19.6719 134.441 19.3848 136.349 20.3489C136.974 20.6668 137.354 21.1181 137.497 21.7027C137.559 21.9489 137.651 22.1745 137.692 22.2053C137.805 22.2771 137.887 21.5694 137.908 20.4617L137.928 19.5386L136.862 19.3643C135.497 19.1489 133.61 19.0668 132.821 19.1796Z" fill="black"/>
<path d="M146.616 19.3031C146.287 19.3646 144.913 19.3851 143.364 19.3544C140.923 19.3031 140.257 19.3441 140.728 19.5287C140.821 19.5595 141.036 19.5903 141.221 19.5903C141.405 19.5903 141.641 19.6518 141.754 19.7339C141.939 19.8774 141.949 20.0621 141.98 24.2774C142.01 29.3851 142.01 29.4262 141.313 29.58C141.067 29.6416 140.872 29.7133 140.872 29.7646C140.872 29.8057 142.328 29.8467 144.103 29.8467H147.333L147.436 29.6005C147.487 29.4569 147.559 28.9954 147.6 28.5749C147.672 27.7236 147.549 27.5287 147.354 28.1851C147.282 28.4005 147.118 28.6877 146.964 28.8313C146.718 29.0672 146.636 29.0774 145.477 29.0774C143.723 29.0774 143.795 29.18 143.795 26.5851V24.5646L144.974 24.5954C146.359 24.6364 146.564 24.7287 146.667 25.3339C146.708 25.5595 146.769 25.7441 146.81 25.7441C146.882 25.7441 147.118 23.5903 147.067 23.5082C147.057 23.4877 146.913 23.5595 146.759 23.6621C146.513 23.8159 146.257 23.8467 145.128 23.8467H143.795L143.764 21.9698C143.744 20.298 143.754 20.0928 143.908 20.0313C144.01 20.0005 144.605 20.0108 145.241 20.0621C146.533 20.1749 146.769 20.298 146.882 20.8826C146.985 21.4364 147.108 21.2928 147.18 20.5339C147.21 20.1544 147.262 19.6928 147.292 19.5082C147.323 19.3339 147.303 19.1903 147.262 19.1903C147.221 19.2005 146.923 19.2518 146.616 19.3031Z" fill="black"/>
<path d="M101.313 33.9488C99.7948 34.1129 98.8307 34.4411 97.7743 35.1385C96.4923 36 95.5692 37.3026 95.1589 38.8718C94.923 39.7641 94.9333 41.559 95.1692 42.4411C95.8256 44.8718 97.6 46.5744 100.154 47.2206C101.846 47.6513 104.544 47.6513 105.969 47.2308C106.574 47.0462 106.656 46.9129 106.872 45.6718C107.138 44.1231 107.005 43.6 106.615 44.6462C106.092 46.0103 105.067 46.5641 103.077 46.5641C100.667 46.5641 98.5948 44.9847 97.723 42.4923C97.4769 41.7744 97.4461 41.5488 97.4461 40.2564C97.4359 39.0462 97.4769 38.7077 97.6718 38.0821C98.1948 36.4 99.1282 35.4052 100.595 34.9539C101.549 34.6667 103.579 34.718 104.503 35.0564C105.744 35.5077 106.359 36.1744 106.482 37.2206C106.544 37.7744 106.779 37.9488 106.862 37.5077C106.944 37.1488 106.995 34.4513 106.933 34.4206C106.903 34.4 106.297 34.2872 105.59 34.1744C104.072 33.9282 102.349 33.8359 101.313 33.9488Z" fill="black"/>
<path d="M125.2 37.2515C125.026 37.6617 124.164 39.8258 123.272 42.0515C122.379 44.2771 121.549 46.2668 121.426 46.472C121.19 46.8515 120.759 47.0771 120.297 47.0771C120.164 47.0771 120.051 47.1181 120.051 47.1797C120.051 47.2412 120.718 47.2822 121.846 47.2822C122.974 47.2822 123.641 47.2412 123.641 47.1797C123.641 47.1181 123.487 47.0771 123.303 47.0771C123.118 47.0771 122.882 47.0156 122.779 46.9438C122.533 46.7591 122.605 46.3284 123.169 44.872L123.6 43.7438H125.282H126.974L127.569 45.3335C128.103 46.7386 128.154 46.9233 128.01 47.0361C127.918 47.0976 127.846 47.1797 127.846 47.2207C127.846 47.2515 128.656 47.2822 129.641 47.2822C130.769 47.2822 131.436 47.2412 131.436 47.1797C131.436 47.1181 131.282 47.0771 131.108 47.0771C130.615 47.0771 130.154 46.7489 129.815 46.154C129.651 45.8668 128.718 43.6412 127.744 41.2002C126.769 38.7694 125.918 36.7079 125.867 36.6361C125.672 36.3797 125.497 36.5335 125.2 37.2515ZM126.062 41.272C126.369 42.1027 126.615 42.8309 126.615 42.8822C126.615 42.9335 126.021 42.9745 125.282 42.9745C124.554 42.9745 123.949 42.9438 123.949 42.9027C123.949 42.8412 124.697 40.8207 125.2 39.4874L125.303 39.2309L125.405 39.4874C125.456 39.6309 125.754 40.4309 126.062 41.272Z" fill="black"/>
<path d="M139.138 36.9027C138.892 37.8874 138.8 38.4822 138.903 38.5848C138.974 38.6566 139.056 38.5745 139.159 38.3284C139.426 37.6925 139.682 37.6104 141.344 37.5591L142.821 37.5079V41.4976C142.821 46.7591 142.769 47.0771 141.928 47.0771C141.744 47.0771 141.59 47.1181 141.59 47.1797C141.59 47.2412 142.41 47.2822 143.856 47.2822C145.108 47.2822 146.092 47.2412 146.062 47.1899C146.031 47.1489 145.764 47.0771 145.477 47.0566C144.564 46.9643 144.615 47.272 144.585 42.1027L144.554 37.5386H145.528C147.159 37.5386 147.867 37.8053 147.969 38.4412C147.98 38.5643 148.051 38.6771 148.103 38.6668C148.164 38.6668 148.205 38.2668 148.205 37.672V36.6668L147.795 36.7181C146.892 36.8309 139.897 36.7694 139.569 36.6463C139.241 36.5233 139.231 36.5233 139.138 36.9027Z" fill="black"/>
<path d="M112.749 36.7794C110.359 37.3537 108.728 39.4973 108.739 42.0614C108.749 43.5794 109.292 44.9537 110.298 45.9588C111.231 46.8819 112.359 47.364 113.846 47.4563C116.851 47.6409 119.21 46.0409 119.898 43.3332C120.092 42.5537 120.092 41.0358 119.898 40.2768C119.426 38.4717 118.174 37.2819 116.205 36.7691C115.446 36.5742 113.559 36.5742 112.749 36.7794ZM115.651 37.5691C115.98 37.7332 116.451 38.0819 116.749 38.3896C117.723 39.4255 118.133 40.605 118.133 42.3588C118.133 44.5024 117.487 45.8871 116.195 46.523C115.692 46.7691 115.559 46.7896 114.687 46.7486C113.498 46.6973 112.821 46.3999 112.062 45.5896C110.851 44.3178 110.339 42.1127 110.759 40.0922C111.18 38.1332 112.349 37.1896 114.257 37.2614C114.892 37.2922 115.21 37.364 115.651 37.5691Z" fill="black"/>
<path d="M133.918 36.8101C131.477 37.6511 131.456 40.328 133.887 42.2972C135.703 43.7639 136.144 44.328 136.154 45.169C136.154 45.7229 135.754 46.3895 135.262 46.6254C134.995 46.7588 134.656 46.8203 134.185 46.8203C133.59 46.8203 133.446 46.7793 133.067 46.5126C132.564 46.1536 132.246 45.6101 132.174 44.9639C132.092 44.1844 131.908 44.5024 131.815 45.5895C131.764 46.1434 131.754 46.7075 131.785 46.8306C131.877 47.1793 132.564 47.4049 133.703 47.4665C135.036 47.528 135.908 47.2818 136.646 46.6152C137.59 45.7639 137.846 44.3793 137.303 43.1485C137.036 42.5536 136.154 41.6101 135.128 40.8203C133.713 39.7434 133.272 39.046 133.487 38.246C133.672 37.5793 134.246 37.2306 135.149 37.2306C136.072 37.2306 136.769 37.7639 136.954 38.6254C137.097 39.3434 137.231 39.0562 137.262 37.928L137.292 36.8408L136.769 36.728C135.949 36.5536 134.544 36.5947 133.918 36.8101Z" fill="black"/>
<path d="M81.2822 51.58C77.713 52.3595 75.5694 55.4056 76.0515 58.9851C76.513 62.3697 78.7899 64.4518 82.554 64.9236C84.4925 65.1697 87.272 64.8723 87.5899 64.38C87.7438 64.1338 88.0515 62.5236 88.0515 61.9184C88.0515 61.5287 87.8874 61.3953 87.7848 61.7133C87.4669 62.7389 86.7899 63.5287 86.031 63.7851C85.4361 63.98 83.6207 64.0518 82.9335 63.8979C82.113 63.7133 81.0976 63.18 80.431 62.5646C79.2002 61.4364 78.5438 59.9595 78.4515 58.103C78.2874 55.0261 79.6412 52.8107 81.9797 52.3184C83.231 52.0518 85.0874 52.2569 86.0617 52.7492C86.954 53.2107 87.3745 53.7953 87.5181 54.7594C87.5592 55.0056 87.6412 55.2312 87.713 55.2518C87.8771 55.3133 87.9386 54.903 87.9694 53.2928L88.0002 51.8569L86.9745 51.6723C86.3181 51.5492 85.2617 51.4671 84.0515 51.4364C82.4515 51.3953 82.0104 51.4159 81.2822 51.58Z" fill="black"/>
<path d="M93.9284 54.2049C91.9694 54.6357 90.472 56.0818 89.9489 58.0511C89.754 58.7895 89.754 60.2152 89.9489 60.9639C90.2053 61.928 90.7797 62.9126 91.4463 63.528C92.4925 64.4921 93.6822 64.9229 95.3335 64.9229C97.0668 64.9229 98.4309 64.3998 99.4976 63.3331C100.575 62.2664 101.108 60.9126 101.108 59.2305C101.108 56.0203 98.9438 54.0408 95.4873 54.0613C94.9848 54.0613 94.2771 54.1331 93.9284 54.2049ZM96.6566 55.0254C98.472 55.8459 99.4874 58.2254 99.1284 60.81C98.9745 61.969 98.6976 62.6562 98.154 63.2613C97.395 64.1023 96.4309 64.4203 95.272 64.2152C93.6309 63.9075 92.4515 62.7485 91.8873 60.8716C91.6002 59.9382 91.6309 57.9177 91.9386 57.0357C92.3591 55.8152 92.9848 55.169 94.0617 54.8305C94.7899 54.5946 95.8771 54.6767 96.6566 55.0254Z" fill="black"/>
<path d="M132.38 54.2567C130.451 54.7798 129.221 55.8772 128.595 57.6516C128.369 58.2875 128.328 58.5849 128.328 59.4875C128.339 62.2054 129.713 63.9285 132.462 64.6875C132.975 64.831 133.508 64.8721 134.821 64.8721C136.287 64.8721 136.605 64.8413 137.251 64.6362C137.651 64.5131 138.062 64.3387 138.144 64.2567C138.267 64.1234 138.298 63.7644 138.277 62.1439C138.267 60.2054 138.267 60.1746 138.503 59.99C138.636 59.8772 138.872 59.7951 139.036 59.7951C139.2 59.7951 139.333 59.7439 139.333 59.6926C139.333 59.631 138.564 59.59 137.221 59.59C136.062 59.59 135.139 59.631 135.169 59.6823C135.2 59.7234 135.436 59.7951 135.703 59.8259C136.287 59.8875 136.369 59.9695 136.472 60.5849C136.585 61.2926 136.585 63.5285 136.462 63.8362C136.339 64.1746 136.01 64.2567 134.964 64.2464C132.585 64.2054 130.78 62.6567 130.298 60.2157C130.123 59.3234 130.226 57.7439 130.503 57.0054C130.79 56.2567 131.498 55.4669 132.195 55.1285C133.682 54.4003 136.041 54.6567 137.2 55.6823C137.559 55.99 137.713 56.2875 137.836 56.8413C137.969 57.4362 138.072 57.0772 138.133 55.8259C138.175 55.108 138.185 54.5028 138.154 54.4823C138.021 54.3387 136.308 54.1541 134.821 54.1028C133.344 54.0516 133.036 54.0721 132.38 54.2567Z" fill="black"/>
<path d="M122.698 54.2255C120.708 54.2461 119.539 54.2973 119.539 54.3589C119.539 54.4204 119.703 54.4614 119.898 54.4614C120.523 54.4614 120.851 54.6973 120.923 55.1999C120.964 55.4461 120.974 57.5076 120.954 59.7948C120.923 63.5794 120.903 63.9794 120.739 64.2358C120.605 64.4512 120.472 64.5127 120.205 64.5127C120.021 64.5127 119.826 64.5537 119.795 64.6153C119.764 64.6666 119.815 64.7178 119.918 64.7178C120.021 64.7178 121.467 64.7384 123.139 64.7691C125.703 64.8307 126.185 64.8102 126.287 64.6871C126.462 64.482 126.657 62.8717 126.523 62.7384C126.41 62.6255 126.38 62.6871 126.267 63.2102C126.123 63.8255 125.518 64.1025 124.359 64.0922C123.518 64.0922 123.015 63.9178 122.851 63.5896C122.759 63.4153 122.718 62.7486 122.718 61.405V59.4871H123.733C125.18 59.4871 125.59 59.682 125.59 60.3486C125.59 60.6255 125.774 60.8102 125.836 60.5948C125.867 60.523 125.908 59.9794 125.949 59.3948L126.01 58.3384L125.733 58.5537C125.487 58.7486 125.333 58.7691 124.092 58.7691H122.718V56.8614V54.9537L123.939 54.9845C124.985 55.0153 125.21 55.0563 125.457 55.2409C125.61 55.364 125.754 55.5691 125.774 55.7025C125.877 56.564 126.062 56.2768 126.154 55.0973C126.226 54.2153 126.215 54.1537 126.041 54.1743C125.928 54.1948 124.431 54.2153 122.698 54.2255Z" fill="black"/>
<path d="M143.826 54.2259C142.082 54.2465 140.667 54.2977 140.667 54.349C140.667 54.4003 140.882 54.4618 141.149 54.4926C142.041 54.5849 142 54.3798 142 59.3234C142 61.8465 141.959 63.7849 141.898 63.99C141.774 64.4106 141.651 64.5131 141.21 64.5131C141.026 64.5131 140.872 64.5541 140.872 64.6157C140.872 64.667 140.933 64.7182 141.005 64.7182C141.067 64.7182 142.513 64.7285 144.205 64.7388L147.282 64.7695L147.405 64.5131C147.559 64.1747 147.703 62.667 147.569 62.667C147.518 62.667 147.405 62.8824 147.323 63.149C147.118 63.8362 146.821 64.0106 145.785 64.0721C145.272 64.1029 144.739 64.0824 144.482 64.0106C143.815 63.8259 143.744 63.5798 143.744 61.3234V59.467L144.964 59.508C146.359 59.5388 146.574 59.6413 146.677 60.3285C146.718 60.5439 146.78 60.7182 146.821 60.7182C146.892 60.7182 147.108 58.4721 147.036 58.4003C147.015 58.3798 146.882 58.4618 146.739 58.5644C146.513 58.749 146.318 58.7695 145.118 58.7695H143.744V56.8721V54.9747L144.851 54.9849C146.339 54.9849 146.626 55.0977 146.821 55.7131C146.903 55.99 147.005 56.2054 147.036 56.2054C147.077 56.2054 147.139 55.867 147.18 55.4567C147.21 55.0567 147.262 54.5952 147.292 54.4311C147.344 54.2054 147.313 54.1541 147.159 54.1747C147.056 54.1952 145.559 54.2157 143.826 54.2259Z" fill="black"/>
<path d="M102.769 54.3593C102.8 54.4105 102.995 54.4618 103.19 54.4618C103.436 54.4618 103.631 54.5439 103.805 54.7182L104.062 54.9746L104.031 59.5285C104 63.8362 103.99 64.0926 103.805 64.2977C103.682 64.4311 103.487 64.5131 103.262 64.5131C103.077 64.5131 102.923 64.5541 102.923 64.6157C102.923 64.667 102.985 64.7182 103.056 64.7182C103.118 64.7182 104.615 64.7387 106.379 64.7695L109.579 64.8311L109.733 64.5849C109.938 64.2772 110.092 62.667 109.908 62.667C109.846 62.667 109.795 62.7387 109.795 62.8208C109.795 63.1695 109.385 63.7644 109.067 63.8977C108.677 64.0618 106.79 64.0721 106.39 63.908C105.846 63.7028 105.846 63.6721 105.846 59.0977V54.8516L106.092 54.6567C106.236 54.5439 106.492 54.4618 106.728 54.4618C106.944 54.4618 107.128 54.4105 107.128 54.3593C107.128 54.2977 106.318 54.2567 104.913 54.2567C103.467 54.2567 102.728 54.2875 102.769 54.3593Z" fill="black"/>
<path d="M111.231 54.359C111.231 54.4103 111.364 54.4615 111.539 54.4615C111.918 54.4615 112.328 54.6462 112.421 54.8615C112.544 55.1282 112.585 61.4872 112.482 62.9128C112.369 64.3898 112.308 64.5128 111.672 64.5128C111.487 64.5128 111.334 64.5539 111.334 64.6154C111.334 64.6667 111.395 64.718 111.467 64.718C111.528 64.718 113.026 64.7385 114.78 64.7692C118.39 64.841 118.236 64.8718 118.349 64.0513C118.38 63.7949 118.441 63.3846 118.472 63.1282C118.513 62.8103 118.503 62.6667 118.421 62.6667C118.359 62.6667 118.277 62.7487 118.246 62.8513C117.939 63.8462 117.631 64.0205 116.195 64.0308C115.016 64.0308 114.605 63.9077 114.41 63.5077C114.257 63.1692 114.144 57.8667 114.257 56.0615C114.339 54.6564 114.441 54.4615 115.128 54.4615C115.354 54.4615 115.539 54.4103 115.539 54.359C115.539 54.2974 114.749 54.2564 113.385 54.2564C112.021 54.2564 111.231 54.2974 111.231 54.359Z" fill="black"/>
<circle cx="45.7693" cy="40" r="23.5" stroke="black" stroke-width="5"/>
<path d="M43.6077 21.5613C39.2375 22.0601 35.0825 24.1775 31.9381 27.5184C30.7683 28.7606 29.9635 29.9369 29.1494 31.5744C27.7831 34.3506 27.231 36.741 27.231 39.9689C27.231 45.2766 29.0652 49.7091 32.7616 53.3134C35.4381 55.9202 38.442 57.5295 42.1104 58.3012C43.0556 58.5082 43.6265 58.5647 45.1144 58.6023C47.8095 58.6776 49.5315 58.4329 51.9271 57.633C55.9418 56.2872 59.2733 53.8122 61.4631 50.5372C61.9497 49.8126 62.8481 48.1845 62.7639 48.1845C62.7358 48.1845 62.5112 48.4669 62.2679 48.8151C61.6971 49.615 60.05 51.3277 59.1423 52.0712C56.5126 54.2075 53.3028 55.6191 49.8777 56.1461C48.4178 56.3719 45.8069 56.3719 44.3751 56.1555C41.8952 55.7697 39.1907 54.6592 37.3846 53.2946C34.6707 51.243 32.6961 48.2504 31.8726 44.9284C31.4702 43.2721 31.3953 42.6604 31.4047 40.8441C31.4141 39.423 31.4515 38.9243 31.6199 38.1149C32.3124 34.8588 33.9127 32.0073 36.1025 30.1816C38.0677 28.5347 40.323 27.4619 42.7 27.0478C43.7575 26.8596 46.3778 26.9161 47.3978 27.1513C48.9887 27.5089 50.6825 28.2336 51.8148 29.0429C53.2092 30.0405 54.5568 31.7815 54.9405 33.0896C55.0528 33.466 55.2119 33.8424 55.3054 33.9271C55.7266 34.313 57.1677 32.7037 57.5795 31.3956C57.7386 30.8686 57.7853 30.5016 57.7853 29.6923C57.7853 27.9136 57.2332 26.5961 55.9699 25.3162C54.6691 23.9987 53.2466 23.1706 51.0755 22.4553C48.4178 21.5707 46.0221 21.2884 43.6077 21.5613Z" fill="black"/>
<path d="M43.0289 28.7015C42.1353 28.8144 40.5267 29.2471 39.7083 29.5858C38.5889 30.0561 37.7047 30.6958 36.5289 31.8811C34.958 33.4616 33.8386 35.2583 33.1613 37.2997C32.3617 39.7174 32.4464 43.0287 33.3776 45.7756C34.3559 48.626 36.3784 51.2977 38.8147 52.9534C40.0188 53.7718 42.361 54.6749 44.1765 55.023C47.1773 55.6062 49.5384 55.4933 52.7084 54.6185C56.1701 53.6683 59.0674 51.8621 61.0804 49.4257C61.7389 48.6354 61.7107 48.626 60.8452 49.3034C59.2649 50.5263 56.932 51.7681 55.0319 52.3889C49.924 54.054 44.8726 53.4049 41.0441 50.6016C40.301 50.0559 38.9746 48.7107 38.3632 47.8829C36.8111 45.7568 36.2749 42.803 36.9522 40.1219C37.1591 39.2846 37.8552 37.9488 38.4573 37.2245C39.8306 35.5594 41.7966 34.6186 43.8849 34.6186C45.5123 34.6186 46.9985 35.1172 48.2779 36.0768C49.2844 36.8388 50.2815 38.2216 50.5919 39.2658C50.7989 39.9714 51.3539 39.7832 52.2757 38.692C53.3387 37.422 53.6021 35.8322 53.0659 34.0542C52.8307 33.3016 52.5955 32.8407 52.144 32.2198C51.589 31.4766 50.3567 30.376 49.5666 29.9244C47.7229 28.8708 45.2489 28.4099 43.0289 28.7015Z" fill="black"/>
</g>
<defs>
<clipPath id="clip0_3253_5242">
<rect width="128.462" height="52" fill="white" transform="translate(19.7693 14)"/>
</clipPath>
</defs>
</svg>
