<svg width="168" height="80" viewBox="0 0 168 80" fill="none" xmlns="http://www.w3.org/2000/svg">
<g clip-path="url(#clip0_3253_5208)">
<path d="M26.9288 21.0207C25.4058 21.2383 23.0794 21.958 21.5731 22.6609C15.8827 25.322 11.7656 30.778 10.7781 36.937C10.4434 39.0124 10.6443 42.9789 11.1798 45.0207C13.1882 52.686 19.9832 58.4098 27.9664 59.1463C39.615 60.2341 49.4058 50.8785 48.8869 39.1797C48.7028 35.0458 47.4476 31.5981 44.9371 28.2843C42.6777 25.322 39.0459 22.7948 35.4309 21.6734C32.9706 20.9203 29.5062 20.6525 26.9288 21.0207ZM33.9079 22.7446C37.456 23.6483 40.0501 25.1546 42.5773 27.8157C45.6066 30.9956 47.1966 34.5772 47.5313 39.0124C47.8828 43.6149 46.025 48.686 42.7112 52.2341C39.5648 55.5981 35.2802 57.5563 30.6777 57.7739C28.1505 57.891 26.343 57.6567 24.251 56.9705C15.6317 54.1086 10.4936 45.3387 12.2844 36.5354C13.8074 29.1211 19.9162 23.3973 27.4309 22.3596C29.2217 22.1086 32.0669 22.276 33.9079 22.7446Z" fill="#05060F"/>
<path d="M27.5982 25.3722C22.8785 26.0584 18.594 29.1714 16.4685 33.4726C15.3137 35.8157 15.0459 37.1044 15.0459 40.0835C15.0626 43.0458 15.2467 43.9831 16.3179 46.2425C17.1714 48.1002 18.1923 49.4893 19.6986 50.8952C22.4769 53.4726 25.8744 54.8115 29.6568 54.8115C33.958 54.8115 37.4057 53.3555 40.4015 50.2927C43.9329 46.6944 45.3555 41.2885 44.0836 36.3513C42.2258 29.0877 35.0459 24.3011 27.5982 25.3722ZM33.0375 26.6107C34.5438 26.9789 37.2718 28.3513 38.5103 29.3722C39.9329 30.5437 41.1045 32.0165 42.0082 33.7571C43.1463 35.9663 43.4643 37.3722 43.4643 40.0835C43.4643 42.0584 43.4141 42.527 43.0124 43.8157C42.2091 46.4768 41.071 48.3178 38.9957 50.2425C37.5731 51.5647 35.5982 52.686 33.5396 53.3387C32.4518 53.6734 31.9497 53.7237 29.7739 53.7237C26.8953 53.7237 25.9078 53.5061 23.7154 52.4517C20.3848 50.8617 17.8074 47.8827 16.6024 44.2676C16.1003 42.7781 16.0668 42.527 16.0668 40.1672C16.0501 37.3387 16.2509 36.3178 17.2384 34.2425C19.1798 30.1253 22.8283 27.2969 27.3137 26.4433C28.8534 26.1588 31.4308 26.2257 33.0375 26.6107Z" fill="#05060F"/>
<path d="M28.2512 27.7152C28.4353 28.8533 29.0211 30.0416 30.1424 31.4976C30.7282 32.2675 31.1968 32.9537 31.1968 33.0541C31.1968 33.2884 30.8286 33.2549 30.1257 32.9704C29.7909 32.8198 29.4395 32.7529 29.3558 32.8031C29.0043 33.0206 29.9583 34.3763 31.4646 35.8324C32.3349 36.6692 33.0378 37.439 33.0378 37.5562C33.0378 37.6566 32.6863 37.9077 32.2512 38.0918C31.5985 38.3763 31.2805 38.4098 30.293 38.3093L29.1047 38.1922L29.6738 38.8449C30.3265 39.598 32.5859 40.9202 33.2386 40.9202C33.4897 40.9202 33.8914 41.0039 34.1591 41.1043L34.6278 41.2717L33.7909 41.7905C32.5357 42.5771 31.2637 43.1127 30.611 43.1462C29.9081 43.1796 29.8579 43.4474 30.4604 43.916C30.9625 44.301 31.8495 44.5185 32.4018 44.3679C32.6194 44.3177 33.7073 43.6817 34.8286 42.9286C36.2177 42.0248 37.0378 41.5897 37.3725 41.5897C37.6403 41.5897 38.4269 41.8909 39.1299 42.2591C39.816 42.6273 40.5357 42.9286 40.7031 42.9286C40.8872 42.9286 41.3391 42.6943 41.7073 42.4265C42.0922 42.142 42.4771 41.9244 42.5608 41.9244C42.7951 41.9244 42.8955 40.1169 42.7282 38.6273C41.9918 31.9495 36.5524 27.029 29.8914 27.029H28.134L28.2512 27.7152Z" fill="#05060F"/>
<path d="M23.5817 28.5022C22.1424 29.3055 21.2554 29.975 20.201 31.0963C17.7073 33.7741 16.4688 37.1381 16.6863 40.7532C16.8202 42.9122 16.8537 42.9959 17.7073 42.862C18.8453 42.6779 20.1675 41.9248 21.2386 40.8536C22.2093 39.8662 23.1633 38.4268 23.4144 37.59C23.5315 37.2218 23.498 37.2051 23.1466 37.3055C21.1717 37.908 20.9709 37.9248 20.2679 37.6904C19.883 37.5733 19.565 37.3725 19.565 37.2386C19.565 37.1214 20.1006 36.7365 20.7365 36.385C22.4437 35.431 24.2512 33.3725 24.5859 32.0001C24.7031 31.5649 24.6863 31.5482 24.2512 31.7156C23.5985 31.9666 23.1633 31.9164 23.1633 31.6151C23.1633 31.4645 23.498 30.795 23.9165 30.1423C24.5859 29.0545 24.8872 28.0335 24.5524 28.0335C24.4688 28.0335 24.0504 28.2511 23.5817 28.5022Z" fill="#05060F"/>
<path d="M21.272 44.9202C20.703 45.3051 19.9164 45.6733 19.3808 45.7904C18.862 45.9076 18.4101 46.0917 18.3599 46.2256C18.159 46.7444 20.1339 49.2047 21.6904 50.3762C23.0126 51.3804 24.6193 52.2005 24.7532 51.9494C24.8201 51.849 24.9373 50.6775 25.021 49.3218C25.1549 47.3971 25.1381 46.6942 24.9708 46.1252L24.7532 45.3888L24.2511 45.8072C23.1632 46.711 21.9247 47.0457 21.5063 46.5436C21.3557 46.3762 21.3892 46.2758 21.59 46.1084C22.0251 45.7235 22.6611 44.2674 22.3766 44.2674C22.3097 44.2674 21.8076 44.5687 21.272 44.9202Z" fill="#05060F"/>
<path d="M35.7323 47.632C31.7993 47.7994 31.3307 47.8663 31.3976 48.3349C31.4311 48.5358 31.6821 48.837 31.9499 49.0378C32.2344 49.2219 32.4855 49.4395 32.5189 49.5399C32.6361 49.9751 29.088 50.3935 28.0671 50.0588C27.6989 49.9416 27.6821 49.9751 27.6821 50.9625C27.6821 51.5148 27.7993 52.2512 27.9332 52.586L28.1842 53.1885L30.1591 53.0881C32.2846 52.9709 33.5566 52.6864 35.1466 51.9667C37.0043 51.1299 38.6947 49.7743 40.3014 47.8161L40.6194 47.4479L39.6319 47.4814C39.0964 47.4814 37.339 47.5483 35.7323 47.632Z" fill="black"/>
<path d="M55.2971 27.5648C55.2803 27.5983 54.5105 31.2301 53.5565 35.6485L51.8494 43.6819L53.272 43.7322C54.159 43.7656 54.728 43.7154 54.795 43.5983C54.8619 43.4978 55.431 40.9706 56.0502 37.9581C56.8535 34.2091 57.2385 32.6359 57.3222 32.9037C57.3891 33.1213 57.7573 35.6652 58.159 38.5271L58.8619 43.7656H60.7699C61.8075 43.7656 62.6611 43.7322 62.6611 43.6987C62.6611 43.6652 63.4142 40.0836 64.3347 35.7322C65.2552 31.3974 66.0084 27.7824 66.0084 27.6987C66.0084 27.5983 65.3724 27.5313 64.5523 27.5313H63.0795L61.9079 33.0543C61.272 36.0836 60.7197 38.5271 60.6862 38.4937C60.6527 38.4602 60.2678 35.9999 59.8326 33.0209L59.046 27.615L57.1715 27.5648C56.1339 27.548 55.2971 27.548 55.2971 27.5648Z" fill="black"/>
<path d="M90.3934 27.8995C90.3432 28.1171 89.6737 31.2133 88.9206 34.8116C88.0001 39.2133 87.4645 41.4058 87.2971 41.5397C86.9122 41.8577 85.5063 41.8075 85.1883 41.4895C85.0377 41.3556 84.9206 41.1715 84.9206 41.0878C84.9206 40.9372 86.1925 34.8284 86.3599 34.1087C86.4603 33.774 86.5607 33.7238 87.3641 33.7238C88.3515 33.7238 88.2511 33.8409 88.5858 32.251L88.7365 31.548H87.8327C87.3306 31.548 86.9289 31.4978 86.9289 31.4141C86.9289 31.3472 87.0796 30.661 87.2637 29.8744C87.4478 29.0878 87.5984 28.3514 87.5984 28.2342C87.5984 28.0836 87.18 28.0334 86.0419 28.0334H84.4687L84.2678 29.1547C84.1507 29.7907 84.0001 30.5773 83.8996 30.9121C83.749 31.5146 83.6988 31.548 83.0126 31.548C82.0252 31.548 80.8703 31.9832 80.3013 32.5522C79.6821 33.1882 79.5482 33.1715 79.749 32.5187C80.0168 31.548 80.0168 31.548 78.4268 31.548H76.954L75.7155 37.3556C75.0461 40.569 74.4603 43.3137 74.4101 43.4644C74.3432 43.7321 74.4938 43.7656 75.9164 43.7656H77.5063L78.3097 39.8828C78.7783 37.6736 79.2804 35.6987 79.4812 35.3137C79.9498 34.4267 81.2553 33.7238 82.4268 33.7238C82.8787 33.7238 83.2469 33.7907 83.2469 33.8744C83.2469 33.9581 82.8787 35.8158 82.4101 37.9748C81.9582 40.1505 81.5733 42.1422 81.5733 42.41C81.5733 42.6945 81.7406 43.1129 81.975 43.3807L82.3766 43.8493L84.8703 43.8995C86.226 43.933 87.9833 43.8828 88.7532 43.8158L90.1758 43.6819L91.0628 39.4978C92.0335 34.8618 92.1507 34.5271 92.7532 34.0585C93.2218 33.6736 94.4436 33.6066 94.7616 33.9246C95.113 34.2761 94.9791 35.3639 94.0586 39.615L93.1716 43.7656H94.7281C96.067 43.7656 96.2846 43.7321 96.3683 43.4644C96.7867 42.0418 98.3097 34.1757 98.3097 33.456C98.3097 32.6192 98.2427 32.4518 97.7574 31.9664C96.7365 30.9455 94.6611 31.0292 93.2218 32.1338L92.5021 32.6694L92.9708 30.5104C93.2218 29.3221 93.4729 28.1673 93.5231 27.9497L93.6235 27.5313H92.0503C90.5607 27.5313 90.477 27.548 90.3934 27.8995Z" fill="black"/>
<path d="M154.879 27.6652C154.879 27.7489 154.125 31.3472 153.205 35.6652C152.284 39.9832 151.531 43.5648 151.531 43.6317C151.531 43.7154 152.234 43.7656 153.088 43.7656H154.627L156.268 36.0167C157.171 31.7656 157.941 28.1171 157.992 27.8995C158.092 27.5313 158.075 27.5313 156.485 27.5313C155.598 27.5313 154.879 27.5983 154.879 27.6652Z" fill="black"/>
<path d="M131.548 29.2387C131.398 29.9082 131.23 30.7115 131.18 30.9961C131.08 31.5316 131.046 31.5484 130.276 31.5484H129.473L129.239 32.586L128.988 33.6404L128.787 32.9207C128.536 32.017 128.134 31.6153 127.247 31.381C125.975 31.0295 124.268 31.5149 123.28 32.5023L122.862 32.9207L122.979 32.2345L123.08 31.5484H121.573C120.753 31.5484 120.067 31.5818 120.067 31.632C120.067 31.6822 119.498 34.3601 118.812 37.6069C118.126 40.8538 117.557 43.5484 117.557 43.632C117.557 43.699 118.26 43.7659 119.113 43.7659H120.653L121.306 40.6195C122.444 35.1802 122.561 34.7785 123.113 34.2262C123.498 33.8245 123.749 33.7241 124.301 33.7241C125.121 33.7241 125.339 33.8412 125.49 34.3266C125.557 34.5274 125.205 36.5525 124.67 39.0128C124.168 41.3894 123.749 43.4479 123.749 43.5651C123.749 43.7325 124.117 43.7659 125.289 43.7325L126.829 43.6822L127.816 38.9124C128.352 36.2848 128.837 34.0421 128.87 33.9249C128.904 33.8078 129.239 33.7241 129.774 33.7241C130.511 33.7241 130.628 33.7576 130.544 34.0086C130.193 35.2304 128.937 41.6739 128.937 42.2931C128.937 42.7952 129.038 43.1969 129.255 43.4479L129.573 43.8496L133.473 43.8161C135.615 43.7827 137.373 43.7492 137.406 43.7325C137.423 43.699 137.824 41.9249 138.276 39.7659C138.812 37.3057 139.247 35.6822 139.431 35.4145C139.9 34.7785 141.088 34.2262 141.992 34.2262H142.778L143.046 32.9207C143.448 31.0965 143.465 31.1467 142.578 31.2638C141.607 31.3977 140.988 31.7325 140.218 32.5023L139.598 33.1048L139.716 32.335L139.833 31.5484H138.36H136.887L136 35.7827C135.515 38.0923 135.029 40.3517 134.946 40.7868L134.778 41.5735L133.891 41.6739C132.854 41.8078 132.285 41.5902 132.285 41.0379C132.268 40.8371 132.586 39.1132 132.988 37.2053L133.707 33.7241H134.645C135.582 33.7241 135.582 33.7241 135.682 33.1718C135.732 32.8873 135.833 32.3852 135.9 32.0839L136.017 31.5484H135.096H134.176L134.477 30.176C134.645 29.4396 134.812 28.6362 134.879 28.4186C134.962 28.0337 134.962 28.0337 133.389 28.0337H131.816L131.548 29.2387Z" fill="black"/>
<path d="M69.3891 31.481C68.2845 31.7656 67.2134 32.4852 66.6276 33.3388C65.4393 35.0794 64.6192 37.9246 64.6025 40.4183C64.5858 42.2928 64.8703 43.0459 65.8243 43.6317C66.3598 43.9664 66.6443 44.0166 68.2678 44.0166C69.8075 44.0166 70.2427 43.9497 70.8954 43.6484C71.933 43.1798 72.9372 42.1087 73.523 40.8534C74.477 38.8283 75.0795 35.4643 74.8117 33.6568C74.5104 31.6651 72.1674 30.7279 69.3891 31.481ZM71.4477 33.7237C72.1004 34.4434 71.5314 38.4936 70.4937 40.5856C70.0251 41.4894 69.841 41.707 69.3054 41.9078C68.7197 42.1254 68.636 42.1087 68.2176 41.8074C67.8326 41.5229 67.7657 41.3388 67.7155 40.502C67.615 38.5271 68.569 34.8785 69.4393 33.958C70.092 33.2718 70.9456 33.1714 71.4477 33.7237Z" fill="black"/>
<path d="M103.18 31.4815C102.678 31.6153 102.025 31.8831 101.724 32.0672C100.034 33.1049 98.7616 35.7994 98.293 39.3476C97.9583 41.9082 98.6277 43.4815 100.234 43.9333C101.289 44.2346 103.548 44.084 104.519 43.6488C105.942 43.0128 107.197 41.3225 107.465 39.6656L107.565 39.0798H106.126H104.703L104.435 39.9333C104.05 41.1049 103.699 41.5902 103.063 41.858C102.477 42.1091 102.092 42.0421 101.624 41.6237C101.239 41.3057 101.222 40.084 101.59 38.3099C102.276 34.8455 103.013 33.5568 104.285 33.5568C105.205 33.5568 105.423 33.8748 105.389 35.0965L105.372 36.0672H106.845H108.318L108.419 35.3141C108.87 32.3015 106.527 30.5777 103.18 31.4815Z" fill="black"/>
<path d="M113.255 31.3811C110.896 31.8497 109.506 33.5568 108.603 37.1216C107.297 42.2932 108.301 44.2681 112.151 44.0672C114.745 43.9334 116.101 42.9124 116.971 40.402L117.205 39.7493H115.816H114.427L114.126 40.402C113.506 41.8078 112.435 42.3769 111.632 41.7409C111.163 41.3727 111.163 41.3392 111.23 40.0003C111.264 39.2639 111.364 38.561 111.431 38.4438C111.515 38.2932 112.402 38.243 114.628 38.243H117.691L117.891 37.356C118.209 35.8999 118.293 34.0087 118.059 33.289C117.523 31.6321 115.716 30.8957 113.255 31.3811ZM114.912 33.6739C115.147 33.8915 115.214 34.1928 115.214 35.0965V36.2346H113.557H111.9L112.067 35.5986C112.168 35.2639 112.335 34.7785 112.469 34.5275C112.988 33.5066 114.243 33.0714 114.912 33.6739Z" fill="black"/>
<path d="M146.561 31.381C144.686 31.7827 143.381 33.0714 142.929 34.9291L142.829 35.3977H144.218H145.624L145.824 34.7283C146.059 33.9417 146.795 33.3894 147.632 33.3894C148.352 33.3894 148.686 33.7743 148.686 34.5777C148.686 35.6153 148.101 36.0839 146.26 36.5526C143.582 37.222 142.444 37.8915 141.841 39.1634C141.021 40.904 141.054 42.7952 141.925 43.6153C142.243 43.9166 142.578 44.017 143.381 44.0672C144.753 44.1509 145.69 43.8831 146.427 43.1969C146.895 42.745 147.013 42.6948 147.013 42.9459C147.013 43.699 147.147 43.7659 148.703 43.7659H150.193L150.092 43.2973C150.042 43.0463 150.41 40.9208 150.946 38.4103C151.95 33.6572 152 32.9375 151.331 32.2178C151.147 32.017 150.728 31.7325 150.41 31.6153C149.707 31.3141 147.498 31.1802 146.561 31.381ZM147.933 38.3601C147.598 40.2011 147.448 40.653 146.979 41.1885C146.075 42.2095 144.653 42.2931 144.402 41.3392C144.084 40.0505 144.971 38.7785 146.46 38.3433C146.996 38.1927 147.548 37.9919 147.682 37.9082C148.05 37.6739 148.067 37.6906 147.933 38.3601Z" fill="black"/>
<path d="M51.364 48.3681C51.3138 48.502 51.2469 48.7363 51.1967 48.8702C51.1465 49.071 51.2971 49.1212 51.9331 49.1212C52.3682 49.1212 52.7699 49.1547 52.8201 49.2049C52.8536 49.2551 52.6025 50.6275 52.2678 52.2509C51.9163 53.8911 51.6151 55.3304 51.6151 55.4309C51.6151 55.5648 51.8326 55.6484 52.1674 55.6484H52.7197L53.3724 52.5857C53.7239 50.912 54.0419 49.456 54.0753 49.3388C54.1255 49.2217 54.5439 49.1212 55.0126 49.0878C55.8159 49.0376 55.8829 49.0041 55.9331 48.5689L55.9833 48.1171H53.7071C51.8326 48.1171 51.431 48.1673 51.364 48.3681Z" fill="black"/>
<path d="M57.8913 48.3179C57.8578 48.435 57.5231 50.0083 57.1381 51.7991C56.7699 53.5899 56.4185 55.1966 56.3682 55.3472C56.2846 55.6317 56.4519 55.6484 58.3766 55.6484C60.0837 55.6484 60.4854 55.5982 60.4854 55.4141C60.4854 55.2802 60.5356 55.0627 60.5858 54.912C60.6695 54.6777 60.4854 54.6443 59.2469 54.6443C57.6235 54.6443 57.7072 54.7279 57.9917 53.2551L58.1925 52.3012H59.5649H60.954L61.021 51.7991L61.1046 51.297H59.7825C58.3264 51.297 58.3599 51.3472 58.6946 50.0417L58.9122 49.2049L60.3682 49.1547L61.8243 49.1045V48.6191V48.1171H59.8996C58.4938 48.1171 57.9415 48.1673 57.8913 48.3179Z" fill="black"/>
<path d="M65.0041 48.4184C64.0669 48.887 63.3472 50.4268 62.979 52.8368C62.7447 54.2929 62.979 55.2134 63.6652 55.5649C64.6192 56.0502 66.0418 55.7824 66.7949 54.9623C67.0962 54.6276 67.6819 53.3557 67.6819 53.0377C67.6819 53.0042 67.4309 52.9707 67.1129 52.9707C66.6108 52.9707 66.5271 53.0377 66.2593 53.7239C65.9246 54.6276 65.3556 55.0628 64.7531 54.9121C64.1338 54.7615 63.9664 54.159 64.1673 52.8368C64.569 50.2762 65.2384 48.954 66.1589 48.954C66.7614 48.954 67.0125 49.2385 67.0125 49.908C67.0125 50.4268 67.0459 50.4603 67.5815 50.4603C68.0501 50.4603 68.1673 50.3933 68.251 50.0251C68.4183 49.3891 68.0836 48.5356 67.5815 48.3013C66.9623 48.0335 65.6736 48.0837 65.0041 48.4184Z" fill="black"/>
<path d="M70.6945 48.2007C70.6945 48.2342 70.3598 49.8576 69.9414 51.7991C69.523 53.7405 69.1882 55.3974 69.1882 55.4811C69.1882 55.5815 69.4393 55.6484 69.7573 55.6484C70.2594 55.6484 70.3263 55.5815 70.4267 55.0961C70.4769 54.8116 70.6443 54.0083 70.7949 53.3388L71.0627 52.1338H72.1338C72.887 52.1338 73.205 52.2007 73.205 52.3346C73.205 52.4518 73.0543 53.2217 72.8702 54.0417C72.6861 54.8786 72.5355 55.5648 72.5355 55.5982C72.5355 55.6652 73.7071 55.6652 73.7071 55.5982C73.7071 55.5815 74.0418 53.9915 74.4602 52.0501C74.8786 50.1254 75.2133 48.435 75.2133 48.3179C75.2133 48.1673 75.0292 48.1171 74.6778 48.1505C74.1255 48.2007 74.1255 48.2175 73.8075 49.6568L73.4728 51.1296H72.3681H71.2468L71.5481 49.7405C71.7154 48.9873 71.8661 48.3179 71.8661 48.2342C71.8661 48.1673 71.5983 48.1171 71.2803 48.1171C70.9623 48.1171 70.6945 48.1505 70.6945 48.2007Z" fill="black"/>
<path d="M77.6401 48.4853C77.5899 48.7028 77.2217 50.3932 76.82 52.2509L76.1003 55.6484H76.6526C77.1045 55.6484 77.2384 55.5648 77.3054 55.2635C77.3556 55.0627 77.6066 53.8576 77.8744 52.5857C78.1422 51.3137 78.3932 50.2258 78.4434 50.1924C78.4769 50.1589 78.6275 50.8953 78.7949 51.8325C78.9455 52.7865 79.1464 54.025 79.2468 54.594L79.4309 55.6484H80.1673C80.569 55.6484 80.9037 55.615 80.9037 55.5648C80.9037 55.5313 81.2384 53.9079 81.6568 51.9664C82.0752 50.025 82.41 48.3681 82.41 48.2677C82.41 48.1673 82.1757 48.1171 81.8744 48.1505L81.3388 48.2007L80.7865 50.7781C80.4853 52.2007 80.2175 53.4392 80.184 53.5397C80.1338 53.707 80.0167 53.1045 79.3305 49.2886L79.1464 48.2007L78.4434 48.1505C77.8242 48.1003 77.7238 48.1505 77.6401 48.4853Z" fill="black"/>
<path d="M84.8703 48.2338C84.8033 48.351 83.2468 55.3802 83.2468 55.5811C83.2468 55.648 84.4184 55.6815 84.4184 55.5978C84.4184 55.5811 84.7531 53.9911 85.1715 52.0497C85.5899 50.125 85.9247 48.4514 85.9247 48.3342C85.9247 48.0999 84.9874 48.033 84.8703 48.2338Z" fill="black"/>
<path d="M89.1046 48.4851C88.4519 48.937 87.8828 49.9579 87.5146 51.3805C86.6778 54.6441 87.2134 55.9662 89.3222 55.7654C90.5439 55.665 91.3807 54.8784 91.7824 53.4893C91.9163 52.9872 91.9163 52.9704 91.3473 52.9704C90.9456 52.9704 90.7448 53.0541 90.6778 53.255C90.3598 54.2257 90.1757 54.5269 89.7238 54.7445C89.1046 55.0792 88.4853 54.8449 88.3347 54.2257C88.2008 53.7068 88.6527 51.096 89.0209 50.2257C89.3724 49.3888 89.8577 48.9537 90.41 48.9537C91.0293 48.9537 91.2803 49.2382 91.2803 49.9077C91.2803 50.4265 91.3138 50.46 91.8661 50.46H92.4519V49.6399C92.4519 48.937 92.3849 48.7529 92.0167 48.4683C91.3807 47.9662 89.8577 47.983 89.1046 48.4851Z" fill="black"/>
<path d="M96.3346 48.3179C96.2509 48.435 95.3639 50.1422 94.3932 52.0836L92.6191 55.6484H93.2551C93.8576 55.6484 93.9078 55.5982 94.343 54.7279L94.7949 53.8074H95.8827H96.9706V54.7279V55.6484H97.6568H98.343L98.2426 55.0125C98.1924 54.6777 98.1087 53.1045 98.0585 51.548C97.9915 49.9748 97.9078 48.5689 97.8744 48.4016C97.774 48.0501 96.6024 47.9999 96.3346 48.3179ZM96.9706 51.4141V52.9706H96.1338C95.6819 52.9706 95.297 52.9037 95.297 52.8032C95.297 52.3848 96.7196 49.4894 96.8367 49.6735C96.9037 49.7907 96.9706 50.5773 96.9706 51.4141Z" fill="black"/>
<path d="M101.406 48.3178C101.356 48.4349 101.021 49.9579 100.653 51.7152C100.284 53.4558 99.9497 55.0625 99.8995 55.2801L99.7991 55.665L101.858 55.6148L103.899 55.5646L104.017 55.096L104.134 54.6441H102.678H101.205L101.841 51.665C102.192 50.0416 102.494 48.5688 102.494 48.4014C102.494 48.2006 102.36 48.1169 101.992 48.1169C101.707 48.1169 101.439 48.2173 101.406 48.3178Z" fill="black"/>
<path d="M112.1 48.2843C110.979 48.7362 110.058 50.845 109.908 53.3052C109.824 54.5772 109.858 54.778 110.176 55.1797C111.163 56.4182 113.456 55.7822 114.226 54.0583C114.661 53.1044 114.627 52.9705 113.992 52.9705C113.473 52.9705 113.406 53.0374 113.222 53.6232C113.021 54.3261 112.351 54.9788 111.849 54.9788C111.699 54.9788 111.431 54.845 111.263 54.6943C110.678 54.0918 111.347 50.2759 112.217 49.3554C112.602 48.937 113.255 48.8366 113.707 49.1044C113.841 49.2048 113.941 49.5228 113.941 49.8742C113.941 50.46 113.958 50.4767 114.544 50.4265L115.13 50.3763L115.113 49.5562C115.096 48.4516 114.694 48.1169 113.389 48.1337C112.87 48.1337 112.301 48.2006 112.1 48.2843Z" fill="black"/>
<path d="M118.611 48.3854C118.326 48.536 117.891 48.921 117.674 49.2557C116.72 50.6616 116.151 53.9921 116.703 55.0298C117.172 55.9168 118.845 56.0674 119.883 55.3143C120.87 54.6281 121.741 52.2682 121.741 50.2431C121.741 49.239 121.557 48.6867 121.088 48.3352C120.703 48.0507 119.247 48.0841 118.611 48.3854ZM120.368 49.1553C120.837 49.6239 120.435 52.5862 119.732 53.9921C119.431 54.5779 118.879 54.9795 118.377 54.9795C118.042 54.9795 117.557 54.2934 117.557 53.808C117.557 53.0381 118.042 50.7954 118.343 50.2097C118.912 49.0883 119.816 48.603 120.368 49.1553Z" fill="black"/>
<path d="M123.766 51.4978C123.381 53.3723 123.012 55.0627 122.962 55.2635C122.879 55.6484 122.879 55.6484 124.887 55.6484C126.561 55.6484 126.912 55.5982 126.996 55.3807C127.264 54.7112 127.146 54.6443 125.657 54.6443C124.368 54.6443 124.234 54.6108 124.318 54.343C124.452 53.9413 125.59 48.4853 125.59 48.2844C125.59 48.184 125.339 48.1171 125.038 48.1171H124.485L123.766 51.4978Z" fill="black"/>
<path d="M130.276 48.1673C130.276 48.2007 129.942 49.8242 129.523 51.7656C129.105 53.707 128.77 55.3807 128.77 55.4811C128.77 55.5815 129.49 55.6484 130.762 55.6484C132.686 55.6484 132.753 55.6317 132.854 55.2635C132.904 55.0627 132.954 54.8451 132.954 54.7614C132.954 54.6945 132.318 54.6443 131.532 54.6443C130.745 54.6443 130.109 54.6108 130.109 54.5773C130.109 54.5438 130.41 53.1045 130.778 51.3807C131.147 49.6568 131.448 48.2175 131.448 48.184C131.448 48.1505 131.18 48.1171 130.862 48.1171C130.544 48.1171 130.276 48.1338 130.276 48.1673Z" fill="black"/>
<path d="M136.218 48.3179C136.167 48.435 135.833 50.0083 135.465 51.7991C135.08 53.5899 134.745 55.1966 134.695 55.3472C134.611 55.6317 134.778 55.6484 136.703 55.6484C138.41 55.6484 138.812 55.5982 138.812 55.4141C138.812 55.2802 138.862 55.0627 138.912 54.912C138.996 54.6777 138.812 54.6443 137.573 54.6443C135.95 54.6443 136.034 54.7279 136.318 53.2551L136.519 52.3012H137.891H139.28L139.347 51.7991L139.431 51.297H138.092H136.77L136.887 50.5773C137.138 49.1045 137.121 49.1212 138.728 49.1212H140.151V48.6191V48.1171H138.226C136.837 48.1171 136.268 48.1673 136.218 48.3179Z" fill="black"/>
<path d="M143.582 48.2846C142.611 48.6863 141.841 50.0921 141.406 52.2679C140.887 54.8285 141.406 55.9331 143.046 55.7658C143.582 55.7156 143.983 55.5649 144.285 55.2971L144.72 54.8955L144.619 55.2804C144.552 55.5984 144.603 55.6486 144.988 55.6486C145.423 55.6486 145.456 55.5984 145.808 53.8411C146.008 52.8536 146.176 52.0001 146.176 51.9164C146.176 51.8494 145.657 51.7992 145.004 51.7992C144.368 51.7992 143.833 51.8662 143.833 51.9499C143.833 52.0335 143.782 52.2176 143.732 52.3683C143.649 52.5858 143.766 52.6361 144.301 52.6361C144.971 52.6361 144.971 52.6528 144.854 53.1047C144.452 54.5105 143.665 55.18 142.879 54.8285C142.377 54.5942 142.276 54.0921 142.477 52.8034C142.879 50.293 143.582 48.954 144.485 48.954C145.071 48.954 145.339 49.2386 145.339 49.8243C145.339 50.2427 145.389 50.293 145.925 50.293C146.494 50.293 146.511 50.2762 146.511 49.6235C146.511 48.6026 145.958 48.1172 144.803 48.134C144.318 48.134 143.766 48.2009 143.582 48.2846Z" fill="black"/>
<path d="M149.021 49.0707C148.904 49.6063 148.569 51.2297 148.251 52.6858C147.933 54.1419 147.682 55.4138 147.682 55.4975C147.682 55.5979 148.485 55.6481 149.741 55.6147L151.783 55.5645L151.833 55.0958L151.883 54.644H150.444C149.155 54.644 149.004 54.6105 149.088 54.3427C149.121 54.1921 149.205 53.7904 149.272 53.4724C149.506 52.2507 149.423 52.3009 150.862 52.3009C151.9 52.3009 152.184 52.2507 152.268 52.0331C152.519 51.3636 152.419 51.2967 151.046 51.2967H149.724L149.875 50.577C150.226 48.9703 150.042 49.1209 151.598 49.1209C152.72 49.1209 153.021 49.0707 153.105 48.8532C153.373 48.1502 153.289 48.1168 151.214 48.1168H149.205L149.021 49.0707Z" fill="black"/>
<path d="M42.0754 56.8199C42.0754 56.9036 42.2261 56.9873 42.4102 56.9873C42.6947 56.9873 42.7449 57.1044 42.7449 57.8408C42.7449 58.3597 42.8118 58.6442 42.9123 58.5772C43.0127 58.527 43.0796 58.1421 43.0796 57.7237C43.0796 57.1881 43.1466 56.9873 43.3139 56.9873C43.4478 56.9873 43.6152 56.9036 43.6654 56.8199C43.7323 56.7195 43.4478 56.6526 42.929 56.6526C42.4604 56.6526 42.0754 56.7195 42.0754 56.8199Z" fill="black"/>
<path d="M43.9497 57.6907L43.9664 58.7451L44.0668 57.9083L44.1673 57.0715L44.4016 57.7409C44.7196 58.6782 44.8869 58.7953 45.0878 58.2263C45.4392 57.2556 45.4894 57.2388 45.5899 57.992C45.707 58.7284 45.707 58.7116 45.7238 57.6907C45.7572 56.4355 45.4894 56.3518 45.1212 57.4899C44.8535 58.2932 44.8535 58.2765 44.4183 57.1049C44.1338 56.3183 43.9162 56.5861 43.9497 57.6907Z" fill="black"/>
</g>
<defs>
<clipPath id="clip0_3253_5208">
<rect width="148.452" height="40" fill="white" transform="translate(9.77417 20)"/>
</clipPath>
</defs>
</svg>
