<svg width="102" height="48" viewBox="0 0 102 48" fill="none" xmlns="http://www.w3.org/2000/svg">
<path d="M25.9998 19.3809C27.4451 20.4165 29.215 21.0258 31.1266 21.0258V18.1223C30.0596 17.8944 29.1149 17.3353 28.4047 16.5576C27.1889 15.7969 26.313 14.542 26.0562 13.0732H23.3762V27.8062C23.3701 29.5238 21.98 30.9145 20.2656 30.9145C19.2554 30.9145 18.3579 30.4317 17.7895 29.6837C16.7745 29.1701 16.0785 28.1155 16.0785 26.8978C16.0785 25.1754 17.471 23.779 19.189 23.779C19.5181 23.779 19.8354 23.8304 20.133 23.9251V20.9898C16.4436 21.0663 13.4764 24.0889 13.4764 27.8063C13.4764 29.662 14.2153 31.3443 15.4146 32.5734C16.4964 33.3018 17.7988 33.7266 19.2 33.7266C22.9555 33.7266 25.9999 30.6769 25.9999 26.9085C25.9999 23.1401 25.9998 19.3809 25.9998 19.3809Z" fill="#05060F"/>
<path d="M31.1267 17.3372V18.1223C30.079 17.8979 29.1274 17.3509 28.4047 16.5575C29.2211 17.0685 30.1644 17.3387 31.1267 17.3372Z" fill="#05060F" fill-opacity="0.32"/>
<path d="M26.0562 13.0732C26.0317 12.9329 26.0129 12.7916 25.9999 12.6497V12.1753H22.2995V26.9084C22.2936 28.6257 20.9035 30.0165 19.189 30.0165C18.6857 30.0165 18.2104 29.8967 17.7896 29.6838C18.358 30.4317 19.2555 30.9144 20.2657 30.9144C21.9799 30.9144 23.3702 29.5239 23.3762 27.8063V13.0732L26.0562 13.0732C26.3131 14.5421 27.1891 15.7969 28.4047 16.5575C27.6663 15.7486 27.1814 14.7034 27.0765 13.5477V13.0732H26.0562Z" fill="#05060F" fill-opacity="0.32"/>
<path d="M20.1332 20.9897V20.1541C19.824 20.1117 19.5123 20.0904 19.2002 20.0906C15.4444 20.0905 12.3999 23.1431 12.3999 26.9084C12.3999 29.2691 13.5964 31.3495 15.4147 32.5733C14.2155 31.3442 13.4766 29.6618 13.4766 27.8062C13.4766 24.0889 16.4437 21.0662 20.1332 20.9897L20.1331 23.925C19.8278 23.8279 19.5094 23.7786 19.1891 23.7789C17.4711 23.7789 16.0786 25.1752 16.0786 26.8977C16.0786 28.1156 16.7745 29.1701 17.7896 29.6838C17.377 29.1414 17.1542 28.4778 17.1552 27.7956C17.1552 26.0733 18.5478 24.6769 20.2658 24.6769C20.586 24.6768 20.9042 24.726 21.2093 24.823V21.0519C20.8528 21.0029 20.4929 20.9821 20.1332 20.9897Z" fill="#05060F" fill-opacity="0.32"/>
<path d="M27.0766 20.2791C28.5215 21.3147 30.2915 21.924 32.2033 21.924V18.2353C31.8415 18.2354 31.4806 18.1975 31.1267 18.1223L31.1266 21.0259C29.215 21.0259 27.4451 20.4165 25.9998 19.381V26.9085C25.9998 30.6741 22.9553 33.7266 19.1999 33.7266C17.7987 33.7266 16.4966 33.3017 15.4147 32.5733C16.6495 33.8392 18.3713 34.6246 20.2764 34.6246C24.032 34.6246 27.0766 31.5721 27.0766 27.8064V20.2791Z" fill="#05060F" fill-opacity="0.32"/>
<path d="M72.4708 20.9565H73.2037C70.5163 20.9565 68.3378 23.1247 68.3378 25.7983C68.3378 28.4721 70.5163 30.6398 73.2037 30.6398H72.4708C69.7837 30.6398 67.6049 28.4721 67.6049 25.7983C67.6049 23.1246 69.7837 20.9565 72.4708 20.9565Z" fill="#05060F" fill-opacity="0.32"/>
<path d="M78.8689 25.7983C78.8689 28.4721 76.6905 30.6398 74.0033 30.6398H73.2702C75.9575 30.6398 78.1359 28.4721 78.1359 25.7983C78.1359 23.1246 75.9575 20.9565 73.2702 20.9565H74.0033C76.6905 20.9565 78.8689 23.1247 78.8689 25.7983Z" fill="#05060F" fill-opacity="0.32"/>
<path d="M36.2126 18.7681V21.2222H39.0781V30.5734H41.9448V21.2884H44.2773L45.0771 18.7681H36.2126V18.7681ZM59.6737 18.7681V21.2222H62.5391V30.5734H65.4058V21.2884H67.7383L68.538 18.7681H59.6737V18.7681ZM45.6108 20.1607C45.6108 19.3917 46.2364 18.7681 47.0093 18.7681C47.783 18.7681 48.4093 19.3917 48.4093 20.1607C48.4093 20.9298 47.7833 21.5535 47.0093 21.5535C46.2364 21.5531 45.6108 20.9298 45.6108 20.1607ZM45.6108 22.5486H48.4093V30.5734H45.6108V22.5486ZM49.6092 18.7681V30.5733H52.4087V27.5228L53.2752 26.7263L56.0075 30.6396H59.0066L55.0739 24.936L58.6064 21.4868H55.2074L52.4087 24.2722V18.7681H49.6092ZM79.8013 18.7681V30.5733H82.6012V27.5228L83.4674 26.7263L86.2005 30.6396H89.1999L85.2672 24.936L88.7996 21.4868H85.4007L82.6012 24.2722V18.7681H79.8013Z" fill="#05060F"/>
<path d="M73.27 30.6398C75.9571 30.6398 78.1359 28.4721 78.1359 25.7983C78.1359 23.1247 75.9571 20.9565 73.27 20.9565H73.2036C70.5163 20.9565 68.3379 23.1246 68.3379 25.7983C68.3379 28.4721 70.5163 30.6398 73.2036 30.6398H73.27ZM70.8706 25.7983C70.8706 24.4978 71.9304 23.4442 73.2374 23.4442C74.5433 23.4442 75.6031 24.4978 75.6031 25.7983C75.6031 27.0989 74.5433 28.1531 73.2374 28.1531C71.9304 28.1528 70.8706 27.0989 70.8706 25.7983Z" fill="#05060F"/>
</svg>
