<svg width="102" height="48" viewBox="0 0 102 48" fill="none" xmlns="http://www.w3.org/2000/svg">
<g clip-path="url(#clip0_510_2752)">
<path d="M15.9792 18.3824L10.6896 21.7649L15.9792 25.1473L10.6896 28.5297L5.40002 25.129L10.6896 21.7466L5.40002 18.3824L10.6896 15L15.9792 18.3824ZM10.6623 29.6176L15.9519 26.2351L21.2415 29.6176L15.9519 33L10.6623 29.6176ZM15.9792 25.129L21.2688 21.7466L15.9792 18.3824L21.2415 15L26.5311 18.3824L21.2415 21.7649L26.5311 25.1473L21.2415 28.5297L15.9792 25.129Z" fill="#05060F" fill-opacity="0.6"/>
<path d="M30.6807 18.3825H34.9579C37.6848 18.3825 39.9375 19.964 39.9375 23.5749V24.3337C39.9375 27.9721 37.8307 29.6085 35.04 29.6085H30.6807V18.3825ZM33.0701 20.4211V27.5607H34.9032C36.4536 27.5607 37.4933 26.546 37.4933 24.288V23.6938C37.4933 21.4358 36.3989 20.4211 34.8211 20.4211H33.0701ZM41.2051 20.5308H43.1203L43.4304 22.6425C43.7952 21.2072 44.7255 20.4393 46.4127 20.4393H47.0055V22.8619H46.0205C44.0779 22.8619 43.6037 23.5384 43.6037 25.4581V29.6359H41.2416V20.5308H41.2051ZM47.4797 25.2662V25.0102C47.4797 21.966 49.4223 20.3022 52.0671 20.3022C54.7666 20.3022 56.6544 21.966 56.6544 25.0102V25.2662C56.6544 28.2555 54.8213 29.8644 52.0671 29.8644C49.1395 29.837 47.4797 28.2646 47.4797 25.2662ZM54.2376 25.2387V25.0102C54.2376 23.319 53.3895 22.3042 52.0397 22.3042C50.7173 22.3042 49.8418 23.2367 49.8418 25.0102V25.2387C49.8418 26.8751 50.6899 27.8075 52.0397 27.8075C53.3895 27.7801 54.2376 26.8751 54.2376 25.2387ZM57.8947 20.5308H59.8647L60.0927 22.2494C60.5669 21.0975 61.5792 20.3022 63.0749 20.3022C65.3823 20.3022 66.9053 21.966 66.9053 25.0468V25.3027C66.9053 28.2921 65.2181 29.8736 63.0749 29.8736C61.6431 29.8736 60.6581 29.2245 60.1747 28.1824V32.7806H57.8674L57.8947 20.5308ZM64.5067 25.2387V25.0376C64.5067 23.2276 63.5765 22.3317 62.3362 22.3317C61.0138 22.3317 60.1383 23.3464 60.1383 25.0376V25.2113C60.1383 26.8202 60.9864 27.835 62.3088 27.835C63.6677 27.8075 64.5067 26.9391 64.5067 25.2387ZM70.3983 27.9538L70.1976 29.6176H68.173V17.4866H70.4803V22.1397C70.9911 20.9513 72.0034 20.3022 73.4352 20.3022C75.6058 20.3296 77.2109 21.8289 77.2109 24.8456V25.129C77.2109 28.1458 75.6879 29.8736 73.3805 29.8736C71.8575 29.837 70.8725 29.1331 70.3983 27.9538ZM74.785 25.129V24.9005C74.785 23.2367 73.8821 22.3042 72.6144 22.3042C71.3194 22.3042 70.4165 23.3464 70.4165 24.9279V25.129C70.4165 26.8202 71.292 27.8075 72.5871 27.8075C73.9733 27.8075 74.785 26.9391 74.785 25.129ZM78.2232 25.2662V25.0102C78.2232 21.966 80.1658 20.3022 82.8106 20.3022C85.5101 20.3022 87.3979 21.966 87.3979 25.0102V25.2662C87.3979 28.2555 85.5375 29.8644 82.8106 29.8644C79.8831 29.837 78.2232 28.2646 78.2232 25.2662ZM84.9994 25.2387V25.0102C84.9994 23.319 84.1512 22.3042 82.8015 22.3042C81.4791 22.3042 80.6035 23.2367 80.6035 25.0102V25.2387C80.6035 26.8751 81.4517 27.8075 82.8015 27.8075C84.1603 27.7801 84.9994 26.8751 84.9994 25.2387ZM90.4896 24.9005L87.3067 20.5308H90.0336L91.8667 23.2641L93.7272 20.5308H96.4267L93.1983 24.8731L96.6 29.6176H93.9279L91.8485 26.6008L89.8239 29.6176H87.0331L90.4896 24.9005Z" fill="#05060F"/>
</g>
<defs>
<clipPath id="clip0_510_2752">
<rect width="91.2" height="18" fill="white" transform="translate(5.40002 15)"/>
</clipPath>
</defs>
</svg>
