<svg width="101" height="48" viewBox="0 0 101 48" fill="none" xmlns="http://www.w3.org/2000/svg">
<path d="M73.8322 21.7896V27.5017C73.6819 29.7654 70.2428 29.7654 70.0925 27.5017V21.7896H66.8397V28.1204C66.8397 30.2585 69.1305 31.9919 71.9503 31.9919C74.77 31.9919 77.0609 30.2585 77.0609 28.1204V21.7896H73.8322ZM84.4099 15V31.624H87.6806V15H84.4099ZM78.8566 31.624H82.1273V15H78.8566V31.624ZM62.8373 22.9768C63.7434 22.1898 64.2657 21.0706 64.2806 19.8933C64.2785 18.8318 63.8558 17.8124 63.0995 17.0437C62.3299 16.2135 60.9375 15.7478 59.071 15.7478H53.4761V31.624H60.703C63.4689 31.5828 65.7053 29.5579 65.7053 27.0772C65.7012 25.2718 65.044 23.9813 62.8373 22.9768ZM60.0971 28.8583H56.9674V18.4852H59.1479C60.1274 18.5294 60.897 19.3169 60.8867 20.2657C60.8867 21.1948 60.1074 21.947 59.1479 21.945H58.0131V24.7981H60.0971C62.9051 24.7981 62.9051 28.8717 60.0971 28.8717V28.8583ZM24.632 20.448C24.6202 19.1947 24.0938 17.9966 23.1672 17.1177C22.2437 16.2394 20.9944 15.7522 19.6984 15.7642H13.712V31.624H17.1926V18.4852H18.995C20.2171 18.4445 21.2376 19.3809 21.2576 20.5647C21.2037 21.7489 20.175 22.6749 18.9488 22.6372H18.1408V26.4332L21.6039 31.624H25.6827L20.8728 25.0002C23.0635 24.5071 24.6181 22.6243 24.632 20.448ZM30.7194 21.379C27.7503 21.4564 25.3862 23.807 25.3862 26.6795C25.3862 29.5544 27.7503 31.9045 30.7194 31.983C33.0015 31.983 34.7797 30.9834 35.6997 29.4209L33.04 28.2312C32.6552 28.9844 31.8548 29.4531 30.9893 29.4338C29.8046 29.4839 28.8052 28.5926 28.7611 27.4456V27.3369H35.9716C35.9936 27.1254 36.0034 26.9148 36.0013 26.7008C36.0521 23.2599 33.7095 21.379 30.7194 21.379ZM28.7493 25.5315C28.699 24.4297 29.6091 23.5106 30.7492 23.5106C31.8871 23.5106 32.7968 24.4297 32.7475 25.5315H28.7493ZM49.0089 31.624V15H45.734V22.8681C44.8639 22.0185 43.6792 21.5384 42.4433 21.5319C39.7497 21.5319 37.5492 23.8522 37.5492 26.7123C37.5492 29.5713 39.7431 31.9145 42.4433 31.9145C43.6921 31.9045 44.8824 31.408 45.7494 30.541V31.6582L49.0089 31.624ZM43.3714 29.1949C42.0487 29.1949 40.9703 28.0564 40.9703 26.6522C40.9703 25.2485 42.0487 24.094 43.3714 24.094C44.6961 24.094 45.7761 25.2346 45.7761 26.6408C45.7761 28.0489 44.7002 29.1949 43.3714 29.1949Z" fill="#05060F"/>
</svg>
