<svg width="169" height="80" viewBox="0 0 169 80" fill="none" xmlns="http://www.w3.org/2000/svg">
<path d="M150.25 49.8536C150.25 47.7013 151.997 45.9551 154.148 45.9551C156.301 45.9551 158.046 47.7013 158.046 49.8536C158.046 52.0058 156.301 53.7509 154.148 53.7509C151.997 53.7509 150.25 52.0058 150.25 49.8536Z" fill="#05060F" fill-opacity="0.88"/>
<path d="M25.9193 39.5293C25.9193 37.0601 25.4422 35.2282 24.4879 34.0347C23.5324 32.8424 22.0851 32.2468 20.1393 32.2468H18.0694V47.3466H19.653C21.8143 47.3466 23.3981 46.7059 24.4066 45.4199C25.4139 44.1362 25.9193 42.1723 25.9193 39.5293ZM33.3011 39.2722C33.3011 43.7708 32.0918 47.2372 29.6733 49.6703C27.2548 52.1046 23.855 53.3218 19.4726 53.3218H10.957V26.3652H20.067C24.2926 26.3652 27.5548 27.4718 29.8538 29.6839C32.1516 31.8971 33.3011 35.0917 33.3011 39.2722Z" fill="#05060F"/>
<path d="M56.8887 53.3213H63.6648V26.252H56.8887V53.3213Z" fill="#05060F"/>
<path d="M73.1837 43.2229C73.1837 44.9488 73.4093 46.2652 73.8594 47.1699C74.3107 48.0757 75.0663 48.528 76.129 48.528C77.1803 48.528 77.9236 48.0757 78.3568 47.1699C78.79 46.2652 79.0054 44.9488 79.0054 43.2229C79.0054 41.5061 78.7865 40.2111 78.3478 39.3368C77.9078 38.4604 77.1578 38.0215 76.0941 38.0215C75.0541 38.0215 74.3107 38.4581 73.8594 39.3267C73.4093 40.1964 73.1837 41.4948 73.1837 43.2229ZM85.9023 43.2229C85.9023 46.5111 85.0404 49.0763 83.3122 50.915C81.5853 52.7548 79.1679 53.6752 76.0602 53.6752C73.08 53.6752 70.7076 52.7345 68.9468 50.8529C67.1837 48.9713 66.3027 46.4288 66.3027 43.2229C66.3027 39.9449 67.1658 37.3977 68.8939 35.5816C70.622 33.7655 73.0449 32.8574 76.1651 32.8574C78.0929 32.8574 79.7985 33.2782 81.2763 34.1186C82.7551 34.959 83.8967 36.1626 84.6987 37.7305C85.5018 39.2963 85.9023 41.1282 85.9023 43.2229Z" fill="#05060F"/>
<path d="M88.5938 53.3201H95.371V42.9602V33.2129H88.5938V53.3201Z" fill="#05060F"/>
<path d="M88.5938 30.7813H95.371V26.25H88.5938V30.7813Z" fill="#05060F"/>
<path d="M109.1 48.1921C110.015 48.1921 111.105 47.9598 112.376 47.4984V52.5576C111.462 52.9592 110.594 53.2468 109.768 53.4171C108.942 53.5897 107.973 53.6755 106.864 53.6755C104.589 53.6755 102.949 53.1036 101.942 51.962C100.939 50.8204 100.436 49.0675 100.436 46.702V38.4132H98.0625V33.2152H100.436V28.0804L107.265 26.8926V33.2152H111.589V38.4132H107.265V46.2395C107.265 47.5412 107.877 48.1921 109.1 48.1921Z" fill="#05060F"/>
<path d="M124.787 48.1921C125.702 48.1921 126.792 47.9598 128.063 47.4984V52.5576C127.15 52.9592 126.28 53.2468 125.455 53.4171C124.628 53.5897 123.662 53.6755 122.551 53.6755C120.276 53.6755 118.636 53.1036 117.631 51.962C116.626 50.8204 116.123 49.0675 116.123 46.702V38.4132H113.748V33.2152H116.123V28.0026L122.951 26.8926V33.2152H127.276V38.4132H122.951V46.2395C122.951 47.5412 123.563 48.1921 124.787 48.1921Z" fill="#05060F"/>
<path d="M136.614 40.7748C136.706 39.6738 137.021 38.8673 137.558 38.3518C138.097 37.8374 138.763 37.5802 139.559 37.5802C140.428 37.5802 141.118 37.8689 141.63 38.451C142.146 39.0297 142.414 39.8047 142.436 40.7748H136.614ZM146.17 35.2294C144.56 33.6502 142.274 32.8594 139.318 32.8594C136.21 32.8594 133.819 33.7674 132.142 35.5836C130.467 37.3997 129.629 40.0055 129.629 43.4009C129.629 46.6891 130.535 49.2249 132.342 51.0049C134.15 52.7849 136.689 53.6761 139.959 53.6761C141.53 53.6761 142.881 53.5689 144.014 53.3557C145.14 53.1448 146.229 52.7635 147.286 52.213L146.245 47.6817C145.477 47.9953 144.746 48.2367 144.055 48.3958C143.058 48.627 141.964 48.7432 140.773 48.7432C139.467 48.7432 138.436 48.4239 137.68 47.7855C136.924 47.1459 136.521 46.2638 136.475 45.1403H148.588V42.0528C148.588 39.0827 147.782 36.8075 146.17 35.2294Z" fill="#05060F"/>
<path d="M42.2953 40.7748C42.3878 39.6738 42.7025 38.8673 43.2394 38.3518C43.7775 37.8374 44.4443 37.5802 45.2419 37.5802C46.1082 37.5802 46.7985 37.8689 47.3118 38.451C47.8272 39.0297 48.0946 39.8047 48.1183 40.7748H42.2953ZM51.8532 35.2294C50.2413 33.6502 47.9569 32.8594 44.9993 32.8594C41.8903 32.8594 39.5 33.7674 37.8248 35.5836C36.1497 37.3997 35.3105 40.0055 35.3105 43.4009C35.3105 46.6891 36.2153 49.2249 38.0247 51.0049C39.8318 52.7849 42.3709 53.6761 45.6411 53.6761C47.2113 53.6761 48.5626 53.5689 49.6952 53.3557C50.8209 53.1448 51.9108 52.7635 52.9689 52.213L51.9265 47.6817C51.1583 47.9953 50.4273 48.2367 49.7381 48.3958C48.7387 48.627 47.6456 48.7432 46.4543 48.7432C45.1492 48.7432 44.1172 48.4239 43.3614 47.7855C42.6045 47.1459 42.2029 46.2638 42.1567 45.1403H54.2694V42.0528C54.2694 39.0827 53.464 36.8075 51.8532 35.2294Z" fill="#05060F"/>
</svg>
