<svg width="600" height="600" viewBox="0 0 600 600" fill="none" xmlns="http://www.w3.org/2000/svg">
<path d="M465.042 81.583C504.461 81.583 536.417 113.539 536.417 152.958V390.875C536.417 430.294 504.461 462.25 465.042 462.25H280.656L170.613 550.285C155.035 562.747 131.958 551.656 131.958 531.707V462.25H119.704C87.0528 462.25 60.5837 435.781 60.5837 403.13V152.958C60.5837 113.539 92.539 81.583 131.958 81.583H465.042Z" fill="#4B9BFA"/>
<path d="M65.5837 152.958C65.5837 116.3 95.3008 86.583 131.959 86.583H465.042C501.7 86.583 531.417 116.3 531.417 152.958V390.875C531.417 427.533 501.7 457.25 465.042 457.25H278.902L167.489 546.38C155.185 556.223 136.959 547.463 136.959 531.706V457.25H119.704C89.8141 457.25 65.5839 433.02 65.5837 403.13V152.958ZM55.5837 403.13C55.5839 438.542 84.2912 467.25 119.704 467.25H126.959V531.706C126.959 555.848 154.884 569.271 173.736 554.189L282.41 467.25H465.042C507.222 467.25 541.417 433.056 541.417 390.875V152.958C541.417 110.777 507.222 76.583 465.042 76.583H131.959C89.7779 76.583 55.5837 110.777 55.5837 152.958V403.13Z" fill="#05060F"/>
<path d="M417.965 243.755C424.254 224.867 422.088 204.177 412.032 186.997C396.909 160.646 366.507 147.089 336.814 153.468C323.605 138.577 304.628 130.108 284.732 130.229C254.381 130.16 227.452 149.715 218.115 178.614C198.618 182.61 181.788 194.824 171.94 212.134C156.704 238.415 160.177 271.545 180.532 294.082C174.244 312.97 176.409 333.66 186.465 350.84C201.589 377.191 231.991 390.748 261.683 384.368C274.883 399.26 293.87 407.729 313.766 407.599C344.133 407.677 371.071 388.104 380.408 359.179C399.906 355.183 416.735 342.97 426.584 325.66C441.802 299.378 438.32 266.275 417.974 243.738L417.965 243.755ZM313.783 389.474C301.631 389.491 289.859 385.235 280.531 377.443C280.955 377.217 281.692 376.81 282.168 376.515L337.36 344.617C340.184 343.013 341.916 340.005 341.899 336.755V258.889L365.225 272.368C365.476 272.49 365.64 272.732 365.675 273.01V337.492C365.64 366.165 342.436 389.413 313.783 389.474ZM202.186 341.774C196.097 331.251 193.906 318.916 195.993 306.945C196.4 307.188 197.119 307.63 197.63 307.925L252.822 339.823C255.62 341.462 259.085 341.462 261.891 339.823L329.27 300.886V327.844C329.287 328.121 329.157 328.39 328.941 328.563L273.151 360.8C248.301 375.12 216.565 366.608 202.195 341.774H202.186ZM187.661 221.209C193.724 210.669 203.295 202.608 214.694 198.421C214.694 198.898 214.668 199.739 214.668 200.328V264.134C214.65 267.376 216.383 270.383 219.198 271.987L286.577 310.915L263.251 324.394C263.017 324.55 262.723 324.576 262.463 324.463L206.664 292.201C181.866 277.829 173.36 246.078 187.652 221.218L187.661 221.209ZM379.308 265.841L311.929 226.904L335.255 213.434C335.489 213.278 335.784 213.252 336.043 213.365L391.842 245.601C416.684 259.964 425.198 291.767 410.846 316.627C404.774 327.151 395.211 335.212 383.821 339.407V273.695C383.847 270.453 382.123 267.454 379.317 265.841H379.308ZM402.522 230.874C402.115 230.623 401.396 230.189 400.885 229.895L345.693 197.996C342.895 196.358 339.43 196.358 336.624 197.996L269.245 236.933V209.976C269.227 209.698 269.357 209.429 269.574 209.256L325.364 177.046C350.214 162.7 381.985 171.238 396.311 196.115C402.366 206.621 404.557 218.921 402.504 230.874H402.522ZM256.564 278.921L233.23 265.443C232.978 265.321 232.814 265.078 232.779 264.801V200.319C232.796 171.611 256.07 148.346 284.758 148.363C296.893 148.363 308.638 152.628 317.967 160.394C317.542 160.62 316.815 161.027 316.33 161.322L261.137 193.22C258.314 194.824 256.581 197.823 256.599 201.073L256.564 278.904V278.921ZM269.236 251.582L299.249 234.237L329.261 251.574V286.255L299.249 303.591L269.236 286.255V251.582Z" fill="white"/>
<path fill-rule="evenodd" clip-rule="evenodd" d="M462.722 248.206C408.605 248.234 353.373 291.209 353.341 354.699C353.322 393.588 377.643 421.605 396.076 437.374C407.435 447.091 416.103 465.033 416.098 474.343C416.098 474.343 416.113 487.375 416.121 491.165C416.129 494.955 419.201 498.022 422.988 498.02C426.776 498.018 499.623 497.981 503.41 497.979C507.198 497.977 510.272 494.909 510.284 491.118C510.296 487.328 510.32 474.296 510.32 474.296C510.324 464.986 519.807 447.011 531.178 437.156C549.429 421.339 573.173 393.427 573.193 354.589C573.226 287.956 516.247 248.18 462.722 248.206Z" fill="#F8DB46"/>
<path fill-rule="evenodd" clip-rule="evenodd" d="M462.727 238.66C520.262 238.631 582.774 281.502 582.738 354.584C582.716 397.523 556.49 427.844 537.425 444.367C533.471 447.794 529.074 452.5 525.668 457.833C522.261 463.17 519.866 469.105 519.865 475C519.855 480.608 519.847 485.53 519.829 491.139C519.801 500.184 512.462 507.52 503.405 507.524L422.984 507.564C413.927 507.569 406.594 500.24 406.575 491.194L406.553 474.5C406.553 468.852 404.325 463.041 401.111 457.801C397.898 452.564 393.719 447.925 389.866 444.629C370.668 428.205 343.774 397.772 343.795 354.704C343.83 285.095 404.228 238.69 462.727 238.66ZM462.722 248.605C408.789 248.633 353.772 291.466 353.74 354.699C353.721 393.412 377.936 421.328 396.336 437.069C402.056 441.963 407.098 448.41 410.71 455.078C414.32 461.741 416.522 468.66 416.522 474.499L416.518 481.41C416.517 485.103 416.517 489.27 416.521 491.164C416.528 494.734 419.422 497.621 422.988 497.619L503.41 497.579C506.977 497.577 509.873 494.687 509.884 491.117C509.89 489.222 509.899 485.194 509.906 481.64C509.91 479.863 509.914 478.204 509.916 476.989C509.917 476.382 509.917 475.886 509.918 475.542C509.919 475.37 509.92 475.236 509.92 475.145V475.005C509.92 468.908 512.325 461.84 516.136 455.078C519.951 448.31 525.194 441.813 530.916 436.854C549.133 421.066 572.773 393.255 572.792 354.589C572.825 288.226 516.078 248.579 462.722 248.605Z" fill="#05060F"/>
<path d="M420.475 508.531C418.209 508.532 416.37 510.606 416.365 513.166L416.349 520.802C416.308 537.934 428.577 551.844 443.74 551.837L482.659 551.817C497.822 551.81 510.106 537.886 510.081 520.754L510.072 513.119C510.069 510.559 508.232 508.487 505.967 508.488L420.475 508.531Z" fill="#F95959"/>
<path fill-rule="evenodd" clip-rule="evenodd" d="M505.971 498.943C514.57 498.939 519.609 506.409 519.617 513.099L519.626 520.731C519.657 542 504.171 561.352 482.654 561.363L443.735 561.383C422.22 561.393 406.753 542.059 406.803 520.791V520.788L406.819 513.155C406.834 506.466 411.88 498.99 420.48 498.985L505.971 498.943ZM420.475 508.931C418.474 508.932 416.77 510.78 416.765 513.166L416.749 520.802C416.709 537.76 428.844 551.445 443.74 551.438L482.659 551.418C497.556 551.41 509.705 537.715 509.681 520.756L509.672 513.12C509.669 510.734 507.966 508.888 505.966 508.889L420.475 508.931Z" fill="#05060F"/>
<path fill-rule="evenodd" clip-rule="evenodd" d="M471.709 411.134L453.282 411.142L453.241 497.83L471.668 497.822L471.709 411.134ZM442.608 400.488L442.552 508.499L482.342 508.476L482.398 400.465L442.608 400.488Z" fill="#05060F"/>
<path fill-rule="evenodd" clip-rule="evenodd" d="M472.612 388.126C472.618 376.562 481.997 367.183 493.561 367.177C505.125 367.171 514.494 376.541 514.489 388.105L514.488 388.848C514.482 400.822 504.771 410.534 492.796 410.54L472.601 410.55L472.612 388.126ZM483.294 388.121L483.288 399.863L492.802 399.858C498.877 399.855 503.804 394.928 503.807 388.853L503.807 388.11C503.81 382.446 499.22 377.856 493.556 377.859C487.891 377.862 483.296 382.456 483.294 388.121Z" fill="#05060F"/>
<path fill-rule="evenodd" clip-rule="evenodd" d="M454.123 388.126C454.117 376.562 444.738 367.183 433.174 367.177C421.61 367.171 412.241 376.541 412.246 388.105L412.247 388.848C412.253 400.822 421.964 410.534 433.939 410.54L454.134 410.55L454.123 388.126ZM443.441 388.121L443.447 399.863L433.933 399.858C427.858 399.855 422.931 394.928 422.928 388.853L422.928 388.11C422.925 382.446 427.515 377.856 433.179 377.859C438.844 377.862 443.439 382.456 443.441 388.121Z" fill="#05060F"/>
</svg>
