<svg width="600" height="600" viewBox="0 0 600 600" fill="none" xmlns="http://www.w3.org/2000/svg">
<g clip-path="url(#clip0_24989_743)">
<path d="M219.773 50.407C224.478 42.4796 236.444 44.0786 238.821 52.9524L242.347 66.1113C365.862 33.0159 492.642 105.651 525.518 228.345L461.044 245.621C437.646 158.298 347.415 106.603 259.508 130.157L262.602 141.704C264.965 150.521 255.525 157.882 247.485 153.491L189.749 121.96C184.606 119.151 182.827 112.665 185.817 107.626L219.773 50.407Z" fill="#18CCC5" stroke="black" stroke-width="10"/>
<path d="M276.573 563.995C269.145 569.454 258.755 563.306 260.034 554.209L261.93 540.718C135.303 522.922 46.9818 406.525 64.6599 280.738L130.758 290.027C118.177 379.551 181.036 462.393 271.158 475.059L272.821 463.221C274.092 454.182 285.658 451.094 291.342 458.277L332.169 509.862C335.805 514.457 334.909 521.122 330.187 524.592L276.573 563.995Z" fill="#F95959" stroke="black" stroke-width="10"/>
<path fill-rule="evenodd" clip-rule="evenodd" d="M282.025 199.943C280.96 201.022 280.305 202.508 280.305 204.146V217.291C280.305 218.224 279.678 219.037 278.782 219.296C272.972 220.974 267.427 223.289 262.234 226.157C261.418 226.607 260.399 226.476 259.74 225.817L250.438 216.517C248.098 214.177 244.3 214.177 241.96 216.517L220.781 237.699C218.441 240.04 218.441 243.831 220.781 246.171L230.083 255.473C230.742 256.132 230.874 257.151 230.423 257.967C227.556 263.16 225.241 268.703 223.563 274.515C223.304 275.411 222.49 276.038 221.558 276.038H208.413C205.102 276.038 202.422 278.721 202.422 282.029V311.984C202.422 315.293 205.102 317.975 208.413 317.975H221.558C222.49 317.975 223.304 318.603 223.563 319.498C225.241 325.311 227.556 330.854 230.424 336.049C230.874 336.866 230.743 337.884 230.084 338.543L220.787 347.842C218.447 350.183 218.447 353.974 220.787 356.314L241.966 377.496C244.306 379.836 248.098 379.836 250.438 377.496L259.74 368.197C260.399 367.538 261.418 367.406 262.234 367.857C267.427 370.725 272.972 373.039 278.782 374.718C279.678 374.976 280.305 375.79 280.305 376.722V389.867C280.305 391.181 280.726 392.398 281.446 393.386C281.896 394.004 282.458 394.533 283.102 394.94C284.026 395.522 285.126 395.858 286.296 395.858H316.251C319.562 395.858 322.242 393.176 322.242 389.867V376.722C322.242 375.79 322.869 374.976 323.765 374.718C329.575 373.039 335.12 370.725 340.313 367.857C341.129 367.406 342.148 367.538 342.807 368.198L352.103 377.496C354.444 379.836 358.241 379.836 360.581 377.496L381.76 356.314C384.1 353.974 384.1 350.183 381.76 347.842L372.463 338.543C371.804 337.884 371.673 336.866 372.123 336.049C374.991 330.854 377.306 325.311 378.984 319.498C379.243 318.603 380.057 317.975 380.989 317.975H394.134C397.445 317.975 400.125 315.293 400.125 311.984V282.029C400.125 278.721 397.445 276.038 394.134 276.038H380.989C380.057 276.038 379.243 275.411 378.984 274.515C377.306 268.702 374.991 263.159 372.123 257.964C371.673 257.148 371.804 256.13 372.463 255.47L381.76 246.171C383.223 244.708 383.773 242.681 383.41 240.797C383.188 239.662 382.638 238.577 381.76 237.699L360.581 216.517C358.241 214.177 354.449 214.177 352.109 216.517L342.807 225.817C342.148 226.476 341.129 226.607 340.313 226.157C335.12 223.289 329.575 220.974 323.765 219.296C322.869 219.037 322.242 218.224 322.242 217.291V204.146C322.242 200.838 319.562 198.155 316.251 198.155H286.296C284.623 198.155 283.113 198.84 282.025 199.943ZM301.273 327.423C318.072 327.423 331.689 313.592 331.689 296.532C331.689 279.471 318.072 265.64 301.273 265.64C284.475 265.64 270.858 279.471 270.858 296.532C270.858 313.592 284.475 327.423 301.273 327.423Z" fill="#F8DB46"/>
<path fill-rule="evenodd" clip-rule="evenodd" d="M285.022 206.297C284.786 206.297 284.58 206.387 284.416 206.552C284.27 206.701 284.18 206.901 284.18 207.14V220.285C284.18 223.57 281.978 226.357 278.937 227.235C273.5 228.806 268.311 230.972 263.449 233.657C260.678 235.187 257.149 234.774 254.826 232.451L245.524 223.152C245.195 222.822 244.657 222.822 244.327 223.151C244.327 223.151 244.327 223.151 244.327 223.151L223.148 244.333C222.819 244.663 222.819 245.194 223.148 245.524L232.45 254.826C234.773 257.149 235.187 260.678 233.657 263.45C230.972 268.311 228.806 273.499 227.235 278.937C226.357 281.978 223.57 284.18 220.285 284.18H207.14C206.673 284.18 206.297 284.556 206.297 285.022V314.978C206.297 315.444 206.673 315.82 207.14 315.82H220.285C223.57 315.82 226.357 318.022 227.235 321.063C228.806 326.502 230.972 331.69 233.658 336.554C235.188 339.326 234.773 342.854 232.451 345.177L223.155 354.476C222.825 354.805 222.824 355.337 223.154 355.667L244.333 376.849C244.333 376.849 244.333 376.849 244.333 376.849C244.663 377.178 245.194 377.178 245.524 376.849L254.826 367.549C257.149 365.226 260.678 364.813 263.449 366.343C268.311 369.028 273.5 371.194 278.937 372.765C281.978 373.643 284.18 376.43 284.18 379.715V392.86C284.18 393.056 284.239 393.218 284.335 393.35C284.411 393.452 284.496 393.528 284.576 393.579C284.698 393.655 284.849 393.703 285.022 393.703H314.978C315.444 393.703 315.82 393.327 315.82 392.86V379.715C315.82 376.43 318.022 373.643 321.063 372.765C326.499 371.194 331.689 369.028 336.55 366.343C339.322 364.813 342.852 365.227 345.175 367.551L354.47 376.849C354.8 377.178 355.337 377.178 355.667 376.849C355.667 376.849 355.667 376.849 355.667 376.849L376.846 355.667C377.175 355.337 377.176 354.806 376.846 354.476L367.549 345.177C365.227 342.854 364.812 339.326 366.342 336.554C369.028 331.69 371.194 326.502 372.765 321.063C373.643 318.022 376.43 315.82 379.715 315.82H392.86C393.327 315.82 393.703 315.444 393.703 314.978V285.022C393.703 284.556 393.327 284.18 392.86 284.18H379.715C376.43 284.18 373.643 281.978 372.765 278.937C371.194 273.498 369.028 268.31 366.342 263.446C364.812 260.674 365.227 257.146 367.549 254.823L376.845 245.524C377.051 245.319 377.132 245.043 377.082 244.772C377.048 244.607 376.971 244.459 376.846 244.333L355.667 223.151C355.667 223.151 355.667 223.151 355.667 223.151C355.337 222.822 354.806 222.822 354.476 223.151L345.174 232.451C342.851 234.774 339.322 235.187 336.551 233.657C331.689 230.972 326.5 228.806 321.063 227.235C318.022 226.357 315.82 223.57 315.82 220.285V207.14C315.82 206.673 315.444 206.297 314.978 206.297H285.022ZM277.087 199.32C279.1 197.28 281.912 196 285.022 196H314.978C321.134 196 326.117 200.989 326.117 207.14V218.01C330.763 219.488 335.238 221.351 339.503 223.56L347.195 215.87C347.195 215.87 347.195 215.87 347.195 215.87C351.546 211.52 358.597 211.519 362.948 215.87L384.127 237.052C384.127 237.052 384.127 237.052 384.127 237.052C385.755 238.68 386.777 240.699 387.189 242.801L387.19 242.809L387.192 242.817C387.865 246.312 386.845 250.087 384.127 252.805L376.44 260.494C378.649 264.76 380.512 269.235 381.991 273.883H392.86C399.017 273.883 404 278.872 404 285.022V314.978C404 321.128 399.017 326.117 392.86 326.117H381.991C380.512 330.765 378.648 335.24 376.44 339.506L384.127 347.195C388.478 351.546 388.478 358.597 384.127 362.948C384.127 362.948 384.127 362.948 384.127 362.948L362.948 384.13C358.597 388.481 351.54 388.481 347.189 384.13L339.502 376.441C335.238 378.649 330.762 380.512 326.117 381.99V392.86C326.117 399.011 321.134 404 314.978 404H285.022C282.858 404 280.81 403.376 279.085 402.29L279.078 402.285C277.873 401.524 276.837 400.543 276.014 399.415L276.01 399.409C274.667 397.564 273.883 395.292 273.883 392.86V381.99C269.237 380.512 264.762 378.649 260.497 376.44L252.805 384.13C252.805 384.13 252.805 384.13 252.805 384.13C248.454 388.48 241.403 388.481 237.052 384.13L215.873 362.948C215.873 362.948 215.873 362.948 215.873 362.948C211.522 358.597 211.522 351.546 215.873 347.195L223.56 339.506C221.352 335.24 219.488 330.765 218.009 326.117H207.14C200.983 326.117 196 321.128 196 314.978V285.022C196 278.872 200.983 273.883 207.14 273.883H218.009C219.488 269.236 221.351 264.762 223.559 260.497L215.867 252.805C211.516 248.454 211.516 241.403 215.867 237.052C215.867 237.052 215.867 237.052 215.867 237.052L237.046 215.87C241.397 211.52 248.453 211.519 252.804 215.87C252.804 215.869 252.804 215.87 252.804 215.87L260.497 223.56C264.762 221.351 269.237 219.488 273.883 218.01V207.14C273.883 204.102 275.104 201.33 277.087 199.32ZM337.893 374.831L337.899 374.837C337.897 374.835 337.895 374.833 337.893 374.831ZM300 273.782C286.12 273.782 274.733 285.232 274.733 299.525C274.733 313.818 286.12 325.267 300 325.267C313.88 325.267 325.267 313.818 325.267 299.525C325.267 285.232 313.88 273.782 300 273.782ZM264.436 299.525C264.436 279.696 280.283 263.485 300 263.485C319.717 263.485 335.564 279.696 335.564 299.525C335.564 319.353 319.717 335.564 300 335.564C280.283 335.564 264.436 319.353 264.436 299.525Z" fill="#05060F"/>
<path d="M474.053 565.389C472.332 568.37 468.52 569.392 465.538 567.67L381.621 519.221C378.639 517.499 377.618 513.687 379.339 510.706L396.743 480.561C402.266 470.995 414.498 467.717 424.064 473.24L484.137 507.923C493.703 513.446 496.98 525.678 491.458 535.244L474.053 565.389Z" fill="#9282FA"/>
<path fill-rule="evenodd" clip-rule="evenodd" d="M478.384 567.889C475.282 573.262 468.411 575.103 463.038 572.001L379.121 523.551C373.748 520.449 371.907 513.578 375.009 508.206L392.413 478.061C399.317 466.103 414.607 462.006 426.564 468.91L486.637 503.593C498.594 510.497 502.691 525.787 495.788 537.744L478.384 567.889ZM468.038 563.34C468.628 563.681 469.383 563.479 469.723 562.889L487.127 532.744C491.27 525.569 488.811 516.396 481.637 512.253L421.564 477.57C414.39 473.428 405.216 475.886 401.074 483.061L383.669 513.206C383.329 513.795 383.531 514.55 384.121 514.89L468.038 563.34Z" fill="#05060F"/>
<path fill-rule="evenodd" clip-rule="evenodd" d="M496.065 508.719L572.144 453.102C576.728 449.751 579.318 444.317 579.033 438.646L571.395 286.333L435.819 355.73C430.647 358.378 427.202 363.501 426.703 369.289L418.51 464.181C418.158 468.257 420.197 472.168 423.74 474.214L484.576 509.338C488.191 511.424 492.696 511.182 496.065 508.719ZM517.315 379.927C506.367 373.606 492.367 377.357 486.046 388.305C479.725 399.254 483.476 413.254 494.424 419.575C505.373 425.896 519.372 422.145 525.693 411.196C532.015 400.248 528.263 386.248 517.315 379.927Z" fill="white"/>
<path fill-rule="evenodd" clip-rule="evenodd" d="M573.896 282.003C575.365 282.852 576.304 284.388 576.389 286.083L584.027 438.395C584.396 445.749 581.038 452.794 575.095 457.139L499.016 512.755C494.048 516.387 487.405 516.744 482.076 513.668L421.24 478.544C416.016 475.528 413.01 469.761 413.529 463.751L421.721 368.859C422.369 361.354 426.835 354.712 433.54 351.279L569.117 281.882C570.627 281.109 572.427 281.155 573.896 282.003ZM558.596 298.501L438.097 360.181C434.459 362.043 432.036 365.647 431.684 369.719L423.492 464.611C423.307 466.753 424.378 468.809 426.24 469.884L487.076 505.008C488.976 506.104 491.344 505.977 493.114 504.682L569.193 449.066C572.418 446.708 574.24 442.886 574.04 438.896L567.25 303.512L523.951 378.509C534.023 387.062 536.865 401.846 530.024 413.696C522.322 427.036 505.264 431.607 491.924 423.905C478.584 416.203 474.014 399.145 481.716 385.805C488.571 373.932 502.837 369.006 515.297 373.497L558.596 298.501ZM514.815 384.257C506.258 379.317 495.316 382.248 490.376 390.805C485.435 399.362 488.367 410.304 496.924 415.245C505.481 420.185 516.423 417.253 521.363 408.696C526.304 400.139 523.372 389.197 514.815 384.257Z" fill="#05060F"/>
</g>
<defs>
<clipPath id="clip0_24989_743">
<rect width="600" height="600" fill="white"/>
</clipPath>
</defs>
</svg>
