<svg width="600" height="600" viewBox="0 0 600 600" fill="none" xmlns="http://www.w3.org/2000/svg">
<path fill-rule="evenodd" clip-rule="evenodd" d="M448.752 40.9358C447.687 42.0152 447.031 43.5013 447.031 45.1394V58.2846C447.031 59.217 446.404 60.0303 445.508 60.2891C439.698 61.9676 434.153 64.2821 428.96 67.1497C428.144 67.6005 427.125 67.469 426.466 66.8098L417.164 57.5105C414.824 55.1703 411.027 55.1703 408.687 57.5105L387.508 78.6925C385.167 81.0328 385.167 84.824 387.508 87.1642L396.809 96.4661C397.469 97.1254 397.6 98.1443 397.15 98.9606C394.282 104.153 391.968 109.696 390.289 115.508C390.03 116.404 389.217 117.031 388.284 117.031H375.139C371.828 117.031 369.148 119.714 369.148 123.022V152.977C369.148 156.286 371.828 158.968 375.139 158.968H388.284C389.217 158.968 390.03 159.596 390.289 160.492C391.968 166.304 394.282 171.848 397.15 177.043C397.601 177.859 397.469 178.877 396.81 179.536L387.513 188.836C385.173 191.176 385.173 194.967 387.513 197.307L408.693 218.489C411.033 220.83 414.824 220.83 417.164 218.489L426.466 209.19C427.125 208.531 428.144 208.399 428.96 208.85C434.153 211.718 439.698 214.032 445.508 215.711C446.404 215.97 447.031 216.783 447.031 217.715V230.86C447.031 232.174 447.453 233.391 448.172 234.38C448.623 234.997 449.184 235.526 449.828 235.933C450.752 236.515 451.852 236.851 453.022 236.851H482.977C486.289 236.851 488.968 234.169 488.968 230.86V217.715C488.968 216.783 489.596 215.97 490.491 215.711C496.302 214.032 501.846 211.718 507.039 208.85C507.855 208.4 508.874 208.531 509.534 209.191L518.83 218.489C521.17 220.83 524.967 220.83 527.307 218.489L548.486 197.307C550.827 194.967 550.827 191.176 548.486 188.836L539.19 179.536C538.531 178.877 538.399 177.859 538.85 177.043C541.718 171.848 544.032 166.304 545.711 160.492C545.97 159.596 546.783 158.968 547.715 158.968H560.86C564.172 158.968 566.851 156.286 566.851 152.977V123.022C566.851 119.714 564.172 117.031 560.86 117.031H547.715C546.783 117.031 545.97 116.404 545.711 115.508C544.032 109.696 541.718 104.152 538.85 98.9573C538.399 98.1412 538.531 97.1227 539.19 96.4634L548.486 87.1642C549.949 85.7015 550.499 83.6743 550.136 81.7904C549.914 80.6554 549.364 79.5701 548.486 78.6925L527.307 57.5105C524.967 55.1703 521.176 55.1703 518.836 57.5105L509.534 66.8098C508.874 67.469 507.856 67.6005 507.039 67.1497C501.847 64.2821 496.302 61.9676 490.491 60.2891C489.596 60.0303 488.968 59.217 488.968 58.2846V45.1394C488.968 41.8309 486.289 39.1484 482.977 39.1484H453.022C451.349 39.1484 449.84 39.833 448.752 40.9358ZM468 168.416C484.798 168.416 498.416 154.585 498.416 137.525C498.416 120.464 484.798 106.634 468 106.634C451.202 106.634 437.584 120.464 437.584 137.525C437.584 154.585 451.202 168.416 468 168.416Z" fill="#F8DB46"/>
<path fill-rule="evenodd" clip-rule="evenodd" d="M453.023 44.297C452.786 44.297 452.58 44.3865 452.416 44.552C452.27 44.701 452.18 44.9006 452.18 45.1395V58.2847C452.18 61.5702 449.978 64.3571 446.937 65.2354C441.5 66.8061 436.311 68.9722 431.449 71.6568C428.678 73.1873 425.149 72.7736 422.826 70.4509L413.524 61.1516C413.195 60.8221 412.657 60.8215 412.327 61.151C412.327 61.1511 412.327 61.151 412.327 61.151L391.148 82.3329C390.819 82.6625 390.819 83.1941 391.148 83.5237L400.45 92.8256C402.773 95.1489 403.187 98.6776 401.657 101.45C398.972 106.311 396.806 111.499 395.235 116.937C394.357 119.978 391.57 122.18 388.285 122.18H375.14C374.673 122.18 374.297 122.556 374.297 123.023V152.978C374.297 153.444 374.673 153.82 375.14 153.82H388.285C391.57 153.82 394.357 156.022 395.235 159.063C396.806 164.502 398.972 169.69 401.658 174.554C403.188 177.326 402.773 180.854 400.451 183.177L391.155 192.476C390.825 192.805 390.824 193.337 391.154 193.667L412.333 214.849C412.333 214.849 412.333 214.849 412.333 214.849C412.663 215.178 413.194 215.178 413.524 214.849L422.826 205.549C425.149 203.226 428.678 202.813 431.449 204.343C436.311 207.028 441.5 209.194 446.937 210.765C449.978 211.643 452.18 214.43 452.18 217.715V230.861C452.18 231.056 452.239 231.218 452.335 231.35C452.411 231.452 452.496 231.528 452.576 231.579C452.698 231.655 452.849 231.703 453.023 231.703H482.978C483.444 231.703 483.82 231.327 483.82 230.861V217.715C483.82 214.43 486.022 211.643 489.063 210.765C494.499 209.194 499.689 207.028 504.55 204.343C507.323 202.813 510.852 203.227 513.175 205.551L522.47 214.849C522.8 215.178 523.337 215.178 523.667 214.849C523.667 214.849 523.667 214.849 523.667 214.849L544.846 193.667C545.175 193.337 545.176 192.806 544.846 192.476L535.549 183.177C533.227 180.854 532.812 177.326 534.342 174.554C537.028 169.69 539.194 164.502 540.765 159.063C541.643 156.022 544.43 153.82 547.715 153.82H560.861C561.327 153.82 561.703 153.444 561.703 152.978V123.023C561.703 122.556 561.327 122.18 560.861 122.18H547.715C544.43 122.18 541.643 119.978 540.765 116.937C539.194 111.498 537.028 106.31 534.342 101.446C532.812 98.674 533.227 95.1463 535.549 92.8234L544.845 83.5242C545.051 83.3189 545.132 83.0427 545.082 82.7723C545.048 82.6072 544.971 82.4585 544.846 82.3332L523.667 61.1511C523.667 61.151 523.667 61.1512 523.667 61.1511C523.337 60.8218 522.806 60.8216 522.476 61.1511L513.174 70.4509C510.851 72.7736 507.322 73.1873 504.551 71.6568C499.689 68.9722 494.5 66.8061 489.063 65.2354C486.022 64.3571 483.82 61.5702 483.82 58.2847V45.1395C483.82 44.6728 483.444 44.297 482.978 44.297H453.023ZM445.087 37.3197C447.1 35.2795 449.912 34 453.023 34H482.978C489.134 34 494.117 38.9892 494.117 45.1395V56.0096C498.763 57.4883 503.238 59.3513 507.503 61.5597L515.195 53.87C515.195 53.8702 515.195 53.8699 515.195 53.87C519.546 49.5197 526.597 49.5193 530.948 53.87L552.127 75.0521C552.127 75.052 552.127 75.0522 552.127 75.0521C553.755 76.6799 554.777 78.6992 555.189 80.8008L555.19 80.8089L555.192 80.817C555.865 84.3117 554.845 88.0869 552.127 90.8048L544.44 98.4941C546.649 102.76 548.512 107.235 549.991 111.883H560.861C567.017 111.883 572 116.872 572 123.023V152.978C572 159.128 567.017 164.117 560.861 164.117H549.991C548.512 168.765 546.649 173.24 544.44 177.506L552.127 185.195C556.478 189.546 556.478 196.597 552.127 200.948C552.127 200.948 552.127 200.948 552.127 200.948L530.948 222.13C526.597 226.481 519.54 226.481 515.189 222.13L507.502 214.441C503.238 216.649 498.762 218.512 494.117 219.99V230.861C494.117 237.011 489.134 242 482.978 242H453.023C450.858 242 448.81 241.376 447.085 240.29L447.078 240.286C445.873 239.524 444.837 238.543 444.014 237.415L444.01 237.409C442.667 235.564 441.883 233.292 441.883 230.861V219.99C437.237 218.512 432.762 216.649 428.497 214.44L420.805 222.13C420.805 222.13 420.805 222.13 420.805 222.13C416.454 226.48 409.403 226.481 405.052 222.13L383.873 200.948C383.873 200.948 383.873 200.948 383.873 200.948C379.522 196.597 379.522 189.546 383.873 185.195L391.56 177.506C389.352 173.24 387.488 168.765 386.009 164.117H375.14C368.983 164.117 364 159.128 364 152.978V123.023C364 116.872 368.983 111.883 375.14 111.883H386.009C387.488 107.236 389.351 102.762 391.559 98.4971L383.867 90.8048C379.516 86.454 379.516 79.4032 383.867 75.0523C383.867 75.0524 383.867 75.0522 383.867 75.0523L405.046 53.8703C409.397 49.5196 416.453 49.5192 420.804 53.8695C420.804 53.8693 420.804 53.8697 420.804 53.8695L428.497 61.5597C432.762 59.3513 437.237 57.4883 441.883 56.0096V45.1395C441.883 42.1024 443.104 39.3296 445.087 37.3197ZM505.893 212.831L505.899 212.837C505.897 212.835 505.895 212.833 505.893 212.831ZM468 111.782C454.12 111.782 442.733 123.232 442.733 137.525C442.733 151.818 454.12 163.267 468 163.267C481.88 163.267 493.267 151.818 493.267 137.525C493.267 123.232 481.88 111.782 468 111.782ZM432.436 137.525C432.436 117.696 448.283 101.485 468 101.485C487.717 101.485 503.564 117.696 503.564 137.525C503.564 157.353 487.717 173.564 468 173.564C448.283 173.564 432.436 157.353 432.436 137.525Z" fill="#05060F"/>
<mask id="mask0_16579_4408" style="mask-type:alpha" maskUnits="userSpaceOnUse" x="80" y="81" width="222" height="441">
<path d="M301.166 141.673C301.166 107.819 274.671 81.3252 240.818 81.3252C214.323 81.3252 192.245 98.9881 184.885 122.539C183.413 122.539 181.941 122.539 181.941 122.539C126.009 121.067 80.3799 166.696 80.3799 221.156C80.3799 247.65 90.6832 272.673 108.346 290.336C92.1551 302.111 80.3799 321.246 80.3799 341.852C80.3799 362.459 90.6832 380.122 105.402 390.425C102.458 400.729 99.5146 411.032 99.5146 421.335C99.5146 477.268 145.144 521.425 199.604 521.425C254.065 521.425 299.694 485.796 299.694 431.335V272.673" fill="url(#paint0_linear_16579_4408)"/>
</mask>
<g mask="url(#mask0_16579_4408)">
<rect x="80.6162" y="70.999" width="239.412" height="470.375" fill="#F95959"/>
</g>
<path fill-rule="evenodd" clip-rule="evenodd" d="M181.539 117.834C190.445 94.0858 213.428 76.6318 240.817 76.6318C277.415 76.6318 304.388 105.382 304.388 141.674V437.336C304.388 494.389 256.657 526.12 199.604 526.12C142.596 526.12 94.8198 479.906 94.8198 421.336C94.8198 411.384 97.3716 401.536 99.9979 392.26C85.546 380.915 75.6851 362.777 75.6851 341.853C75.6851 321.329 86.3913 302.438 101.396 289.819C85.0554 271.557 75.6851 246.993 75.6851 221.157C75.6851 164.254 123.179 116.59 181.539 117.834ZM240.817 86.0206C216.473 86.0206 196.142 102.255 189.365 123.94L188.336 127.234H181.879L181.817 127.232C128.552 125.831 85.0738 169.31 85.0738 221.157C85.0738 246.453 94.9149 270.267 111.665 287.017L115.55 290.902L111.107 294.133C95.8858 305.203 85.0738 323.027 85.0738 341.853C85.0738 360.859 94.5718 377.115 108.094 386.58L110.835 388.499L109.916 391.716C106.935 402.149 104.209 411.807 104.209 421.336C104.209 474.631 147.691 516.731 199.604 516.731C251.472 516.731 294.999 489.204 294.999 437.336V141.674C294.999 110.259 271.927 86.0206 240.817 86.0206Z" fill="#05060F"/>
<mask id="mask1_16579_4408" style="mask-type:alpha" maskUnits="userSpaceOnUse" x="298" y="81" width="222" height="441">
<path d="M298.519 141.675C298.519 107.821 325.013 81.3271 358.867 81.3271C385.361 81.3271 407.44 98.99 414.799 122.54C416.271 122.54 417.743 122.54 417.743 122.54C473.676 121.069 519.305 166.698 519.305 221.158C519.305 247.652 509.001 272.675 491.338 290.338C507.529 302.113 519.305 321.248 519.305 341.854C519.305 362.461 509.001 380.124 494.282 390.427C497.226 400.731 500.17 411.034 500.17 421.337C500.17 477.27 454.541 521.427 400.08 521.427C345.62 521.427 299.991 485.798 299.991 431.337V272.675" fill="url(#paint1_linear_16579_4408)"/>
</mask>
<g mask="url(#mask1_16579_4408)">
<rect x="284.352" y="70.998" width="239.412" height="470.375" fill="white"/>
</g>
<path fill-rule="evenodd" clip-rule="evenodd" d="M418.146 117.834C409.24 94.0858 386.257 76.6318 358.868 76.6318C322.27 76.6318 295.297 105.382 295.297 141.674V437.336C295.297 494.389 343.028 526.12 400.081 526.12C457.089 526.12 504.865 479.906 504.865 421.336C504.865 411.384 502.313 401.536 499.687 392.26C514.139 380.915 524 362.777 524 341.853C524 321.329 513.294 302.438 498.289 289.819C514.63 271.557 524 246.993 524 221.157C524 164.254 476.506 116.59 418.146 117.834ZM358.868 86.0206C383.212 86.0206 403.543 102.255 410.32 123.94L411.349 127.234H417.806L417.868 127.232C471.133 125.831 514.611 169.31 514.611 221.157C514.611 246.453 504.77 270.267 488.02 287.017L484.135 290.902L488.578 294.133C503.799 305.203 514.611 323.027 514.611 341.853C514.611 360.859 505.113 377.115 491.591 386.58L488.85 388.499L489.77 391.716C492.75 402.149 495.477 411.807 495.477 421.336C495.477 474.631 451.994 516.731 400.081 516.731C348.213 516.731 304.686 489.204 304.686 437.336V141.674C304.686 110.259 327.758 86.0206 358.868 86.0206Z" fill="#05060F"/>
<path fill-rule="evenodd" clip-rule="evenodd" d="M241.206 196.665C239.068 198.156 236.121 197.649 234.625 195.533C227.25 185.102 211.387 178.67 194.904 179.324C178.613 179.97 163.089 187.48 155.866 203.216C154.783 205.576 151.98 206.623 149.606 205.556C147.231 204.488 146.184 201.711 147.267 199.351C154.332 183.96 167.593 175.197 181.975 171.698C177.851 159.503 176.219 145.29 178.108 131.684C180.266 116.141 187.091 101.007 200.519 90.8207C202.596 89.2456 205.561 89.635 207.142 91.6905C208.723 93.746 208.321 96.6892 206.245 98.2643C195.31 106.559 189.385 119.145 187.471 132.936C185.711 145.607 187.399 158.971 191.447 170.151C192.484 170.06 193.52 169.995 194.555 169.953C213.175 169.215 232.615 176.336 242.367 190.131C243.864 192.248 243.344 195.173 241.206 196.665Z" fill="#05060F"/>
<path fill-rule="evenodd" clip-rule="evenodd" d="M366.02 440.894C367.828 439.016 370.817 438.942 372.696 440.728C381.954 449.53 398.764 452.762 414.807 448.922C430.663 445.127 444.434 434.748 448.467 417.909C449.071 415.384 451.618 413.813 454.154 414.399C456.691 414.985 458.257 417.507 457.652 420.032C453.708 436.501 442.399 447.671 428.97 453.894C424.977 455.744 426.027 455.878 416.967 458.046C398.845 462.384 378.393 459.17 366.148 447.529C364.269 445.743 364.212 442.772 366.02 440.894Z" fill="#05060F"/>
<path fill-rule="evenodd" clip-rule="evenodd" d="M453.36 224.88C450.779 225.242 448.381 223.456 448.004 220.891C446.151 208.252 434.917 195.336 419.923 188.458C405.105 181.66 387.863 181.329 374.299 192.091C372.265 193.705 369.292 193.37 367.658 191.344C366.023 189.317 366.347 186.366 368.381 184.752C381.647 174.227 397.439 172.415 411.847 175.806C416.13 176.814 415.387 176.06 423.854 179.945C440.791 187.714 454.902 202.864 457.353 219.58C457.73 222.145 455.942 224.518 453.36 224.88Z" fill="#05060F"/>
<path fill-rule="evenodd" clip-rule="evenodd" d="M399.409 253.788C398.351 256.159 399.418 258.938 401.792 259.994C413.346 265.136 422.56 279.097 424.983 294.918C427.376 310.546 422.95 326.695 408.944 336.444C406.811 337.928 406.287 340.857 407.773 342.987C409.259 345.116 412.192 345.64 414.325 344.156C428.039 334.61 434.154 320.352 434.92 305.966C447.594 307.679 461.77 306.649 474.701 302.371C489.482 297.481 503.02 288.201 510.491 273.482C511.666 271.167 510.739 268.339 508.421 267.165C506.103 265.991 503.271 266.917 502.096 269.232C496.044 281.156 484.868 289.106 471.742 293.448C459.699 297.432 446.337 298.256 434.665 296.43C434.562 295.447 434.435 294.469 434.286 293.497C431.534 275.524 420.93 258.22 405.622 251.408C403.248 250.352 400.466 251.417 399.409 253.788Z" fill="#05060F"/>
<mask id="path-13-outside-1_16579_4408" maskUnits="userSpaceOnUse" x="21" y="236" width="352" height="195" fill="black">
<rect fill="white" x="21" y="236" width="352" height="195"/>
<path d="M107.552 420.64C91.312 420.64 77.5467 417.624 66.256 411.592C55.12 405.56 46.6133 397.053 40.736 386.072C34.8587 374.936 31.92 361.789 31.92 346.632V246.64H75.072V347.56C75.072 354.211 76.3093 360.011 78.784 364.96C81.4133 369.909 85.1253 373.699 89.92 376.328C94.7147 378.957 100.592 380.272 107.552 380.272C114.512 380.272 120.389 378.957 125.184 376.328C129.979 373.699 133.613 369.987 136.088 365.192C138.563 360.243 139.8 354.365 139.8 347.56V246.64H182.952V346.632C182.952 361.789 180.013 374.936 174.136 386.072C168.413 397.053 159.907 405.56 148.616 411.592C137.48 417.624 123.792 420.64 107.552 420.64ZM196.111 416L252.255 325.984L252.719 329.696L200.751 246.64H248.079L277.079 295.592H283.111L311.183 246.64H357.119L305.383 330.16L304.687 326.448L362.687 416H315.359L280.791 360.088H274.759L242.047 416H196.111Z"/>
</mask>
<path d="M107.552 420.64C91.312 420.64 77.5467 417.624 66.256 411.592C55.12 405.56 46.6133 397.053 40.736 386.072C34.8587 374.936 31.92 361.789 31.92 346.632V246.64H75.072V347.56C75.072 354.211 76.3093 360.011 78.784 364.96C81.4133 369.909 85.1253 373.699 89.92 376.328C94.7147 378.957 100.592 380.272 107.552 380.272C114.512 380.272 120.389 378.957 125.184 376.328C129.979 373.699 133.613 369.987 136.088 365.192C138.563 360.243 139.8 354.365 139.8 347.56V246.64H182.952V346.632C182.952 361.789 180.013 374.936 174.136 386.072C168.413 397.053 159.907 405.56 148.616 411.592C137.48 417.624 123.792 420.64 107.552 420.64ZM196.111 416L252.255 325.984L252.719 329.696L200.751 246.64H248.079L277.079 295.592H283.111L311.183 246.64H357.119L305.383 330.16L304.687 326.448L362.687 416H315.359L280.791 360.088H274.759L242.047 416H196.111Z" fill="#F8DB46"/>
<path d="M66.256 411.592L61.4932 420.385C61.51 420.394 61.5269 420.403 61.5438 420.412L66.256 411.592ZM40.736 386.072L31.8922 390.74C31.9012 390.757 31.9102 390.774 31.9194 390.791L40.736 386.072ZM31.92 246.64V236.64C26.3972 236.64 21.92 241.117 21.92 246.64H31.92ZM75.072 246.64H85.072C85.072 241.117 80.5948 236.64 75.072 236.64V246.64ZM78.784 364.96L69.8397 369.432C69.8765 369.506 69.9142 369.579 69.9528 369.652L78.784 364.96ZM89.92 376.328L85.1117 385.096L85.1117 385.096L89.92 376.328ZM125.184 376.328L120.376 367.56L125.184 376.328ZM136.088 365.192L144.974 369.778C144.994 369.74 145.013 369.702 145.032 369.664L136.088 365.192ZM139.8 246.64V236.64C134.277 236.64 129.8 241.117 129.8 246.64H139.8ZM182.952 246.64H192.952C192.952 241.117 188.475 236.64 182.952 236.64V246.64ZM174.136 386.072L165.292 381.404C165.284 381.42 165.276 381.435 165.268 381.451L174.136 386.072ZM148.616 411.592L143.904 402.772C143.887 402.781 143.87 402.79 143.853 402.799L148.616 411.592ZM107.552 410.64C92.5243 410.64 80.4709 407.849 70.9682 402.772L61.5438 420.412C74.6224 427.399 90.0997 430.64 107.552 430.64V410.64ZM71.0188 402.799C61.5729 397.683 54.4901 390.579 49.5526 381.353L31.9194 390.791C38.7365 403.528 48.6671 413.437 61.4932 420.385L71.0188 402.799ZM49.5798 381.404C44.6018 371.972 41.92 360.492 41.92 346.632H21.92C21.92 363.087 25.1155 377.9 31.8922 390.74L49.5798 381.404ZM41.92 346.632V246.64H21.92V346.632H41.92ZM31.92 256.64H75.072V236.64H31.92V256.64ZM65.072 246.64V347.56H85.072V246.64H65.072ZM65.072 347.56C65.072 355.453 66.5443 362.841 69.8397 369.432L87.7283 360.488C86.0744 357.18 85.072 352.968 85.072 347.56H65.072ZM69.9528 369.652C73.4729 376.277 78.5627 381.505 85.1117 385.096L94.7283 367.56C91.6879 365.893 89.3538 363.541 87.6152 360.268L69.9528 369.652ZM85.1117 385.096C91.7288 388.725 99.3596 390.272 107.552 390.272V370.272C101.824 370.272 97.7005 369.19 94.7283 367.56L85.1117 385.096ZM107.552 390.272C115.744 390.272 123.375 388.725 129.992 385.096L120.376 367.56C117.403 369.19 113.28 370.272 107.552 370.272V390.272ZM129.992 385.096C136.507 381.524 141.574 376.367 144.974 369.778L127.202 360.606C125.653 363.606 123.45 365.874 120.376 367.56L129.992 385.096ZM145.032 369.664C148.343 363.044 149.8 355.567 149.8 347.56H129.8C129.8 353.163 128.783 357.442 127.144 360.72L145.032 369.664ZM149.8 347.56V246.64H129.8V347.56H149.8ZM139.8 256.64H182.952V236.64H139.8V256.64ZM172.952 246.64V346.632H192.952V246.64H172.952ZM172.952 346.632C172.952 360.492 170.27 371.972 165.292 381.404L182.98 390.74C189.756 377.9 192.952 363.087 192.952 346.632H172.952ZM165.268 381.451C160.509 390.583 153.482 397.655 143.904 402.772L153.328 420.412C166.332 413.465 176.318 403.524 183.004 390.693L165.268 381.451ZM143.853 402.799C134.535 407.846 122.586 410.64 107.552 410.64V430.64C124.998 430.64 140.425 427.402 153.379 420.385L143.853 402.799ZM196.111 416L187.626 410.708C185.703 413.791 185.604 417.674 187.367 420.852C189.13 424.029 192.477 426 196.111 426V416ZM252.255 325.984L262.178 324.744C261.652 320.543 258.539 317.128 254.404 316.218C250.27 315.308 246.01 317.1 243.77 320.692L252.255 325.984ZM252.719 329.696L244.241 335C246.73 338.978 251.649 340.69 256.07 339.118C260.49 337.545 263.223 333.111 262.642 328.456L252.719 329.696ZM200.751 246.64V236.64C197.115 236.64 193.765 238.614 192.003 241.795C190.241 244.975 190.345 248.862 192.273 251.944L200.751 246.64ZM248.079 246.64L256.682 241.543C254.882 238.504 251.611 236.64 248.079 236.64V246.64ZM277.079 295.592L268.475 300.689C270.276 303.728 273.546 305.592 277.079 305.592V295.592ZM283.111 295.592V305.592C286.694 305.592 290.003 303.675 291.786 300.567L283.111 295.592ZM311.183 246.64V236.64C307.6 236.64 304.29 238.557 302.508 241.665L311.183 246.64ZM357.119 246.64L365.62 251.906C367.53 248.822 367.621 244.945 365.855 241.775C364.09 238.605 360.747 236.64 357.119 236.64V246.64ZM305.383 330.16L295.554 332.003C296.315 336.06 299.49 339.232 303.547 339.99C307.604 340.748 311.71 338.935 313.884 335.426L305.383 330.16ZM304.687 326.448L313.08 321.012C310.483 317.002 305.413 315.389 300.977 317.162C296.541 318.934 293.978 323.596 294.858 328.291L304.687 326.448ZM362.687 416V426C366.351 426 369.722 423.996 371.472 420.777C373.222 417.558 373.072 413.639 371.08 410.564L362.687 416ZM315.359 416L306.853 421.259C308.675 424.206 311.894 426 315.359 426V416ZM280.791 360.088L289.296 354.829C287.474 351.882 284.256 350.088 280.791 350.088V360.088ZM274.759 360.088V350.088C271.207 350.088 267.921 351.972 266.127 355.038L274.759 360.088ZM242.047 416V426C245.599 426 248.884 424.116 250.678 421.05L242.047 416ZM204.596 421.292L260.74 331.276L243.77 320.692L187.626 410.708L204.596 421.292ZM242.332 327.224L242.796 330.936L262.642 328.456L262.178 324.744L242.332 327.224ZM261.196 324.392L209.228 241.336L192.273 251.944L244.241 335L261.196 324.392ZM200.751 256.64H248.079V236.64H200.751V256.64ZM239.475 251.737L268.475 300.689L285.682 290.495L256.682 241.543L239.475 251.737ZM277.079 305.592H283.111V285.592H277.079V305.592ZM291.786 300.567L319.858 251.615L302.508 241.665L274.436 290.617L291.786 300.567ZM311.183 256.64H357.119V236.64H311.183V256.64ZM348.618 241.374L296.882 324.894L313.884 335.426L365.62 251.906L348.618 241.374ZM315.211 328.317L314.515 324.605L294.858 328.291L295.554 332.003L315.211 328.317ZM296.293 331.884L354.293 421.436L371.08 410.564L313.08 321.012L296.293 331.884ZM362.687 406H315.359V426H362.687V406ZM323.864 410.741L289.296 354.829L272.285 365.347L306.853 421.259L323.864 410.741ZM280.791 350.088H274.759V370.088H280.791V350.088ZM266.127 355.038L233.415 410.95L250.678 421.05L283.39 365.138L266.127 355.038ZM242.047 406H196.111V426H242.047V406Z" fill="#05060F" mask="url(#path-13-outside-1_16579_4408)"/>
<defs>
<linearGradient id="paint0_linear_16579_4408" x1="190.773" y1="81.3252" x2="190.773" y2="521.425" gradientUnits="userSpaceOnUse">
<stop stop-color="#1A80F8"/>
<stop offset="1" stop-color="#0E60C0"/>
</linearGradient>
<linearGradient id="paint1_linear_16579_4408" x1="408.912" y1="81.3271" x2="408.912" y2="521.427" gradientUnits="userSpaceOnUse">
<stop stop-color="#1A80F8"/>
<stop offset="1" stop-color="#0E60C0"/>
</linearGradient>
</defs>
</svg>
