<svg width="600" height="600" viewBox="0 0 600 600" fill="none" xmlns="http://www.w3.org/2000/svg">
<path d="M482 492.5C482 537.511 445.511 574 400.5 574C355.489 574 319 537.511 319 492.5C319 447.489 355.489 411 400.5 411C445.511 411 482 447.489 482 492.5Z" fill="#F8DB46"/>
<path d="M214.398 520C209.096 520 204.798 515.702 204.798 510.399V475.063C204.798 470.452 208.076 466.492 212.606 465.631L252.498 458.049V152.795H171.468L167.421 194.308C166.942 199.226 162.807 202.977 157.866 202.977H108.6C103.298 202.977 99 198.679 99 193.376V99.2016C99 88.5969 107.596 80 118.201 80H481.799C492.404 80 501 88.5969 501 99.2017V193.376C501 198.679 496.702 202.977 491.4 202.977H441.828C436.887 202.977 432.753 199.226 432.273 194.308L428.226 152.795H346.584V458.049L386.772 465.639C391.307 466.495 394.591 470.458 394.591 475.073V510.399C394.591 515.702 390.293 520 384.991 520H214.398Z" fill="#DB2323"/>
<path fill-rule="evenodd" clip-rule="evenodd" d="M346.584 431.381V458.05L386.772 465.639C391.307 466.495 394.591 470.458 394.591 475.073V510.399C394.591 515.702 390.293 520 384.991 520H323.756C320.677 511.409 319 502.15 319 492.5C319 468.162 329.669 446.315 346.584 431.381Z" fill="#FF854D"/>
<path fill-rule="evenodd" clip-rule="evenodd" d="M401 417.282C359.734 417.282 326.282 450.734 326.282 492C326.282 533.266 359.734 566.718 401 566.718C442.266 566.718 475.718 533.266 475.718 492C475.718 450.734 442.266 417.282 401 417.282ZM317 492C317 445.608 354.608 408 401 408C447.392 408 485 445.608 485 492C485 538.392 447.392 576 401 576C354.608 576 317 538.392 317 492Z" fill="#05060F"/>
<path fill-rule="evenodd" clip-rule="evenodd" d="M300 24C302.761 24 305 26.2881 305 29.1107V39.568C305 42.3905 302.761 44.6787 300 44.6787C297.239 44.6787 295 42.3905 295 39.568V29.1107C295 26.2881 297.239 24 300 24ZM300 67.9206C302.761 67.9206 305 70.2087 305 73.0313V93.9458C305 96.7684 302.761 99.0565 300 99.0565C297.239 99.0565 295 96.7684 295 93.9458V73.0313C295 70.2087 297.239 67.9206 300 67.9206ZM300 122.298C302.761 122.298 305 124.587 305 127.409V148.324C305 151.146 302.761 153.434 300 153.434C297.239 153.434 295 151.146 295 148.324V127.409C295 124.587 297.239 122.298 300 122.298ZM300 176.676C302.761 176.676 305 178.964 305 181.787V202.702C305 205.524 302.761 207.812 300 207.812C297.239 207.812 295 205.524 295 202.702V181.787C295 178.964 297.239 176.676 300 176.676ZM300 231.054C302.761 231.054 305 233.342 305 236.165V257.079C305 259.902 302.761 262.19 300 262.19C297.239 262.19 295 259.902 295 257.079V236.165C295 233.342 297.239 231.054 300 231.054ZM300 285.432C302.761 285.432 305 287.72 305 290.543V311.457C305 314.28 302.761 316.568 300 316.568C297.239 316.568 295 314.28 295 311.457V290.543C295 287.72 297.239 285.432 300 285.432ZM300 339.81C302.761 339.81 305 342.098 305 344.921V365.835C305 368.658 302.761 370.946 300 370.946C297.239 370.946 295 368.658 295 365.835V344.921C295 342.098 297.239 339.81 300 339.81ZM300 394.188C302.761 394.188 305 396.476 305 399.298V420.213C305 423.036 302.761 425.324 300 425.324C297.239 425.324 295 423.036 295 420.213V399.298C295 396.476 297.239 394.188 300 394.188ZM300 448.566C302.761 448.566 305 450.854 305 453.676V474.591C305 477.413 302.761 479.702 300 479.702C297.239 479.702 295 477.413 295 474.591V453.676C295 450.854 297.239 448.566 300 448.566ZM300 502.943C302.761 502.943 305 505.232 305 508.054V528.969C305 531.791 302.761 534.079 300 534.079C297.239 534.079 295 531.791 295 528.969V508.054C295 505.232 297.239 502.943 300 502.943ZM300 557.321C302.761 557.321 305 559.61 305 562.432V572.889C305 575.712 302.761 578 300 578C297.239 578 295 575.712 295 572.889V562.432C295 559.61 297.239 557.321 300 557.321Z" fill="#05060F"/>
<path d="M104 200.5H163.742C165.854 200.5 167.603 198.858 167.734 196.75L174.734 84.7495C174.878 82.4467 173.049 80.5 170.742 80.5H104C101.791 80.5 100 82.2909 100 84.5V196.5C100 198.709 101.791 200.5 104 200.5Z" fill="#F8DB46"/>
<path d="M494 203H434.258C432.146 203 430.397 201.358 430.266 199.25L423.266 87.2495C423.122 84.9467 424.951 83 427.258 83H494C496.209 83 498 84.7909 498 87V199C498 201.209 496.209 203 494 203Z" fill="#F8DB46"/>
<path fill-rule="evenodd" clip-rule="evenodd" d="M118.201 85C110.358 85 104 91.358 104 99.2016V193.376C104 195.918 106.06 197.977 108.6 197.977H157.866C160.234 197.977 162.215 196.18 162.445 193.823L166.932 147.795H257.498V462.189L213.539 470.544C211.369 470.956 209.798 472.854 209.798 475.063V510.399C209.798 512.94 211.858 515 214.398 515H384.991C387.531 515 389.591 512.94 389.591 510.399V475.073C389.591 472.861 388.017 470.962 385.844 470.552L341.584 462.194V147.795H432.762L437.25 193.823C437.479 196.18 439.461 197.977 441.828 197.977H491.4C493.94 197.977 496 195.918 496 193.376V99.2017C496 91.358 489.642 85 481.799 85H118.201ZM94 99.2016C94 85.8357 104.835 75 118.201 75H481.799C495.165 75 506 85.8357 506 99.2017V193.376C506 201.44 499.463 207.977 491.4 207.977H441.828C434.313 207.977 428.026 202.272 427.297 194.793L423.69 157.795H351.584V453.905L387.7 460.726C394.597 462.028 399.591 468.054 399.591 475.073V510.399C399.591 518.463 393.054 525 384.991 525H214.398C206.334 525 199.798 518.463 199.798 510.399V475.063C199.798 468.051 204.783 462.029 211.672 460.719L247.498 453.91V157.795H176.005L172.398 194.793C171.668 202.272 165.381 207.977 157.866 207.977H108.6C100.536 207.977 94 201.44 94 193.376V99.2016Z" fill="#05060F"/>
<path fill-rule="evenodd" clip-rule="evenodd" d="M176 81.5V157.5H166V81.5H176Z" fill="#05060F"/>
<path fill-rule="evenodd" clip-rule="evenodd" d="M433 81.5V157.5H423V81.5H433Z" fill="#05060F"/>
</svg>
