<svg width="600" height="600" viewBox="0 0 600 600" fill="none" xmlns="http://www.w3.org/2000/svg">
<circle cx="271" cy="247" r="142" fill="white"/>
<path fill-rule="evenodd" clip-rule="evenodd" d="M165.108 344.875C165.591 344.182 166.085 343.492 166.591 342.805C184.918 317.927 217.377 299.216 271.5 299.216C325.623 299.216 358.082 317.927 376.409 342.805C377.373 344.113 378.293 345.432 379.17 346.758C352.696 375.206 314.926 393 273 393C230.157 393 191.653 374.419 165.108 344.875ZM271.499 268.627C301.846 268.627 326.448 244.31 326.448 214.314C326.448 184.317 301.846 160 271.499 160C241.152 160 216.55 184.317 216.55 214.314C216.55 244.31 241.152 268.627 271.499 268.627Z" fill="#2187FF"/>
<path fill-rule="evenodd" clip-rule="evenodd" d="M271.499 165C243.858 165 221.55 187.133 221.55 214.314C221.55 241.494 243.858 263.627 271.499 263.627C299.14 263.627 321.448 241.494 321.448 214.314C321.448 187.133 299.14 165 271.499 165ZM211.55 214.314C211.55 181.501 238.445 155 271.499 155C304.553 155 331.448 181.501 331.448 214.314C331.448 247.126 304.553 273.627 271.499 273.627C238.445 273.627 211.55 247.126 211.55 214.314ZM162.566 339.839C182.014 313.439 216.116 294.216 271.5 294.216C326.884 294.216 360.986 313.439 380.435 339.839C381.449 341.216 382.417 342.604 383.34 343.999L385.512 347.282L382.83 350.164C355.45 379.586 316.372 398 273 398C228.679 398 188.842 378.771 161.389 348.217L158.741 345.269L161.005 342.018C161.513 341.289 162.033 340.563 162.566 339.839ZM171.571 344.499C197.08 371.303 233.087 388 273 388C312.038 388 347.338 372.028 372.735 346.25C372.618 346.09 372.501 345.93 372.384 345.771C355.178 322.415 324.362 304.216 271.5 304.216C219.601 304.216 188.953 321.758 171.571 344.499Z" fill="#05060F"/>
<path d="M380.5 405.5L428.5 449.5L459.5 419L416 372.5L380.5 405.5Z" fill="white"/>
<path d="M449.844 411.111C455.607 405.348 464.704 405.1 470.161 410.558L572.328 512.724C585.198 525.594 584.614 547.044 571.024 560.635C557.433 574.225 535.983 574.809 523.114 561.939L420.947 459.772C415.489 454.314 415.737 445.218 421.5 439.455L449.844 411.111Z" fill="#7657FF"/>
<path fill-rule="evenodd" clip-rule="evenodd" d="M269.5 443C377.472 443 465 355.472 465 247.5C465 139.528 377.472 52 269.5 52C161.528 52 74 139.528 74 247.5C74 355.472 161.528 443 269.5 443ZM269.5 386.007C346.528 386.007 413.65 336.418 413.65 247.5C413.65 158.582 350.456 109.535 269.504 109.535C192.472 109.535 133.228 158.582 133.228 247.5C133.228 336.418 192.472 386.007 269.5 386.007Z" fill="#F8DB46"/>
<path fill-rule="evenodd" clip-rule="evenodd" d="M74 247.378C74 139.474 161.474 52 269.378 52C377.283 52 464.757 139.474 464.757 247.378C464.757 293.662 448.665 336.182 421.77 369.657L419.5 372.5L449.201 401.488L450.342 401.149C457.2 399.116 464.918 400.808 470.325 406.215L572.325 508.215C588.016 523.906 589.19 548.642 573.5 564.333C557.809 580.024 533.584 578.298 517.893 562.607L415.893 460.607C410.483 455.197 408.793 447.473 410.831 440.613L411.17 439.471L379.5 409L376.979 410.484C346.122 430.881 309.14 442.757 269.378 442.757C161.474 442.757 74 355.283 74 247.378ZM269.378 62.7576C167.415 62.7576 84.7576 145.415 84.7576 247.378C84.7576 349.342 167.415 431.999 269.378 431.999C371.341 431.999 453.999 349.342 453.999 247.378C453.999 145.415 371.341 62.7576 269.378 62.7576ZM440 407.5L413 381.5L390 404L417.186 430.274L440 407.5ZM462.718 413.821C459.056 410.159 453.117 410.159 449.455 413.821L423.5 439.736C419.837 443.399 419.837 449.337 423.5 453L525.5 555C536.99 566.49 554.403 568.216 565.893 556.726C577.383 545.237 576.208 527.311 564.718 515.822L462.718 413.821Z" fill="#05060F"/>
<path fill-rule="evenodd" clip-rule="evenodd" d="M122 247.5C122 165.486 188.71 99 271 99C353.29 99 420 165.486 420 247.5C420 329.514 353.29 396 271 396C188.71 396 122 329.514 122 247.5ZM271 109.591C194.578 109.591 132.626 171.335 132.626 247.5C132.626 323.665 194.578 385.409 271 385.409C347.422 385.409 409.374 323.665 409.374 247.5C409.374 171.335 347.422 109.591 271 109.591Z" fill="#05060F"/>
<path d="M365 50C365 41.1634 372.163 34 381 34H566C574.837 34 582 41.1634 582 50V172C582 180.837 574.837 188 566 188H381C372.163 188 365 180.837 365 172V50Z" fill="white"/>
<path d="M411 74C408.239 74 406 76.2386 406 79C406 81.7614 408.239 84 411 84H537C539.761 84 542 81.7614 542 79C542 76.2386 539.761 74 537 74H411Z" fill="#05060F"/>
<path d="M406 111C406 108.239 408.239 106 411 106H537C539.761 106 542 108.239 542 111C542 113.761 539.761 116 537 116H411C408.239 116 406 113.761 406 111Z" fill="#05060F"/>
<path d="M411 138C408.239 138 406 140.239 406 143C406 145.761 408.239 148 411 148H495C497.761 148 500 145.761 500 143C500 140.239 497.761 138 495 138H411Z" fill="#05060F"/>
<path fill-rule="evenodd" clip-rule="evenodd" d="M381 29C369.402 29 360 38.402 360 50V172C360 183.598 369.402 193 381 193H567C578.598 193 588 183.598 588 172V50C588 38.402 578.598 29 567 29H381ZM370 50C370 43.9249 374.925 39 381 39H567C573.075 39 578 43.9249 578 50V172C578 178.075 573.075 183 567 183H381C374.925 183 370 178.075 370 172V50Z" fill="#05060F"/>
<path d="M25 424C25 415.163 32.1634 408 41 408H225C233.837 408 241 415.163 241 424V546C241 554.837 233.837 562 225 562H41C32.1634 562 25 554.837 25 546V424Z" fill="white"/>
<path fill-rule="evenodd" clip-rule="evenodd" d="M41 403C29.402 403 20 412.402 20 424V546C20 557.598 29.402 567 41 567H223C234.598 567 244 557.598 244 546V424C244 412.402 234.598 403 223 403H41ZM30 424C30 417.925 34.9249 413 41 413H223C229.075 413 234 417.925 234 424V546C234 552.075 229.075 557 223 557H41C34.9249 557 30 552.075 30 546V424Z" fill="#05060F"/>
<path d="M151.905 448.312C151.905 445.392 154.311 443 157.309 443H192.596C195.594 443 198 445.392 198 448.312V478.961C198 481.881 195.594 484.272 192.596 484.272C189.598 484.272 187.192 481.881 187.192 478.961V459.852L144.404 509.136C143.352 510.061 141.97 510.547 140.554 510.483C139.112 510.418 137.76 509.789 136.795 508.741L117.458 488.232C117.198 487.956 116.833 487.803 116.453 487.811C116.074 487.819 115.715 487.987 115.468 488.274L77.2606 532.408C75.1798 534.493 71.7719 534.537 69.6369 532.497C67.5008 530.456 67.449 527.103 69.5189 524.998L69.529 524.987L112.784 475.714C113.82 474.675 115.247 474.096 116.733 474.12C118.231 474.145 119.649 474.779 120.651 475.867L140.261 496.674C140.524 496.953 140.895 497.106 141.278 497.094C141.662 497.083 142.022 496.908 142.268 496.613L178.133 453.623H157.309C154.311 453.623 151.905 451.231 151.905 448.312Z" fill="#05060F"/>
</svg>
