<svg width="600" height="600" viewBox="0 0 600 600" fill="none" xmlns="http://www.w3.org/2000/svg">
<path d="M338 160.251C338 147.962 347.962 138 360.251 138H557.749C570.038 138 580 147.962 580 160.251V533.749C580 546.038 570.038 556 557.749 556H360.251C347.962 556 338 546.038 338 533.749V160.251Z" fill="#2187FF"/>
<path fill-rule="evenodd" clip-rule="evenodd" d="M333 160.251C333 145.201 345.201 133 360.251 133H557.749C572.799 133 585 145.201 585 160.251V533.749C585 548.799 572.799 561 557.749 561H360.251C345.201 561 333 548.799 333 533.749V160.251ZM360.251 143C350.724 143 343 150.724 343 160.251V533.749C343 543.276 350.724 551 360.251 551H557.749C567.276 551 575 543.276 575 533.749V160.251C575 150.724 567.276 143 557.749 143H360.251Z" fill="#05060F"/>
<path d="M398.053 133H521.747V144.105C521.747 150.753 515.795 156.143 508.453 156.143H411.346C404.004 156.143 398.053 150.753 398.053 144.105V133Z" fill="#05060F"/>
<path d="M379 219C379 212.373 384.373 207 391 207H527C533.627 207 539 212.373 539 219V355C539 361.627 533.627 367 527 367H391C384.373 367 379 361.627 379 355V219Z" fill="#F8DB46"/>
<path fill-rule="evenodd" clip-rule="evenodd" d="M374 219C374 209.611 381.611 202 391 202H527C536.389 202 544 209.611 544 219V355C544 364.389 536.389 372 527 372H391C381.611 372 374 364.389 374 355V219ZM391 212C387.134 212 384 215.134 384 219V355C384 358.866 387.134 362 391 362H527C530.866 362 534 358.866 534 355V219C534 215.134 530.866 212 527 212H391Z" fill="#05060F"/>
<path d="M432.75 263.75C432.75 268.859 428.609 273 423.5 273C418.392 273 414.25 268.859 414.25 263.75C414.25 258.641 418.392 254.5 423.5 254.5C428.609 254.5 432.75 258.641 432.75 263.75Z" fill="#05060F"/>
<path fill-rule="evenodd" clip-rule="evenodd" d="M482.366 272.893C478.797 266.774 469.956 266.774 466.386 272.893L453.201 295.497L447.578 286.296C443.971 280.394 435.399 280.394 431.792 286.296L414.601 314.427C410.834 320.59 415.27 328.5 422.494 328.5L451.25 328.5L498.699 328.5C505.838 328.5 510.286 320.756 506.689 314.589L482.366 272.893Z" fill="#05060F"/>
<path d="M379 437C379 430.373 384.373 425 391 425H527C533.627 425 539 430.373 539 437V472C539 478.627 533.627 484 527 484H391C384.373 484 379 478.627 379 472V437Z" fill="#DB2323"/>
<path fill-rule="evenodd" clip-rule="evenodd" d="M453.673 468.709L471.234 456.429C472.255 455.749 472.255 454.251 471.234 453.571L453.673 441.291C452.53 440.53 451 441.349 451 442.72V467.28C451 468.651 452.53 469.47 453.673 468.709Z" fill="white"/>
<path fill-rule="evenodd" clip-rule="evenodd" d="M374 435C374 425.611 381.611 418 391 418H527C536.389 418 544 425.611 544 435V474C544 483.389 536.389 491 527 491H391C381.611 491 374 483.389 374 474V435ZM391 428C387.134 428 384 431.134 384 435V474C384 477.866 387.134 481 391 481H527C530.866 481 534 477.866 534 474V435C534 431.134 530.866 428 527 428H391Z" fill="#05060F"/>
<path d="M20 71.251C20 58.9621 29.9621 49 42.251 49H239.749C252.038 49 262 58.9621 262 71.2509V444.749C262 457.038 252.038 467 239.749 467H42.2509C29.9621 467 20 457.038 20 444.749V71.251Z" fill="white"/>
<path fill-rule="evenodd" clip-rule="evenodd" d="M15 71.251C15 56.2007 27.2007 44 42.251 44H239.749C254.799 44 267 56.2007 267 71.2509V444.749C267 459.799 254.799 472 239.749 472H42.2509C27.2007 472 15 459.799 15 444.749V71.251ZM42.251 54C32.7235 54 25 61.7235 25 71.251V444.749C25 454.276 32.7235 462 42.2509 462H239.749C249.276 462 257 454.276 257 444.749V71.2509C257 61.7235 249.276 54 239.749 54H42.251Z" fill="#05060F"/>
<path d="M80.0527 44H203.747V55.105C203.747 61.7533 197.795 67.1427 190.453 67.1427H93.3461C86.0044 67.1427 80.0527 61.7533 80.0527 55.105V44Z" fill="#05060F"/>
<path d="M62 344C62 341.791 63.7909 340 66 340H216C218.209 340 220 341.791 220 344V395C220 397.209 218.209 399 216 399H66C63.7909 399 62 397.209 62 395V344Z" fill="#05060F" fill-opacity="0.32"/>
<path fill-rule="evenodd" clip-rule="evenodd" d="M57 344C57 339.029 61.0294 335 66 335H216C220.971 335 225 339.029 225 344V395C225 399.971 220.971 404 216 404H66C61.0294 404 57 399.971 57 395V344ZM67 345V394H215V345H67Z" fill="#05060F"/>
<path d="M62 128C62 125.791 63.7909 124 66 124H216C218.209 124 220 125.791 220 128V278C220 280.209 218.209 282 216 282H66C63.7909 282 62 280.209 62 278V128Z" fill="#05060F" fill-opacity="0.08"/>
<path fill-rule="evenodd" clip-rule="evenodd" d="M66 119C61.0294 119 57 123.029 57 128V278C57 282.971 61.0294 287 66 287H216C220.971 287 225 282.971 225 278V128C225 123.029 220.971 119 216 119H66ZM67 137.516V268.929L132.918 203.011L67 137.516ZM73.0715 277H207.384L140.012 210.06L73.0715 277ZM215 270.47V135.071L147.083 202.989L215 270.47ZM206.929 129H72.6169L139.989 195.94L206.929 129Z" fill="#05060F"/>
<path fill-rule="evenodd" clip-rule="evenodd" d="M276.75 150.5H270.5V140.5H276.75C279.511 140.5 281.75 142.739 281.75 145.5C281.75 148.261 279.511 150.5 276.75 150.5ZM284.25 145.5C284.25 142.739 286.489 140.5 289.25 140.5H295.5C296.711 140.5 297.878 140.742 298.946 141.185C300.086 141.657 300.958 142.503 301.48 143.52C302.497 144.042 303.343 144.914 303.815 146.054C304.258 147.122 304.5 148.289 304.5 149.5V158.984C304.5 161.746 302.261 163.984 299.5 163.984C296.739 163.984 294.5 161.746 294.5 158.984V150.5H289.25C286.489 150.5 284.25 148.261 284.25 145.5ZM299.5 172.953C302.261 172.953 304.5 175.192 304.5 177.953V196.922C304.5 199.683 302.261 201.922 299.5 201.922C296.739 201.922 294.5 199.683 294.5 196.922V177.953C294.5 175.192 296.739 172.953 299.5 172.953ZM299.5 210.891C302.261 210.891 304.5 213.129 304.5 215.891V234.859C304.5 237.621 302.261 239.859 299.5 239.859C296.739 239.859 294.5 237.621 294.5 234.859V215.891C294.5 213.129 296.739 210.891 299.5 210.891ZM299.5 248.828C302.261 248.828 304.5 251.067 304.5 253.828V272.797C304.5 275.558 302.261 277.797 299.5 277.797C296.739 277.797 294.5 275.558 294.5 272.797V253.828C294.5 251.067 296.739 248.828 299.5 248.828ZM299.5 286.766C302.261 286.766 304.5 289.004 304.5 291.766V310.734C304.5 313.496 302.261 315.734 299.5 315.734C296.739 315.734 294.5 313.496 294.5 310.734V291.766C294.5 289.004 296.739 286.766 299.5 286.766ZM299.5 324.703C302.261 324.703 304.5 326.942 304.5 329.703V348.672C304.5 351.433 302.261 353.672 299.5 353.672C296.739 353.672 294.5 351.433 294.5 348.672V329.703C294.5 326.942 296.739 324.703 299.5 324.703ZM299.5 362.641C302.261 362.641 304.5 364.879 304.5 367.641V386.609C304.5 389.371 302.261 391.609 299.5 391.609C296.739 391.609 294.5 389.371 294.5 386.609V367.641C294.5 364.879 296.739 362.641 299.5 362.641ZM299.5 400.578C302.261 400.578 304.5 402.817 304.5 405.578V424.547C304.5 427.308 302.261 429.547 299.5 429.547C296.739 429.547 294.5 427.308 294.5 424.547V405.578C294.5 402.817 296.739 400.578 299.5 400.578ZM299.5 438.516C302.261 438.516 304.5 440.754 304.5 443.516V452H310.375C313.136 452 315.375 454.239 315.375 457C315.375 459.761 313.136 462 310.375 462H303.5C302.289 462 301.122 461.758 300.054 461.315C298.914 460.843 298.042 459.997 297.52 458.98C296.502 458.458 295.657 457.586 295.185 456.446C294.742 455.378 294.5 454.211 294.5 453V443.516C294.5 440.754 296.739 438.516 299.5 438.516ZM319.125 457C319.125 454.239 321.364 452 324.125 452H331V462H324.125C321.364 462 319.125 459.761 319.125 457Z" fill="#05060F"/>
<circle cx="339" cy="455" r="23" fill="#15D6CF"/>
<circle cx="261" cy="143" r="23" fill="#15D6CF"/>
<path fill-rule="evenodd" clip-rule="evenodd" d="M261 163C271.493 163 280 154.493 280 144C280 133.507 271.493 125 261 125C250.507 125 242 133.507 242 144C242 154.493 250.507 163 261 163ZM261 173C277.016 173 290 160.016 290 144C290 127.984 277.016 115 261 115C244.984 115 232 127.984 232 144C232 160.016 244.984 173 261 173Z" fill="#05060F"/>
<path fill-rule="evenodd" clip-rule="evenodd" d="M338 474C348.493 474 357 465.493 357 455C357 444.507 348.493 436 338 436C327.507 436 319 444.507 319 455C319 465.493 327.507 474 338 474ZM338 484C354.016 484 367 471.016 367 455C367 438.984 354.016 426 338 426C321.984 426 309 438.984 309 455C309 471.016 321.984 484 338 484Z" fill="#05060F"/>
</svg>
