<svg width="600" height="600" viewBox="0 0 600 600" fill="none" xmlns="http://www.w3.org/2000/svg">
<path d="M148 377.52C148 364.53 158.806 354 172.136 354H477.864C491.194 354 502 364.53 502 377.52V538.24C502 544.735 496.597 550 489.932 550H160.068C153.403 550 148 544.735 148 538.24V377.52Z" fill="#2187FF"/>
<path fill-rule="evenodd" clip-rule="evenodd" d="M172.136 359C161.445 359 153 367.413 153 377.52V538.24C153 541.852 156.042 545 160.068 545H489.932C493.958 545 497 541.852 497 538.24V377.52C497 367.413 488.555 359 477.864 359H172.136ZM143 377.52C143 361.648 156.168 349 172.136 349H477.864C493.832 349 507 361.648 507 377.52V538.24C507 547.617 499.236 555 489.932 555H160.068C150.764 555 143 547.617 143 538.24V377.52Z" fill="#05060F"/>
<path d="M212.18 294C202.692 294 195 301.675 195 311.143V354H295.934V311.143C295.934 301.675 288.243 294 278.754 294H212.18Z" fill="#0D5EBF"/>
<path d="M372.246 294C362.757 294 355.066 301.675 355.066 311.143V354H456V311.143C456 301.675 448.308 294 438.82 294H372.246Z" fill="#0D5EBF"/>
<path fill-rule="evenodd" clip-rule="evenodd" d="M212.18 299C205.443 299 200 304.447 200 311.143V349H290.934V311.143C290.934 304.447 285.491 299 278.754 299H212.18ZM190 311.143C190 298.903 199.941 289 212.18 289H278.754C290.994 289 300.934 298.903 300.934 311.143V359H190V311.143ZM372.246 299C365.509 299 360.066 304.447 360.066 311.143V349H451V311.143C451 304.447 445.557 299 438.82 299H372.246ZM350.066 311.143C350.066 298.903 360.006 289 372.246 289H438.82C451.059 289 461 298.903 461 311.143V359H350.066V311.143Z" fill="#05060F"/>
<path d="M103.643 201.31C100.213 188.507 107.87 175.331 120.746 171.881L416.055 92.7531C428.931 89.303 442.15 96.8851 445.581 109.688L488.027 268.1C489.171 272.368 486.638 276.755 482.371 277.898L155.888 365.379C151.62 366.522 147.233 363.99 146.09 359.722L103.643 201.31Z" fill="#F8DB46"/>
<path fill-rule="evenodd" clip-rule="evenodd" d="M122.04 176.711C111.806 179.453 105.764 189.906 108.473 200.016L150.92 358.428C151.348 360.028 152.993 360.978 154.594 360.549L481.077 273.068C482.677 272.64 483.627 270.995 483.198 269.394L440.752 110.982C438.043 100.872 427.584 94.8404 417.35 97.5827L122.04 176.711ZM98.8141 202.604C94.6618 187.108 103.934 171.209 119.452 167.051L414.762 87.9234C430.279 83.7656 446.259 92.898 450.411 108.394L492.857 266.806C494.716 273.741 490.6 280.87 483.665 282.728L157.182 370.209C153.166 371.285 146.085 380.818 143 378.5C143 372.5 142.043 363.935 141.26 361.016L98.8141 202.604Z" fill="#05060F"/>
<path d="M143.896 103.561C134.731 106.017 129.287 115.422 131.738 124.567L142.83 165.964L240.325 139.84L229.233 98.443C226.782 89.2978 217.366 83.8751 208.201 86.3308L143.896 103.561Z" fill="#F5C418"/>
<path d="M298.507 62.1334C289.342 64.5892 283.899 73.9936 286.349 83.1387L297.441 124.536L394.937 98.4118L383.844 57.015C381.394 47.8698 371.978 42.447 362.812 44.9028L298.507 62.1334Z" fill="#F5C418"/>
<path fill-rule="evenodd" clip-rule="evenodd" d="M145.19 108.391C138.683 110.135 134.835 116.805 136.568 123.273L146.366 159.84L234.202 136.304L224.404 99.7371C222.671 93.2692 216.004 89.4167 209.496 91.1605L145.19 108.391ZM126.909 125.861C123.741 114.038 130.78 101.9 142.602 98.7318L206.908 81.5012C218.73 78.3334 230.895 85.3265 234.063 97.1489L246.449 143.375L139.295 172.087L126.909 125.861ZM299.802 66.963C293.294 68.7068 289.446 75.3768 291.179 81.8446L300.978 118.412L388.814 94.8763L379.015 58.3091C377.282 51.8412 370.615 47.9887 364.107 49.7325L299.802 66.963ZM281.52 84.4328C278.352 72.6104 285.391 60.4716 297.214 57.3038L361.519 40.0732C373.342 36.9054 385.507 43.8985 388.675 55.7209L401.061 101.947L293.907 130.659L281.52 84.4328Z" fill="#05060F"/>
</svg>
