<svg width="600" height="600" viewBox="0 0 600 600" fill="none" xmlns="http://www.w3.org/2000/svg">
<path d="M517.079 170.95C517.079 160.783 508.837 152.54 498.669 152.54H425.029C414.861 152.54 406.619 160.782 406.619 170.95V509.988C406.619 520.155 414.861 528.398 425.029 528.398H498.669C508.837 528.398 517.079 520.155 517.079 509.988V170.95Z" fill="#4B9BFA" stroke="#05060F" stroke-width="10"/>
<path d="M343 305.822C343 296.532 334.791 289 324.666 289H251.333C241.208 289 233 296.532 233 305.822V511.178C233 520.468 241.208 528 251.333 528H324.666C334.791 528 343 520.468 343 511.178V305.822Z" fill="#4B9BFA" stroke="#05060F" stroke-width="10"/>
<path d="M175.063 410.029C175.063 399.862 166.821 391.619 156.653 391.619H83.0128C72.8452 391.619 64.6027 399.862 64.6027 410.029V509.987C64.6027 520.155 72.8452 528.397 83.0128 528.397H156.653C166.821 528.397 175.063 520.155 175.063 509.987V410.029Z" fill="#4B9BFA" stroke="#05060F" stroke-width="10"/>
<path d="M120 325.5L285.5 225.5L460.5 84.5" stroke="#696A6F" stroke-width="10"/>
<path d="M91.5269 329.205C91.5269 344.117 103.615 356.205 118.527 356.205C133.439 356.205 145.527 344.117 145.527 329.205C145.527 314.293 133.439 302.205 118.527 302.205C103.615 302.205 91.5269 314.293 91.5269 329.205Z" fill="#F8DB46" stroke="#05060F" stroke-width="10"/>
<path d="M434.544 84.6025C434.544 99.5142 446.632 111.603 461.544 111.603C476.456 111.603 488.544 99.5142 488.544 84.6025C488.544 69.6909 476.456 57.6025 461.544 57.6025C446.632 57.6025 434.544 69.6909 434.544 84.6025Z" fill="#F8DB46" stroke="#05060F" stroke-width="10"/>
<path d="M255.536 225.201C255.536 240.113 267.624 252.201 282.536 252.201C297.447 252.201 309.536 240.113 309.536 225.201C309.536 210.289 297.447 198.201 282.536 198.201C267.624 198.201 255.536 210.289 255.536 225.201Z" fill="#F8DB46" stroke="#05060F" stroke-width="10"/>
<path d="M378.473 363.568L419.422 401.104L445.867 375.085L408.758 335.416L378.473 363.568Z" fill="white"/>
<path d="M437.63 368.355C442.547 363.439 450.307 363.227 454.962 367.883L542.12 455.041C553.099 466.02 552.601 484.319 541.008 495.913C529.414 507.507 511.115 508.005 500.136 497.026L412.978 409.868C408.322 405.212 408.533 397.452 413.45 392.536L437.63 368.355Z" fill="#F95959"/>
<path fill-rule="evenodd" clip-rule="evenodd" d="M283.78 395.559C375.89 395.559 450.559 320.89 450.559 228.78C450.559 136.67 375.89 62 283.78 62C191.67 62 117 136.67 117 228.78C117 320.89 191.67 395.559 283.78 395.559ZM283.78 346.939C349.491 346.939 406.753 304.635 406.753 228.78C406.753 152.924 352.843 111.083 283.783 111.083C218.068 111.083 167.527 152.924 167.527 228.78C167.527 304.635 218.068 346.939 283.78 346.939Z" fill="#F8DB46"/>
<path fill-rule="evenodd" clip-rule="evenodd" d="M283.676 61.6006C191.403 61.6006 116.6 136.403 116.6 228.676C116.6 320.95 191.403 395.752 283.676 395.752C317.677 395.752 349.303 385.597 375.69 368.154C376.195 367.82 376.724 367.509 377.128 367.28C377.295 367.186 377.44 367.106 377.552 367.045L404.185 392.669L403.965 393.409C402.186 399.397 403.661 406.14 408.384 410.863L495.4 497.879C508.918 511.397 529.838 512.916 543.403 499.351C556.96 485.794 555.927 464.438 542.401 450.911L455.385 363.896C450.665 359.175 443.927 357.699 437.941 359.474L437.193 359.696L412.282 335.383L412.77 334.771C413.169 334.271 413.653 333.665 413.992 333.242C436.991 304.617 450.752 268.255 450.752 228.676C450.752 136.403 375.949 61.6006 283.676 61.6006ZM126.577 228.676C126.577 141.913 196.913 71.5778 283.676 71.5778C370.439 71.5778 440.775 141.913 440.775 228.676C440.775 315.44 370.439 385.775 283.676 385.775C196.913 385.775 126.577 315.44 126.577 228.676ZM387.151 362.288L406.201 343.652L428.661 365.28L409.766 384.143L387.151 362.288ZM437.581 370.951C440.549 367.982 445.362 367.982 448.33 370.951L535.346 457.966C545.013 467.634 545.972 482.672 536.348 492.296C526.733 501.911 512.133 500.502 502.454 490.824L415.439 403.808C412.471 400.84 412.471 396.027 415.439 393.059L437.581 370.951Z" fill="#05060F"/>
<path fill-rule="evenodd" clip-rule="evenodd" d="M285.059 101.695C214.638 101.695 157.548 158.592 157.548 228.78C157.548 298.968 214.638 355.864 285.059 355.864C355.48 355.864 412.57 298.968 412.57 228.78C412.57 158.592 355.48 101.695 285.059 101.695ZM167.414 228.78C167.414 164.026 220.084 111.53 285.059 111.53C350.034 111.53 402.705 164.026 402.705 228.78C402.705 293.533 350.034 346.029 285.059 346.029C220.084 346.029 167.414 293.533 167.414 228.78Z" fill="#05060F"/>
</svg>
