<svg width="600" height="600" viewBox="0 0 600 600" fill="none" xmlns="http://www.w3.org/2000/svg">
<path d="M38 103C38 94.1634 45.5019 87 54.7559 87L553.244 87C562.498 87 570 94.1634 570 103V496C570 504.837 562.498 512 553.244 512H54.7559C45.5019 512 38 504.837 38 496V103Z" fill="white"/>
<path fill-rule="evenodd" clip-rule="evenodd" d="M30 105C30 93.402 39.7262 84 51.7241 84L548.276 84C560.274 84 570 93.402 570 105V495C570 506.598 560.274 516 548.276 516H51.7241C39.7262 516 30 506.598 30 495V105ZM51.7241 94C45.4395 94 40.3448 98.9249 40.3448 105V495C40.3448 501.075 45.4395 506 51.7241 506H548.276C554.56 506 559.655 501.075 559.655 495V105C559.655 98.9249 554.56 94 548.276 94H51.7241Z" fill="#05060F"/>
<path d="M74 142C74 136.477 78.4772 132 84 132H358C363.523 132 368 136.477 368 142V246C368 251.523 363.523 256 358 256H84C78.4772 256 74 251.523 74 246V142Z" fill="#2187FF"/>
<path fill-rule="evenodd" clip-rule="evenodd" d="M69 142C69 133.716 75.7157 127 84 127H358C366.284 127 373 133.716 373 142V246C373 254.284 366.284 261 358 261H84C75.7157 261 69 254.284 69 246V142ZM84 137C81.2386 137 79 139.239 79 142V246C79 248.761 81.2386 251 84 251H358C360.761 251 363 248.761 363 246V142C363 139.239 360.761 137 358 137H84Z" fill="#05060F"/>
<path d="M74 299C74 293.477 78.4772 289 84 289H358C363.523 289 368 293.477 368 299V458C368 463.523 363.523 468 358 468H84C78.4772 468 74 463.523 74 458V299Z" fill="#F8DB46"/>
<path fill-rule="evenodd" clip-rule="evenodd" d="M69 299C69 290.716 75.7157 284 84 284H358C366.284 284 373 290.716 373 299V458C373 466.284 366.284 473 358 473H84C75.7157 473 69 466.284 69 458V299ZM84 294C81.2386 294 79 296.239 79 299V458C79 460.761 81.2386 463 84 463H358C360.761 463 363 460.761 363 458V299C363 296.239 360.761 294 358 294H84Z" fill="#05060F"/>
<path d="M404 142C404 136.477 408.477 132 414 132H516C521.523 132 526 136.477 526 142V301C526 306.523 521.523 311 516 311H414C408.477 311 404 306.523 404 301V142Z" fill="#12B823"/>
<path fill-rule="evenodd" clip-rule="evenodd" d="M399 142C399 133.716 405.716 127 414 127H516C524.284 127 531 133.716 531 142V301C531 309.284 524.284 316 516 316H414C405.716 316 399 309.284 399 301V142ZM414 137C411.239 137 409 139.239 409 142V301C409 303.761 411.239 306 414 306H516C518.761 306 521 303.761 521 301V142C521 139.239 518.761 137 516 137H414Z" fill="#05060F"/>
<path d="M404 346C404 344.895 404.895 344 406 344H524C525.105 344 526 344.895 526 346V466C526 467.105 525.105 468 524 468H406C404.895 468 404 467.105 404 466V346Z" fill="white"/>
<path fill-rule="evenodd" clip-rule="evenodd" d="M409 349H410.214C412.976 349 415.214 346.761 415.214 344C415.214 341.239 412.976 339 410.214 339H406C405.471 339 404.951 339.059 404.446 339.174C403.116 339.477 402.031 340.284 401.348 341.348C400.284 342.031 399.477 343.116 399.174 344.446C399.059 344.951 399 345.471 399 346V350.286C399 353.047 401.239 355.286 404 355.286C406.761 355.286 409 353.047 409 350.286V349ZM426.286 344C426.286 341.239 428.524 339 431.286 339H439.714C442.476 339 444.714 341.239 444.714 344C444.714 346.761 442.476 349 439.714 349H431.286C428.524 349 426.286 346.761 426.286 344ZM455.786 344C455.786 341.239 458.024 339 460.786 339H469.214C471.976 339 474.214 341.239 474.214 344C474.214 346.761 471.976 349 469.214 349H460.786C458.024 349 455.786 346.761 455.786 344ZM485.286 344C485.286 341.239 487.524 339 490.286 339H498.714C501.476 339 503.714 341.239 503.714 344C503.714 346.761 501.476 349 498.714 349H490.286C487.524 349 485.286 346.761 485.286 344ZM514.786 344C514.786 341.239 517.024 339 519.786 339H524C524.529 339 525.049 339.059 525.554 339.174C526.884 339.477 527.969 340.284 528.652 341.348C529.716 342.031 530.523 343.116 530.826 344.446C530.941 344.951 531 345.471 531 346V350.286C531 353.047 528.761 355.286 526 355.286C523.239 355.286 521 353.047 521 350.286V349H519.786C517.024 349 514.786 346.761 514.786 344ZM404 366.714C406.761 366.714 409 368.953 409 371.714V380.286C409 383.047 406.761 385.286 404 385.286C401.239 385.286 399 383.047 399 380.286V371.714C399 368.953 401.239 366.714 404 366.714ZM526 366.714C528.761 366.714 531 368.953 531 371.714V380.286C531 383.047 528.761 385.286 526 385.286C523.239 385.286 521 383.047 521 380.286V371.714C521 368.953 523.239 366.714 526 366.714ZM404 396.714C406.761 396.714 409 398.953 409 401.714V410.286C409 413.047 406.761 415.286 404 415.286C401.239 415.286 399 413.047 399 410.286V401.714C399 398.953 401.239 396.714 404 396.714ZM526 396.714C528.761 396.714 531 398.953 531 401.714V410.286C531 413.047 528.761 415.286 526 415.286C523.239 415.286 521 413.047 521 410.286V401.714C521 398.953 523.239 396.714 526 396.714ZM404 426.714C406.761 426.714 409 428.953 409 431.714V440.286C409 443.047 406.761 445.286 404 445.286C401.239 445.286 399 443.047 399 440.286V431.714C399 428.953 401.239 426.714 404 426.714ZM526 426.714C528.761 426.714 531 428.953 531 431.714V440.286C531 443.047 528.761 445.286 526 445.286C523.239 445.286 521 443.047 521 440.286V431.714C521 428.953 523.239 426.714 526 426.714ZM404 456.714C406.761 456.714 409 458.953 409 461.714V463H410.214C412.976 463 415.214 465.239 415.214 468C415.214 470.761 412.976 473 410.214 473H406C405.471 473 404.951 472.941 404.446 472.826C403.116 472.523 402.031 471.716 401.348 470.652C400.284 469.969 399.477 468.884 399.174 467.554C399.059 467.049 399 466.529 399 466V461.714C399 458.953 401.239 456.714 404 456.714ZM526 456.714C528.761 456.714 531 458.953 531 461.714V466C531 466.529 530.941 467.049 530.826 467.554C530.523 468.884 529.716 469.969 528.652 470.652C527.969 471.716 526.884 472.523 525.554 472.826C525.049 472.941 524.529 473 524 473H519.786C517.024 473 514.786 470.761 514.786 468C514.786 465.239 517.024 463 519.786 463H521V461.714C521 458.953 523.239 456.714 526 456.714ZM426.286 468C426.286 465.239 428.524 463 431.286 463H439.714C442.476 463 444.714 465.239 444.714 468C444.714 470.761 442.476 473 439.714 473H431.286C428.524 473 426.286 470.761 426.286 468ZM455.786 468C455.786 465.239 458.024 463 460.786 463H469.214C471.976 463 474.214 465.239 474.214 468C474.214 470.761 471.976 473 469.214 473H460.786C458.024 473 455.786 470.761 455.786 468ZM485.286 468C485.286 465.239 487.524 463 490.286 463H498.714C501.476 463 503.714 465.239 503.714 468C503.714 470.761 501.476 473 498.714 473H490.286C487.524 473 485.286 470.761 485.286 468Z" fill="#05060F"/>
<path d="M318 231C318 225.477 322.477 221 328 221H448C453.523 221 458 225.477 458 231V357C458 362.523 453.523 367 448 367H328C322.477 367 318 362.523 318 357V231Z" fill="#15D6CF"/>
<path fill-rule="evenodd" clip-rule="evenodd" d="M313 231C313 222.716 319.716 216 328 216H448C456.284 216 463 222.716 463 231V357C463 365.284 456.284 372 448 372H328C319.716 372 313 365.284 313 357V231ZM328 226C325.239 226 323 228.239 323 231V357C323 359.761 325.239 362 328 362H448C450.761 362 453 359.761 453 357V231C453 228.239 450.761 226 448 226H328Z" fill="#05060F"/>
<path d="M392.766 304.922L388.004 417.007C387.839 420.883 392.646 422.789 395.169 419.849L429.609 379.711C430.426 378.759 431.633 378.236 432.884 378.293L483.584 380.588C487.504 380.766 489.387 375.833 486.352 373.339L399.424 301.932C396.824 299.797 392.909 301.555 392.766 304.922Z" fill="#FF3D9A"/>
<path fill-rule="evenodd" clip-rule="evenodd" d="M397.684 306.973L393.113 414.567L425.815 376.455C427.631 374.338 430.32 373.172 433.11 373.298L481.068 375.469L397.684 306.973ZM483.811 375.594L483.81 375.594C483.81 375.594 483.811 375.594 483.811 375.594ZM387.771 304.71C388.088 297.248 396.791 293.299 402.598 298.069L489.526 369.476C496.248 374.997 492.118 385.98 483.358 385.583L433.111 383.308L398.964 423.105C393.326 429.675 382.644 425.377 383.009 416.795L387.771 304.71Z" fill="#05060F"/>
</svg>
