<svg width="600" height="600" viewBox="0 0 600 600" fill="none" xmlns="http://www.w3.org/2000/svg">
<path fill-rule="evenodd" clip-rule="evenodd" d="M355.467 368.449C372.794 344.333 407.132 324.37 451 324.37C494.868 324.37 529.206 344.333 546.533 368.449C563.279 391.758 565.947 416.65 566 431.432C566.053 446.297 553.572 456 540.775 456H361.225C348.428 456 335.947 446.297 336 431.432C336.053 416.65 338.721 391.758 355.467 368.449Z" fill="white"/>
<path fill-rule="evenodd" clip-rule="evenodd" d="M451.001 313.304C480.125 313.304 503.735 289.731 503.735 260.652C503.735 231.573 480.125 208 451.001 208C421.877 208 398.267 231.573 398.267 260.652C398.267 289.731 421.877 313.304 451.001 313.304Z" fill="white"/>
<path fill-rule="evenodd" clip-rule="evenodd" d="M451 334.37C410.112 334.37 378.901 352.971 363.588 374.284C348.543 395.225 346.05 417.739 346 431.468C345.97 439.885 353.007 446 361.225 446H540.775C548.993 446 556.03 439.885 556 431.468C555.95 417.739 553.457 395.225 538.412 374.284C523.099 352.971 491.888 334.37 451 334.37ZM451.001 303.304C474.617 303.304 493.735 284.193 493.735 260.652C493.735 237.111 474.617 218 451.001 218C427.385 218 408.267 237.111 408.267 260.652C408.267 284.193 427.385 303.304 451.001 303.304ZM503.735 260.652C503.735 289.731 480.125 313.304 451.001 313.304C421.877 313.304 398.267 289.731 398.267 260.652C398.267 231.573 421.877 208 451.001 208C480.125 208 503.735 231.573 503.735 260.652ZM451 324.37C407.132 324.37 372.794 344.333 355.467 368.449C338.721 391.758 336.053 416.65 336 431.432C335.947 446.297 348.428 456 361.225 456H540.775C553.572 456 566.053 446.297 566 431.432C565.947 416.65 563.279 391.758 546.533 368.449C529.206 344.333 494.868 324.37 451 324.37Z" fill="#05060F"/>
<path fill-rule="evenodd" clip-rule="evenodd" d="M53.4671 368.449C70.7943 344.333 105.132 324.37 149 324.37C192.868 324.37 227.206 344.333 244.533 368.449C261.279 391.758 263.947 416.65 264 431.432C264.053 446.297 251.572 456 238.775 456H59.2253C46.4284 456 33.9466 446.297 34.0002 431.432C34.0534 416.65 36.7207 391.758 53.4671 368.449Z" fill="white"/>
<path fill-rule="evenodd" clip-rule="evenodd" d="M149.001 313.304C178.125 313.304 201.735 289.731 201.735 260.652C201.735 231.573 178.125 208 149.001 208C119.877 208 96.2673 231.573 96.2673 260.652C96.2673 289.731 119.877 313.304 149.001 313.304Z" fill="white"/>
<path fill-rule="evenodd" clip-rule="evenodd" d="M149 334.37C108.112 334.37 76.9011 352.971 61.5883 374.284C46.5431 395.225 44.0496 417.739 44.0001 431.468C43.9698 439.885 51.0074 446 59.2253 446H238.775C246.993 446 254.03 439.885 254 431.468C253.95 417.739 251.457 395.225 236.412 374.284C221.099 352.971 189.888 334.37 149 334.37ZM149.001 303.304C172.617 303.304 191.735 284.193 191.735 260.652C191.735 237.111 172.617 218 149.001 218C125.385 218 106.267 237.111 106.267 260.652C106.267 284.193 125.385 303.304 149.001 303.304ZM201.735 260.652C201.735 289.731 178.125 313.304 149.001 313.304C119.877 313.304 96.2673 289.731 96.2673 260.652C96.2673 231.573 119.877 208 149.001 208C178.125 208 201.735 231.573 201.735 260.652ZM149 324.37C105.132 324.37 70.7943 344.333 53.4671 368.449C36.7207 391.758 34.0534 416.65 34.0002 431.432C33.9466 446.297 46.4284 456 59.2253 456H238.775C251.572 456 264.053 446.297 264 431.432C263.947 416.65 261.279 391.758 244.533 368.449C227.206 344.333 192.868 324.37 149 324.37Z" fill="#05060F"/>
<path d="M294.627 42.8146C296.833 38.3743 303.167 38.3743 305.373 42.8146L323.391 79.0787C324.265 80.8371 325.944 82.0567 327.886 82.3443L367.943 88.2741C372.848 89.0002 374.805 95.0244 371.264 98.4948L342.342 126.837C340.94 128.211 340.299 130.185 340.626 132.121L347.364 172.05C348.189 176.939 343.065 180.662 338.67 178.366L302.778 159.619C301.037 158.71 298.962 158.71 297.222 159.619L261.33 178.366C256.935 180.662 251.811 176.939 252.636 172.05L259.374 132.121C259.701 130.185 259.06 128.211 257.657 126.837L228.736 98.4948C225.195 95.0244 227.152 89.0002 232.057 88.2741L272.114 82.3443C274.056 82.0567 275.735 80.8371 276.609 79.0787L294.627 42.8146Z" fill="#F8DB46"/>
<path fill-rule="evenodd" clip-rule="evenodd" d="M290.149 40.5898C294.194 32.4492 305.806 32.4492 309.851 40.5898L327.869 76.8539C328.015 77.147 328.294 77.3502 328.618 77.3982L368.675 83.328C377.667 84.6592 381.256 95.7035 374.763 102.066L345.842 130.408C345.608 130.637 345.502 130.966 345.556 131.289L352.295 171.218C353.807 180.181 344.412 187.007 336.355 182.798L300.463 164.051C300.173 163.899 299.827 163.899 299.537 164.051L263.645 182.798C255.588 187.007 246.193 180.181 247.705 171.218L254.444 131.289C254.499 130.966 254.392 130.637 254.158 130.408L225.237 102.066C218.744 95.7036 222.333 84.6592 231.325 83.328L271.382 77.3982C271.706 77.3502 271.985 77.147 272.131 76.8539L290.149 40.5898ZM300.896 45.0394C300.528 44.2994 299.472 44.2994 299.104 45.0394L281.087 81.3035C279.485 84.5272 276.407 86.7632 272.846 87.2904L232.789 93.2202C231.972 93.3412 231.646 94.3453 232.236 94.9237L261.157 123.266C263.728 125.785 264.904 129.403 264.305 132.953L257.566 172.882C257.428 173.697 258.282 174.317 259.015 173.935L294.907 155.187C298.098 153.52 301.902 153.52 305.093 155.187L340.985 173.935C341.718 174.317 342.572 173.697 342.434 172.882L335.695 132.953C335.096 129.403 336.272 125.785 338.843 123.266L367.764 94.9237C368.354 94.3453 368.028 93.3412 367.211 93.2202L327.154 87.2904C323.593 86.7632 320.515 84.5272 318.913 81.3035L300.896 45.0394Z" fill="#05060F"/>
<path fill-rule="evenodd" clip-rule="evenodd" d="M171.238 432.089C194.592 399.609 240.874 372.724 300 372.724C359.126 372.724 405.408 399.609 428.762 432.089C451.333 463.48 454.928 497.004 455 516.913C455.072 536.933 438.249 550 421.001 550H178.999C161.751 550 144.928 536.933 145 516.913C145.072 497.004 148.667 463.48 171.238 432.089Z" fill="#4B9BFA"/>
<path fill-rule="evenodd" clip-rule="evenodd" d="M300.002 357.82C339.256 357.82 371.078 326.073 371.078 286.91C371.078 247.748 339.256 216 300.002 216C260.747 216 228.926 247.748 228.926 286.91C228.926 326.073 260.747 357.82 300.002 357.82Z" fill="#4B9BFA"/>
<path fill-rule="evenodd" clip-rule="evenodd" d="M300 382.724C243.851 382.724 200.696 408.25 179.357 437.927C158.489 466.949 155.068 498.094 155 516.949C154.951 530.513 166.323 540 178.999 540H421.001C433.677 540 445.049 530.513 445 516.949C444.932 498.095 441.511 466.949 420.643 437.927C399.304 408.25 356.149 382.724 300 382.724ZM300.002 347.82C333.755 347.82 361.078 320.528 361.078 286.91C361.078 253.292 333.755 226 300.002 226C266.248 226 238.926 253.292 238.926 286.91C238.926 320.528 266.248 347.82 300.002 347.82ZM371.078 286.91C371.078 326.073 339.256 357.82 300.002 357.82C260.747 357.82 228.926 326.073 228.926 286.91C228.926 247.748 260.747 216 300.002 216C339.256 216 371.078 247.748 371.078 286.91ZM300 372.724C240.874 372.724 194.592 399.609 171.238 432.089C148.667 463.48 145.072 497.004 145 516.913C144.928 536.933 161.751 550 178.999 550H421.001C438.249 550 455.072 536.933 455 516.913C454.928 497.004 451.333 463.48 428.762 432.089C405.408 399.609 359.126 372.724 300 372.724Z" fill="#05060F"/>
</svg>
