<svg width="350" height="360" viewBox="0 0 350 360" fill="none" xmlns="http://www.w3.org/2000/svg">
<g clip-path="url(#clip0_3740_92608)">
<rect width="350" height="360" fill="white"/>
<line x1="-100.75" y1="-44.433" x2="519.324" y2="313.567" stroke="url(#paint0_linear_3740_92608)" stroke-dasharray="6 6"/>
<line x1="-158.008" y1="307.261" x2="462.066" y2="-50.7392" stroke="url(#paint1_linear_3740_92608)" stroke-dasharray="6 6"/>
<line x1="-185.75" y1="37.567" x2="434.324" y2="395.567" stroke="url(#paint2_linear_3740_92608)" stroke-dasharray="6 6"/>
<line x1="-129.492" y1="421.873" x2="490.582" y2="63.8731" stroke="url(#paint3_linear_3740_92608)" stroke-dasharray="6 6"/>
<line x1="118.5" y1="-2.18557e-08" x2="118.5" y2="360" stroke="url(#paint4_linear_3740_92608)" stroke-dasharray="6 6"/>
<line x1="230.5" y1="-2.18557e-08" x2="230.5" y2="360" stroke="url(#paint5_linear_3740_92608)" stroke-dasharray="6 6"/>
<g filter="url(#filter0_ddd_3740_92608)">
<path d="M165.527 118.456C171.194 115.181 178.177 115.181 183.843 118.456L223.226 141.215C228.885 144.486 232.371 150.526 232.371 157.062V202.938C232.371 209.474 228.885 215.514 223.226 218.785L183.843 241.544C178.177 244.819 171.194 244.819 165.527 241.544L126.145 218.785C120.486 215.514 117 209.474 117 202.938V157.062C117 150.526 120.486 144.486 126.145 141.215L165.527 118.456Z" fill="white"/>
<path d="M184.031 118.131C178.248 114.79 171.122 114.79 165.34 118.131L125.957 140.891C120.182 144.228 116.625 150.392 116.625 157.062V202.938C116.625 209.608 120.182 215.772 125.957 219.109L165.34 241.869C171.122 245.21 178.248 245.21 184.031 241.869L223.414 219.109C229.189 215.772 232.746 209.608 232.746 202.938V157.062C232.746 150.392 229.189 144.228 223.414 140.891L184.031 118.131Z" stroke="#05060F" stroke-opacity="0.05" stroke-width="0.75"/>
</g>
<path d="M143.147 190.221L154.801 164.609L154.417 164.054H138.622V159.059H161.332V163.67L149.508 190.221H143.147ZM138.622 169.048V159.059H143.531V169.048H138.622ZM176.217 191.032C173.77 191.032 171.664 190.549 169.9 189.581C168.164 188.613 166.826 187.333 165.887 185.739C164.976 184.117 164.521 182.353 164.521 180.446H170.369C170.369 181.527 170.611 182.481 171.095 183.306C171.607 184.131 172.304 184.786 173.187 185.27C174.069 185.725 175.093 185.953 176.26 185.953C177.484 185.953 178.537 185.696 179.419 185.184C180.301 184.672 180.97 183.975 181.425 183.092C181.909 182.21 182.151 181.2 182.151 180.062C182.151 178.952 181.909 177.956 181.425 177.073C180.97 176.163 180.301 175.451 179.419 174.939C178.565 174.398 177.526 174.128 176.303 174.128C175.278 174.128 174.311 174.327 173.4 174.726C172.489 175.124 171.778 175.651 171.266 176.305H165.673L167.253 159.059H185.31V164.224H169.9L172.034 162.56L171.009 173.317L169.558 172.89C170.383 171.951 171.394 171.168 172.589 170.542C173.784 169.916 175.292 169.603 177.114 169.603C179.419 169.603 181.383 170.073 183.005 171.012C184.627 171.951 185.865 173.203 186.719 174.768C187.572 176.305 187.999 177.984 187.999 179.806V180.36C187.999 182.21 187.544 183.946 186.633 185.568C185.723 187.19 184.385 188.514 182.621 189.538C180.885 190.534 178.75 191.032 176.217 191.032ZM190.335 190.221L197.891 177.842L197.763 178.824L190.634 167.042H197.08L201.733 175.195H202.373L206.77 167.042H212.831L206.087 178.781L206.215 177.927L214.197 190.221H207.752L202.245 181.47H201.605L196.397 190.221H190.335Z" fill="#05060F" fill-opacity="0.88"/>
<path d="M157.908 214V200.788H159.672V214H157.908ZM166.026 214L161.67 208.15H163.74L168.168 214H166.026ZM159.006 209.248V207.682H162.534C163.086 207.682 163.56 207.568 163.956 207.34C164.352 207.112 164.658 206.8 164.874 206.404C165.09 205.996 165.198 205.534 165.198 205.018C165.198 204.502 165.09 204.046 164.874 203.65C164.658 203.242 164.352 202.924 163.956 202.696C163.56 202.456 163.086 202.336 162.534 202.336H159.006V200.788H162.21C163.17 200.788 164.01 200.932 164.73 201.22C165.45 201.508 166.008 201.952 166.404 202.552C166.8 203.152 166.998 203.926 166.998 204.874V205.162C166.998 206.11 166.794 206.884 166.386 207.484C165.99 208.084 165.432 208.528 164.712 208.816C164.004 209.104 163.17 209.248 162.21 209.248H159.006ZM177.987 214.324C176.811 214.324 175.797 214.114 174.945 213.694C174.093 213.274 173.391 212.722 172.839 212.038C172.287 211.354 171.873 210.622 171.597 209.842C171.333 209.062 171.201 208.312 171.201 207.592V207.196C171.201 206.416 171.339 205.63 171.615 204.838C171.891 204.046 172.311 203.326 172.875 202.678C173.439 202.018 174.141 201.49 174.981 201.094C175.833 200.698 176.835 200.5 177.987 200.5C179.139 200.5 180.135 200.698 180.975 201.094C181.827 201.49 182.535 202.018 183.099 202.678C183.663 203.326 184.083 204.046 184.359 204.838C184.635 205.63 184.773 206.416 184.773 207.196V207.592C184.773 208.312 184.635 209.062 184.359 209.842C184.095 210.622 183.687 211.354 183.135 212.038C182.583 212.722 181.881 213.274 181.029 213.694C180.177 214.114 179.163 214.324 177.987 214.324ZM177.987 212.704C178.755 212.704 179.445 212.56 180.057 212.272C180.681 211.984 181.209 211.594 181.641 211.102C182.073 210.598 182.403 210.034 182.631 209.41C182.859 208.774 182.973 208.108 182.973 207.412C182.973 206.68 182.859 205.996 182.631 205.36C182.403 204.724 182.073 204.166 181.641 203.686C181.209 203.194 180.681 202.81 180.057 202.534C179.445 202.258 178.755 202.12 177.987 202.12C177.219 202.12 176.523 202.258 175.899 202.534C175.287 202.81 174.765 203.194 174.333 203.686C173.901 204.166 173.571 204.724 173.343 205.36C173.115 205.996 173.001 206.68 173.001 207.412C173.001 208.108 173.115 208.774 173.343 209.41C173.571 210.034 173.901 210.598 174.333 211.102C174.765 211.594 175.287 211.984 175.899 212.272C176.523 212.56 177.219 212.704 177.987 212.704ZM189.511 214V200.86H191.275V214H189.511Z" fill="#05060F" fill-opacity="0.32"/>
</g>
<defs>
<filter id="filter0_ddd_3740_92608" x="84.25" y="91.25" width="180.871" height="195.5" filterUnits="userSpaceOnUse" color-interpolation-filters="sRGB">
<feFlood flood-opacity="0" result="BackgroundImageFix"/>
<feColorMatrix in="SourceAlpha" type="matrix" values="0 0 0 0 0 0 0 0 0 0 0 0 0 0 0 0 0 0 127 0" result="hardAlpha"/>
<feOffset/>
<feGaussianBlur stdDeviation="12"/>
<feColorMatrix type="matrix" values="0 0 0 0 0 0 0 0 0 0.0734426 0 0 0 0 0.16 0 0 0 0.02 0"/>
<feBlend mode="normal" in2="BackgroundImageFix" result="effect1_dropShadow_3740_92608"/>
<feColorMatrix in="SourceAlpha" type="matrix" values="0 0 0 0 0 0 0 0 0 0 0 0 0 0 0 0 0 0 127 0" result="hardAlpha"/>
<feOffset dy="2"/>
<feColorMatrix type="matrix" values="0 0 0 0 0 0 0 0 0 0.0734426 0 0 0 0 0.16 0 0 0 0.02 0"/>
<feBlend mode="normal" in2="effect1_dropShadow_3740_92608" result="effect2_dropShadow_3740_92608"/>
<feColorMatrix in="SourceAlpha" type="matrix" values="0 0 0 0 0 0 0 0 0 0 0 0 0 0 0 0 0 0 127 0" result="hardAlpha"/>
<feOffset dy="10"/>
<feGaussianBlur stdDeviation="16"/>
<feColorMatrix type="matrix" values="0 0 0 0 0 0 0 0 0 0.0734426 0 0 0 0 0.16 0 0 0 0.01 0"/>
<feBlend mode="normal" in2="effect2_dropShadow_3740_92608" result="effect3_dropShadow_3740_92608"/>
<feBlend mode="normal" in="SourceGraphic" in2="effect3_dropShadow_3740_92608" result="shape"/>
</filter>
<linearGradient id="paint0_linear_3740_92608" x1="55.8551" y1="45.2933" x2="406.426" y2="250.5" gradientUnits="userSpaceOnUse">
<stop offset="0.05" stop-color="#F8F8F8"/>
<stop offset="0.15" stop-color="#E6E6E7"/>
<stop offset="0.85" stop-color="#E6E6E7"/>
<stop offset="0.95" stop-color="#F8F8F8"/>
</linearGradient>
<linearGradient id="paint1_linear_3740_92608" x1="-2.00001" y1="216.5" x2="351" y2="15.5" gradientUnits="userSpaceOnUse">
<stop offset="0.05" stop-color="#F8F8F8"/>
<stop offset="0.15" stop-color="#E6E6E7"/>
<stop offset="0.85" stop-color="#E6E6E7"/>
<stop offset="0.95" stop-color="#F8F8F8"/>
</linearGradient>
<linearGradient id="paint2_linear_3740_92608" x1="-29.1449" y1="127.293" x2="321.426" y2="332.5" gradientUnits="userSpaceOnUse">
<stop offset="0.05" stop-color="#F8F8F8"/>
<stop offset="0.15" stop-color="#E6E6E7"/>
<stop offset="0.85" stop-color="#E6E6E7"/>
<stop offset="0.95" stop-color="#F8F8F8"/>
</linearGradient>
<linearGradient id="paint3_linear_3740_92608" x1="26.5156" y1="331.112" x2="379.516" y2="130.112" gradientUnits="userSpaceOnUse">
<stop offset="0.05" stop-color="#F8F8F8"/>
<stop offset="0.15" stop-color="#E6E6E7"/>
<stop offset="0.85" stop-color="#E6E6E7"/>
<stop offset="0.95" stop-color="#F8F8F8"/>
</linearGradient>
<linearGradient id="paint4_linear_3740_92608" x1="117.5" y1="2.18557e-08" x2="117.5" y2="360" gradientUnits="userSpaceOnUse">
<stop offset="0.05" stop-color="#F8F8F8"/>
<stop offset="0.15" stop-color="#E6E6E7"/>
<stop offset="0.85" stop-color="#E6E6E7"/>
<stop offset="0.95" stop-color="#F8F8F8"/>
</linearGradient>
<linearGradient id="paint5_linear_3740_92608" x1="229.5" y1="2.18557e-08" x2="229.5" y2="360" gradientUnits="userSpaceOnUse">
<stop offset="0.05" stop-color="#F8F8F8"/>
<stop offset="0.15" stop-color="#E6E6E7"/>
<stop offset="0.85" stop-color="#E6E6E7"/>
<stop offset="0.95" stop-color="#F8F8F8"/>
</linearGradient>
<clipPath id="clip0_3740_92608">
<rect width="350" height="360" fill="white"/>
</clipPath>
</defs>
</svg>
