<svg width="66" height="64" viewBox="0 0 66 64" fill="none" xmlns="http://www.w3.org/2000/svg">
<path d="M65.3202 4.87988V17.3599H61.4802C58.3868 17.3599 55.9335 17.8399 54.1202 18.7999C52.3068 19.7599 50.9735 21.4132 50.1202 23.7599C49.2668 25.9999 48.8402 29.0399 48.8402 32.8799V44.7199L44.2002 35.7599C44.9468 35.2265 46.0135 34.7999 47.4002 34.4799C48.7868 34.0532 50.2268 33.8399 51.7202 33.8399C55.2402 33.8399 58.1735 34.9599 60.5202 37.1999C62.8668 39.3332 64.0402 42.3199 64.0402 46.1599C64.0402 49.7865 62.9202 52.8799 60.6802 55.4399C58.4402 57.8932 55.2402 59.1199 51.0802 59.1199C48.4135 59.1199 45.9068 58.5332 43.5602 57.3599C41.3202 56.0799 39.5068 53.9465 38.1202 50.9599C36.7335 47.8665 36.0402 43.6532 36.0402 38.3199V35.5999C36.0402 28.0265 37.0535 21.9999 39.0802 17.5199C41.2135 13.0399 44.2535 9.83988 48.2002 7.91988C52.1468 5.89322 56.9468 4.87988 62.6002 4.87988H65.3202ZM29.9602 4.87988V17.3599H26.1202C23.0268 17.3599 20.5735 17.8399 18.7602 18.7999C16.9468 19.7599 15.6135 21.4132 14.7602 23.7599C13.9068 25.9999 13.4802 29.0399 13.4802 32.8799V44.7199L8.84018 35.7599C9.58684 35.2265 10.6535 34.7999 12.0402 34.4799C13.4268 34.0532 14.8668 33.8399 16.3602 33.8399C19.8802 33.8399 22.8135 34.9599 25.1602 37.1999C27.5068 39.3332 28.6802 42.3199 28.6802 46.1599C28.6802 49.7865 27.5602 52.8799 25.3202 55.4399C23.0802 57.8932 19.8802 59.1199 15.7202 59.1199C13.0535 59.1199 10.5468 58.5332 8.20018 57.3599C5.96018 56.0799 4.14684 53.9465 2.76018 50.9599C1.37351 47.8665 0.680176 43.6532 0.680176 38.3199V35.5999C0.680176 28.0265 1.69351 21.9999 3.72018 17.5199C5.85351 13.0399 8.89351 9.83988 12.8402 7.91988C16.7868 5.89322 21.5868 4.87988 27.2402 4.87988H29.9602Z" fill="#c96442"/>
</svg>
