<svg width="60" height="60" viewBox="0 0 60 60" fill="none" xmlns="http://www.w3.org/2000/svg">
<path d="M8.23047 40.3334C8.23047 39.681 8.75935 39.1521 9.41176 39.1521H22.9966V53.9182H9.41176C8.75935 53.9182 8.23047 53.3893 8.23047 52.7369V40.3334Z" fill="#9282FA"/>
<path fill-rule="evenodd" clip-rule="evenodd" d="M7.73926 40.3334C7.73926 39.4092 8.4885 38.6599 9.41275 38.6599H23.4898V54.4104H9.41275C8.4885 54.4104 7.73926 53.6612 7.73926 52.7369V40.3334ZM9.41275 39.6443C9.03218 39.6443 8.72366 39.9528 8.72366 40.3334V52.7369C8.72366 53.1175 9.03218 53.426 9.41275 53.426H22.5053V39.6443H9.41275Z" fill="#05060F"/>
<path d="M22.9971 39.1521H37.7632V53.9182H22.9971V39.1521Z" fill="#F8DB46"/>
<path fill-rule="evenodd" clip-rule="evenodd" d="M22.5049 38.6599H38.2554V54.4104H22.5049V38.6599ZM23.4893 39.6443V53.426H37.271V39.6443H23.4893Z" fill="#05060F"/>
<path d="M37.7627 39.1521H51.3475C51.9999 39.1521 52.5288 39.681 52.5288 40.3334V52.7369C52.5288 53.3893 51.9999 53.9182 51.3475 53.9182H37.7627V39.1521Z" fill="#18CCC5"/>
<path fill-rule="evenodd" clip-rule="evenodd" d="M37.2715 38.6599H51.3485C52.2727 38.6599 53.022 39.4092 53.022 40.3334V52.7369C53.022 53.6612 52.2727 54.4104 51.3485 54.4104H37.2715V38.6599ZM38.2559 39.6443V53.426H51.3485C51.7291 53.426 52.0376 53.1175 52.0376 52.7369V40.3334C52.0376 39.9528 51.7291 39.6443 51.3485 39.6443H38.2559Z" fill="#05060F"/>
<path d="M11.9164 14.837H9.64551L13.1056 4.81396H15.8365L19.2917 14.837H17.0209L14.5102 7.10439H14.4319L11.9164 14.837ZM11.7744 10.8973H17.1383V12.5515H11.7744V10.8973Z" fill="#4B9BFA"/>
<path d="M24.5714 14.9789C24.0917 14.9789 23.6643 14.8957 23.2891 14.7293C22.9139 14.5597 22.617 14.3101 22.3984 13.9805C22.183 13.6477 22.0754 13.2334 22.0754 12.7375C22.0754 12.3198 22.1521 11.9691 22.3054 11.6852C22.4587 11.4014 22.6676 11.173 22.9318 11.0001C23.1961 10.8271 23.4963 10.6966 23.8323 10.6085C24.1717 10.5204 24.5273 10.4585 24.8993 10.4226C25.3365 10.3769 25.6888 10.3345 25.9564 10.2953C26.2239 10.2529 26.418 10.1909 26.5388 10.1093C26.6595 10.0278 26.7198 9.90705 26.7198 9.74718V9.71782C26.7198 9.40786 26.622 9.16805 26.4262 8.99839C26.2337 8.82873 25.9596 8.7439 25.604 8.7439C25.2288 8.7439 24.9303 8.8271 24.7084 8.99349C24.4865 9.15663 24.3397 9.36218 24.2679 9.61015L22.3397 9.45354C22.4375 8.99676 22.63 8.60197 22.9172 8.26917C23.2043 7.93311 23.5746 7.67536 24.0281 7.49591C24.4849 7.3132 25.0134 7.22184 25.6138 7.22184C26.0314 7.22184 26.4311 7.27078 26.8128 7.36867C27.1978 7.46655 27.5388 7.61826 27.8357 7.82381C28.1359 8.02936 28.3724 8.29364 28.5453 8.61665C28.7183 8.9364 28.8047 9.31977 28.8047 9.76676V14.837H26.8275V13.7946H26.7688C26.6481 14.0295 26.4866 14.2367 26.2843 14.4161C26.082 14.5923 25.8389 14.731 25.5551 14.8321C25.2712 14.93 24.9433 14.9789 24.5714 14.9789ZM25.1684 13.5401C25.4751 13.5401 25.7459 13.4797 25.9808 13.359C26.2158 13.235 26.4001 13.0686 26.5339 12.8598C26.6676 12.651 26.7345 12.4144 26.7345 12.1502V11.3524C26.6693 11.3948 26.5795 11.434 26.4654 11.4699C26.3544 11.5025 26.2288 11.5335 26.0885 11.5629C25.9482 11.589 25.8079 11.6134 25.6676 11.6363C25.5273 11.6559 25.4001 11.6738 25.2859 11.6901C25.0412 11.726 24.8275 11.7831 24.6448 11.8614C24.4621 11.9397 24.3201 12.0458 24.219 12.1795C24.1178 12.31 24.0673 12.4732 24.0673 12.6689C24.0673 12.9528 24.17 13.1698 24.3756 13.3198C24.5844 13.4667 24.8487 13.5401 25.1684 13.5401Z" fill="#4B9BFA"/>
<path fill-rule="evenodd" clip-rule="evenodd" d="M12.6307 15.8217H8.26367L12.4034 3.82983H16.5378L20.6717 15.8217H16.3049L15.5628 13.5362H13.3742L12.6307 15.8217ZM11.9158 14.8373H9.64492L13.105 4.81424H15.8359L19.2911 14.8373H17.0203L16.2782 12.5518H12.6593L11.9158 14.8373ZM13.1974 10.8976H15.7411L14.5096 7.10466H14.4313L13.1974 10.8976ZM22.8862 15.6281L22.8829 15.6266C22.3464 15.384 21.9028 15.0153 21.5775 14.525L21.5744 14.5203L21.5713 14.5156C21.2298 13.9878 21.0904 13.3758 21.0904 12.7377C21.0904 12.2035 21.1882 11.6814 21.4387 11.2176C21.6037 10.9122 21.8155 10.6445 22.0718 10.4198L21.1415 10.3442L21.3765 9.24755C21.5066 8.64053 21.7687 8.09356 22.1696 7.62822C22.5709 7.15917 23.078 6.81351 23.6637 6.5815C24.2588 6.34375 24.9151 6.23771 25.6132 6.23771C26.1081 6.23771 26.5899 6.29576 27.0559 6.41517C27.542 6.53888 27.9917 6.73559 28.3934 7.01334C28.8233 7.30822 29.1654 7.69106 29.4118 8.15078C29.6776 8.64325 29.7885 9.19445 29.7885 9.76703V15.8217H25.8425V15.7741C25.4434 15.907 25.0147 15.9636 24.5708 15.9636C23.9766 15.9636 23.4097 15.8602 22.8894 15.6295L22.8862 15.6281ZM25.8425 14.7099C26.0065 14.6276 26.1535 14.5298 26.2837 14.4164C26.3611 14.3477 26.4325 14.275 26.498 14.1982C26.6036 14.0743 26.6937 13.9399 26.7682 13.7948H26.8269V14.8373H28.8041V9.76703C28.8041 9.32004 28.7177 8.93667 28.5447 8.61693C28.3718 8.29392 28.1353 8.02964 27.8351 7.82409C27.5382 7.61854 27.1972 7.46682 26.8122 7.36894C26.4305 7.27106 26.0308 7.22212 25.6132 7.22212C25.0129 7.22212 24.4843 7.31347 24.0275 7.49619C23.574 7.67563 23.2037 7.93339 22.9166 8.26945C22.8532 8.34287 22.7945 8.4193 22.7404 8.49876C22.5491 8.77945 22.4154 9.0978 22.3391 9.45381L24.2673 9.61042C24.2776 9.57498 24.2894 9.5404 24.3027 9.50669C24.3826 9.30456 24.5176 9.13359 24.7078 8.99377C24.9297 8.82737 25.2282 8.74417 25.6034 8.74417C25.959 8.74417 26.2331 8.829 26.4256 8.99866C26.6214 9.16832 26.7193 9.40813 26.7193 9.71809V9.74746C26.7193 9.90733 26.6589 10.028 26.5382 10.1096C26.4175 10.1912 26.2233 10.2532 25.9558 10.2956C25.7224 10.3297 25.4245 10.3664 25.062 10.4055C25.0089 10.4112 24.9545 10.417 24.8987 10.4228C24.6565 10.4462 24.4213 10.4806 24.193 10.5261C24.1186 10.5409 24.045 10.5569 23.9721 10.5741C23.925 10.5852 23.8782 10.5967 23.8318 10.6088C23.4957 10.6969 23.1955 10.8274 22.9312 11.0003C22.667 11.1733 22.4582 11.4016 22.3048 11.6855C22.1515 11.9694 22.0748 12.3201 22.0748 12.7377C22.0748 13.2337 22.1825 13.648 22.3978 13.9808C22.6164 14.3104 22.9133 14.56 23.2885 14.7296C23.6637 14.896 24.0911 14.9792 24.5708 14.9792C24.9427 14.9792 25.2706 14.9303 25.5545 14.8324C25.6557 14.7963 25.7517 14.7555 25.8425 14.7099ZM24.2184 12.1798C24.1172 12.3103 24.0667 12.4734 24.0667 12.6692C24.0667 12.9531 24.1694 13.17 24.375 13.3201C24.5838 13.4669 24.8481 13.5404 25.1678 13.5404C25.42 13.5404 25.648 13.4995 25.8517 13.4179C25.8851 13.4045 25.9179 13.39 25.95 13.3744C25.9602 13.3695 25.9702 13.3644 25.9803 13.3593C26.2152 13.2353 26.3995 13.0689 26.5333 12.8601C26.5438 12.8437 26.5538 12.8272 26.5635 12.8104C26.6328 12.6906 26.681 12.562 26.708 12.4246C26.7133 12.3977 26.7178 12.3705 26.7215 12.3429C26.7233 12.3295 26.7249 12.3159 26.7263 12.3022C26.7314 12.2527 26.7339 12.2021 26.7339 12.1504V11.3527C26.6687 11.3951 26.579 11.4343 26.4648 11.4702C26.3538 11.5028 26.2282 11.5338 26.0879 11.5632C25.9751 11.5841 25.8623 11.6041 25.7495 11.6229C25.722 11.6275 25.6945 11.6321 25.667 11.6366C25.5267 11.6561 25.3995 11.6741 25.2853 11.6904C25.0406 11.7263 24.8269 11.7834 24.6442 11.8617C24.4615 11.94 24.3195 12.046 24.2184 12.1798Z" fill="#05060F"/>
<path d="M39.6328 6.27273C39.6328 4.96792 40.6906 3.91016 41.9954 3.91016H49.0831C50.3879 3.91016 51.4457 4.96792 51.4457 6.27273V13.3605C51.4457 14.6653 50.3879 15.723 49.0831 15.723H41.9954C40.6906 15.723 39.6328 14.6653 39.6328 13.3605V6.27273Z" fill="white"/>
<path fill-rule="evenodd" clip-rule="evenodd" d="M39.1396 6.27275C39.1396 4.6961 40.4178 3.41797 41.9944 3.41797H49.0821C50.6588 3.41797 51.9369 4.6961 51.9369 6.27275V13.3605C51.9369 14.9371 50.6588 16.2152 49.0821 16.2152H41.9944C40.4178 16.2152 39.1396 14.9371 39.1396 13.3605V6.27275ZM41.9944 4.40237C40.9614 4.40237 40.1241 5.23977 40.1241 6.27275V13.3605C40.1241 14.3934 40.9614 15.2308 41.9944 15.2308H49.0821C50.1151 15.2308 50.9525 14.3934 50.9525 13.3605V6.27275C50.9525 5.23977 50.1151 4.40237 49.0821 4.40237H41.9944Z" fill="#05060F"/>
<path fill-rule="evenodd" clip-rule="evenodd" d="M44.2837 12.6441L47.9059 10.1113C48.1164 9.97106 48.1164 9.66203 47.9059 9.52183L44.2837 6.98904C44.0481 6.83211 43.7324 7.00086 43.7324 7.28376V12.3493C43.7324 12.6322 44.0481 12.801 44.2837 12.6441Z" fill="#05060F"/>
<path d="M38.6484 27.4375C38.6484 23.9036 41.5132 21.0388 45.0471 21.0388C48.5809 21.0388 51.4457 23.9036 51.4457 27.4375C51.4457 30.9713 48.5809 33.8361 45.0471 33.8361C41.5132 33.8361 38.6484 30.9713 38.6484 27.4375Z" fill="#DB3232"/>
<path fill-rule="evenodd" clip-rule="evenodd" d="M38.1553 27.4375C38.1553 23.6318 41.2404 20.5466 45.0461 20.5466C48.8518 20.5466 51.937 23.6318 51.937 27.4375C51.937 31.2432 48.8518 34.3283 45.0461 34.3283C41.2404 34.3283 38.1553 31.2432 38.1553 27.4375ZM45.0461 21.531C41.7841 21.531 39.1397 24.1754 39.1397 27.4375C39.1397 30.6995 41.7841 33.3439 45.0461 33.3439C48.3082 33.3439 50.9526 30.6995 50.9526 27.4375C50.9526 24.1754 48.3082 21.531 45.0461 21.531Z" fill="#05060F"/>
<path fill-rule="evenodd" clip-rule="evenodd" d="M43.7935 30.2649L47.4157 27.7321C47.6262 27.5919 47.6262 27.2829 47.4157 27.1427L43.7935 24.6099C43.5578 24.453 43.2422 24.6217 43.2422 24.9046V29.9702C43.2422 30.2531 43.5578 30.4218 43.7935 30.2649Z" fill="white"/>
<path d="M8.23047 21.4324C8.23047 20.6712 8.8475 20.0542 9.60864 20.0542H31.7578C32.5189 20.0542 33.1359 20.6712 33.1359 21.4324C33.1359 22.1935 32.5189 22.8105 31.7578 22.8105H9.60864C8.84749 22.8105 8.23047 22.1935 8.23047 21.4324Z" fill="white"/>
<path fill-rule="evenodd" clip-rule="evenodd" d="M7.73926 21.4324C7.73926 20.3994 8.57665 19.562 9.60963 19.562H31.7588C32.7917 19.562 33.6291 20.3994 33.6291 21.4324C33.6291 22.4654 32.7917 23.3028 31.7588 23.3028H9.60963C8.57665 23.3028 7.73926 22.4654 7.73926 21.4324ZM9.60963 20.5464C9.12032 20.5464 8.72366 20.9431 8.72366 21.4324C8.72366 21.9217 9.12032 22.3183 9.60963 22.3183H31.7588C32.2481 22.3183 32.6447 21.9217 32.6447 21.4324C32.6447 20.9431 32.2481 20.5464 31.7588 20.5464H9.60963Z" fill="#05060F"/>
<path d="M8.23047 26.9451C8.23047 26.1839 8.8475 25.5669 9.60864 25.5669H31.7578C32.5189 25.5669 33.1359 26.1839 33.1359 26.9451C33.1359 27.7062 32.5189 28.3232 31.7578 28.3232H9.60864C8.84749 28.3232 8.23047 27.7062 8.23047 26.9451Z" fill="white"/>
<path fill-rule="evenodd" clip-rule="evenodd" d="M7.73926 26.9451C7.73926 25.9121 8.57665 25.0747 9.60963 25.0747H31.7588C32.7917 25.0747 33.6291 25.9121 33.6291 26.9451C33.6291 27.9781 32.7917 28.8154 31.7588 28.8154H9.60963C8.57665 28.8154 7.73926 27.9781 7.73926 26.9451ZM9.60963 26.0591C9.12032 26.0591 8.72366 26.4558 8.72366 26.9451C8.72366 27.4344 9.12032 27.831 9.60963 27.831H31.7588C32.2481 27.831 32.6447 27.4344 32.6447 26.9451C32.6447 26.4558 32.2481 26.0591 31.7588 26.0591H9.60963Z" fill="#05060F"/>
<path d="M8.23047 32.4578C8.23047 31.6966 8.8475 31.0796 9.60864 31.0796H31.7578C32.5189 31.0796 33.1359 31.6966 33.1359 32.4578C33.1359 33.2189 32.5189 33.8359 31.7578 33.8359H9.60864C8.84749 33.8359 8.23047 33.2189 8.23047 32.4578Z" fill="white"/>
<path fill-rule="evenodd" clip-rule="evenodd" d="M7.73926 32.4578C7.73926 31.4248 8.57665 30.5874 9.60963 30.5874H31.7588C32.7917 30.5874 33.6291 31.4248 33.6291 32.4578C33.6291 33.4908 32.7917 34.3281 31.7588 34.3281H9.60963C8.57665 34.3281 7.73926 33.4908 7.73926 32.4578ZM9.60963 31.5718C9.12032 31.5718 8.72366 31.9685 8.72366 32.4578C8.72366 32.9471 9.12032 33.3437 9.60963 33.3437H31.7588C32.2481 33.3437 32.6447 32.9471 32.6447 32.4578C32.6447 31.9685 32.2481 31.5718 31.7588 31.5718H9.60963Z" fill="#05060F"/>
</svg>
