<svg width="61" height="62" viewBox="0 0 61 62" fill="none" xmlns="http://www.w3.org/2000/svg">
<path d="M30.4131 31.4522C30.4131 26.7983 34.1857 23.0254 38.8396 23.0254C43.4934 23.0254 47.2662 26.7983 47.2662 31.4522C47.2662 36.1063 43.4934 39.8791 38.8396 39.8791C34.1857 39.8791 30.4131 36.1063 30.4131 31.4522Z" fill="#1ABCFE"/>
<path fill-rule="evenodd" clip-rule="evenodd" d="M38.8405 23.5177C34.4584 23.5177 30.9061 27.0702 30.9061 31.4524C30.9061 35.8347 34.4584 39.3871 38.8405 39.3871C43.2225 39.3871 46.7749 35.8347 46.7749 31.4524C46.7749 27.0703 43.2225 23.5177 38.8405 23.5177ZM29.9219 31.4524C29.9219 26.5267 33.9148 22.5334 38.8405 22.5334C43.766 22.5334 47.7591 26.5267 47.7591 31.4524C47.7591 36.3783 43.766 40.3714 38.8405 40.3714C33.9148 40.3714 29.9219 36.3783 29.9219 31.4524Z" fill="#05060F"/>
<path d="M13.5605 48.306C13.5605 43.6521 17.3332 39.8792 21.9871 39.8792H30.4136V48.306C30.4136 52.9601 26.641 56.7328 21.9871 56.7328C17.3332 56.7328 13.5605 52.9601 13.5605 48.306Z" fill="#0ACF83"/>
<path fill-rule="evenodd" clip-rule="evenodd" d="M21.988 40.3712C17.6059 40.3712 14.0535 43.9238 14.0535 48.3059C14.0535 52.6882 17.6059 56.2407 21.988 56.2407C26.3701 56.2407 29.9224 52.6882 29.9224 48.3059V40.3712H21.988ZM13.0693 48.3059C13.0693 43.3802 17.0623 39.387 21.988 39.387H30.9066V48.3059C30.9066 53.2318 26.9136 57.2249 21.988 57.2249C17.0623 57.2249 13.0693 53.2318 13.0693 48.3059Z" fill="#05060F"/>
<path d="M30.4131 6.17188V23.0255H38.8396C43.4935 23.0255 47.2662 19.2527 47.2662 14.5987C47.2662 9.94471 43.4935 6.17188 38.8396 6.17188H30.4131Z" fill="#FF7262"/>
<path fill-rule="evenodd" clip-rule="evenodd" d="M29.9219 5.67969H38.8405C43.7662 5.67969 47.7591 9.67285 47.7591 14.5986C47.7591 19.5244 43.7662 23.5176 38.8405 23.5176H29.9219V5.67969ZM30.9061 6.66391V22.5333H38.8405C43.2226 22.5333 46.7749 18.9809 46.7749 14.5986C46.7749 10.2164 43.2226 6.66391 38.8405 6.66391H30.9061Z" fill="#05060F"/>
<path d="M13.5605 14.5987C13.5605 19.2527 17.3332 23.0255 21.9871 23.0255H30.4136V6.17188H21.9871C17.3332 6.17188 13.5605 9.9447 13.5605 14.5987Z" fill="#F24E1E"/>
<path fill-rule="evenodd" clip-rule="evenodd" d="M13.0693 14.5986C13.0693 9.67284 17.0623 5.67969 21.988 5.67969H30.9066V23.5176H21.988C17.0623 23.5176 13.0693 19.5244 13.0693 14.5986ZM21.988 6.66391C17.6059 6.66391 14.0535 10.2164 14.0535 14.5986C14.0535 18.9809 17.6059 22.5333 21.988 22.5333H29.9224V6.66391H21.988Z" fill="#05060F"/>
<path d="M13.5605 31.4522C13.5605 36.1063 17.3332 39.8791 21.9871 39.8791H30.4136V23.0254H21.9871C17.3332 23.0254 13.5605 26.7983 13.5605 31.4522Z" fill="#A259FF"/>
<path fill-rule="evenodd" clip-rule="evenodd" d="M13.0693 31.4524C13.0693 26.5267 17.0623 22.5334 21.988 22.5334H30.9066V40.3714H21.988C17.0623 40.3714 13.0693 36.3783 13.0693 31.4524ZM21.988 23.5177C17.6059 23.5177 14.0535 27.0702 14.0535 31.4524C14.0535 35.8347 17.6059 39.3871 21.988 39.3871H29.9224V23.5177H21.988Z" fill="#05060F"/>
<path d="M27.6129 44.2666L50.8917 30.8836C51.359 30.615 51.924 31.0246 51.8156 31.5534L46.4055 57.945C46.293 58.4938 45.5732 58.6302 45.2685 58.1604L39.5259 49.3074C39.3294 49.0044 39.0317 48.7813 38.686 48.6781L27.7455 45.4109C27.2187 45.2536 27.1361 44.5407 27.6129 44.2666Z" fill="white"/>
<path fill-rule="evenodd" clip-rule="evenodd" d="M52.3068 31.6544C52.5016 30.7041 51.4851 29.9621 50.64 30.4479L27.3611 43.8309C26.5022 44.3247 26.65 45.6088 27.6004 45.8926L38.5409 49.1599C38.772 49.2289 38.9713 49.3781 39.103 49.5811L44.8455 58.4341C45.3957 59.2822 46.6941 59.0343 46.8967 58.046L52.3068 31.6544ZM51.141 31.3195C51.2305 31.2681 51.3439 31.3453 51.3219 31.4525L45.9118 57.8441C45.8894 57.9536 45.7483 57.9785 45.689 57.887L39.9464 49.034C39.685 48.631 39.2888 48.334 38.8286 48.1966L27.8881 44.9293C27.785 44.8985 27.7675 44.7569 27.8622 44.7025L51.141 31.3195Z" fill="#05060F"/>
</svg>
