<svg width="61" height="61" viewBox="0 0 61 61" fill="none" xmlns="http://www.w3.org/2000/svg">
<path d="M21.2961 27.4491L10.1436 34.5779C6.99009 36.5938 7.06673 41.2256 10.2853 43.136L21.795 49.9677C27.3711 53.2774 34.3061 53.292 39.8961 50.0057L51.5638 43.1463C54.8066 41.2399 54.8834 36.578 51.7052 34.5658L40.3988 27.4076C34.5629 23.7128 27.116 23.729 21.2961 27.4491Z" fill="#513DEB"/>
<path fill-rule="evenodd" clip-rule="evenodd" d="M9.60168 33.7311L20.7542 26.6022C26.9028 22.6719 34.7704 22.6548 40.9361 26.5584L52.2425 33.7166C56.0563 36.1312 55.9641 41.7256 52.0728 44.0132L40.4051 50.8726C34.4993 54.3445 27.1725 54.3291 21.2813 50.8324L9.7716 44.0007C5.90937 41.7083 5.8174 36.1501 9.60168 33.7311ZM10.1431 34.5782L21.2956 27.4493C27.1155 23.7292 34.5624 23.713 40.3983 27.4078L51.7047 34.566C54.8829 36.5782 54.8061 41.2402 51.5633 43.1465L39.8955 50.0059C34.3056 53.2922 27.3706 53.2776 21.7945 49.9679L10.2847 43.1362C7.06622 41.2258 6.98958 36.594 10.1431 34.5782Z" fill="#05060F"/>
<path d="M21.3047 18.9178L13.3024 24.0399C10.4043 25.8949 10.4748 30.1524 13.4327 31.9104L21.8037 36.8857C27.3843 40.2026 34.3283 40.2172 39.9228 36.9238L48.423 31.9199C51.4031 30.1655 51.4738 25.8804 48.553 24.0287L40.4257 18.8763C34.5854 15.1737 27.1289 15.1899 21.3047 18.9178Z" fill="#AFACFF"/>
<path fill-rule="evenodd" clip-rule="evenodd" d="M12.7599 23.1929L20.7622 18.0708C26.9154 14.1323 34.7932 14.1152 40.9635 18.0269L49.0908 23.1794C52.6465 25.4336 52.5605 30.6503 48.9325 32.786L40.4323 37.7899C34.5217 41.2694 27.1854 41.2539 21.2895 37.7497L12.9185 32.7744C9.31759 30.6341 9.23179 25.4512 12.7599 23.1929ZM13.3019 24.0397L21.3042 18.9176C27.1284 15.1897 34.5848 15.1735 40.4252 18.876L48.5525 24.0285C51.4733 25.8801 51.4026 30.1653 48.4224 31.9197L39.9223 36.9236C34.3278 40.2169 27.3837 40.2023 21.8032 36.8855L13.4322 31.9101C10.4743 30.1521 10.4038 25.8947 13.3019 24.0397Z" fill="#05060F"/>
<path d="M21.3099 10.035L15.7593 13.5927C13.1162 15.2868 13.1806 19.1704 15.8783 20.776L21.809 24.3059C27.3942 27.6301 34.3476 27.6447 39.9467 24.344L45.9845 20.7847C48.7026 19.1824 48.7671 15.2736 46.1033 13.5825L40.4498 9.99335C34.6049 6.28279 27.1386 6.29903 21.3099 10.035Z" fill="#EDE8FF"/>
<path fill-rule="evenodd" clip-rule="evenodd" d="M15.2173 12.746L20.7679 9.1883C26.9258 5.24129 34.814 5.22413 40.9891 9.14433L46.6426 12.7334C49.9406 14.8272 49.8608 19.6667 46.4955 21.6505L40.4577 25.2098C34.5422 28.697 27.1961 28.6815 21.2953 25.1695L15.3646 21.6397C12.0245 19.6517 11.9449 14.8435 15.2173 12.746ZM15.7598 13.5924L21.3104 10.0347C27.139 6.29876 34.6054 6.28252 40.4502 9.99308L46.1038 13.5822C48.7676 15.2733 48.7031 19.1822 45.985 20.7845L39.9472 24.3437C34.348 27.6444 27.3947 27.6298 21.8095 24.3056L15.8788 20.7758C13.181 19.1701 13.1167 15.2866 15.7598 13.5924Z" fill="#05060F"/>
</svg>
