<svg width="61" height="61" viewBox="0 0 61 61" fill="none" xmlns="http://www.w3.org/2000/svg">
<path d="M36.1017 13.8333C28.0948 15.712 25.7977 21.6757 25.9785 28.2548L28.5997 45.5606L28.1477 53.3097L43.9653 53.8504V50.3401C43.9653 49.1725 44.9564 48.2504 46.121 48.3346L50.5837 48.6571C52.4342 48.7908 54.0139 47.3358 54.0325 45.4806L54.0786 40.8789C54.0842 40.3276 54.5323 39.8763 55.082 39.8352C55.4435 39.8082 55.8399 39.7725 56.2245 39.7349C57.2304 39.6366 57.8728 38.6337 57.5449 37.6778C57.104 36.3926 56.4742 34.6238 55.8152 32.9936C55.6336 32.5443 55.55 32.0607 55.5671 31.5765C55.7383 26.7312 55.0026 23.1762 51.9194 19.2408C49.6597 16.3566 43.7845 12.0306 36.1017 13.8333Z" fill="white"/>
<path fill-rule="evenodd" clip-rule="evenodd" d="M51.5244 19.5508C49.3416 16.7648 43.6489 12.5789 36.2173 14.3226C32.3291 15.2349 29.8742 17.1229 28.3997 19.5429C26.9204 21.9709 26.3962 24.9874 26.4809 28.2102L29.1053 45.5374L28.6802 52.8248L43.4634 53.3302V50.34C43.4634 48.8806 44.7023 47.728 46.1579 47.8332L50.6206 48.1557C52.182 48.2685 53.5149 47.0409 53.5306 45.4755L53.5767 40.8738C53.585 40.0456 54.2512 39.3933 55.0453 39.3339C55.4016 39.3073 55.7939 39.272 56.1763 39.2346C56.858 39.168 57.2932 38.491 57.0701 37.8408C56.6305 36.5593 56.004 34.8001 55.3499 33.1819C55.1414 32.6662 55.0459 32.1123 55.0654 31.5587C55.2337 26.7974 54.5158 23.369 51.5244 19.5508ZM35.9876 13.3438C43.9216 11.4822 49.9792 15.9484 52.3158 18.9307C55.4909 22.9834 56.2443 26.665 56.0702 31.5942C56.0555 32.0091 56.1272 32.4223 56.282 32.8051C56.9458 34.4474 57.5789 36.2257 58.0211 37.5146C58.4539 38.7764 57.6042 40.1052 56.2741 40.2352C55.8873 40.273 55.4868 40.3091 55.1202 40.3365C54.8148 40.3593 54.5848 40.6096 54.582 40.8839L54.5359 45.4856C54.5144 47.6307 52.6878 49.3131 50.5482 49.1584L46.0855 48.8359C45.2121 48.7728 44.4687 49.4644 44.4687 50.34V54.3705L27.6166 53.7944L28.0955 45.5839L25.4776 28.2995L25.4767 28.2686C25.3848 24.9238 25.9201 21.6804 27.5412 19.0198C29.1718 16.3435 31.8688 14.3103 35.9876 13.3438Z" fill="#05060F"/>
<path d="M28.4213 50.8625L44.5815 52.338C45.6195 52.4328 46.4141 53.3032 46.4141 54.3455C46.4141 55.4588 45.5116 56.3613 44.3982 56.3613H28.2019C26.8693 56.3613 25.7891 55.281 25.7891 53.9484V53.2653C25.7891 51.8461 27.008 50.7334 28.4213 50.8625Z" fill="#4B9BFA"/>
<path fill-rule="evenodd" clip-rule="evenodd" d="M25.2871 53.2654C25.2871 51.5505 26.76 50.206 28.4677 50.3619L44.628 51.8374C45.9248 51.9558 46.9175 53.0433 46.9175 54.3455C46.9175 55.7364 45.7899 56.864 44.399 56.864H28.2026C26.5924 56.864 25.2871 55.5587 25.2871 53.9485V53.2654ZM28.3763 51.3631C27.2574 51.261 26.2925 52.1418 26.2925 53.2654V53.9485C26.2925 55.0034 27.1477 55.8586 28.2026 55.8586H44.399C45.2347 55.8586 45.9121 55.1812 45.9121 54.3455C45.9121 53.5631 45.3157 52.9098 44.5366 52.8386L28.3763 51.3631Z" fill="#05060F"/>
<path d="M25.5311 4.98659C33.538 6.86532 35.8351 12.829 35.6543 19.4082L33.0332 36.714L33.4851 44.463L17.6675 45.0037V41.4934C17.6675 40.3258 16.6764 39.4038 15.5118 39.4879L11.0491 39.8104C9.19864 39.9442 7.61887 38.4892 7.60028 36.6339L7.55417 32.0322C7.54865 31.4809 7.10056 31.0297 6.55078 30.9886C6.18934 30.9616 5.79291 30.9258 5.40831 30.8882C4.40244 30.79 3.75998 29.787 4.08794 28.8311C4.52885 27.5459 5.15865 25.7771 5.81761 24.1469C5.9992 23.6976 6.08283 23.2141 6.06573 22.7298C5.89455 17.8846 6.63018 14.3295 9.71346 10.3941C11.9731 7.50995 17.8483 3.18392 25.5311 4.98659Z" fill="#4B9BFA"/>
<path fill-rule="evenodd" clip-rule="evenodd" d="M10.1084 10.7041C12.2912 7.91812 17.9839 3.73221 25.4155 5.47594C29.3037 6.38825 31.7586 8.27622 33.2331 10.6962C34.7125 13.1243 35.2367 16.1408 35.1519 19.3636L32.5276 36.6907L32.9526 43.9781L18.1694 44.4835V41.4934C18.1694 40.0339 16.9305 38.8813 15.4749 38.9865L11.0122 39.309C9.45082 39.4219 8.1179 38.1942 8.10222 36.6288L8.05611 32.0272C8.04781 31.1989 7.38165 30.5466 6.58753 30.4873C6.23122 30.4606 5.83886 30.4253 5.45647 30.3879C4.77484 30.3213 4.33966 29.6443 4.5627 28.9942C5.00234 27.7127 5.62883 25.9535 6.28294 24.3352C6.49137 23.8195 6.58693 23.2657 6.56737 22.712C6.39916 17.9508 7.11699 14.5223 10.1084 10.7041ZM25.6452 4.49717C17.7112 2.63556 11.6536 7.10172 9.31705 10.0841C6.14194 14.1367 5.3885 17.8183 5.56264 22.7475C5.5773 23.1624 5.5056 23.5756 5.35085 23.9585C4.68704 25.6007 4.05392 27.3791 3.61175 28.6679C3.17886 29.9297 4.0286 31.2585 5.3587 31.3885C5.74551 31.4263 6.14603 31.4624 6.51259 31.4898C6.81803 31.5126 7.04806 31.7629 7.0508 32.0372L7.09691 36.6389C7.11841 38.784 8.94501 40.4664 11.0847 40.3118L15.5474 39.9893C16.4207 39.9261 17.1641 40.6177 17.1641 41.4934V45.5238L34.0162 44.9477L33.5373 36.7372L36.1552 19.4528L36.1561 19.4219C36.248 16.0771 35.7127 12.8337 34.0917 10.1731C32.461 7.49682 29.764 5.46359 25.6452 4.49717Z" fill="#05060F"/>
<path d="M33.2115 42.0156L17.0513 43.4911C16.0133 43.5858 15.2187 44.4562 15.2187 45.4985C15.2187 46.6118 16.1213 47.5144 17.2346 47.5144H33.4309C34.7635 47.5144 35.8438 46.4341 35.8438 45.1015V44.4184C35.8438 42.9992 34.6248 41.8865 33.2115 42.0156Z" fill="white"/>
<path fill-rule="evenodd" clip-rule="evenodd" d="M36.3457 44.4184C36.3457 42.7036 34.8729 41.3591 33.1651 41.515L17.0048 42.9905C15.708 43.1089 14.7153 44.1964 14.7153 45.4986C14.7153 46.8895 15.8429 48.0171 17.2338 48.0171H33.4302C35.0404 48.0171 36.3457 46.7117 36.3457 45.1015V44.4184ZM33.2565 42.5162C34.3754 42.414 35.3404 43.2949 35.3404 44.4184V45.1015C35.3404 46.1565 34.4851 47.0117 33.4302 47.0117H17.2338C16.3982 47.0117 15.7207 46.3343 15.7207 45.4986C15.7207 44.7162 16.3171 44.0628 17.0963 43.9917L33.2565 42.5162Z" fill="#05060F"/>
<path fill-rule="evenodd" clip-rule="evenodd" d="M30.7361 14.5191C24.7871 14.5221 18.7154 19.2464 18.7119 26.2259C18.7098 30.5009 21.3834 33.5808 23.4097 35.3142C24.6584 36.3825 25.6112 38.3548 25.6107 39.3782C25.6107 39.3782 25.6124 40.8108 25.6133 41.2275C25.6142 41.6442 25.9518 41.9812 26.3682 41.981C26.7845 41.9808 34.7926 41.9768 35.209 41.9766C35.6253 41.9764 35.9633 41.639 35.9646 41.2224C35.9659 40.8057 35.9685 39.3731 35.9685 39.3731C35.969 38.3496 37.0114 36.3737 38.2615 35.2903C40.2678 33.5516 42.878 30.4832 42.8801 26.2138C42.8838 18.8888 36.62 14.5162 30.7361 14.5191Z" fill="#F8DB46"/>
<path fill-rule="evenodd" clip-rule="evenodd" d="M24.6044 39.3957C24.6044 38.8468 24.3345 38.3042 24.0865 37.8295C23.7341 37.1551 23.2567 36.5081 22.7547 36.0787C20.6477 34.2762 17.7032 30.9418 17.7056 26.2266C17.7094 18.6027 24.3249 13.5172 30.7356 13.514C37.0422 13.5108 43.8885 18.2093 43.8844 26.2135C43.8821 30.9148 41.0106 34.2369 38.9185 36.05C38.4042 36.4957 37.9006 37.1581 37.526 37.8385C37.1335 38.5515 36.973 39.119 36.9729 39.3728L35.9675 39.3733C35.968 38.3498 37.0104 36.3739 38.2605 35.2905C40.2668 33.5518 42.877 30.4834 42.8791 26.214C42.8828 18.889 36.619 14.5164 30.7351 14.5193C24.7861 14.5223 18.7144 19.2466 18.7109 26.2261C18.7088 30.5011 21.3824 33.581 23.4087 35.3144C24.6574 36.3827 25.6128 38.3723 25.6123 39.3957L24.6044 39.3957ZM25.6123 39.3957L24.6044 39.3957C24.6051 40.0124 24.6057 40.6141 24.6069 41.2308C24.6089 42.201 25.3953 42.9871 26.3667 42.9866L35.2075 42.9821C36.1787 42.9817 36.9659 42.1949 36.9689 41.2247C36.9709 40.6082 36.9717 39.9893 36.9729 39.3728L35.9675 39.3733C35.9675 39.3733 35.9649 40.8059 35.9636 41.2226C35.9623 41.6392 35.6243 41.9766 35.208 41.9768L26.3672 41.9812C25.9508 41.9814 25.6131 41.6444 25.6123 41.2277C25.6114 40.811 25.6123 39.3957 25.6123 39.3957Z" fill="#05060F"/>
<path d="M26.0916 43.1367C25.8425 43.1369 25.6404 43.3648 25.6398 43.6462L25.638 44.4856C25.6335 46.369 26.9823 47.8981 28.6491 47.8973L32.9275 47.8952C34.5944 47.8943 35.9447 46.3638 35.9419 44.4804L35.941 43.641C35.9406 43.3596 35.7387 43.1319 35.4897 43.132L26.0916 43.1367Z" fill="#F95959"/>
<path fill-rule="evenodd" clip-rule="evenodd" d="M24.6344 43.6451C24.6359 42.9277 25.1767 42.1318 26.092 42.1313L35.4901 42.1266C36.4054 42.1262 36.9454 42.9214 36.9463 43.6388L36.9473 44.4779C36.9506 46.7973 35.2627 48.8993 32.927 48.9005L28.6486 48.9026C26.313 48.9038 24.6272 46.8037 24.6326 44.4845C24.6326 44.4844 24.6326 44.4843 24.6326 44.4843C24.6326 44.4842 24.6326 44.4842 24.6326 44.4842L24.6344 43.6451ZM25.638 44.4856C25.6335 46.3689 26.9823 47.8981 28.6491 47.8973L32.9275 47.8951C34.5944 47.8943 35.9446 46.3637 35.9419 44.4803L35.9409 43.641C35.9406 43.3596 35.7387 43.1319 35.4896 43.132L26.0915 43.1367C25.8425 43.1368 25.6403 43.3648 25.6397 43.6462L25.638 44.4856Z" fill="#05060F"/>
<path fill-rule="evenodd" clip-rule="evenodd" d="M31.7237 32.4299L29.6981 32.4308L29.6935 41.9604L31.7192 41.9595L31.7237 32.4299ZM28.5247 31.2596L28.5185 43.1332L32.8926 43.1306L32.8988 31.2571L28.5247 31.2596Z" fill="#05060F"/>
<path fill-rule="evenodd" clip-rule="evenodd" d="M31.8225 29.9005C31.8232 28.6293 32.8542 27.5983 34.1254 27.5977C35.3966 27.597 36.4266 28.627 36.426 29.8982L36.426 29.9799C36.4253 31.2962 35.3577 32.3638 34.0414 32.3645L31.8213 32.3656L31.8225 29.9005ZM32.9967 29.9L32.9961 31.1908L34.042 31.1903C34.7098 31.1899 35.2514 30.6483 35.2518 29.9805L35.2518 29.8988C35.2521 29.2761 34.7475 28.7716 34.1248 28.7719C33.5021 28.7722 32.997 29.2772 32.9967 29.9Z" fill="#05060F"/>
<path fill-rule="evenodd" clip-rule="evenodd" d="M29.7908 29.9005C29.7901 28.6293 28.7591 27.5983 27.4879 27.5977C26.2166 27.597 25.1866 28.627 25.1873 29.8982L25.1873 29.9799C25.188 31.2962 26.2556 32.3638 27.5719 32.3645L29.792 32.3656L29.7908 29.9005ZM28.6165 29.9L28.6172 31.1908L27.5713 31.1903C26.9035 31.1899 26.3619 30.6483 26.3615 29.9805L26.3615 29.8988C26.3612 29.2761 26.8657 28.7716 27.4885 28.7719C28.1112 28.7722 28.6162 29.2772 28.6165 29.9Z" fill="#05060F"/>
</svg>
