<svg width="61" height="62" viewBox="0 0 61 62" fill="none" xmlns="http://www.w3.org/2000/svg">
<g clip-path="url(#clip0_6149_469)">
<path fill-rule="evenodd" clip-rule="evenodd" d="M8.09545 21.9543C7.81783 21.9543 7.59277 22.1794 7.59277 22.457L7.59277 24.1661C7.59277 25.7763 8.89809 27.0816 10.5083 27.0816L16.4399 27.0816C16.7175 27.0816 16.9425 26.8566 16.9425 26.579C16.9425 26.3013 16.7175 26.0763 16.4399 26.0763L10.5083 26.0763C9.45333 26.0763 8.59812 25.2211 8.59812 24.1661L8.59812 22.457C8.59812 22.1794 8.37307 21.9543 8.09545 21.9543Z" fill="#87878C"/>
<path d="M8.09526 22.5577C9.64993 22.5577 10.9102 21.2974 10.9102 19.7427C10.9102 18.188 9.64993 16.9277 8.09526 16.9277C6.54058 16.9277 5.28027 18.188 5.28027 19.7427C5.28027 21.2974 6.54058 22.5577 8.09526 22.5577Z" fill="#F8DB46"/>
<path fill-rule="evenodd" clip-rule="evenodd" d="M5.78367 19.7427C5.78367 18.4657 6.81893 17.4304 8.09598 17.4304C9.37303 17.4304 10.4083 18.4657 10.4083 19.7427C10.4083 21.0198 9.37303 22.055 8.09598 22.055C6.81893 22.055 5.78367 21.0198 5.78367 19.7427ZM8.09598 16.425C6.26369 16.425 4.77832 17.9104 4.77832 19.7427C4.77832 21.575 6.26369 23.0604 8.09598 23.0604C9.92827 23.0604 11.4136 21.575 11.4136 19.7427C11.4136 17.9104 9.92827 16.425 8.09598 16.425Z" fill="#05060F"/>
<path fill-rule="evenodd" clip-rule="evenodd" d="M8.59812 37.8391C8.59812 36.7841 9.45333 35.9289 10.5083 35.9289L16.4399 35.9289C16.7175 35.9289 16.9425 35.7039 16.9425 35.4263C16.9425 35.1486 16.7175 34.9236 16.4399 34.9236L10.5083 34.9236C8.89809 34.9236 7.59277 36.2289 7.59277 37.8391L7.59277 39.5482C7.59277 39.8258 7.81783 40.0509 8.09545 40.0509C8.37307 40.0509 8.59812 39.8258 8.59812 39.5482L8.59812 37.8391Z" fill="#87878C"/>
<path d="M8.09526 45.0772C9.64993 45.0772 10.9102 43.8169 10.9102 42.2622C10.9102 40.7076 9.64993 39.4473 8.09526 39.4473C6.54058 39.4473 5.28027 40.7076 5.28027 42.2622C5.28027 43.8169 6.54058 45.0772 8.09526 45.0772Z" fill="#F8DB46"/>
<path fill-rule="evenodd" clip-rule="evenodd" d="M5.78367 42.2627C5.78367 40.9857 6.81893 39.9504 8.09598 39.9504C9.37303 39.9504 10.4083 40.9857 10.4083 42.2627C10.4083 43.5398 9.37303 44.575 8.09598 44.575C6.81893 44.575 5.78367 43.5398 5.78367 42.2627ZM8.09598 38.9451C6.26369 38.9451 4.77832 40.4304 4.77832 42.2627C4.77832 44.095 6.26369 45.5804 8.09598 45.5804C9.92827 45.5804 11.4136 44.095 11.4136 42.2627C11.4136 40.4304 9.92827 38.9451 8.09598 38.9451Z" fill="#05060F"/>
<path fill-rule="evenodd" clip-rule="evenodd" d="M53.0347 24.1658C53.0347 25.2207 52.1795 26.0759 51.1245 26.0759L45.193 26.0759C44.9153 26.0759 44.6903 26.301 44.6903 26.5786C44.6903 26.8562 44.9153 27.0813 45.193 27.0813L51.1245 27.0813C52.7347 27.0813 54.04 25.776 54.04 24.1658L54.04 22.4567C54.04 22.1791 53.815 21.954 53.5374 21.954C53.2597 21.954 53.0347 22.1791 53.0347 22.4567L53.0347 24.1658Z" fill="#87878C"/>
<path d="M53.5376 22.5575C51.9829 22.5575 50.7226 21.2971 50.7226 19.7425C50.7226 18.1878 51.9829 16.9275 53.5376 16.9275C55.0922 16.9275 56.3525 18.1878 56.3525 19.7425C56.3525 21.2971 55.0922 22.5575 53.5376 22.5575Z" fill="#F8DB46"/>
<path fill-rule="evenodd" clip-rule="evenodd" d="M55.8491 19.7425C55.8491 18.4654 54.8139 17.4302 53.5368 17.4302C52.2598 17.4302 51.2245 18.4654 51.2245 19.7425C51.2245 21.0195 52.2598 22.0548 53.5368 22.0548C54.8139 22.0548 55.8491 21.0195 55.8491 19.7425ZM53.5368 16.4248C55.3691 16.4248 56.8545 17.9102 56.8545 19.7425C56.8545 21.5748 55.3691 23.0601 53.5368 23.0601C51.7045 23.0601 50.2192 21.5748 50.2192 19.7425C50.2192 17.9102 51.7045 16.4248 53.5368 16.4248Z" fill="#05060F"/>
<path fill-rule="evenodd" clip-rule="evenodd" d="M21.7686 53.7232C21.7686 54.0008 21.9936 54.2258 22.2712 54.2258H23.9803C25.5905 54.2258 26.8958 52.9205 26.8958 51.3103V44.9766C26.8958 44.699 26.6708 44.4739 26.3932 44.4739C26.1155 44.4739 25.8905 44.699 25.8905 44.9766V51.3103C25.8905 52.3653 25.0353 53.2205 23.9803 53.2205H22.2712C21.9936 53.2205 21.7686 53.4455 21.7686 53.7232Z" fill="#87878C"/>
<path d="M16.7411 53.7234C16.7411 52.1687 18.0014 50.9084 19.5561 50.9084C21.1108 50.9084 22.3711 52.1687 22.3711 53.7234C22.3711 55.278 21.1108 56.5383 19.5561 56.5383C18.0014 56.5383 16.7411 55.278 16.7411 53.7234Z" fill="#F8DB46"/>
<path fill-rule="evenodd" clip-rule="evenodd" d="M19.5564 56.0357C20.8334 56.0357 21.8687 55.0004 21.8687 53.7234C21.8687 52.4463 20.8334 51.4111 19.5564 51.4111C18.2793 51.4111 17.2441 52.4463 17.2441 53.7234C17.2441 55.0004 18.2793 56.0357 19.5564 56.0357ZM22.874 53.7234C22.874 55.5556 21.3887 57.041 19.5564 57.041C17.7241 57.041 16.2387 55.5556 16.2387 53.7234C16.2387 51.8911 17.7241 50.4057 19.5564 50.4057C21.3887 50.4057 22.874 51.8911 22.874 53.7234Z" fill="#05060F"/>
<path fill-rule="evenodd" clip-rule="evenodd" d="M21.7686 8.08056C21.7686 7.80294 21.9936 7.57788 22.2712 7.57788H23.9803C25.5905 7.57788 26.8958 8.8832 26.8958 10.4934V16.9276C26.8958 17.2053 26.6708 17.4303 26.3932 17.4303C26.1155 17.4303 25.8905 17.2053 25.8905 16.9276V10.4934C25.8905 9.43844 25.0353 8.58323 23.9803 8.58323H22.2712C21.9936 8.58323 21.7686 8.35818 21.7686 8.08056Z" fill="#87878C"/>
<path d="M22.3712 8.28153C22.3712 9.8362 21.1109 11.0965 19.5562 11.0965C18.0015 11.0965 16.7412 9.8362 16.7412 8.28153C16.7412 6.72686 18.0015 5.46655 19.5562 5.46655C21.1109 5.46655 22.3712 6.72686 22.3712 8.28153Z" fill="#F8DB46"/>
<path fill-rule="evenodd" clip-rule="evenodd" d="M19.5559 5.96922C18.2789 5.96922 17.2436 7.00447 17.2436 8.28152C17.2436 9.55857 18.2789 10.5938 19.5559 10.5938C20.833 10.5938 21.8682 9.55857 21.8682 8.28152C21.8682 7.00447 20.833 5.96922 19.5559 5.96922ZM16.2383 8.28152C16.2383 6.44923 17.7236 4.96387 19.5559 4.96387C21.3882 4.96387 22.8736 6.44923 22.8736 8.28152C22.8736 10.1138 21.3882 11.5992 19.5559 11.5992C17.7236 11.5992 16.2383 10.1138 16.2383 8.28152Z" fill="#05060F"/>
<path fill-rule="evenodd" clip-rule="evenodd" d="M37.6528 8.58323C36.5979 8.58323 35.7427 9.43844 35.7427 10.4934V16.9276C35.7427 17.2053 35.5176 17.4303 35.24 17.4303C34.9624 17.4303 34.7373 17.2053 34.7373 16.9276V10.4934C34.7373 8.8832 36.0426 7.57788 37.6528 7.57788H39.3619C39.6395 7.57788 39.8646 7.80294 39.8646 8.08056C39.8646 8.35818 39.6395 8.58323 39.3619 8.58323H37.6528Z" fill="#87878C"/>
<path d="M44.8907 8.28153C44.8907 9.8362 43.6304 11.0965 42.0757 11.0965C40.5211 11.0965 39.2607 9.8362 39.2607 8.28153C39.2607 6.72686 40.5211 5.46655 42.0757 5.46655C43.6304 5.46655 44.8907 6.72686 44.8907 8.28153Z" fill="#F8DB46"/>
<path fill-rule="evenodd" clip-rule="evenodd" d="M42.0755 5.96922C40.7984 5.96922 39.7632 7.00447 39.7632 8.28152C39.7632 9.55857 40.7984 10.5938 42.0755 10.5938C43.3525 10.5938 44.3878 9.55857 44.3878 8.28152C44.3878 7.00447 43.3525 5.96922 42.0755 5.96922ZM38.7578 8.28152C38.7578 6.44923 40.2432 4.96387 42.0755 4.96387C43.9078 4.96387 45.3931 6.44923 45.3931 8.28152C45.3931 10.1138 43.9078 11.5992 42.0755 11.5992C40.2432 11.5992 38.7578 10.1138 38.7578 8.28152Z" fill="#05060F"/>
<path d="M15.2344 21.8537C15.2344 18.3001 18.1151 15.4194 21.6686 15.4194H39.966C43.5195 15.4194 46.4002 18.3001 46.4002 21.8537V40.1511C46.4002 43.7046 43.5195 46.5853 39.966 46.5853H21.6686C18.1151 46.5853 15.2344 43.7046 15.2344 40.1511V21.8537Z" fill="#9282FA"/>
<path fill-rule="evenodd" clip-rule="evenodd" d="M14.7305 21.8537C14.7305 18.0225 17.8362 14.9167 21.6674 14.9167H39.9648C43.7959 14.9167 46.9017 18.0225 46.9017 21.8537V40.151C46.9017 43.9822 43.7959 47.088 39.9648 47.088H21.6674C17.8362 47.088 14.7305 43.9822 14.7305 40.151V21.8537ZM21.6674 15.9221C18.3915 15.9221 15.7358 18.5778 15.7358 21.8537V40.151C15.7358 43.427 18.3915 46.0826 21.6674 46.0826H39.9648C43.2407 46.0826 45.8963 43.427 45.8963 40.151V21.8537C45.8963 18.5778 43.2407 15.9221 39.9648 15.9221H21.6674Z" fill="#05060F"/>
<path d="M37.6534 25.1716C37.6534 24.6164 37.2033 24.1663 36.648 24.1663C36.0928 24.1663 35.6427 24.6164 35.6427 25.1716V36.4315C35.6427 36.9868 36.0928 37.4369 36.648 37.4369C37.2033 37.4369 37.6534 36.9868 37.6534 36.4315V25.1716Z" fill="white"/>
<path fill-rule="evenodd" clip-rule="evenodd" d="M28.8453 24.9494C28.6797 24.5927 28.3214 24.3653 27.9282 24.3673C27.5349 24.3694 27.179 24.6005 27.0171 24.9589L23.376 33.0208L21.9659 36.0016C21.7285 36.5035 21.9429 37.1029 22.4448 37.3403C22.9467 37.5778 23.5461 37.3634 23.7835 36.8614L24.9251 34.4481H31.0497L32.2248 36.8703C32.4671 37.3699 33.0685 37.5784 33.5681 37.3361C34.0677 37.0937 34.2762 36.4923 34.0338 35.9927L32.5877 33.0117L28.8453 24.9494ZM30.1044 32.4374H25.8458L27.9459 27.7874L30.1044 32.4374Z" fill="white"/>
<path d="M45.5594 59.2117C45.3864 59.5114 45.0031 59.6141 44.7034 59.4411L36.2667 54.5701C35.967 54.3971 35.8643 54.0138 36.0373 53.7141L37.7871 50.6835C38.3423 49.7218 39.572 49.3923 40.5337 49.9475L46.5732 53.4344C47.5349 53.9896 47.8644 55.2194 47.3092 56.1811L45.5594 59.2117Z" fill="#4B9BFA"/>
<path fill-rule="evenodd" clip-rule="evenodd" d="M45.9934 59.4629C45.6815 60.003 44.9908 60.1881 44.4507 59.8762L36.014 55.0053C35.4738 54.6935 35.2888 54.0028 35.6006 53.4626L37.3504 50.432C38.0444 49.2299 39.5816 48.818 40.7837 49.512L46.8232 52.9989C48.0253 53.693 48.4372 55.2301 47.7431 56.4322L45.9934 59.4629ZM44.9533 59.0056C45.0127 59.0398 45.0885 59.0195 45.1227 58.9602L46.8725 55.9296C47.2889 55.2083 47.0418 54.286 46.3205 53.8696L40.281 50.3827C39.5597 49.9663 38.6375 50.2134 38.221 50.9347L36.4713 53.9653C36.437 54.0246 36.4574 54.1004 36.5167 54.1347L44.9533 59.0056Z" fill="#05060F"/>
<path fill-rule="evenodd" clip-rule="evenodd" d="M47.7716 53.5143L55.4202 47.9229C55.8811 47.586 56.1414 47.0397 56.1129 46.4695L55.3449 31.1567L41.7148 38.1336C41.1948 38.3997 40.8485 38.9148 40.7983 39.4967L39.9746 49.0367C39.9393 49.4465 40.1443 49.8397 40.5005 50.0453L46.6166 53.5765C46.98 53.7863 47.4329 53.7619 47.7716 53.5143ZM49.908 40.5662C48.8073 39.9307 47.3998 40.3078 46.7643 41.4085C46.1289 42.5092 46.506 43.9167 47.6067 44.5522C48.7074 45.1877 50.1148 44.8106 50.7503 43.7099C51.3858 42.6092 51.0087 41.2017 49.908 40.5662Z" fill="white"/>
<path fill-rule="evenodd" clip-rule="evenodd" d="M55.5971 30.7217C55.7448 30.807 55.8392 30.9614 55.8477 31.1318L56.6156 46.4446C56.6527 47.1838 56.3152 47.8921 55.7176 48.3289L48.069 53.9203C47.5696 54.2854 46.9018 54.3214 46.366 54.0121L40.2498 50.4809C39.7246 50.1777 39.4224 49.5979 39.4746 48.9937L40.2982 39.4537C40.3633 38.6992 40.8123 38.0314 41.4864 37.6864L55.1166 30.7095C55.2685 30.6318 55.4494 30.6364 55.5971 30.7217ZM54.0589 32.3803L41.9445 38.5813C41.5788 38.7685 41.3352 39.1308 41.2998 39.5402L40.4762 49.0801C40.4576 49.2955 40.5653 49.5022 40.7525 49.6102L46.8687 53.1414C47.0597 53.2517 47.2977 53.2388 47.4757 53.1087L55.1243 47.5173C55.4485 47.2803 55.6317 46.896 55.6115 46.4949L54.929 32.8841L50.5759 40.4238C51.5884 41.2837 51.8742 42.7701 51.1864 43.9614C50.4121 45.3026 48.6972 45.7621 47.3561 44.9878C46.0149 44.2135 45.5554 42.4986 46.3297 41.1574C47.0189 39.9638 48.4532 39.4685 49.7059 39.92L54.0589 32.3803ZM49.6574 41.0018C48.7971 40.5051 47.6971 40.7998 47.2004 41.6601C46.7037 42.5204 46.9985 43.6204 47.8587 44.1171C48.719 44.6138 49.8191 44.319 50.3157 43.4588C50.8124 42.5985 50.5177 41.4984 49.6574 41.0018Z" fill="#05060F"/>
</g>
<defs>
<clipPath id="clip0_6149_469">
<rect width="60.321" height="60.321" fill="white" transform="translate(0.65625 0.842041)"/>
</clipPath>
</defs>
</svg>
